M48
METRIC,LZ,000.000
;FILE_FORMAT=3:3
;TYPE=PLATED
;Layer: PTH_Through
;EasyEDA v6.5.39, 2024-01-03 13:03:29
;bec576337b18403e98965192822aaada,83f36b9c27a349adb8e694642aa6770b,10
;Gerber Generator version 0.2
;Holesize 1 = 0.310 mm
T01C0.310
;Holesize 2 = 0.762 mm
T02C0.762
;Holesize 3 = 0.813 mm
T03C0.813
;Holesize 4 = 0.889 mm
T04C0.889
;Holesize 5 = 0.900 mm
T05C0.900
;Holesize 6 = 0.915 mm
T06C0.915
;Holesize 7 = 1.000 mm
T07C1.000
;Holesize 8 = 1.016 mm
T08C1.016
;Holesize 9 = 1.101 mm
T09C1.101
;Holesize 10 = 1.301 mm
T10C1.301
%
G05
G90
T01
X069723Y-037211
T02
X077978Y-022733
X077978Y-020193
X077978Y-017653
X077978Y-025273
X077978Y-027813
X077978Y-030353
X077978Y-032893
X077978Y-035433
X065278Y-035433
X065278Y-032893
X065278Y-030353
X065278Y-027813
X065278Y-025273
X065278Y-022733
X065278Y-020193
X065278Y-017653
X077978Y-053213
X077978Y-050673
X077978Y-048133
X077978Y-055753
X077978Y-058293
X077978Y-060833
X077978Y-063373
X077978Y-065913
X065278Y-065913
X065278Y-063373
X065278Y-060833
X065278Y-058293
X065278Y-055753
X065278Y-053213
X065278Y-050673
X065278Y-048133
T03
X032639Y-012573
X032639Y-014732
X032639Y-016891
T04
X031623Y-066040
X034163Y-066040
X036703Y-066040
X039243Y-066040
X041783Y-066040
X044323Y-066040
X046863Y-066040
X049403Y-066040
X051943Y-066040
X054483Y-066040
X031623Y-072009
X034163Y-072009
X036703Y-072009
X039243Y-072009
X041783Y-072009
X044323Y-072009
X046863Y-072009
X049403Y-072009
X051943Y-072009
X054483Y-072009
T05
X041021Y-008255
X051181Y-008255
X041021Y-014732
X051181Y-014732
T06
X033020Y-027813
X033020Y-030353
X084328Y-017653
X084328Y-020193
X084201Y-048133
X084201Y-050673
T07
X039243Y-027559
X039243Y-030099
X039243Y-032639
X039243Y-035179
X039243Y-037719
X039243Y-040259
X039243Y-042799
X039243Y-045339
X054610Y-045339
X054610Y-042799
X054610Y-040259
X054610Y-037719
X054610Y-035179
X054610Y-032639
X054610Y-030099
X054610Y-027559
X044323Y-045339
X046863Y-045339
X049403Y-045339
T08
X019177Y-016510
X021717Y-016510
X019177Y-019050
X021717Y-019050
X019177Y-021590
X021717Y-021590
X019177Y-024130
X021717Y-024130
X019177Y-026670
X021717Y-026670
X019177Y-029210
X021717Y-029210
X019177Y-031750
X021717Y-031750
X019177Y-034290
X021717Y-034290
X019177Y-036830
X021717Y-036830
X019177Y-039370
X021717Y-039370
X019177Y-041910
X021717Y-041910
X019177Y-044450
X021717Y-044450
X019177Y-046990
X021717Y-046990
X019177Y-049530
X021717Y-049530
X019177Y-052070
X021717Y-052070
X019177Y-054610
X021717Y-054610
X019177Y-057150
X021717Y-057150
X019177Y-059690
X021717Y-059690
X019177Y-062230
X021717Y-062230
X019177Y-064770
X021717Y-064770
T09
X041656Y-057150
X044196Y-057150
T10
X100203Y-019812
X100203Y-014732
X100203Y-031115
X100203Y-026035
X100076Y-053848
X100076Y-048768
X100203Y-065278
X100203Y-060198
X108458Y-042418
X108458Y-037338
M30
