G04 Layer: BottomLayer*
G04 EasyEDA v6.5.39, 2024-01-03 13:03:29*
G04 bec576337b18403e98965192822aaada,83f36b9c27a349adb8e694642aa6770b,10*
G04 Gerber Generator version 0.2*
G04 Scale: 100 percent, Rotated: No, Reflected: No *
G04 Dimensions in millimeters *
G04 leading zeros omitted , absolute positions ,4 integer and 5 decimal *
%FSLAX45Y45*%
%MOMM*%

%ADD10C,2.0000*%
%ADD11C,1.0000*%
%ADD12C,0.5000*%
%ADD13C,1.8796*%
%ADD14C,2.2000*%
%ADD15C,1.5748*%
%ADD16R,1.5748X1.5748*%
%ADD17R,1.5000X1.5000*%
%ADD18R,1.7000X1.5748*%
%ADD19C,1.7000*%
%ADD20R,1.6764X1.6764*%
%ADD21C,1.5240*%
%ADD22R,1.8796X1.8796*%
%ADD23C,0.6200*%
%ADD24C,0.0115*%

%LPD*%
G36*
X10416438Y-7518349D02*
G01*
X1280109Y-7493050D01*
X1276248Y-7492238D01*
X1272946Y-7490053D01*
X1270762Y-7486751D01*
X1270000Y-7482890D01*
X1270000Y-518159D01*
X1270762Y-514248D01*
X1272997Y-510997D01*
X1276248Y-508762D01*
X1280160Y-508000D01*
X10403890Y-508000D01*
X10407751Y-508762D01*
X10411053Y-510946D01*
X10413238Y-514248D01*
X10414050Y-518109D01*
X10426700Y-3935984D01*
X10427716Y-3937000D01*
X11133683Y-3937000D01*
X11137595Y-3937762D01*
X11140897Y-3939997D01*
X11325352Y-4124451D01*
X11327587Y-4127804D01*
X11328298Y-4131818D01*
X11315801Y-4758029D01*
X11314836Y-4762093D01*
X11312347Y-4765446D01*
X11115395Y-4937810D01*
X11112246Y-4939639D01*
X11108690Y-4940300D01*
X10414965Y-4940300D01*
X10414000Y-4941316D01*
X10426649Y-7508138D01*
X10425887Y-7512050D01*
X10423702Y-7515402D01*
X10420350Y-7517587D01*
G37*

%LPC*%
G36*
X5370118Y-7305548D02*
G01*
X5402580Y-7305548D01*
X5402580Y-7246620D01*
X5343652Y-7246620D01*
X5343652Y-7279081D01*
X5344363Y-7285380D01*
X5346293Y-7290866D01*
X5349341Y-7295743D01*
X5353456Y-7299858D01*
X5358333Y-7302906D01*
X5363819Y-7304836D01*
G37*
G36*
X5494020Y-7305548D02*
G01*
X5526481Y-7305548D01*
X5532780Y-7304836D01*
X5538266Y-7302906D01*
X5543143Y-7299858D01*
X5547258Y-7295743D01*
X5550306Y-7290866D01*
X5552236Y-7285380D01*
X5552948Y-7279081D01*
X5552948Y-7246620D01*
X5494020Y-7246620D01*
G37*
G36*
X4132579Y-7294778D02*
G01*
X4132579Y-7246620D01*
X4084421Y-7246620D01*
X4087672Y-7253224D01*
X4095292Y-7264603D01*
X4104335Y-7274864D01*
X4114596Y-7283907D01*
X4125976Y-7291527D01*
G37*
G36*
X4386580Y-7294778D02*
G01*
X4386580Y-7246620D01*
X4338421Y-7246620D01*
X4341672Y-7253224D01*
X4349292Y-7264603D01*
X4358335Y-7274864D01*
X4368596Y-7283907D01*
X4379976Y-7291527D01*
G37*
G36*
X3970020Y-7294778D02*
G01*
X3976624Y-7291527D01*
X3988003Y-7283907D01*
X3998264Y-7274864D01*
X4007307Y-7264603D01*
X4014927Y-7253224D01*
X4018178Y-7246620D01*
X3970020Y-7246620D01*
G37*
G36*
X4478020Y-7294778D02*
G01*
X4484624Y-7291527D01*
X4496003Y-7283907D01*
X4506264Y-7274864D01*
X4515307Y-7264603D01*
X4522927Y-7253224D01*
X4526178Y-7246620D01*
X4478020Y-7246620D01*
G37*
G36*
X3878579Y-7294778D02*
G01*
X3878579Y-7246620D01*
X3830421Y-7246620D01*
X3833672Y-7253224D01*
X3841292Y-7264603D01*
X3850335Y-7274864D01*
X3860596Y-7283907D01*
X3871976Y-7291527D01*
G37*
G36*
X4640580Y-7294778D02*
G01*
X4640580Y-7246620D01*
X4592421Y-7246620D01*
X4595672Y-7253224D01*
X4603292Y-7264603D01*
X4612335Y-7274864D01*
X4622596Y-7283907D01*
X4633976Y-7291527D01*
G37*
G36*
X3716020Y-7294778D02*
G01*
X3722624Y-7291527D01*
X3734003Y-7283907D01*
X3744264Y-7274864D01*
X3753307Y-7264603D01*
X3760927Y-7253224D01*
X3764178Y-7246620D01*
X3716020Y-7246620D01*
G37*
G36*
X4732020Y-7294778D02*
G01*
X4738624Y-7291527D01*
X4750003Y-7283907D01*
X4760264Y-7274864D01*
X4769307Y-7264603D01*
X4776927Y-7253224D01*
X4780178Y-7246620D01*
X4732020Y-7246620D01*
G37*
G36*
X4224020Y-7294778D02*
G01*
X4230624Y-7291527D01*
X4242003Y-7283907D01*
X4252264Y-7274864D01*
X4261307Y-7264603D01*
X4268927Y-7253224D01*
X4272178Y-7246620D01*
X4224020Y-7246620D01*
G37*
G36*
X3624579Y-7294778D02*
G01*
X3624579Y-7246620D01*
X3576421Y-7246620D01*
X3579672Y-7253224D01*
X3587292Y-7264603D01*
X3596335Y-7274864D01*
X3606596Y-7283907D01*
X3617976Y-7291527D01*
G37*
G36*
X4894580Y-7294778D02*
G01*
X4894580Y-7246620D01*
X4846421Y-7246620D01*
X4849672Y-7253224D01*
X4857292Y-7264603D01*
X4866335Y-7274864D01*
X4876596Y-7283907D01*
X4887976Y-7291527D01*
G37*
G36*
X3370579Y-7294778D02*
G01*
X3370579Y-7246620D01*
X3322421Y-7246620D01*
X3325672Y-7253224D01*
X3333292Y-7264603D01*
X3342335Y-7274864D01*
X3352596Y-7283907D01*
X3363976Y-7291527D01*
G37*
G36*
X5148580Y-7294778D02*
G01*
X5148580Y-7246620D01*
X5100421Y-7246620D01*
X5103672Y-7253224D01*
X5111292Y-7264603D01*
X5120335Y-7274864D01*
X5130596Y-7283907D01*
X5141976Y-7291527D01*
G37*
G36*
X3462020Y-7294778D02*
G01*
X3468624Y-7291527D01*
X3480003Y-7283907D01*
X3490264Y-7274864D01*
X3499307Y-7264603D01*
X3506927Y-7253224D01*
X3510178Y-7246620D01*
X3462020Y-7246620D01*
G37*
G36*
X3208020Y-7294778D02*
G01*
X3214624Y-7291527D01*
X3226003Y-7283907D01*
X3236264Y-7274864D01*
X3245307Y-7264603D01*
X3252927Y-7253224D01*
X3256178Y-7246620D01*
X3208020Y-7246620D01*
G37*
G36*
X4986020Y-7294778D02*
G01*
X4992624Y-7291527D01*
X5004003Y-7283907D01*
X5014264Y-7274864D01*
X5023307Y-7264603D01*
X5030927Y-7253224D01*
X5034178Y-7246620D01*
X4986020Y-7246620D01*
G37*
G36*
X5240020Y-7294778D02*
G01*
X5246624Y-7291527D01*
X5258003Y-7283907D01*
X5268264Y-7274864D01*
X5277307Y-7264603D01*
X5284927Y-7253224D01*
X5288178Y-7246620D01*
X5240020Y-7246620D01*
G37*
G36*
X3116580Y-7294778D02*
G01*
X3116580Y-7246620D01*
X3068421Y-7246620D01*
X3071672Y-7253224D01*
X3079292Y-7264603D01*
X3088335Y-7274864D01*
X3098596Y-7283907D01*
X3109976Y-7291527D01*
G37*
G36*
X3970020Y-7155180D02*
G01*
X4018178Y-7155180D01*
X4014927Y-7148575D01*
X4007307Y-7137196D01*
X3998264Y-7126935D01*
X3988003Y-7117892D01*
X3976624Y-7110272D01*
X3970020Y-7107021D01*
G37*
G36*
X4478020Y-7155180D02*
G01*
X4526178Y-7155180D01*
X4522927Y-7148575D01*
X4515307Y-7137196D01*
X4506264Y-7126935D01*
X4496003Y-7117892D01*
X4484624Y-7110272D01*
X4478020Y-7107021D01*
G37*
G36*
X3830421Y-7155180D02*
G01*
X3878579Y-7155180D01*
X3878579Y-7107021D01*
X3871976Y-7110272D01*
X3860596Y-7117892D01*
X3850335Y-7126935D01*
X3841292Y-7137196D01*
X3833672Y-7148575D01*
G37*
G36*
X4592421Y-7155180D02*
G01*
X4640580Y-7155180D01*
X4640580Y-7107021D01*
X4633976Y-7110272D01*
X4622596Y-7117892D01*
X4612335Y-7126935D01*
X4603292Y-7137196D01*
X4595672Y-7148575D01*
G37*
G36*
X3716020Y-7155180D02*
G01*
X3764178Y-7155180D01*
X3760927Y-7148575D01*
X3753307Y-7137196D01*
X3744264Y-7126935D01*
X3734003Y-7117892D01*
X3722624Y-7110272D01*
X3716020Y-7107021D01*
G37*
G36*
X4732020Y-7155180D02*
G01*
X4780178Y-7155180D01*
X4776927Y-7148575D01*
X4769307Y-7137196D01*
X4760264Y-7126935D01*
X4750003Y-7117892D01*
X4738624Y-7110272D01*
X4732020Y-7107021D01*
G37*
G36*
X4084421Y-7155180D02*
G01*
X4132579Y-7155180D01*
X4132579Y-7107021D01*
X4125976Y-7110272D01*
X4114596Y-7117892D01*
X4104335Y-7126935D01*
X4095292Y-7137196D01*
X4087672Y-7148575D01*
G37*
G36*
X3576421Y-7155180D02*
G01*
X3624579Y-7155180D01*
X3624579Y-7107021D01*
X3617976Y-7110272D01*
X3606596Y-7117892D01*
X3596335Y-7126935D01*
X3587292Y-7137196D01*
X3579672Y-7148575D01*
G37*
G36*
X4846421Y-7155180D02*
G01*
X4894580Y-7155180D01*
X4894580Y-7107021D01*
X4887976Y-7110272D01*
X4876596Y-7117892D01*
X4866335Y-7126935D01*
X4857292Y-7137196D01*
X4849672Y-7148575D01*
G37*
G36*
X4338421Y-7155180D02*
G01*
X4386580Y-7155180D01*
X4386580Y-7107021D01*
X4379976Y-7110272D01*
X4368596Y-7117892D01*
X4358335Y-7126935D01*
X4349292Y-7137196D01*
X4341672Y-7148575D01*
G37*
G36*
X4224020Y-7155180D02*
G01*
X4272178Y-7155180D01*
X4268927Y-7148575D01*
X4261307Y-7137196D01*
X4252264Y-7126935D01*
X4242003Y-7117892D01*
X4230624Y-7110272D01*
X4224020Y-7107021D01*
G37*
G36*
X3462020Y-7155180D02*
G01*
X3510178Y-7155180D01*
X3506927Y-7148575D01*
X3499307Y-7137196D01*
X3490264Y-7126935D01*
X3480003Y-7117892D01*
X3468624Y-7110272D01*
X3462020Y-7107021D01*
G37*
G36*
X4986020Y-7155180D02*
G01*
X5034178Y-7155180D01*
X5030927Y-7148575D01*
X5023307Y-7137196D01*
X5014264Y-7126935D01*
X5004003Y-7117892D01*
X4992624Y-7110272D01*
X4986020Y-7107021D01*
G37*
G36*
X5240020Y-7155180D02*
G01*
X5288178Y-7155180D01*
X5284927Y-7148575D01*
X5277307Y-7137196D01*
X5268264Y-7126935D01*
X5258003Y-7117892D01*
X5246624Y-7110272D01*
X5240020Y-7107021D01*
G37*
G36*
X3208020Y-7155180D02*
G01*
X3256178Y-7155180D01*
X3252927Y-7148575D01*
X3245307Y-7137196D01*
X3236264Y-7126935D01*
X3226003Y-7117892D01*
X3214624Y-7110272D01*
X3208020Y-7107021D01*
G37*
G36*
X5100421Y-7155180D02*
G01*
X5148580Y-7155180D01*
X5148580Y-7107021D01*
X5141976Y-7110272D01*
X5130596Y-7117892D01*
X5120335Y-7126935D01*
X5111292Y-7137196D01*
X5103672Y-7148575D01*
G37*
G36*
X3068421Y-7155180D02*
G01*
X3116580Y-7155180D01*
X3116580Y-7107021D01*
X3109976Y-7110272D01*
X3098596Y-7117892D01*
X3088335Y-7126935D01*
X3079292Y-7137196D01*
X3071672Y-7148575D01*
G37*
G36*
X3322421Y-7155180D02*
G01*
X3370579Y-7155180D01*
X3370579Y-7107021D01*
X3363976Y-7110272D01*
X3352596Y-7117892D01*
X3342335Y-7126935D01*
X3333292Y-7137196D01*
X3325672Y-7148575D01*
G37*
G36*
X5494020Y-7155180D02*
G01*
X5552948Y-7155180D01*
X5552948Y-7122718D01*
X5552236Y-7116419D01*
X5550306Y-7110933D01*
X5547258Y-7106056D01*
X5543143Y-7101941D01*
X5538266Y-7098893D01*
X5532780Y-7096963D01*
X5526481Y-7096252D01*
X5494020Y-7096252D01*
G37*
G36*
X5343652Y-7155180D02*
G01*
X5402580Y-7155180D01*
X5402580Y-7096252D01*
X5370118Y-7096252D01*
X5363819Y-7096963D01*
X5358333Y-7098893D01*
X5353456Y-7101941D01*
X5349341Y-7106056D01*
X5346293Y-7110933D01*
X5344363Y-7116419D01*
X5343652Y-7122718D01*
G37*
G36*
X4686300Y-6708648D02*
G01*
X4699965Y-6707733D01*
X4713376Y-6705041D01*
X4726330Y-6700672D01*
X4738624Y-6694627D01*
X4750003Y-6687007D01*
X4760264Y-6677964D01*
X4769307Y-6667703D01*
X4776927Y-6656324D01*
X4782972Y-6644030D01*
X4787341Y-6631076D01*
X4790033Y-6617665D01*
X4790948Y-6604000D01*
X4790033Y-6590334D01*
X4787341Y-6576923D01*
X4782972Y-6563969D01*
X4776927Y-6551676D01*
X4769307Y-6540296D01*
X4760264Y-6530035D01*
X4750003Y-6520992D01*
X4738624Y-6513372D01*
X4726330Y-6507327D01*
X4713376Y-6502958D01*
X4699965Y-6500266D01*
X4686300Y-6499352D01*
X4672634Y-6500266D01*
X4659223Y-6502958D01*
X4646269Y-6507327D01*
X4633976Y-6513372D01*
X4622596Y-6520992D01*
X4612335Y-6530035D01*
X4603292Y-6540296D01*
X4595672Y-6551676D01*
X4589627Y-6563969D01*
X4585258Y-6576923D01*
X4582566Y-6590334D01*
X4581652Y-6604000D01*
X4582566Y-6617665D01*
X4585258Y-6631076D01*
X4589627Y-6644030D01*
X4595672Y-6656324D01*
X4603292Y-6667703D01*
X4612335Y-6677964D01*
X4622596Y-6687007D01*
X4633976Y-6694627D01*
X4646269Y-6700672D01*
X4659223Y-6705041D01*
X4672634Y-6707733D01*
G37*
G36*
X3924300Y-6708648D02*
G01*
X3937965Y-6707733D01*
X3951376Y-6705041D01*
X3964330Y-6700672D01*
X3976624Y-6694627D01*
X3988003Y-6687007D01*
X3998264Y-6677964D01*
X4007307Y-6667703D01*
X4014927Y-6656324D01*
X4020972Y-6644030D01*
X4025341Y-6631076D01*
X4028033Y-6617665D01*
X4028948Y-6604000D01*
X4028033Y-6590334D01*
X4025341Y-6576923D01*
X4020972Y-6563969D01*
X4014927Y-6551676D01*
X4007307Y-6540296D01*
X3998264Y-6530035D01*
X3988003Y-6520992D01*
X3976624Y-6513372D01*
X3964330Y-6507327D01*
X3951376Y-6502958D01*
X3937965Y-6500266D01*
X3924300Y-6499352D01*
X3910634Y-6500266D01*
X3897223Y-6502958D01*
X3884269Y-6507327D01*
X3871976Y-6513372D01*
X3860596Y-6520992D01*
X3850335Y-6530035D01*
X3841292Y-6540296D01*
X3833672Y-6551676D01*
X3827627Y-6563969D01*
X3823258Y-6576923D01*
X3820566Y-6590334D01*
X3819651Y-6604000D01*
X3820566Y-6617665D01*
X3823258Y-6631076D01*
X3827627Y-6644030D01*
X3833672Y-6656324D01*
X3841292Y-6667703D01*
X3850335Y-6677964D01*
X3860596Y-6687007D01*
X3871976Y-6694627D01*
X3884269Y-6700672D01*
X3897223Y-6705041D01*
X3910634Y-6707733D01*
G37*
G36*
X4432300Y-6708648D02*
G01*
X4445965Y-6707733D01*
X4459376Y-6705041D01*
X4472330Y-6700672D01*
X4484624Y-6694627D01*
X4496003Y-6687007D01*
X4506264Y-6677964D01*
X4515307Y-6667703D01*
X4522927Y-6656324D01*
X4528972Y-6644030D01*
X4533341Y-6631076D01*
X4536033Y-6617665D01*
X4536948Y-6604000D01*
X4536033Y-6590334D01*
X4533341Y-6576923D01*
X4528972Y-6563969D01*
X4522927Y-6551676D01*
X4515307Y-6540296D01*
X4506264Y-6530035D01*
X4496003Y-6520992D01*
X4484624Y-6513372D01*
X4472330Y-6507327D01*
X4459376Y-6502958D01*
X4445965Y-6500266D01*
X4432300Y-6499352D01*
X4418634Y-6500266D01*
X4405223Y-6502958D01*
X4392269Y-6507327D01*
X4379976Y-6513372D01*
X4368596Y-6520992D01*
X4358335Y-6530035D01*
X4349292Y-6540296D01*
X4341672Y-6551676D01*
X4335627Y-6563969D01*
X4331258Y-6576923D01*
X4328566Y-6590334D01*
X4327652Y-6604000D01*
X4328566Y-6617665D01*
X4331258Y-6631076D01*
X4335627Y-6644030D01*
X4341672Y-6656324D01*
X4349292Y-6667703D01*
X4358335Y-6677964D01*
X4368596Y-6687007D01*
X4379976Y-6694627D01*
X4392269Y-6700672D01*
X4405223Y-6705041D01*
X4418634Y-6707733D01*
G37*
G36*
X4940300Y-6708648D02*
G01*
X4953965Y-6707733D01*
X4967376Y-6705041D01*
X4980330Y-6700672D01*
X4992624Y-6694627D01*
X5004003Y-6687007D01*
X5014264Y-6677964D01*
X5023307Y-6667703D01*
X5030927Y-6656324D01*
X5036972Y-6644030D01*
X5041341Y-6631076D01*
X5044033Y-6617665D01*
X5044948Y-6604000D01*
X5044033Y-6590334D01*
X5041341Y-6576923D01*
X5036972Y-6563969D01*
X5030927Y-6551676D01*
X5023307Y-6540296D01*
X5014264Y-6530035D01*
X5004003Y-6520992D01*
X4992624Y-6513372D01*
X4980330Y-6507327D01*
X4967376Y-6502958D01*
X4953965Y-6500266D01*
X4940300Y-6499352D01*
X4926634Y-6500266D01*
X4913223Y-6502958D01*
X4900269Y-6507327D01*
X4887976Y-6513372D01*
X4876596Y-6520992D01*
X4866335Y-6530035D01*
X4857292Y-6540296D01*
X4849672Y-6551676D01*
X4843627Y-6563969D01*
X4839258Y-6576923D01*
X4836566Y-6590334D01*
X4835652Y-6604000D01*
X4836566Y-6617665D01*
X4839258Y-6631076D01*
X4843627Y-6644030D01*
X4849672Y-6656324D01*
X4857292Y-6667703D01*
X4866335Y-6677964D01*
X4876596Y-6687007D01*
X4887976Y-6694627D01*
X4900269Y-6700672D01*
X4913223Y-6705041D01*
X4926634Y-6707733D01*
G37*
G36*
X3416300Y-6708648D02*
G01*
X3429965Y-6707733D01*
X3443376Y-6705041D01*
X3456330Y-6700672D01*
X3468624Y-6694627D01*
X3480003Y-6687007D01*
X3490264Y-6677964D01*
X3499307Y-6667703D01*
X3506927Y-6656324D01*
X3512972Y-6644030D01*
X3517341Y-6631076D01*
X3520033Y-6617665D01*
X3520948Y-6604000D01*
X3520033Y-6590334D01*
X3517341Y-6576923D01*
X3512972Y-6563969D01*
X3506927Y-6551676D01*
X3499307Y-6540296D01*
X3490264Y-6530035D01*
X3480003Y-6520992D01*
X3468624Y-6513372D01*
X3456330Y-6507327D01*
X3443376Y-6502958D01*
X3429965Y-6500266D01*
X3416300Y-6499352D01*
X3402634Y-6500266D01*
X3389223Y-6502958D01*
X3376269Y-6507327D01*
X3363976Y-6513372D01*
X3352596Y-6520992D01*
X3342335Y-6530035D01*
X3333292Y-6540296D01*
X3325672Y-6551676D01*
X3319627Y-6563969D01*
X3315258Y-6576923D01*
X3312566Y-6590334D01*
X3311651Y-6604000D01*
X3312566Y-6617665D01*
X3315258Y-6631076D01*
X3319627Y-6644030D01*
X3325672Y-6656324D01*
X3333292Y-6667703D01*
X3342335Y-6677964D01*
X3352596Y-6687007D01*
X3363976Y-6694627D01*
X3376269Y-6700672D01*
X3389223Y-6705041D01*
X3402634Y-6707733D01*
G37*
G36*
X4178300Y-6708648D02*
G01*
X4191965Y-6707733D01*
X4205376Y-6705041D01*
X4218330Y-6700672D01*
X4230624Y-6694627D01*
X4242003Y-6687007D01*
X4252264Y-6677964D01*
X4261307Y-6667703D01*
X4268927Y-6656324D01*
X4274972Y-6644030D01*
X4279341Y-6631076D01*
X4282033Y-6617665D01*
X4282948Y-6604000D01*
X4282033Y-6590334D01*
X4279341Y-6576923D01*
X4274972Y-6563969D01*
X4268927Y-6551676D01*
X4261307Y-6540296D01*
X4252264Y-6530035D01*
X4242003Y-6520992D01*
X4230624Y-6513372D01*
X4218330Y-6507327D01*
X4205376Y-6502958D01*
X4191965Y-6500266D01*
X4178300Y-6499352D01*
X4164634Y-6500266D01*
X4151223Y-6502958D01*
X4138269Y-6507327D01*
X4125976Y-6513372D01*
X4114596Y-6520992D01*
X4104335Y-6530035D01*
X4095292Y-6540296D01*
X4087672Y-6551676D01*
X4081627Y-6563969D01*
X4077258Y-6576923D01*
X4074566Y-6590334D01*
X4073651Y-6604000D01*
X4074566Y-6617665D01*
X4077258Y-6631076D01*
X4081627Y-6644030D01*
X4087672Y-6656324D01*
X4095292Y-6667703D01*
X4104335Y-6677964D01*
X4114596Y-6687007D01*
X4125976Y-6694627D01*
X4138269Y-6700672D01*
X4151223Y-6705041D01*
X4164634Y-6707733D01*
G37*
G36*
X5194300Y-6708648D02*
G01*
X5207965Y-6707733D01*
X5221376Y-6705041D01*
X5234330Y-6700672D01*
X5246624Y-6694627D01*
X5258003Y-6687007D01*
X5268264Y-6677964D01*
X5277307Y-6667703D01*
X5284927Y-6656324D01*
X5290972Y-6644030D01*
X5295341Y-6631076D01*
X5298033Y-6617665D01*
X5298948Y-6604000D01*
X5298033Y-6590334D01*
X5295341Y-6576923D01*
X5290972Y-6563969D01*
X5284927Y-6551676D01*
X5277307Y-6540296D01*
X5268264Y-6530035D01*
X5258003Y-6520992D01*
X5246624Y-6513372D01*
X5234330Y-6507327D01*
X5221376Y-6502958D01*
X5207965Y-6500266D01*
X5194300Y-6499352D01*
X5180634Y-6500266D01*
X5167223Y-6502958D01*
X5154269Y-6507327D01*
X5141976Y-6513372D01*
X5130596Y-6520992D01*
X5120335Y-6530035D01*
X5111292Y-6540296D01*
X5103672Y-6551676D01*
X5097627Y-6563969D01*
X5093258Y-6576923D01*
X5090566Y-6590334D01*
X5089652Y-6604000D01*
X5090566Y-6617665D01*
X5093258Y-6631076D01*
X5097627Y-6644030D01*
X5103672Y-6656324D01*
X5111292Y-6667703D01*
X5120335Y-6677964D01*
X5130596Y-6687007D01*
X5141976Y-6694627D01*
X5154269Y-6700672D01*
X5167223Y-6705041D01*
X5180634Y-6707733D01*
G37*
G36*
X3670300Y-6708648D02*
G01*
X3683965Y-6707733D01*
X3697376Y-6705041D01*
X3710330Y-6700672D01*
X3722624Y-6694627D01*
X3734003Y-6687007D01*
X3744264Y-6677964D01*
X3753307Y-6667703D01*
X3760927Y-6656324D01*
X3766972Y-6644030D01*
X3771341Y-6631076D01*
X3774033Y-6617665D01*
X3774948Y-6604000D01*
X3774033Y-6590334D01*
X3771341Y-6576923D01*
X3766972Y-6563969D01*
X3760927Y-6551676D01*
X3753307Y-6540296D01*
X3744264Y-6530035D01*
X3734003Y-6520992D01*
X3722624Y-6513372D01*
X3710330Y-6507327D01*
X3697376Y-6502958D01*
X3683965Y-6500266D01*
X3670300Y-6499352D01*
X3656634Y-6500266D01*
X3643223Y-6502958D01*
X3630269Y-6507327D01*
X3617976Y-6513372D01*
X3606596Y-6520992D01*
X3596335Y-6530035D01*
X3587292Y-6540296D01*
X3579672Y-6551676D01*
X3573627Y-6563969D01*
X3569258Y-6576923D01*
X3566566Y-6590334D01*
X3565651Y-6604000D01*
X3566566Y-6617665D01*
X3569258Y-6631076D01*
X3573627Y-6644030D01*
X3579672Y-6656324D01*
X3587292Y-6667703D01*
X3596335Y-6677964D01*
X3606596Y-6687007D01*
X3617976Y-6694627D01*
X3630269Y-6700672D01*
X3643223Y-6705041D01*
X3656634Y-6707733D01*
G37*
G36*
X3162300Y-6708648D02*
G01*
X3175965Y-6707733D01*
X3189376Y-6705041D01*
X3202330Y-6700672D01*
X3214624Y-6694627D01*
X3226003Y-6687007D01*
X3236264Y-6677964D01*
X3245307Y-6667703D01*
X3252927Y-6656324D01*
X3258972Y-6644030D01*
X3263341Y-6631076D01*
X3266033Y-6617665D01*
X3266948Y-6604000D01*
X3266033Y-6590334D01*
X3263341Y-6576923D01*
X3258972Y-6563969D01*
X3252927Y-6551676D01*
X3245307Y-6540296D01*
X3236264Y-6530035D01*
X3226003Y-6520992D01*
X3214624Y-6513372D01*
X3202330Y-6507327D01*
X3189376Y-6502958D01*
X3175965Y-6500266D01*
X3162300Y-6499352D01*
X3148634Y-6500266D01*
X3135223Y-6502958D01*
X3122269Y-6507327D01*
X3109976Y-6513372D01*
X3098596Y-6520992D01*
X3088335Y-6530035D01*
X3079292Y-6540296D01*
X3071672Y-6551676D01*
X3065627Y-6563969D01*
X3061258Y-6576923D01*
X3058566Y-6590334D01*
X3057652Y-6604000D01*
X3058566Y-6617665D01*
X3061258Y-6631076D01*
X3065627Y-6644030D01*
X3071672Y-6656324D01*
X3079292Y-6667703D01*
X3088335Y-6677964D01*
X3098596Y-6687007D01*
X3109976Y-6694627D01*
X3122269Y-6700672D01*
X3135223Y-6705041D01*
X3148634Y-6707733D01*
G37*
G36*
X5370118Y-6708648D02*
G01*
X5526481Y-6708648D01*
X5532780Y-6707936D01*
X5538266Y-6706006D01*
X5543143Y-6702958D01*
X5547258Y-6698843D01*
X5550306Y-6693966D01*
X5552236Y-6688480D01*
X5552948Y-6682181D01*
X5552948Y-6525818D01*
X5552236Y-6519519D01*
X5550306Y-6514033D01*
X5547258Y-6509156D01*
X5543143Y-6505041D01*
X5538266Y-6501993D01*
X5532780Y-6500063D01*
X5526481Y-6499352D01*
X5370118Y-6499352D01*
X5363819Y-6500063D01*
X5358333Y-6501993D01*
X5353456Y-6505041D01*
X5349341Y-6509156D01*
X5346293Y-6514033D01*
X5344363Y-6519519D01*
X5343652Y-6525818D01*
X5343652Y-6682181D01*
X5344363Y-6688480D01*
X5346293Y-6693966D01*
X5349341Y-6698843D01*
X5353456Y-6702958D01*
X5358333Y-6706006D01*
X5363819Y-6707936D01*
G37*
G36*
X6524396Y-6693306D02*
G01*
X6538010Y-6692849D01*
X6551472Y-6690614D01*
X6564477Y-6686550D01*
X6576872Y-6680809D01*
X6588353Y-6673494D01*
X6598767Y-6664706D01*
X6607911Y-6654546D01*
X6615633Y-6643319D01*
X6621780Y-6631178D01*
X6626250Y-6618274D01*
X6628993Y-6604914D01*
X6629908Y-6591300D01*
X6628993Y-6577685D01*
X6627418Y-6570116D01*
X6627317Y-6566763D01*
X6628282Y-6563614D01*
X6630212Y-6560870D01*
X6881164Y-6309969D01*
X6884314Y-6306515D01*
X6887006Y-6303010D01*
X6889394Y-6299250D01*
X6891426Y-6295288D01*
X6893153Y-6291224D01*
X6894474Y-6286957D01*
X6895439Y-6282639D01*
X6895998Y-6278219D01*
X6896201Y-6273596D01*
X6896201Y-3861003D01*
X6895998Y-3856380D01*
X6895439Y-3851960D01*
X6894474Y-3847642D01*
X6893153Y-3843375D01*
X6891426Y-3839311D01*
X6889394Y-3835349D01*
X6887006Y-3831590D01*
X6884314Y-3828084D01*
X6881164Y-3824630D01*
X6630212Y-3573729D01*
X6628282Y-3570986D01*
X6627317Y-3567836D01*
X6627418Y-3564483D01*
X6628993Y-3556914D01*
X6629908Y-3543300D01*
X6628993Y-3529685D01*
X6626250Y-3516325D01*
X6621780Y-3503422D01*
X6615633Y-3491280D01*
X6607911Y-3480054D01*
X6598767Y-3469894D01*
X6588353Y-3461105D01*
X6576872Y-3453790D01*
X6564477Y-3448050D01*
X6551472Y-3443986D01*
X6538010Y-3441750D01*
X6524396Y-3441293D01*
X6510832Y-3442614D01*
X6497574Y-3445814D01*
X6484823Y-3450691D01*
X6472885Y-3457244D01*
X6461912Y-3465322D01*
X6452108Y-3474821D01*
X6443624Y-3485540D01*
X6436664Y-3497275D01*
X6431381Y-3509822D01*
X6427774Y-3522979D01*
X6425946Y-3536492D01*
X6425946Y-3550107D01*
X6427774Y-3563620D01*
X6431381Y-3576777D01*
X6436664Y-3589324D01*
X6443624Y-3601059D01*
X6452108Y-3611778D01*
X6461912Y-3621278D01*
X6472885Y-3629355D01*
X6484823Y-3635908D01*
X6497574Y-3640785D01*
X6510832Y-3643985D01*
X6524396Y-3645306D01*
X6538010Y-3644849D01*
X6549440Y-3642969D01*
X6552641Y-3642918D01*
X6555689Y-3643884D01*
X6558280Y-3645763D01*
X6791401Y-3878935D01*
X6793636Y-3882186D01*
X6794398Y-3886098D01*
X6794398Y-6248501D01*
X6793636Y-6252413D01*
X6791401Y-6255664D01*
X6558280Y-6488836D01*
X6555689Y-6490716D01*
X6552641Y-6491681D01*
X6549440Y-6491630D01*
X6538010Y-6489750D01*
X6524396Y-6489293D01*
X6510832Y-6490614D01*
X6497574Y-6493814D01*
X6484823Y-6498691D01*
X6472885Y-6505244D01*
X6461912Y-6513322D01*
X6452108Y-6522821D01*
X6443624Y-6533540D01*
X6442506Y-6535420D01*
X6440271Y-6538061D01*
X6437223Y-6539788D01*
X6433769Y-6540398D01*
X6413398Y-6540398D01*
X6409486Y-6539636D01*
X6406235Y-6537401D01*
X5337098Y-5468264D01*
X5334863Y-5465013D01*
X5334101Y-5461101D01*
X5334101Y-4457903D01*
X5333898Y-4453280D01*
X5333339Y-4448860D01*
X5332374Y-4444542D01*
X5331053Y-4440275D01*
X5329326Y-4436211D01*
X5327294Y-4432249D01*
X5324906Y-4428490D01*
X5322214Y-4424984D01*
X5319064Y-4421530D01*
X4887569Y-3990035D01*
X4884115Y-3986885D01*
X4880610Y-3984193D01*
X4876850Y-3981805D01*
X4872888Y-3979773D01*
X4868824Y-3978046D01*
X4864557Y-3976725D01*
X4860239Y-3975760D01*
X4855819Y-3975201D01*
X4851196Y-3974998D01*
X4035348Y-3974998D01*
X4031487Y-3974236D01*
X4028186Y-3972001D01*
X4026001Y-3968699D01*
X4025188Y-3964838D01*
X4025188Y-3951478D01*
X4024477Y-3945128D01*
X4022598Y-3939692D01*
X4019499Y-3934764D01*
X4015435Y-3930700D01*
X4010507Y-3927601D01*
X4005072Y-3925722D01*
X3998722Y-3925011D01*
X3849878Y-3925011D01*
X3843528Y-3925722D01*
X3838092Y-3927601D01*
X3833164Y-3930700D01*
X3829100Y-3934764D01*
X3826001Y-3939692D01*
X3824122Y-3945128D01*
X3823411Y-3951478D01*
X3823411Y-4100322D01*
X3824122Y-4106672D01*
X3826001Y-4112107D01*
X3829100Y-4117035D01*
X3833164Y-4121099D01*
X3838092Y-4124198D01*
X3843528Y-4126077D01*
X3849878Y-4126788D01*
X3998722Y-4126788D01*
X4005072Y-4126077D01*
X4010507Y-4124198D01*
X4015435Y-4121099D01*
X4019499Y-4117035D01*
X4022598Y-4112107D01*
X4024477Y-4106672D01*
X4025188Y-4100322D01*
X4025188Y-4086961D01*
X4026001Y-4083100D01*
X4028186Y-4079798D01*
X4031487Y-4077563D01*
X4035348Y-4076801D01*
X4826101Y-4076801D01*
X4830013Y-4077563D01*
X4833264Y-4079798D01*
X5229301Y-4475835D01*
X5231536Y-4479086D01*
X5232298Y-4482998D01*
X5232298Y-5486196D01*
X5232501Y-5490819D01*
X5233060Y-5495239D01*
X5234025Y-5499557D01*
X5235346Y-5503824D01*
X5237073Y-5507888D01*
X5239105Y-5511850D01*
X5241493Y-5515610D01*
X5244185Y-5519115D01*
X5247335Y-5522569D01*
X6351930Y-6627164D01*
X6355384Y-6630314D01*
X6358890Y-6633006D01*
X6362649Y-6635394D01*
X6366611Y-6637426D01*
X6370675Y-6639153D01*
X6374942Y-6640474D01*
X6379260Y-6641439D01*
X6383680Y-6641998D01*
X6388303Y-6642201D01*
X6433769Y-6642201D01*
X6437223Y-6642811D01*
X6440271Y-6644538D01*
X6442506Y-6647180D01*
X6443624Y-6649059D01*
X6452108Y-6659778D01*
X6461912Y-6669278D01*
X6472885Y-6677355D01*
X6484823Y-6683908D01*
X6497574Y-6688785D01*
X6510832Y-6691985D01*
G37*
G36*
X7753350Y-6683095D02*
G01*
X7753350Y-6635750D01*
X7706004Y-6635750D01*
X7706664Y-6637324D01*
X7713624Y-6649059D01*
X7722108Y-6659778D01*
X7731912Y-6669278D01*
X7742885Y-6677355D01*
G37*
G36*
X7842250Y-6682943D02*
G01*
X7846872Y-6680809D01*
X7858353Y-6673494D01*
X7868767Y-6664706D01*
X7877911Y-6654546D01*
X7885633Y-6643319D01*
X7889443Y-6635750D01*
X7842250Y-6635750D01*
G37*
G36*
X10020300Y-6663690D02*
G01*
X10036098Y-6662775D01*
X10051643Y-6660032D01*
X10066782Y-6655511D01*
X10081310Y-6649212D01*
X10094976Y-6641338D01*
X10107625Y-6631889D01*
X10119156Y-6621068D01*
X10129316Y-6608927D01*
X10138003Y-6595770D01*
X10145064Y-6581648D01*
X10150500Y-6566763D01*
X10154107Y-6551422D01*
X10155936Y-6535724D01*
X10155936Y-6519875D01*
X10154107Y-6504178D01*
X10150500Y-6488836D01*
X10145064Y-6473952D01*
X10138003Y-6459829D01*
X10129316Y-6446672D01*
X10119156Y-6434531D01*
X10107625Y-6423710D01*
X10094976Y-6414262D01*
X10081310Y-6406388D01*
X10066782Y-6400088D01*
X10051643Y-6395567D01*
X10036098Y-6392824D01*
X10020300Y-6391910D01*
X10004501Y-6392824D01*
X9988956Y-6395567D01*
X9973818Y-6400088D01*
X9959289Y-6406388D01*
X9945624Y-6414262D01*
X9932974Y-6423710D01*
X9921443Y-6434531D01*
X9911283Y-6446672D01*
X9902596Y-6459829D01*
X9895535Y-6473952D01*
X9890099Y-6488836D01*
X9886492Y-6504178D01*
X9884664Y-6519875D01*
X9884664Y-6535724D01*
X9886492Y-6551422D01*
X9890099Y-6566763D01*
X9895535Y-6581648D01*
X9902596Y-6595770D01*
X9911283Y-6608927D01*
X9921443Y-6621068D01*
X9932974Y-6631889D01*
X9945624Y-6641338D01*
X9959289Y-6649212D01*
X9973818Y-6655511D01*
X9988956Y-6660032D01*
X10004501Y-6662775D01*
G37*
G36*
X1824278Y-6596888D02*
G01*
X1864360Y-6596888D01*
X1864360Y-6530340D01*
X1797812Y-6530340D01*
X1797812Y-6570421D01*
X1798523Y-6576720D01*
X1800453Y-6582206D01*
X1803501Y-6587083D01*
X1807616Y-6591198D01*
X1812493Y-6594246D01*
X1817979Y-6596176D01*
G37*
G36*
X1971039Y-6596888D02*
G01*
X2011121Y-6596888D01*
X2017420Y-6596176D01*
X2022906Y-6594246D01*
X2027783Y-6591198D01*
X2031898Y-6587083D01*
X2037232Y-6578244D01*
X2040636Y-6575806D01*
X2044700Y-6574993D01*
X2048764Y-6575806D01*
X2052167Y-6578244D01*
X2057501Y-6587083D01*
X2061616Y-6591198D01*
X2066493Y-6594246D01*
X2071979Y-6596176D01*
X2078278Y-6596888D01*
X2265121Y-6596888D01*
X2271420Y-6596176D01*
X2276906Y-6594246D01*
X2281783Y-6591198D01*
X2285898Y-6587083D01*
X2288946Y-6582206D01*
X2290876Y-6576720D01*
X2291588Y-6570421D01*
X2291588Y-6383578D01*
X2290876Y-6377279D01*
X2288946Y-6371793D01*
X2285898Y-6366916D01*
X2281783Y-6362801D01*
X2272944Y-6357467D01*
X2270506Y-6354064D01*
X2269693Y-6350000D01*
X2270506Y-6345936D01*
X2272944Y-6342532D01*
X2281783Y-6337198D01*
X2285898Y-6333083D01*
X2288946Y-6328206D01*
X2290876Y-6322720D01*
X2291588Y-6316421D01*
X2291588Y-6129578D01*
X2290876Y-6123279D01*
X2288946Y-6117793D01*
X2285898Y-6112916D01*
X2281783Y-6108801D01*
X2272944Y-6103467D01*
X2270506Y-6100064D01*
X2269693Y-6096000D01*
X2270506Y-6091936D01*
X2272944Y-6088532D01*
X2281783Y-6083198D01*
X2285898Y-6079083D01*
X2288946Y-6074206D01*
X2290876Y-6068720D01*
X2291588Y-6062421D01*
X2291588Y-5875578D01*
X2290876Y-5869279D01*
X2288946Y-5863793D01*
X2285898Y-5858916D01*
X2281783Y-5854801D01*
X2272944Y-5849467D01*
X2270506Y-5846064D01*
X2269693Y-5842000D01*
X2270506Y-5837936D01*
X2272944Y-5834532D01*
X2281783Y-5829198D01*
X2285898Y-5825083D01*
X2288946Y-5820206D01*
X2290876Y-5814720D01*
X2291588Y-5808421D01*
X2291588Y-5768340D01*
X2225040Y-5768340D01*
X2225040Y-5838952D01*
X2224278Y-5842863D01*
X2222042Y-5846114D01*
X2218791Y-5848350D01*
X2214880Y-5849112D01*
X2128520Y-5849112D01*
X2124608Y-5848350D01*
X2121357Y-5846114D01*
X2119122Y-5842863D01*
X2118360Y-5838952D01*
X2118360Y-5768340D01*
X2047748Y-5768340D01*
X2043836Y-5767578D01*
X2040585Y-5765342D01*
X2038350Y-5762091D01*
X2037588Y-5758180D01*
X2037588Y-5671820D01*
X2038350Y-5667908D01*
X2040585Y-5664657D01*
X2043836Y-5662422D01*
X2047748Y-5661660D01*
X2118360Y-5661660D01*
X2118360Y-5591048D01*
X2119122Y-5587136D01*
X2121357Y-5583885D01*
X2124608Y-5581650D01*
X2128520Y-5580888D01*
X2214880Y-5580888D01*
X2218791Y-5581650D01*
X2222042Y-5583885D01*
X2224278Y-5587136D01*
X2225040Y-5591048D01*
X2225040Y-5661660D01*
X2291588Y-5661660D01*
X2291588Y-5621578D01*
X2290876Y-5615279D01*
X2288946Y-5609793D01*
X2285898Y-5604916D01*
X2281783Y-5600801D01*
X2272944Y-5595467D01*
X2270506Y-5592064D01*
X2269693Y-5588000D01*
X2270506Y-5583936D01*
X2272944Y-5580532D01*
X2281783Y-5575198D01*
X2285898Y-5571083D01*
X2288946Y-5566206D01*
X2290876Y-5560720D01*
X2291588Y-5554421D01*
X2291588Y-5367578D01*
X2290876Y-5361279D01*
X2288946Y-5355793D01*
X2285898Y-5350916D01*
X2281783Y-5346801D01*
X2272944Y-5341467D01*
X2270506Y-5338064D01*
X2269693Y-5334000D01*
X2270506Y-5329936D01*
X2272944Y-5326532D01*
X2281783Y-5321198D01*
X2285898Y-5317083D01*
X2288946Y-5312206D01*
X2290876Y-5306720D01*
X2291588Y-5300421D01*
X2291588Y-5260340D01*
X2225040Y-5260340D01*
X2225040Y-5330952D01*
X2224278Y-5334863D01*
X2222042Y-5338114D01*
X2218791Y-5340350D01*
X2214880Y-5341112D01*
X2128520Y-5341112D01*
X2124608Y-5340350D01*
X2121357Y-5338114D01*
X2119122Y-5334863D01*
X2118360Y-5330952D01*
X2118360Y-5260340D01*
X2047748Y-5260340D01*
X2043836Y-5259578D01*
X2040585Y-5257342D01*
X2038350Y-5254091D01*
X2037588Y-5250180D01*
X2037588Y-5163820D01*
X2038350Y-5159908D01*
X2040585Y-5156657D01*
X2043836Y-5154422D01*
X2047748Y-5153660D01*
X2118360Y-5153660D01*
X2118360Y-5083048D01*
X2119122Y-5079136D01*
X2121357Y-5075885D01*
X2124608Y-5073650D01*
X2128520Y-5072888D01*
X2214880Y-5072888D01*
X2218791Y-5073650D01*
X2222042Y-5075885D01*
X2224278Y-5079136D01*
X2225040Y-5083048D01*
X2225040Y-5153660D01*
X2291588Y-5153660D01*
X2291588Y-5113578D01*
X2290876Y-5107279D01*
X2288946Y-5101793D01*
X2285898Y-5096916D01*
X2281783Y-5092801D01*
X2272944Y-5087467D01*
X2270506Y-5084064D01*
X2269693Y-5080000D01*
X2270506Y-5075936D01*
X2272944Y-5072532D01*
X2281783Y-5067198D01*
X2285898Y-5063083D01*
X2288946Y-5058206D01*
X2290876Y-5052720D01*
X2291588Y-5046421D01*
X2291588Y-4859578D01*
X2290876Y-4853279D01*
X2288946Y-4847793D01*
X2285898Y-4842916D01*
X2281783Y-4838801D01*
X2272944Y-4833467D01*
X2270506Y-4830064D01*
X2269693Y-4826000D01*
X2270506Y-4821936D01*
X2272944Y-4818532D01*
X2281783Y-4813198D01*
X2285898Y-4809083D01*
X2288946Y-4804206D01*
X2290876Y-4798720D01*
X2291588Y-4792421D01*
X2291588Y-4605578D01*
X2290876Y-4599279D01*
X2288946Y-4593793D01*
X2285898Y-4588916D01*
X2281783Y-4584801D01*
X2272944Y-4579467D01*
X2270506Y-4576064D01*
X2269693Y-4572000D01*
X2270506Y-4567936D01*
X2272944Y-4564532D01*
X2281783Y-4559198D01*
X2285898Y-4555083D01*
X2288946Y-4550206D01*
X2290876Y-4544720D01*
X2291588Y-4538421D01*
X2291588Y-4351578D01*
X2290876Y-4345279D01*
X2288946Y-4339793D01*
X2285898Y-4334916D01*
X2281783Y-4330801D01*
X2272944Y-4325467D01*
X2270506Y-4322064D01*
X2269693Y-4318000D01*
X2270506Y-4313936D01*
X2272944Y-4310532D01*
X2281783Y-4305198D01*
X2285898Y-4301083D01*
X2288946Y-4296206D01*
X2290876Y-4290720D01*
X2291588Y-4284421D01*
X2291588Y-4097578D01*
X2290876Y-4091279D01*
X2288946Y-4085793D01*
X2285898Y-4080916D01*
X2281783Y-4076801D01*
X2272944Y-4071467D01*
X2270506Y-4068064D01*
X2269693Y-4064000D01*
X2270506Y-4059936D01*
X2272944Y-4056532D01*
X2281783Y-4051198D01*
X2285898Y-4047083D01*
X2288946Y-4042206D01*
X2290876Y-4036720D01*
X2291588Y-4030421D01*
X2291588Y-3990340D01*
X2225040Y-3990340D01*
X2225040Y-4060951D01*
X2224278Y-4064863D01*
X2222042Y-4068114D01*
X2218791Y-4070350D01*
X2214880Y-4071112D01*
X2128520Y-4071112D01*
X2124608Y-4070350D01*
X2121357Y-4068114D01*
X2119122Y-4064863D01*
X2118360Y-4060951D01*
X2118360Y-3990340D01*
X2047748Y-3990340D01*
X2043836Y-3989578D01*
X2040585Y-3987342D01*
X2038350Y-3984091D01*
X2037588Y-3980179D01*
X2037588Y-3893820D01*
X2038350Y-3889908D01*
X2040585Y-3886657D01*
X2043836Y-3884422D01*
X2047748Y-3883660D01*
X2118360Y-3883660D01*
X2118360Y-3813048D01*
X2119122Y-3809136D01*
X2121357Y-3805885D01*
X2124608Y-3803650D01*
X2128520Y-3802887D01*
X2214880Y-3802887D01*
X2218791Y-3803650D01*
X2222042Y-3805885D01*
X2224278Y-3809136D01*
X2225040Y-3813048D01*
X2225040Y-3883660D01*
X2291588Y-3883660D01*
X2291588Y-3843578D01*
X2290876Y-3837279D01*
X2288946Y-3831793D01*
X2285898Y-3826916D01*
X2281783Y-3822801D01*
X2272944Y-3817467D01*
X2270506Y-3814064D01*
X2269693Y-3810000D01*
X2270506Y-3805936D01*
X2272944Y-3802532D01*
X2281783Y-3797198D01*
X2285898Y-3793083D01*
X2288946Y-3788206D01*
X2290876Y-3782720D01*
X2291588Y-3776421D01*
X2291588Y-3589578D01*
X2290876Y-3583279D01*
X2288946Y-3577793D01*
X2285898Y-3572916D01*
X2281783Y-3568801D01*
X2272944Y-3563467D01*
X2270506Y-3560064D01*
X2269693Y-3556000D01*
X2270506Y-3551936D01*
X2272944Y-3548532D01*
X2281783Y-3543198D01*
X2285898Y-3539083D01*
X2288946Y-3534206D01*
X2290876Y-3528720D01*
X2291588Y-3522421D01*
X2291588Y-3335578D01*
X2290876Y-3329279D01*
X2288946Y-3323793D01*
X2285898Y-3318916D01*
X2281783Y-3314801D01*
X2272944Y-3309467D01*
X2270506Y-3306064D01*
X2269693Y-3302000D01*
X2270506Y-3297936D01*
X2272944Y-3294532D01*
X2281783Y-3289198D01*
X2285898Y-3285083D01*
X2288946Y-3280206D01*
X2290876Y-3274720D01*
X2291588Y-3268421D01*
X2291588Y-3228340D01*
X2225040Y-3228340D01*
X2225040Y-3298951D01*
X2224278Y-3302863D01*
X2222042Y-3306114D01*
X2218791Y-3308350D01*
X2214880Y-3309112D01*
X2128520Y-3309112D01*
X2124608Y-3308350D01*
X2121357Y-3306114D01*
X2119122Y-3302863D01*
X2118360Y-3298951D01*
X2118360Y-3228340D01*
X2047748Y-3228340D01*
X2043836Y-3227578D01*
X2040585Y-3225342D01*
X2038350Y-3222091D01*
X2037588Y-3218180D01*
X2037588Y-3131820D01*
X2038350Y-3127908D01*
X2040585Y-3124657D01*
X2043836Y-3122422D01*
X2047748Y-3121660D01*
X2118360Y-3121660D01*
X2118360Y-3051048D01*
X2119122Y-3047136D01*
X2121357Y-3043885D01*
X2124608Y-3041650D01*
X2128520Y-3040888D01*
X2214880Y-3040888D01*
X2218791Y-3041650D01*
X2222042Y-3043885D01*
X2224278Y-3047136D01*
X2225040Y-3051048D01*
X2225040Y-3121660D01*
X2291588Y-3121660D01*
X2291588Y-3081578D01*
X2290876Y-3075279D01*
X2288946Y-3069793D01*
X2285898Y-3064916D01*
X2281783Y-3060801D01*
X2272944Y-3055467D01*
X2270506Y-3052064D01*
X2269693Y-3048000D01*
X2270506Y-3043936D01*
X2272944Y-3040532D01*
X2281783Y-3035198D01*
X2285898Y-3031083D01*
X2288946Y-3026206D01*
X2290876Y-3020720D01*
X2291588Y-3014421D01*
X2291588Y-2827578D01*
X2290876Y-2821279D01*
X2288946Y-2815793D01*
X2285898Y-2810916D01*
X2281783Y-2806801D01*
X2272944Y-2801467D01*
X2270506Y-2798064D01*
X2269693Y-2794000D01*
X2270506Y-2789936D01*
X2272944Y-2786532D01*
X2281783Y-2781198D01*
X2285898Y-2777083D01*
X2288946Y-2772206D01*
X2290876Y-2766720D01*
X2291588Y-2760421D01*
X2291588Y-2573578D01*
X2290876Y-2567279D01*
X2288946Y-2561793D01*
X2285898Y-2556916D01*
X2281783Y-2552801D01*
X2272944Y-2547467D01*
X2270506Y-2544064D01*
X2269693Y-2540000D01*
X2270506Y-2535936D01*
X2272944Y-2532532D01*
X2281783Y-2527198D01*
X2285898Y-2523083D01*
X2288946Y-2518206D01*
X2290876Y-2512720D01*
X2291588Y-2506421D01*
X2291588Y-2319578D01*
X2290876Y-2313279D01*
X2288946Y-2307793D01*
X2285898Y-2302916D01*
X2281783Y-2298801D01*
X2272944Y-2293467D01*
X2270506Y-2290064D01*
X2269693Y-2286000D01*
X2270506Y-2281936D01*
X2272944Y-2278532D01*
X2281783Y-2273198D01*
X2285898Y-2269083D01*
X2288946Y-2264206D01*
X2290876Y-2258720D01*
X2291588Y-2252421D01*
X2291588Y-2212340D01*
X2225040Y-2212340D01*
X2225040Y-2282952D01*
X2224278Y-2286863D01*
X2222042Y-2290114D01*
X2218791Y-2292350D01*
X2214880Y-2293112D01*
X2128520Y-2293112D01*
X2124608Y-2292350D01*
X2121357Y-2290114D01*
X2119122Y-2286863D01*
X2118360Y-2282952D01*
X2118360Y-2212340D01*
X2047748Y-2212340D01*
X2043836Y-2211578D01*
X2040585Y-2209342D01*
X2038350Y-2206091D01*
X2037588Y-2202180D01*
X2037588Y-2115820D01*
X2038350Y-2111908D01*
X2040585Y-2108657D01*
X2043836Y-2106422D01*
X2047748Y-2105660D01*
X2118360Y-2105660D01*
X2118360Y-2035048D01*
X2119122Y-2031136D01*
X2121357Y-2027885D01*
X2124608Y-2025650D01*
X2128520Y-2024888D01*
X2214880Y-2024888D01*
X2218791Y-2025650D01*
X2222042Y-2027885D01*
X2224278Y-2031136D01*
X2225040Y-2035048D01*
X2225040Y-2105660D01*
X2291588Y-2105660D01*
X2291588Y-2065578D01*
X2290876Y-2059279D01*
X2288946Y-2053793D01*
X2285898Y-2048916D01*
X2281783Y-2044801D01*
X2272944Y-2039467D01*
X2270506Y-2036064D01*
X2269693Y-2032000D01*
X2270506Y-2027936D01*
X2272944Y-2024532D01*
X2281783Y-2019198D01*
X2285898Y-2015083D01*
X2288946Y-2010206D01*
X2290876Y-2004720D01*
X2291588Y-1998421D01*
X2291588Y-1811578D01*
X2290876Y-1805279D01*
X2288946Y-1799793D01*
X2285898Y-1794916D01*
X2281783Y-1790801D01*
X2272944Y-1785467D01*
X2270506Y-1782064D01*
X2269693Y-1778000D01*
X2270506Y-1773936D01*
X2272944Y-1770532D01*
X2281783Y-1765198D01*
X2285898Y-1761083D01*
X2288946Y-1756206D01*
X2290876Y-1750720D01*
X2291588Y-1744421D01*
X2291588Y-1642668D01*
X2292350Y-1638757D01*
X2294585Y-1635506D01*
X2593848Y-1336192D01*
X2597150Y-1334008D01*
X2601061Y-1333195D01*
X3144266Y-1333195D01*
X3147923Y-1333906D01*
X3151022Y-1335786D01*
X3153308Y-1338732D01*
X3154375Y-1342237D01*
X3154883Y-1346860D01*
X3156813Y-1352346D01*
X3159861Y-1357223D01*
X3162909Y-1361389D01*
X3163671Y-1365250D01*
X3162909Y-1369161D01*
X3159861Y-1373276D01*
X3156813Y-1378153D01*
X3154883Y-1383639D01*
X3154172Y-1389938D01*
X3154172Y-1556461D01*
X3154883Y-1562760D01*
X3156813Y-1568246D01*
X3159861Y-1573123D01*
X3162909Y-1577289D01*
X3163671Y-1581150D01*
X3162909Y-1585061D01*
X3159861Y-1589176D01*
X3156813Y-1594053D01*
X3154883Y-1599539D01*
X3154172Y-1605838D01*
X3154172Y-1772361D01*
X3154883Y-1778660D01*
X3156813Y-1784146D01*
X3159861Y-1789023D01*
X3163976Y-1793138D01*
X3168853Y-1796186D01*
X3174339Y-1798116D01*
X3178962Y-1798624D01*
X3182518Y-1799691D01*
X3185414Y-1801977D01*
X3187344Y-1805127D01*
X3188004Y-1808734D01*
X3188055Y-2098141D01*
X3188868Y-2106980D01*
X3189274Y-2109419D01*
X3191408Y-2118055D01*
X3192170Y-2120392D01*
X3195574Y-2128621D01*
X3196691Y-2130806D01*
X3201314Y-2138426D01*
X3208375Y-2147265D01*
X3723690Y-2662631D01*
X3725875Y-2665933D01*
X3726687Y-2669844D01*
X3725875Y-2673705D01*
X3723690Y-2677007D01*
X3720388Y-2679242D01*
X3716528Y-2680004D01*
X3327501Y-2680004D01*
X3319627Y-2680614D01*
X3317189Y-2680563D01*
X3308807Y-2679446D01*
X3295192Y-2679446D01*
X3281679Y-2681274D01*
X3268522Y-2684881D01*
X3255975Y-2690164D01*
X3244240Y-2697124D01*
X3233521Y-2705608D01*
X3224022Y-2715412D01*
X3215944Y-2726385D01*
X3209391Y-2738323D01*
X3204514Y-2751074D01*
X3201314Y-2764332D01*
X3199993Y-2777896D01*
X3200450Y-2791510D01*
X3202686Y-2804972D01*
X3206750Y-2817977D01*
X3212490Y-2830372D01*
X3219805Y-2841853D01*
X3228594Y-2852267D01*
X3238754Y-2861411D01*
X3249980Y-2869133D01*
X3262122Y-2875280D01*
X3275025Y-2879750D01*
X3288385Y-2882493D01*
X3302000Y-2883408D01*
X3315614Y-2882493D01*
X3328974Y-2879750D01*
X3341878Y-2875280D01*
X3354019Y-2869133D01*
X3365246Y-2861411D01*
X3375406Y-2852267D01*
X3385210Y-2840685D01*
X3391357Y-2834690D01*
X3394659Y-2832557D01*
X3398469Y-2831795D01*
X3813810Y-2831795D01*
X3818331Y-2832862D01*
X3820058Y-2833725D01*
X3823106Y-2836113D01*
X3825087Y-2839466D01*
X3826001Y-2842107D01*
X3829100Y-2847035D01*
X3833164Y-2851099D01*
X3838092Y-2854198D01*
X3843528Y-2856077D01*
X3849878Y-2856788D01*
X3998722Y-2856788D01*
X4005072Y-2856077D01*
X4010507Y-2854198D01*
X4015435Y-2851099D01*
X4019499Y-2847035D01*
X4022598Y-2842107D01*
X4023817Y-2838602D01*
X4025950Y-2835046D01*
X4029354Y-2832658D01*
X4033418Y-2831795D01*
X4116933Y-2831744D01*
X4125772Y-2830931D01*
X4128211Y-2830525D01*
X4136847Y-2828391D01*
X4139184Y-2827629D01*
X4147413Y-2824226D01*
X4157218Y-2818485D01*
X4159199Y-2817114D01*
X4166057Y-2811424D01*
X5173624Y-1804365D01*
X5180685Y-1795525D01*
X5185308Y-1787906D01*
X5186426Y-1785721D01*
X5189829Y-1777492D01*
X5190591Y-1775155D01*
X5192725Y-1766519D01*
X5193131Y-1764080D01*
X5193944Y-1755241D01*
X5193995Y-1570532D01*
X5194808Y-1566570D01*
X5197094Y-1563268D01*
X5206695Y-1553972D01*
X5215940Y-1542440D01*
X5223713Y-1529892D01*
X5229860Y-1516481D01*
X5234330Y-1502460D01*
X5237073Y-1487932D01*
X5237988Y-1473200D01*
X5237073Y-1458468D01*
X5234330Y-1443939D01*
X5229860Y-1429918D01*
X5223713Y-1416507D01*
X5215940Y-1403959D01*
X5206695Y-1392428D01*
X5196078Y-1382166D01*
X5184292Y-1373276D01*
X5171541Y-1365910D01*
X5157927Y-1360170D01*
X5143754Y-1356106D01*
X5129174Y-1353820D01*
X5114391Y-1353413D01*
X5099710Y-1354734D01*
X5085283Y-1357884D01*
X5071364Y-1362811D01*
X5058156Y-1369415D01*
X5045862Y-1377543D01*
X5034635Y-1387144D01*
X5024729Y-1398066D01*
X5016195Y-1410106D01*
X5009184Y-1423111D01*
X5003850Y-1436878D01*
X5000294Y-1451152D01*
X4998466Y-1465834D01*
X4998466Y-1480566D01*
X5000294Y-1495247D01*
X5003850Y-1509522D01*
X5009184Y-1523288D01*
X5016195Y-1536293D01*
X5024729Y-1548333D01*
X5034635Y-1559255D01*
X5038648Y-1562658D01*
X5041239Y-1566164D01*
X5042204Y-1570380D01*
X5042204Y-1716938D01*
X5041442Y-1720850D01*
X5039207Y-1724152D01*
X4085844Y-2677007D01*
X4082542Y-2679242D01*
X4078681Y-2680004D01*
X4033418Y-2680004D01*
X4029354Y-2679141D01*
X4025950Y-2676753D01*
X4023817Y-2673197D01*
X4022598Y-2669692D01*
X4019499Y-2664764D01*
X4015435Y-2660700D01*
X4010507Y-2657602D01*
X4005072Y-2655722D01*
X3998722Y-2655011D01*
X3934968Y-2655011D01*
X3931056Y-2654198D01*
X3927754Y-2652014D01*
X3342792Y-2067052D01*
X3340557Y-2063750D01*
X3339795Y-2059838D01*
X3339795Y-1808734D01*
X3340455Y-1805127D01*
X3342386Y-1801977D01*
X3345281Y-1799691D01*
X3348837Y-1798624D01*
X3353460Y-1798116D01*
X3358946Y-1796186D01*
X3363823Y-1793138D01*
X3367938Y-1789023D01*
X3371037Y-1784146D01*
X3372916Y-1778660D01*
X3373628Y-1772361D01*
X3373628Y-1605838D01*
X3372916Y-1599539D01*
X3371037Y-1594053D01*
X3367938Y-1589176D01*
X3364890Y-1585061D01*
X3364128Y-1581150D01*
X3364890Y-1577289D01*
X3367938Y-1573123D01*
X3371037Y-1568246D01*
X3372916Y-1562760D01*
X3373628Y-1556461D01*
X3373628Y-1534261D01*
X3374390Y-1530400D01*
X3376625Y-1527098D01*
X3379927Y-1524863D01*
X3383787Y-1524101D01*
X3987546Y-1524101D01*
X3991152Y-1524762D01*
X3994251Y-1526641D01*
X3996537Y-1529486D01*
X4000195Y-1536293D01*
X4008729Y-1548333D01*
X4018635Y-1559255D01*
X4029862Y-1568856D01*
X4042156Y-1576984D01*
X4055364Y-1583588D01*
X4069283Y-1588516D01*
X4083710Y-1591665D01*
X4098391Y-1593037D01*
X4113174Y-1592580D01*
X4127754Y-1590294D01*
X4141927Y-1586230D01*
X4155541Y-1580489D01*
X4168292Y-1573123D01*
X4180078Y-1564233D01*
X4190695Y-1553972D01*
X4199940Y-1542491D01*
X4208221Y-1528927D01*
X4210507Y-1526387D01*
X4213504Y-1524711D01*
X4216908Y-1524101D01*
X4266996Y-1524101D01*
X4271619Y-1523898D01*
X4276039Y-1523339D01*
X4280357Y-1522374D01*
X4284624Y-1521053D01*
X4288688Y-1519326D01*
X4292650Y-1517294D01*
X4296410Y-1514906D01*
X4299915Y-1512214D01*
X4303369Y-1509064D01*
X4933035Y-879398D01*
X4936286Y-877163D01*
X4940198Y-876401D01*
X5003546Y-876401D01*
X5007152Y-877062D01*
X5010251Y-878941D01*
X5012486Y-881786D01*
X5016195Y-888593D01*
X5024729Y-900633D01*
X5034635Y-911555D01*
X5045862Y-921156D01*
X5058156Y-929284D01*
X5071364Y-935888D01*
X5085283Y-940816D01*
X5099710Y-943965D01*
X5114391Y-945337D01*
X5129174Y-944880D01*
X5143754Y-942594D01*
X5157927Y-938530D01*
X5171541Y-932789D01*
X5184292Y-925423D01*
X5196078Y-916533D01*
X5206695Y-906271D01*
X5215940Y-894740D01*
X5223713Y-882192D01*
X5229860Y-868781D01*
X5234330Y-854760D01*
X5237073Y-840232D01*
X5237988Y-825500D01*
X5237073Y-810768D01*
X5234330Y-796239D01*
X5229860Y-782218D01*
X5223713Y-768807D01*
X5215940Y-756259D01*
X5206695Y-744728D01*
X5196078Y-734466D01*
X5184292Y-725576D01*
X5171541Y-718210D01*
X5157927Y-712470D01*
X5143754Y-708406D01*
X5129174Y-706120D01*
X5114391Y-705713D01*
X5099710Y-707034D01*
X5085283Y-710184D01*
X5071364Y-715111D01*
X5058156Y-721715D01*
X5045862Y-729843D01*
X5034635Y-739444D01*
X5024729Y-750366D01*
X5016195Y-762406D01*
X5012486Y-769213D01*
X5010251Y-772058D01*
X5007152Y-773938D01*
X5003546Y-774598D01*
X4915103Y-774598D01*
X4910480Y-774801D01*
X4906060Y-775360D01*
X4901742Y-776325D01*
X4897475Y-777646D01*
X4893411Y-779373D01*
X4889449Y-781405D01*
X4885690Y-783793D01*
X4882184Y-786485D01*
X4878730Y-789635D01*
X4249064Y-1419301D01*
X4245813Y-1421536D01*
X4241901Y-1422298D01*
X4216908Y-1422298D01*
X4213504Y-1421688D01*
X4210507Y-1420012D01*
X4208221Y-1417472D01*
X4199940Y-1403908D01*
X4190695Y-1392428D01*
X4180078Y-1382166D01*
X4168292Y-1373276D01*
X4155541Y-1365910D01*
X4141927Y-1360170D01*
X4127754Y-1356106D01*
X4113174Y-1353820D01*
X4098391Y-1353413D01*
X4083710Y-1354734D01*
X4069283Y-1357884D01*
X4055364Y-1362811D01*
X4042156Y-1369415D01*
X4029862Y-1377543D01*
X4018635Y-1387144D01*
X4008729Y-1398066D01*
X4000195Y-1410106D01*
X3996486Y-1416964D01*
X3994251Y-1419758D01*
X3991152Y-1421638D01*
X3987546Y-1422298D01*
X3383787Y-1422298D01*
X3379927Y-1421536D01*
X3376625Y-1419301D01*
X3374390Y-1416050D01*
X3373628Y-1412138D01*
X3373628Y-1389938D01*
X3372916Y-1383639D01*
X3371037Y-1378153D01*
X3367938Y-1373276D01*
X3364890Y-1369161D01*
X3364128Y-1365250D01*
X3364890Y-1361389D01*
X3367938Y-1357223D01*
X3371037Y-1352346D01*
X3372916Y-1346860D01*
X3373628Y-1340561D01*
X3373628Y-1174038D01*
X3372916Y-1167739D01*
X3371037Y-1162253D01*
X3367938Y-1157376D01*
X3363823Y-1153261D01*
X3358946Y-1150213D01*
X3353460Y-1148283D01*
X3347161Y-1147572D01*
X3180638Y-1147572D01*
X3174339Y-1148283D01*
X3168853Y-1150213D01*
X3163976Y-1153261D01*
X3159861Y-1157376D01*
X3156813Y-1162253D01*
X3154883Y-1167739D01*
X3154375Y-1172362D01*
X3153308Y-1175918D01*
X3151022Y-1178814D01*
X3147923Y-1180744D01*
X3144266Y-1181404D01*
X2562758Y-1181455D01*
X2553919Y-1182268D01*
X2551480Y-1182674D01*
X2542844Y-1184808D01*
X2532278Y-1189024D01*
X2530094Y-1190091D01*
X2522474Y-1194714D01*
X2513634Y-1201775D01*
X2187194Y-1528114D01*
X2183942Y-1530350D01*
X2180031Y-1531112D01*
X2078278Y-1531112D01*
X2071979Y-1531823D01*
X2066493Y-1533753D01*
X2061616Y-1536801D01*
X2057501Y-1540916D01*
X2052167Y-1549755D01*
X2048764Y-1552194D01*
X2044700Y-1553006D01*
X2040636Y-1552194D01*
X2037232Y-1549755D01*
X2031898Y-1540916D01*
X2027783Y-1536801D01*
X2022906Y-1533753D01*
X2017420Y-1531823D01*
X2011121Y-1531112D01*
X1824278Y-1531112D01*
X1817979Y-1531823D01*
X1812493Y-1533753D01*
X1807616Y-1536801D01*
X1803501Y-1540916D01*
X1800453Y-1545793D01*
X1798523Y-1551279D01*
X1797812Y-1557578D01*
X1797812Y-1744421D01*
X1798523Y-1750720D01*
X1800453Y-1756206D01*
X1803501Y-1761083D01*
X1807616Y-1765198D01*
X1816455Y-1770532D01*
X1818893Y-1773936D01*
X1819706Y-1778000D01*
X1818893Y-1782064D01*
X1816455Y-1785467D01*
X1807616Y-1790801D01*
X1803501Y-1794916D01*
X1800453Y-1799793D01*
X1798523Y-1805279D01*
X1797812Y-1811578D01*
X1797812Y-1998421D01*
X1798523Y-2004720D01*
X1800453Y-2010206D01*
X1803501Y-2015083D01*
X1807616Y-2019198D01*
X1816455Y-2024532D01*
X1818893Y-2027936D01*
X1819706Y-2032000D01*
X1818893Y-2036064D01*
X1816455Y-2039467D01*
X1807616Y-2044801D01*
X1803501Y-2048916D01*
X1800453Y-2053793D01*
X1798523Y-2059279D01*
X1797812Y-2065578D01*
X1797812Y-2252421D01*
X1798523Y-2258720D01*
X1800453Y-2264206D01*
X1803501Y-2269083D01*
X1807616Y-2273198D01*
X1816455Y-2278532D01*
X1818893Y-2281936D01*
X1819706Y-2286000D01*
X1818893Y-2290064D01*
X1816455Y-2293467D01*
X1807616Y-2298801D01*
X1803501Y-2302916D01*
X1800453Y-2307793D01*
X1798523Y-2313279D01*
X1797812Y-2319578D01*
X1797812Y-2323592D01*
X1797050Y-2327452D01*
X1794814Y-2330754D01*
X1791563Y-2332990D01*
X1787652Y-2333752D01*
X1783740Y-2332990D01*
X1780489Y-2330754D01*
X1552498Y-2102764D01*
X1550263Y-2099513D01*
X1549501Y-2095601D01*
X1549501Y-939698D01*
X1550263Y-935786D01*
X1552498Y-932535D01*
X1605635Y-879398D01*
X1608886Y-877163D01*
X1612798Y-876401D01*
X3987546Y-876401D01*
X3991152Y-877062D01*
X3994251Y-878941D01*
X3996486Y-881786D01*
X4000195Y-888593D01*
X4008729Y-900633D01*
X4018635Y-911555D01*
X4029862Y-921156D01*
X4042156Y-929284D01*
X4055364Y-935888D01*
X4069283Y-940816D01*
X4083710Y-943965D01*
X4098391Y-945337D01*
X4113174Y-944880D01*
X4127754Y-942594D01*
X4141927Y-938530D01*
X4155541Y-932789D01*
X4168292Y-925423D01*
X4180078Y-916533D01*
X4190695Y-906271D01*
X4199940Y-894740D01*
X4207713Y-882192D01*
X4213860Y-868781D01*
X4218330Y-854760D01*
X4221073Y-840232D01*
X4221988Y-825500D01*
X4221073Y-810768D01*
X4218330Y-796239D01*
X4213860Y-782218D01*
X4207713Y-768807D01*
X4199940Y-756259D01*
X4190695Y-744728D01*
X4180078Y-734466D01*
X4168292Y-725576D01*
X4155541Y-718210D01*
X4141927Y-712470D01*
X4127754Y-708406D01*
X4113174Y-706120D01*
X4098391Y-705713D01*
X4083710Y-707034D01*
X4069283Y-710184D01*
X4055364Y-715111D01*
X4042156Y-721715D01*
X4029862Y-729843D01*
X4018635Y-739444D01*
X4008729Y-750366D01*
X4000195Y-762406D01*
X3996486Y-769213D01*
X3994251Y-772058D01*
X3991152Y-773938D01*
X3987546Y-774598D01*
X1587703Y-774598D01*
X1583080Y-774801D01*
X1578660Y-775360D01*
X1574342Y-776325D01*
X1570075Y-777646D01*
X1566011Y-779373D01*
X1562049Y-781405D01*
X1558290Y-783793D01*
X1554784Y-786485D01*
X1551330Y-789635D01*
X1462735Y-878230D01*
X1459585Y-881684D01*
X1456893Y-885190D01*
X1454505Y-888949D01*
X1452473Y-892911D01*
X1450746Y-896975D01*
X1449425Y-901242D01*
X1448460Y-905560D01*
X1447901Y-909980D01*
X1447698Y-914603D01*
X1447698Y-2120696D01*
X1447901Y-2125319D01*
X1448460Y-2129739D01*
X1449425Y-2134057D01*
X1450746Y-2138324D01*
X1452473Y-2142388D01*
X1454505Y-2146350D01*
X1456893Y-2150110D01*
X1459585Y-2153615D01*
X1462735Y-2157069D01*
X1741830Y-2436164D01*
X1745284Y-2439314D01*
X1748789Y-2442006D01*
X1752549Y-2444394D01*
X1756511Y-2446426D01*
X1760575Y-2448153D01*
X1764842Y-2449474D01*
X1769160Y-2450439D01*
X1773580Y-2450998D01*
X1778203Y-2451201D01*
X1787652Y-2451201D01*
X1791563Y-2451963D01*
X1794814Y-2454198D01*
X1797050Y-2457500D01*
X1797812Y-2461361D01*
X1797812Y-2506421D01*
X1798523Y-2512720D01*
X1800453Y-2518206D01*
X1803501Y-2523083D01*
X1807616Y-2527198D01*
X1816455Y-2532532D01*
X1818893Y-2535936D01*
X1819706Y-2540000D01*
X1818893Y-2544064D01*
X1816455Y-2547467D01*
X1807616Y-2552801D01*
X1803501Y-2556916D01*
X1800453Y-2561793D01*
X1798523Y-2567279D01*
X1797812Y-2573578D01*
X1797812Y-2613660D01*
X1864360Y-2613660D01*
X1864360Y-2543048D01*
X1865122Y-2539136D01*
X1867357Y-2535885D01*
X1870608Y-2533650D01*
X1874520Y-2532888D01*
X1960880Y-2532888D01*
X1964791Y-2533650D01*
X1968042Y-2535885D01*
X1970278Y-2539136D01*
X1971039Y-2543048D01*
X1971039Y-2613660D01*
X2041652Y-2613660D01*
X2045563Y-2614422D01*
X2048814Y-2616657D01*
X2051050Y-2619908D01*
X2051812Y-2623820D01*
X2051812Y-2710180D01*
X2051050Y-2714091D01*
X2048814Y-2717342D01*
X2045563Y-2719578D01*
X2041652Y-2720340D01*
X1971039Y-2720340D01*
X1971039Y-2790952D01*
X1970278Y-2794863D01*
X1968042Y-2798114D01*
X1964791Y-2800350D01*
X1960880Y-2801112D01*
X1874520Y-2801112D01*
X1870608Y-2800350D01*
X1867357Y-2798114D01*
X1865122Y-2794863D01*
X1864360Y-2790952D01*
X1864360Y-2720340D01*
X1797812Y-2720340D01*
X1797812Y-2760421D01*
X1798523Y-2766720D01*
X1800453Y-2772206D01*
X1803501Y-2777083D01*
X1807616Y-2781198D01*
X1816455Y-2786532D01*
X1818893Y-2789936D01*
X1819706Y-2794000D01*
X1818893Y-2798064D01*
X1816455Y-2801467D01*
X1807616Y-2806801D01*
X1803501Y-2810916D01*
X1800453Y-2815793D01*
X1798523Y-2821279D01*
X1797812Y-2827578D01*
X1797812Y-3014421D01*
X1798523Y-3020720D01*
X1800453Y-3026206D01*
X1803501Y-3031083D01*
X1807616Y-3035198D01*
X1816455Y-3040532D01*
X1818893Y-3043936D01*
X1819706Y-3048000D01*
X1818893Y-3052064D01*
X1816455Y-3055467D01*
X1807616Y-3060801D01*
X1803501Y-3064916D01*
X1800453Y-3069793D01*
X1798523Y-3075279D01*
X1797812Y-3081578D01*
X1797812Y-3268421D01*
X1798523Y-3274720D01*
X1800453Y-3280206D01*
X1803501Y-3285083D01*
X1807616Y-3289198D01*
X1816455Y-3294532D01*
X1818893Y-3297936D01*
X1819706Y-3302000D01*
X1818893Y-3306064D01*
X1816455Y-3309467D01*
X1807616Y-3314801D01*
X1803501Y-3318916D01*
X1800453Y-3323793D01*
X1798523Y-3329279D01*
X1797812Y-3335578D01*
X1797812Y-3522421D01*
X1798523Y-3528720D01*
X1800453Y-3534206D01*
X1803501Y-3539083D01*
X1807616Y-3543198D01*
X1816455Y-3548532D01*
X1818893Y-3551936D01*
X1819706Y-3556000D01*
X1818893Y-3560064D01*
X1816455Y-3563467D01*
X1807616Y-3568801D01*
X1803501Y-3572916D01*
X1800453Y-3577793D01*
X1798523Y-3583279D01*
X1797812Y-3589578D01*
X1797812Y-3776421D01*
X1798523Y-3782720D01*
X1800453Y-3788206D01*
X1803501Y-3793083D01*
X1807616Y-3797198D01*
X1816455Y-3802532D01*
X1818893Y-3805936D01*
X1819706Y-3810000D01*
X1818893Y-3814064D01*
X1816455Y-3817467D01*
X1807616Y-3822801D01*
X1803501Y-3826916D01*
X1800453Y-3831793D01*
X1798523Y-3837279D01*
X1797812Y-3843578D01*
X1797812Y-4030421D01*
X1798523Y-4036720D01*
X1800453Y-4042206D01*
X1803501Y-4047083D01*
X1807616Y-4051198D01*
X1816455Y-4056532D01*
X1818893Y-4059936D01*
X1819706Y-4064000D01*
X1818893Y-4068064D01*
X1816455Y-4071467D01*
X1807616Y-4076801D01*
X1803501Y-4080916D01*
X1800453Y-4085793D01*
X1798523Y-4091279D01*
X1797812Y-4097578D01*
X1797812Y-4284421D01*
X1798523Y-4290720D01*
X1800453Y-4296206D01*
X1803501Y-4301083D01*
X1807616Y-4305198D01*
X1816455Y-4310532D01*
X1818893Y-4313936D01*
X1819706Y-4318000D01*
X1818893Y-4322064D01*
X1816455Y-4325467D01*
X1807616Y-4330801D01*
X1803501Y-4334916D01*
X1800453Y-4339793D01*
X1798523Y-4345279D01*
X1797812Y-4351578D01*
X1797812Y-4538421D01*
X1798523Y-4544720D01*
X1800453Y-4550206D01*
X1803501Y-4555083D01*
X1807616Y-4559198D01*
X1816455Y-4564532D01*
X1818893Y-4567936D01*
X1819706Y-4572000D01*
X1818893Y-4576064D01*
X1816455Y-4579467D01*
X1807616Y-4584801D01*
X1803501Y-4588916D01*
X1800453Y-4593793D01*
X1798523Y-4599279D01*
X1797812Y-4605578D01*
X1797812Y-4645660D01*
X1864360Y-4645660D01*
X1864360Y-4575048D01*
X1865122Y-4571136D01*
X1867357Y-4567885D01*
X1870608Y-4565650D01*
X1874520Y-4564888D01*
X1960880Y-4564888D01*
X1964791Y-4565650D01*
X1968042Y-4567885D01*
X1970278Y-4571136D01*
X1971039Y-4575048D01*
X1971039Y-4645660D01*
X2041652Y-4645660D01*
X2045563Y-4646422D01*
X2048814Y-4648657D01*
X2051050Y-4651908D01*
X2051812Y-4655820D01*
X2051812Y-4742180D01*
X2051050Y-4746091D01*
X2048814Y-4749342D01*
X2045563Y-4751578D01*
X2041652Y-4752340D01*
X1971039Y-4752340D01*
X1971039Y-4822952D01*
X1970278Y-4826863D01*
X1968042Y-4830114D01*
X1964791Y-4832350D01*
X1960880Y-4833112D01*
X1874520Y-4833112D01*
X1870608Y-4832350D01*
X1867357Y-4830114D01*
X1865122Y-4826863D01*
X1864360Y-4822952D01*
X1864360Y-4752340D01*
X1797812Y-4752340D01*
X1797812Y-4792421D01*
X1798523Y-4798720D01*
X1800453Y-4804206D01*
X1803501Y-4809083D01*
X1807616Y-4813198D01*
X1816455Y-4818532D01*
X1818893Y-4821936D01*
X1819706Y-4826000D01*
X1818893Y-4830064D01*
X1816455Y-4833467D01*
X1807616Y-4838801D01*
X1803501Y-4842916D01*
X1800453Y-4847793D01*
X1798523Y-4853279D01*
X1797812Y-4859578D01*
X1797812Y-5046421D01*
X1798523Y-5052720D01*
X1800453Y-5058206D01*
X1803501Y-5063083D01*
X1807616Y-5067198D01*
X1816455Y-5072532D01*
X1818893Y-5075936D01*
X1819706Y-5080000D01*
X1818893Y-5084064D01*
X1816455Y-5087467D01*
X1807616Y-5092801D01*
X1803501Y-5096916D01*
X1800453Y-5101793D01*
X1798523Y-5107279D01*
X1797812Y-5113578D01*
X1797812Y-5300421D01*
X1798523Y-5306720D01*
X1800453Y-5312206D01*
X1803501Y-5317083D01*
X1807616Y-5321198D01*
X1816455Y-5326532D01*
X1818893Y-5329936D01*
X1819706Y-5334000D01*
X1818893Y-5338064D01*
X1816455Y-5341467D01*
X1807616Y-5346801D01*
X1803501Y-5350916D01*
X1800453Y-5355793D01*
X1798523Y-5361279D01*
X1797812Y-5367578D01*
X1797812Y-5554421D01*
X1798523Y-5560720D01*
X1800453Y-5566206D01*
X1803501Y-5571083D01*
X1807616Y-5575198D01*
X1816455Y-5580532D01*
X1818893Y-5583936D01*
X1819706Y-5588000D01*
X1818893Y-5592064D01*
X1816455Y-5595467D01*
X1807616Y-5600801D01*
X1803501Y-5604916D01*
X1800453Y-5609793D01*
X1798523Y-5615279D01*
X1797812Y-5621578D01*
X1797812Y-5808421D01*
X1798523Y-5814720D01*
X1800453Y-5820206D01*
X1803501Y-5825083D01*
X1807616Y-5829198D01*
X1816455Y-5834532D01*
X1818893Y-5837936D01*
X1819706Y-5842000D01*
X1818893Y-5846064D01*
X1816455Y-5849467D01*
X1807616Y-5854801D01*
X1803501Y-5858916D01*
X1800453Y-5863793D01*
X1798523Y-5869279D01*
X1797812Y-5875578D01*
X1797812Y-6062421D01*
X1798523Y-6068720D01*
X1800453Y-6074206D01*
X1803501Y-6079083D01*
X1807616Y-6083198D01*
X1816455Y-6088532D01*
X1818893Y-6091936D01*
X1819706Y-6096000D01*
X1818893Y-6100064D01*
X1816455Y-6103467D01*
X1807616Y-6108801D01*
X1803501Y-6112916D01*
X1800453Y-6117793D01*
X1798523Y-6123279D01*
X1797812Y-6129578D01*
X1797812Y-6316421D01*
X1798523Y-6322720D01*
X1800453Y-6328206D01*
X1803501Y-6333083D01*
X1807616Y-6337198D01*
X1816455Y-6342532D01*
X1818893Y-6345936D01*
X1819706Y-6350000D01*
X1818893Y-6354064D01*
X1816455Y-6357467D01*
X1807616Y-6362801D01*
X1803501Y-6366916D01*
X1800453Y-6371793D01*
X1798523Y-6377279D01*
X1797812Y-6383578D01*
X1797812Y-6423660D01*
X1864360Y-6423660D01*
X1864360Y-6353048D01*
X1865122Y-6349136D01*
X1867357Y-6345885D01*
X1870608Y-6343650D01*
X1874520Y-6342888D01*
X1960880Y-6342888D01*
X1964791Y-6343650D01*
X1968042Y-6345885D01*
X1970278Y-6349136D01*
X1971039Y-6353048D01*
X1971039Y-6423660D01*
X2041652Y-6423660D01*
X2045563Y-6424422D01*
X2048814Y-6426657D01*
X2051050Y-6429908D01*
X2051812Y-6433820D01*
X2051812Y-6520180D01*
X2051050Y-6524091D01*
X2048814Y-6527342D01*
X2045563Y-6529578D01*
X2041652Y-6530340D01*
X1971039Y-6530340D01*
G37*
G36*
X7842250Y-6546850D02*
G01*
X7889443Y-6546850D01*
X7885633Y-6539280D01*
X7877911Y-6528054D01*
X7868767Y-6517894D01*
X7858353Y-6509105D01*
X7846872Y-6501790D01*
X7842250Y-6499656D01*
G37*
G36*
X7706004Y-6546850D02*
G01*
X7753350Y-6546850D01*
X7753350Y-6499504D01*
X7742885Y-6505244D01*
X7731912Y-6513322D01*
X7722108Y-6522821D01*
X7713624Y-6533540D01*
X7706664Y-6545275D01*
G37*
G36*
X7794396Y-6439306D02*
G01*
X7808010Y-6438849D01*
X7821472Y-6436614D01*
X7834477Y-6432550D01*
X7846872Y-6426809D01*
X7858353Y-6419494D01*
X7868767Y-6410706D01*
X7877911Y-6400546D01*
X7885633Y-6389319D01*
X7891780Y-6377178D01*
X7896250Y-6364274D01*
X7898993Y-6350914D01*
X7899908Y-6337300D01*
X7898993Y-6323685D01*
X7896250Y-6310325D01*
X7891780Y-6297422D01*
X7885633Y-6285280D01*
X7877911Y-6274054D01*
X7868767Y-6263894D01*
X7858353Y-6255105D01*
X7846872Y-6247790D01*
X7834477Y-6242050D01*
X7821472Y-6237986D01*
X7808010Y-6235750D01*
X7794396Y-6235293D01*
X7780832Y-6236614D01*
X7767574Y-6239814D01*
X7754823Y-6244691D01*
X7742885Y-6251244D01*
X7731912Y-6259322D01*
X7722108Y-6268821D01*
X7713624Y-6279540D01*
X7706664Y-6291275D01*
X7701381Y-6303822D01*
X7697774Y-6316980D01*
X7695946Y-6330492D01*
X7695946Y-6344107D01*
X7697774Y-6357620D01*
X7701381Y-6370777D01*
X7706664Y-6383324D01*
X7713624Y-6395059D01*
X7722108Y-6405778D01*
X7731912Y-6415278D01*
X7742885Y-6423355D01*
X7754823Y-6429908D01*
X7767574Y-6434785D01*
X7780832Y-6437985D01*
G37*
G36*
X6524396Y-6439306D02*
G01*
X6538010Y-6438849D01*
X6551472Y-6436614D01*
X6564477Y-6432550D01*
X6576872Y-6426809D01*
X6588353Y-6419494D01*
X6598767Y-6410706D01*
X6607911Y-6400546D01*
X6615633Y-6389319D01*
X6621780Y-6377178D01*
X6626250Y-6364274D01*
X6628993Y-6350914D01*
X6629908Y-6337300D01*
X6628993Y-6323685D01*
X6626250Y-6310325D01*
X6621780Y-6297422D01*
X6615633Y-6285280D01*
X6607911Y-6274054D01*
X6598767Y-6263894D01*
X6588353Y-6255105D01*
X6576872Y-6247790D01*
X6564477Y-6242050D01*
X6551472Y-6237986D01*
X6538010Y-6235750D01*
X6524396Y-6235293D01*
X6510832Y-6236614D01*
X6497574Y-6239814D01*
X6484823Y-6244691D01*
X6472885Y-6251244D01*
X6461912Y-6259322D01*
X6452108Y-6268821D01*
X6443624Y-6279540D01*
X6436664Y-6291275D01*
X6431381Y-6303822D01*
X6427774Y-6316980D01*
X6425946Y-6330492D01*
X6425946Y-6344107D01*
X6427774Y-6357620D01*
X6431381Y-6370777D01*
X6436664Y-6383324D01*
X6443624Y-6395059D01*
X6452108Y-6405778D01*
X6461912Y-6415278D01*
X6472885Y-6423355D01*
X6484823Y-6429908D01*
X6497574Y-6434785D01*
X6510832Y-6437985D01*
G37*
G36*
X7794396Y-6185306D02*
G01*
X7808010Y-6184849D01*
X7821472Y-6182614D01*
X7834477Y-6178550D01*
X7846872Y-6172809D01*
X7858353Y-6165494D01*
X7868767Y-6156706D01*
X7877911Y-6146546D01*
X7885633Y-6135319D01*
X7891780Y-6123178D01*
X7896250Y-6110274D01*
X7898993Y-6096914D01*
X7899908Y-6083300D01*
X7898993Y-6069685D01*
X7896250Y-6056325D01*
X7891780Y-6043422D01*
X7885633Y-6031280D01*
X7877911Y-6020054D01*
X7868767Y-6009894D01*
X7858353Y-6001105D01*
X7846872Y-5993790D01*
X7834477Y-5988050D01*
X7821472Y-5983986D01*
X7808010Y-5981750D01*
X7794396Y-5981293D01*
X7780832Y-5982614D01*
X7767574Y-5985814D01*
X7754823Y-5990691D01*
X7742885Y-5997244D01*
X7731912Y-6005322D01*
X7722108Y-6014821D01*
X7713624Y-6025540D01*
X7706664Y-6037275D01*
X7701381Y-6049822D01*
X7697774Y-6062980D01*
X7695946Y-6076492D01*
X7695946Y-6090107D01*
X7697774Y-6103620D01*
X7701381Y-6116777D01*
X7706664Y-6129324D01*
X7713624Y-6141059D01*
X7722108Y-6151778D01*
X7731912Y-6161278D01*
X7742885Y-6169355D01*
X7754823Y-6175908D01*
X7767574Y-6180785D01*
X7780832Y-6183985D01*
G37*
G36*
X6524396Y-6185306D02*
G01*
X6538010Y-6184849D01*
X6551472Y-6182614D01*
X6564477Y-6178550D01*
X6576872Y-6172809D01*
X6588353Y-6165494D01*
X6598767Y-6156706D01*
X6607911Y-6146546D01*
X6615633Y-6135319D01*
X6621780Y-6123178D01*
X6626250Y-6110274D01*
X6628993Y-6096914D01*
X6629908Y-6083300D01*
X6628993Y-6069685D01*
X6626250Y-6056325D01*
X6621780Y-6043422D01*
X6615633Y-6031280D01*
X6607911Y-6020054D01*
X6598767Y-6009894D01*
X6588353Y-6001105D01*
X6583425Y-5997956D01*
X6580886Y-5995670D01*
X6579260Y-5992723D01*
X6578701Y-5989370D01*
X6578701Y-5923229D01*
X6579260Y-5919876D01*
X6580886Y-5916930D01*
X6583425Y-5914644D01*
X6588353Y-5911494D01*
X6598767Y-5902706D01*
X6607911Y-5892546D01*
X6615633Y-5881319D01*
X6621780Y-5869178D01*
X6626250Y-5856274D01*
X6628993Y-5842914D01*
X6629908Y-5829300D01*
X6628993Y-5815685D01*
X6627418Y-5808116D01*
X6627317Y-5804763D01*
X6628282Y-5801614D01*
X6630212Y-5798870D01*
X6741464Y-5687669D01*
X6744614Y-5684215D01*
X6747306Y-5680710D01*
X6749694Y-5676950D01*
X6751726Y-5672988D01*
X6753453Y-5668924D01*
X6754774Y-5664657D01*
X6755739Y-5660339D01*
X6756298Y-5655919D01*
X6756501Y-5651296D01*
X6756501Y-4242003D01*
X6756298Y-4237380D01*
X6755739Y-4232960D01*
X6754774Y-4228642D01*
X6753453Y-4224375D01*
X6751726Y-4220311D01*
X6749694Y-4216349D01*
X6747306Y-4212590D01*
X6744614Y-4209084D01*
X6741464Y-4205630D01*
X6353098Y-3817264D01*
X6350863Y-3814013D01*
X6350101Y-3810101D01*
X6350101Y-2700121D01*
X6350863Y-2696260D01*
X6353098Y-2692958D01*
X6356400Y-2690723D01*
X6360261Y-2689961D01*
X6364173Y-2690723D01*
X6367475Y-2692958D01*
X6425234Y-2750718D01*
X6427266Y-2753664D01*
X6428181Y-2757068D01*
X6425946Y-2774492D01*
X6425946Y-2788107D01*
X6427774Y-2801620D01*
X6431381Y-2814777D01*
X6436664Y-2827324D01*
X6443624Y-2839059D01*
X6452108Y-2849778D01*
X6461912Y-2859278D01*
X6472783Y-2867253D01*
X6474968Y-2869488D01*
X6476390Y-2872333D01*
X6476898Y-2875432D01*
X6476898Y-2941167D01*
X6476390Y-2944266D01*
X6474968Y-2947111D01*
X6472783Y-2949346D01*
X6461912Y-2957322D01*
X6452108Y-2966821D01*
X6443624Y-2977540D01*
X6436664Y-2989275D01*
X6431381Y-3001822D01*
X6427774Y-3014980D01*
X6425946Y-3028492D01*
X6425946Y-3042107D01*
X6427774Y-3055620D01*
X6431381Y-3068777D01*
X6436664Y-3081324D01*
X6443624Y-3093059D01*
X6452108Y-3103778D01*
X6461912Y-3113278D01*
X6472885Y-3121355D01*
X6484823Y-3127908D01*
X6497574Y-3132785D01*
X6510832Y-3135985D01*
X6524396Y-3137306D01*
X6538010Y-3136849D01*
X6551472Y-3134614D01*
X6564477Y-3130550D01*
X6576872Y-3124809D01*
X6588353Y-3117494D01*
X6598767Y-3108706D01*
X6607911Y-3098546D01*
X6615633Y-3087319D01*
X6621780Y-3075178D01*
X6626250Y-3062274D01*
X6628993Y-3048914D01*
X6629908Y-3035300D01*
X6628993Y-3021685D01*
X6626250Y-3008325D01*
X6621780Y-2995422D01*
X6615633Y-2983280D01*
X6607911Y-2972054D01*
X6598767Y-2961894D01*
X6588353Y-2953105D01*
X6583425Y-2949956D01*
X6580886Y-2947670D01*
X6579260Y-2944723D01*
X6578701Y-2941370D01*
X6578701Y-2875229D01*
X6579260Y-2871876D01*
X6580886Y-2868930D01*
X6583425Y-2866644D01*
X6588353Y-2863494D01*
X6598767Y-2854706D01*
X6607911Y-2844546D01*
X6615633Y-2833319D01*
X6621780Y-2821178D01*
X6626250Y-2808274D01*
X6628993Y-2794914D01*
X6629908Y-2781300D01*
X6628993Y-2767685D01*
X6626250Y-2754325D01*
X6621780Y-2741422D01*
X6615633Y-2729280D01*
X6607911Y-2718054D01*
X6598767Y-2707894D01*
X6588353Y-2699105D01*
X6576872Y-2691790D01*
X6564477Y-2686050D01*
X6551472Y-2681986D01*
X6538010Y-2679750D01*
X6524396Y-2679293D01*
X6510832Y-2680614D01*
X6506921Y-2681579D01*
X6503466Y-2681782D01*
X6500164Y-2680868D01*
X6497370Y-2678887D01*
X6221069Y-2402535D01*
X6217615Y-2399385D01*
X6214110Y-2396693D01*
X6210350Y-2394305D01*
X6206388Y-2392273D01*
X6202324Y-2390546D01*
X6198057Y-2389225D01*
X6193739Y-2388260D01*
X6189319Y-2387701D01*
X6184696Y-2387498D01*
X5004003Y-2387498D01*
X4999380Y-2387701D01*
X4994960Y-2388260D01*
X4990642Y-2389225D01*
X4986375Y-2390546D01*
X4982311Y-2392273D01*
X4978349Y-2394305D01*
X4974590Y-2396693D01*
X4971084Y-2399385D01*
X4967630Y-2402535D01*
X4160164Y-3210001D01*
X4156913Y-3212236D01*
X4153001Y-3212998D01*
X4035348Y-3212998D01*
X4031487Y-3212236D01*
X4028186Y-3210001D01*
X4026001Y-3206699D01*
X4025188Y-3202838D01*
X4025188Y-3189478D01*
X4024477Y-3183128D01*
X4022598Y-3177692D01*
X4019499Y-3172764D01*
X4015435Y-3168700D01*
X4010507Y-3165602D01*
X4005072Y-3163722D01*
X3998722Y-3163011D01*
X3849878Y-3163011D01*
X3843528Y-3163722D01*
X3838092Y-3165602D01*
X3833164Y-3168700D01*
X3829100Y-3172764D01*
X3826001Y-3177692D01*
X3824122Y-3183128D01*
X3823411Y-3189478D01*
X3823411Y-3338322D01*
X3824122Y-3344672D01*
X3826001Y-3350107D01*
X3829100Y-3355035D01*
X3833164Y-3359099D01*
X3838092Y-3362198D01*
X3843528Y-3364077D01*
X3849878Y-3364788D01*
X3998722Y-3364788D01*
X4005072Y-3364077D01*
X4010507Y-3362198D01*
X4015435Y-3359099D01*
X4019499Y-3355035D01*
X4022598Y-3350107D01*
X4024477Y-3344672D01*
X4025188Y-3338322D01*
X4025188Y-3324961D01*
X4026001Y-3321100D01*
X4028186Y-3317798D01*
X4031487Y-3315563D01*
X4035348Y-3314801D01*
X4178096Y-3314801D01*
X4182719Y-3314598D01*
X4187139Y-3314039D01*
X4191457Y-3313074D01*
X4195724Y-3311753D01*
X4199788Y-3310026D01*
X4203750Y-3307994D01*
X4207510Y-3305606D01*
X4211015Y-3302914D01*
X4214469Y-3299764D01*
X5021935Y-2492298D01*
X5025186Y-2490063D01*
X5029098Y-2489301D01*
X6159601Y-2489301D01*
X6163513Y-2490063D01*
X6166764Y-2492298D01*
X6245301Y-2570835D01*
X6247536Y-2574086D01*
X6248298Y-2577998D01*
X6248298Y-3835196D01*
X6248501Y-3839819D01*
X6249060Y-3844239D01*
X6250025Y-3848557D01*
X6251346Y-3852824D01*
X6253073Y-3856888D01*
X6255105Y-3860850D01*
X6257493Y-3864610D01*
X6260185Y-3868115D01*
X6263335Y-3871569D01*
X6651701Y-4259935D01*
X6653936Y-4263186D01*
X6654698Y-4267098D01*
X6654698Y-5626201D01*
X6653936Y-5630113D01*
X6651701Y-5633364D01*
X6558280Y-5726836D01*
X6555689Y-5728716D01*
X6552641Y-5729681D01*
X6549440Y-5729630D01*
X6538010Y-5727750D01*
X6524396Y-5727293D01*
X6510832Y-5728614D01*
X6497574Y-5731814D01*
X6484823Y-5736691D01*
X6472885Y-5743244D01*
X6461912Y-5751322D01*
X6452108Y-5760821D01*
X6443624Y-5771540D01*
X6436664Y-5783275D01*
X6431381Y-5795822D01*
X6427774Y-5808980D01*
X6425946Y-5822492D01*
X6425946Y-5836107D01*
X6427774Y-5849620D01*
X6431381Y-5862777D01*
X6436664Y-5875324D01*
X6443624Y-5887059D01*
X6452108Y-5897778D01*
X6461912Y-5907278D01*
X6472783Y-5915253D01*
X6474968Y-5917488D01*
X6476390Y-5920333D01*
X6476898Y-5923432D01*
X6476898Y-5989167D01*
X6476390Y-5992266D01*
X6474968Y-5995111D01*
X6472783Y-5997346D01*
X6461912Y-6005322D01*
X6452108Y-6014821D01*
X6443624Y-6025540D01*
X6436664Y-6037275D01*
X6431381Y-6049822D01*
X6427774Y-6062980D01*
X6425946Y-6076492D01*
X6425946Y-6090107D01*
X6427774Y-6103620D01*
X6431381Y-6116777D01*
X6436664Y-6129324D01*
X6443624Y-6141059D01*
X6452108Y-6151778D01*
X6461912Y-6161278D01*
X6472885Y-6169355D01*
X6484823Y-6175908D01*
X6497574Y-6180785D01*
X6510832Y-6183985D01*
G37*
G36*
X10020300Y-6155690D02*
G01*
X10036098Y-6154775D01*
X10051643Y-6152032D01*
X10066782Y-6147511D01*
X10081310Y-6141212D01*
X10094976Y-6133338D01*
X10107625Y-6123889D01*
X10119156Y-6113068D01*
X10129316Y-6100927D01*
X10138003Y-6087770D01*
X10145064Y-6073648D01*
X10150500Y-6058763D01*
X10154107Y-6043422D01*
X10155936Y-6027724D01*
X10155936Y-6011875D01*
X10154107Y-5996178D01*
X10150500Y-5980836D01*
X10145064Y-5965952D01*
X10138003Y-5951829D01*
X10129316Y-5938672D01*
X10119156Y-5926531D01*
X10107625Y-5915710D01*
X10094976Y-5906262D01*
X10081310Y-5898388D01*
X10066782Y-5892088D01*
X10051643Y-5887567D01*
X10036098Y-5884824D01*
X10020300Y-5883910D01*
X10004501Y-5884824D01*
X9988956Y-5887567D01*
X9973818Y-5892088D01*
X9959289Y-5898388D01*
X9945624Y-5906262D01*
X9932974Y-5915710D01*
X9921443Y-5926531D01*
X9911283Y-5938672D01*
X9902596Y-5951829D01*
X9895535Y-5965952D01*
X9890099Y-5980836D01*
X9886492Y-5996178D01*
X9884664Y-6011875D01*
X9884664Y-6027724D01*
X9886492Y-6043422D01*
X9890099Y-6058763D01*
X9895535Y-6073648D01*
X9902596Y-6087770D01*
X9911283Y-6100927D01*
X9921443Y-6113068D01*
X9932974Y-6123889D01*
X9945624Y-6133338D01*
X9959289Y-6141212D01*
X9973818Y-6147511D01*
X9988956Y-6152032D01*
X10004501Y-6154775D01*
G37*
G36*
X7794396Y-5931306D02*
G01*
X7808010Y-5930849D01*
X7821472Y-5928614D01*
X7834477Y-5924550D01*
X7846872Y-5918809D01*
X7858353Y-5911494D01*
X7868767Y-5902706D01*
X7877911Y-5892546D01*
X7885633Y-5881319D01*
X7891780Y-5869178D01*
X7896250Y-5856274D01*
X7898993Y-5842914D01*
X7899908Y-5829300D01*
X7898993Y-5815685D01*
X7896250Y-5802325D01*
X7891780Y-5789422D01*
X7885633Y-5777280D01*
X7877911Y-5766054D01*
X7868767Y-5755894D01*
X7858353Y-5747105D01*
X7846872Y-5739790D01*
X7834477Y-5734050D01*
X7821472Y-5729986D01*
X7808010Y-5727750D01*
X7794396Y-5727293D01*
X7780832Y-5728614D01*
X7767574Y-5731814D01*
X7754823Y-5736691D01*
X7742885Y-5743244D01*
X7731912Y-5751322D01*
X7722108Y-5760821D01*
X7713624Y-5771540D01*
X7706664Y-5783275D01*
X7701381Y-5795822D01*
X7697774Y-5808980D01*
X7695946Y-5822492D01*
X7695946Y-5836107D01*
X7697774Y-5849620D01*
X7701381Y-5862777D01*
X7706664Y-5875324D01*
X7713624Y-5887059D01*
X7722108Y-5897778D01*
X7731912Y-5907278D01*
X7742885Y-5915355D01*
X7754823Y-5921908D01*
X7767574Y-5926785D01*
X7780832Y-5929985D01*
G37*
G36*
X4081170Y-5819648D02*
G01*
X4250029Y-5819648D01*
X4256328Y-5818936D01*
X4261815Y-5817006D01*
X4266692Y-5813958D01*
X4270806Y-5809843D01*
X4273905Y-5804966D01*
X4275785Y-5799480D01*
X4276496Y-5793181D01*
X4276496Y-5636818D01*
X4275785Y-5630519D01*
X4273905Y-5625033D01*
X4270806Y-5620156D01*
X4266692Y-5616041D01*
X4261815Y-5612993D01*
X4256328Y-5611063D01*
X4250029Y-5610352D01*
X4081170Y-5610352D01*
X4074871Y-5611063D01*
X4069384Y-5612993D01*
X4064508Y-5616041D01*
X4060393Y-5620156D01*
X4057294Y-5625033D01*
X4055414Y-5630519D01*
X4054703Y-5636818D01*
X4054703Y-5793181D01*
X4055414Y-5799480D01*
X4057294Y-5804966D01*
X4060393Y-5809843D01*
X4064508Y-5813958D01*
X4069384Y-5817006D01*
X4074871Y-5818936D01*
G37*
G36*
X4370730Y-5814415D02*
G01*
X4370730Y-5763869D01*
X4320133Y-5763869D01*
X4326686Y-5775502D01*
X4335170Y-5786882D01*
X4345025Y-5797092D01*
X4356150Y-5805932D01*
X4368292Y-5813298D01*
G37*
G36*
X4468469Y-5814314D02*
G01*
X4477105Y-5809843D01*
X4488738Y-5801715D01*
X4499254Y-5792165D01*
X4508449Y-5781344D01*
X4516221Y-5769406D01*
X4518914Y-5763869D01*
X4468469Y-5763869D01*
G37*
G36*
X7794396Y-5677306D02*
G01*
X7808010Y-5676849D01*
X7821472Y-5674614D01*
X7834477Y-5670550D01*
X7846872Y-5664809D01*
X7858353Y-5657494D01*
X7868767Y-5648706D01*
X7877911Y-5638546D01*
X7885633Y-5627319D01*
X7891780Y-5615178D01*
X7896250Y-5602274D01*
X7898993Y-5588914D01*
X7899908Y-5575300D01*
X7898993Y-5561685D01*
X7896250Y-5548325D01*
X7891780Y-5535422D01*
X7885633Y-5523280D01*
X7877911Y-5512054D01*
X7868767Y-5501894D01*
X7858353Y-5493105D01*
X7846872Y-5485790D01*
X7834477Y-5480050D01*
X7821472Y-5475986D01*
X7808010Y-5473750D01*
X7794396Y-5473293D01*
X7780832Y-5474614D01*
X7767574Y-5477814D01*
X7754823Y-5482691D01*
X7742885Y-5489244D01*
X7731912Y-5497322D01*
X7722108Y-5506821D01*
X7713624Y-5517540D01*
X7706664Y-5529275D01*
X7701381Y-5541822D01*
X7697774Y-5554980D01*
X7695946Y-5568492D01*
X7695946Y-5582107D01*
X7697774Y-5595620D01*
X7701381Y-5608777D01*
X7706664Y-5621324D01*
X7713624Y-5633059D01*
X7722108Y-5643778D01*
X7731912Y-5653278D01*
X7742885Y-5661355D01*
X7754823Y-5667908D01*
X7767574Y-5672785D01*
X7780832Y-5675985D01*
G37*
G36*
X6524396Y-5677306D02*
G01*
X6538010Y-5676849D01*
X6551472Y-5674614D01*
X6564477Y-5670550D01*
X6576872Y-5664809D01*
X6588353Y-5657494D01*
X6598767Y-5648706D01*
X6607911Y-5638546D01*
X6615633Y-5627319D01*
X6621780Y-5615178D01*
X6626250Y-5602274D01*
X6628993Y-5588914D01*
X6629908Y-5575300D01*
X6628993Y-5561685D01*
X6626250Y-5548325D01*
X6621780Y-5535422D01*
X6615633Y-5523280D01*
X6607911Y-5512054D01*
X6598767Y-5501894D01*
X6588353Y-5493105D01*
X6576872Y-5485790D01*
X6564477Y-5480050D01*
X6551472Y-5475986D01*
X6538010Y-5473750D01*
X6524396Y-5473293D01*
X6510832Y-5474614D01*
X6506921Y-5475579D01*
X6503466Y-5475782D01*
X6500164Y-5474868D01*
X6497370Y-5472887D01*
X6060998Y-5036464D01*
X6058763Y-5033213D01*
X6058001Y-5029301D01*
X6058001Y-4508703D01*
X6057798Y-4504080D01*
X6057239Y-4499660D01*
X6056274Y-4495342D01*
X6054953Y-4491075D01*
X6053226Y-4487011D01*
X6051194Y-4483049D01*
X6048806Y-4479290D01*
X6046114Y-4475784D01*
X6042964Y-4472330D01*
X5564886Y-3994302D01*
X5562701Y-3991000D01*
X5561888Y-3987088D01*
X5561888Y-3951478D01*
X5561177Y-3945128D01*
X5559298Y-3939692D01*
X5556199Y-3934764D01*
X5552135Y-3930700D01*
X5547207Y-3927601D01*
X5541772Y-3925722D01*
X5535422Y-3925011D01*
X5386578Y-3925011D01*
X5380228Y-3925722D01*
X5374792Y-3927601D01*
X5369864Y-3930700D01*
X5365800Y-3934764D01*
X5362702Y-3939692D01*
X5360822Y-3945128D01*
X5360111Y-3951478D01*
X5360111Y-4100322D01*
X5360822Y-4106672D01*
X5362702Y-4112107D01*
X5365800Y-4117035D01*
X5369864Y-4121099D01*
X5374792Y-4124198D01*
X5380228Y-4126077D01*
X5386578Y-4126788D01*
X5535422Y-4126788D01*
X5541772Y-4126077D01*
X5543854Y-4125366D01*
X5547563Y-4124807D01*
X5551271Y-4125620D01*
X5554370Y-4127754D01*
X5953201Y-4526635D01*
X5955436Y-4529886D01*
X5956198Y-4533798D01*
X5956198Y-5054396D01*
X5956401Y-5059019D01*
X5956960Y-5063439D01*
X5957925Y-5067757D01*
X5959246Y-5072024D01*
X5960973Y-5076088D01*
X5963005Y-5080050D01*
X5965393Y-5083810D01*
X5968085Y-5087315D01*
X5971235Y-5090769D01*
X6425234Y-5544718D01*
X6427266Y-5547664D01*
X6428181Y-5551068D01*
X6425946Y-5568492D01*
X6425946Y-5582107D01*
X6427774Y-5595620D01*
X6431381Y-5608777D01*
X6436664Y-5621324D01*
X6443624Y-5633059D01*
X6452108Y-5643778D01*
X6461912Y-5653278D01*
X6472885Y-5661355D01*
X6484823Y-5667908D01*
X6497574Y-5672785D01*
X6510832Y-5675985D01*
G37*
G36*
X4468469Y-5666130D02*
G01*
X4518914Y-5666130D01*
X4516221Y-5660593D01*
X4508449Y-5648655D01*
X4499254Y-5637834D01*
X4488738Y-5628284D01*
X4477105Y-5620156D01*
X4468469Y-5615686D01*
G37*
G36*
X4320133Y-5666130D02*
G01*
X4370730Y-5666130D01*
X4370730Y-5615584D01*
X4368292Y-5616702D01*
X4356150Y-5624068D01*
X4345025Y-5632907D01*
X4335170Y-5643118D01*
X4326686Y-5654497D01*
G37*
G36*
X10007600Y-5520690D02*
G01*
X10023398Y-5519775D01*
X10038943Y-5517032D01*
X10054082Y-5512511D01*
X10068610Y-5506212D01*
X10082276Y-5498338D01*
X10094925Y-5488889D01*
X10106456Y-5478068D01*
X10116616Y-5465927D01*
X10125303Y-5452770D01*
X10132364Y-5438648D01*
X10137800Y-5423763D01*
X10141407Y-5408422D01*
X10143236Y-5392724D01*
X10143236Y-5376875D01*
X10141407Y-5361178D01*
X10137800Y-5345836D01*
X10132364Y-5330952D01*
X10125303Y-5316829D01*
X10116616Y-5303672D01*
X10106456Y-5291531D01*
X10094925Y-5280710D01*
X10082276Y-5271262D01*
X10068610Y-5263388D01*
X10054082Y-5257088D01*
X10038943Y-5252567D01*
X10023398Y-5249824D01*
X10007600Y-5248910D01*
X9991801Y-5249824D01*
X9976256Y-5252567D01*
X9961118Y-5257088D01*
X9946589Y-5263388D01*
X9932924Y-5271262D01*
X9920274Y-5280710D01*
X9908743Y-5291531D01*
X9898583Y-5303672D01*
X9889896Y-5316829D01*
X9882835Y-5330952D01*
X9877399Y-5345836D01*
X9873792Y-5361178D01*
X9871964Y-5376875D01*
X9871964Y-5392724D01*
X9873792Y-5408422D01*
X9877399Y-5423763D01*
X9882835Y-5438648D01*
X9889896Y-5452770D01*
X9898583Y-5465927D01*
X9908743Y-5478068D01*
X9920274Y-5488889D01*
X9932924Y-5498338D01*
X9946589Y-5506212D01*
X9961118Y-5512511D01*
X9976256Y-5517032D01*
X9991801Y-5519775D01*
G37*
G36*
X7794396Y-5423306D02*
G01*
X7808010Y-5422849D01*
X7821472Y-5420614D01*
X7834477Y-5416550D01*
X7846872Y-5410809D01*
X7858353Y-5403494D01*
X7868767Y-5394706D01*
X7877911Y-5384546D01*
X7885633Y-5373319D01*
X7891780Y-5361178D01*
X7896250Y-5348274D01*
X7898993Y-5334914D01*
X7899908Y-5321300D01*
X7898993Y-5307685D01*
X7896250Y-5294325D01*
X7891780Y-5281422D01*
X7885633Y-5269280D01*
X7877911Y-5258054D01*
X7868767Y-5247894D01*
X7858353Y-5239105D01*
X7846872Y-5231790D01*
X7834477Y-5226050D01*
X7821472Y-5221986D01*
X7808010Y-5219750D01*
X7794396Y-5219293D01*
X7780832Y-5220614D01*
X7767574Y-5223814D01*
X7754823Y-5228691D01*
X7742885Y-5235244D01*
X7731912Y-5243322D01*
X7722108Y-5252821D01*
X7713624Y-5263540D01*
X7706664Y-5275275D01*
X7701381Y-5287822D01*
X7697774Y-5300980D01*
X7695946Y-5314492D01*
X7695946Y-5328107D01*
X7697774Y-5341620D01*
X7701381Y-5354777D01*
X7706664Y-5367324D01*
X7713624Y-5379059D01*
X7722108Y-5389778D01*
X7731912Y-5399278D01*
X7742885Y-5407355D01*
X7754823Y-5413908D01*
X7767574Y-5418785D01*
X7780832Y-5421985D01*
G37*
G36*
X6524396Y-5423306D02*
G01*
X6538010Y-5422849D01*
X6551472Y-5420614D01*
X6564477Y-5416550D01*
X6576872Y-5410809D01*
X6588353Y-5403494D01*
X6598767Y-5394706D01*
X6607911Y-5384546D01*
X6615633Y-5373319D01*
X6621780Y-5361178D01*
X6626250Y-5348274D01*
X6628993Y-5334914D01*
X6629908Y-5321300D01*
X6628993Y-5307685D01*
X6626250Y-5294325D01*
X6621780Y-5281422D01*
X6615633Y-5269280D01*
X6607911Y-5258054D01*
X6598767Y-5247894D01*
X6588353Y-5239105D01*
X6576872Y-5231790D01*
X6564477Y-5226050D01*
X6551472Y-5221986D01*
X6538010Y-5219750D01*
X6524396Y-5219293D01*
X6510832Y-5220614D01*
X6506921Y-5221579D01*
X6503466Y-5221782D01*
X6500164Y-5220868D01*
X6497370Y-5218887D01*
X6187998Y-4909464D01*
X6185763Y-4906213D01*
X6185001Y-4902301D01*
X6185001Y-4821021D01*
X6185763Y-4817160D01*
X6187998Y-4813858D01*
X6191300Y-4811623D01*
X6195161Y-4810861D01*
X6199073Y-4811623D01*
X6202375Y-4813858D01*
X6425234Y-5036718D01*
X6427266Y-5039664D01*
X6428181Y-5043068D01*
X6425946Y-5060492D01*
X6425946Y-5074107D01*
X6427774Y-5087620D01*
X6431381Y-5100777D01*
X6436664Y-5113324D01*
X6443624Y-5125059D01*
X6452108Y-5135778D01*
X6461912Y-5145278D01*
X6472885Y-5153355D01*
X6484823Y-5159908D01*
X6497574Y-5164785D01*
X6510832Y-5167985D01*
X6524396Y-5169306D01*
X6538010Y-5168849D01*
X6551472Y-5166614D01*
X6564477Y-5162550D01*
X6576872Y-5156809D01*
X6588353Y-5149494D01*
X6598767Y-5140706D01*
X6607911Y-5130546D01*
X6615633Y-5119319D01*
X6621780Y-5107178D01*
X6626250Y-5094274D01*
X6628993Y-5080914D01*
X6629908Y-5067300D01*
X6628993Y-5053685D01*
X6626250Y-5040325D01*
X6621780Y-5027422D01*
X6615633Y-5015280D01*
X6607911Y-5004054D01*
X6598767Y-4993894D01*
X6588353Y-4985105D01*
X6576872Y-4977790D01*
X6564477Y-4972050D01*
X6551472Y-4967986D01*
X6538010Y-4965750D01*
X6524396Y-4965293D01*
X6510832Y-4966614D01*
X6506921Y-4967579D01*
X6503466Y-4967782D01*
X6500164Y-4966868D01*
X6497370Y-4964887D01*
X6289598Y-4757064D01*
X6287363Y-4753813D01*
X6286601Y-4749901D01*
X6286601Y-4665370D01*
X6287516Y-4661103D01*
X6290157Y-4657648D01*
X6293967Y-4655616D01*
X6298336Y-4655312D01*
X6302349Y-4656886D01*
X6305397Y-4659985D01*
X6308344Y-4664760D01*
X6310985Y-4668215D01*
X6314135Y-4671669D01*
X6425234Y-4782718D01*
X6427266Y-4785664D01*
X6428181Y-4789068D01*
X6425946Y-4806492D01*
X6425946Y-4820107D01*
X6427774Y-4833620D01*
X6431381Y-4846777D01*
X6436664Y-4859324D01*
X6443624Y-4871059D01*
X6452108Y-4881778D01*
X6461912Y-4891278D01*
X6472885Y-4899355D01*
X6484823Y-4905908D01*
X6497574Y-4910785D01*
X6510832Y-4913985D01*
X6524396Y-4915306D01*
X6538010Y-4914849D01*
X6551472Y-4912614D01*
X6564477Y-4908550D01*
X6576872Y-4902809D01*
X6588353Y-4895494D01*
X6598767Y-4886706D01*
X6607911Y-4876546D01*
X6615633Y-4865319D01*
X6621780Y-4853178D01*
X6626250Y-4840274D01*
X6628993Y-4826914D01*
X6629908Y-4813300D01*
X6628993Y-4799685D01*
X6626250Y-4786325D01*
X6621780Y-4773422D01*
X6615633Y-4761280D01*
X6607911Y-4750054D01*
X6598767Y-4739894D01*
X6588353Y-4731105D01*
X6576872Y-4723790D01*
X6564477Y-4718050D01*
X6551472Y-4713986D01*
X6538010Y-4711750D01*
X6524396Y-4711293D01*
X6510832Y-4712614D01*
X6506921Y-4713579D01*
X6503466Y-4713782D01*
X6500164Y-4712868D01*
X6497370Y-4710887D01*
X6403898Y-4617364D01*
X6401663Y-4614113D01*
X6400901Y-4610201D01*
X6400901Y-4102303D01*
X6400698Y-4097680D01*
X6400139Y-4093260D01*
X6399174Y-4088942D01*
X6397853Y-4084675D01*
X6396126Y-4080611D01*
X6394094Y-4076649D01*
X6391706Y-4072890D01*
X6389014Y-4069384D01*
X6385864Y-4065930D01*
X5564886Y-3245002D01*
X5562701Y-3241700D01*
X5561888Y-3237788D01*
X5561888Y-3189478D01*
X5561177Y-3183128D01*
X5559298Y-3177692D01*
X5556199Y-3172764D01*
X5552135Y-3168700D01*
X5547207Y-3165602D01*
X5541772Y-3163722D01*
X5535422Y-3163011D01*
X5386578Y-3163011D01*
X5380228Y-3163722D01*
X5374792Y-3165602D01*
X5369864Y-3168700D01*
X5365800Y-3172764D01*
X5362702Y-3177692D01*
X5360822Y-3183128D01*
X5360111Y-3189478D01*
X5360111Y-3338322D01*
X5360822Y-3344672D01*
X5362702Y-3350107D01*
X5365800Y-3355035D01*
X5369864Y-3359099D01*
X5374792Y-3362198D01*
X5380228Y-3364077D01*
X5386578Y-3364788D01*
X5535422Y-3364788D01*
X5539841Y-3365347D01*
X5543651Y-3367735D01*
X6296101Y-4120235D01*
X6298336Y-4123486D01*
X6299098Y-4127398D01*
X6299098Y-4211929D01*
X6298184Y-4216196D01*
X6295542Y-4219651D01*
X6291732Y-4221683D01*
X6287363Y-4221988D01*
X6283350Y-4220413D01*
X6280302Y-4217314D01*
X6277356Y-4212539D01*
X6274714Y-4209084D01*
X6271564Y-4205630D01*
X5564886Y-3499002D01*
X5562701Y-3495700D01*
X5561888Y-3491788D01*
X5561888Y-3443478D01*
X5561177Y-3437128D01*
X5559298Y-3431692D01*
X5556199Y-3426764D01*
X5552135Y-3422700D01*
X5547207Y-3419601D01*
X5541772Y-3417722D01*
X5535422Y-3417011D01*
X5386578Y-3417011D01*
X5380228Y-3417722D01*
X5374792Y-3419601D01*
X5369864Y-3422700D01*
X5365800Y-3426764D01*
X5362702Y-3431692D01*
X5360822Y-3437128D01*
X5360111Y-3443478D01*
X5360111Y-3592322D01*
X5360822Y-3598672D01*
X5362702Y-3604107D01*
X5365800Y-3609035D01*
X5369864Y-3613099D01*
X5374792Y-3616198D01*
X5380228Y-3618077D01*
X5386578Y-3618788D01*
X5535422Y-3618788D01*
X5539841Y-3619347D01*
X5543651Y-3621735D01*
X6181801Y-4259935D01*
X6184036Y-4263186D01*
X6184798Y-4267098D01*
X6184798Y-4335678D01*
X6184036Y-4339539D01*
X6181801Y-4342841D01*
X6178499Y-4345076D01*
X6174638Y-4345838D01*
X6170726Y-4345076D01*
X6167424Y-4342841D01*
X5564886Y-3740302D01*
X5562701Y-3737000D01*
X5561888Y-3733088D01*
X5561888Y-3697478D01*
X5561177Y-3691128D01*
X5559298Y-3685692D01*
X5556199Y-3680764D01*
X5552135Y-3676700D01*
X5547207Y-3673601D01*
X5541772Y-3671722D01*
X5535422Y-3671011D01*
X5386578Y-3671011D01*
X5380228Y-3671722D01*
X5374792Y-3673601D01*
X5369864Y-3676700D01*
X5365800Y-3680764D01*
X5362702Y-3685692D01*
X5360822Y-3691128D01*
X5360111Y-3697478D01*
X5360111Y-3846322D01*
X5360822Y-3852672D01*
X5362702Y-3858107D01*
X5365800Y-3863035D01*
X5369864Y-3867099D01*
X5374792Y-3870198D01*
X5380228Y-3872077D01*
X5386578Y-3872788D01*
X5535422Y-3872788D01*
X5541772Y-3872077D01*
X5543854Y-3871366D01*
X5547563Y-3870807D01*
X5551271Y-3871620D01*
X5554370Y-3873754D01*
X6080201Y-4399635D01*
X6082436Y-4402886D01*
X6083198Y-4406798D01*
X6083198Y-4927396D01*
X6083401Y-4932019D01*
X6083960Y-4936439D01*
X6084925Y-4940757D01*
X6086246Y-4945024D01*
X6087973Y-4949088D01*
X6090005Y-4953050D01*
X6092393Y-4956810D01*
X6095085Y-4960315D01*
X6098235Y-4963769D01*
X6425234Y-5290718D01*
X6427266Y-5293664D01*
X6428181Y-5297068D01*
X6425946Y-5314492D01*
X6425946Y-5328107D01*
X6427774Y-5341620D01*
X6431381Y-5354777D01*
X6436664Y-5367324D01*
X6443624Y-5379059D01*
X6452108Y-5389778D01*
X6461912Y-5399278D01*
X6472885Y-5407355D01*
X6484823Y-5413908D01*
X6497574Y-5418785D01*
X6510832Y-5421985D01*
G37*
G36*
X7753350Y-5159095D02*
G01*
X7753350Y-5111750D01*
X7706004Y-5111750D01*
X7706664Y-5113324D01*
X7713624Y-5125059D01*
X7722108Y-5135778D01*
X7731912Y-5145278D01*
X7742885Y-5153355D01*
G37*
G36*
X8375650Y-5158943D02*
G01*
X8375650Y-5111750D01*
X8328456Y-5111750D01*
X8330590Y-5116372D01*
X8337905Y-5127853D01*
X8346694Y-5138267D01*
X8356853Y-5147411D01*
X8368080Y-5155133D01*
G37*
G36*
X7842250Y-5158943D02*
G01*
X7846872Y-5156809D01*
X7858353Y-5149494D01*
X7868767Y-5140706D01*
X7877911Y-5130546D01*
X7885633Y-5119319D01*
X7889443Y-5111750D01*
X7842250Y-5111750D01*
G37*
G36*
X8464550Y-5158943D02*
G01*
X8472119Y-5155133D01*
X8483346Y-5147411D01*
X8493506Y-5138267D01*
X8502294Y-5127853D01*
X8509609Y-5116372D01*
X8511743Y-5111750D01*
X8464550Y-5111750D01*
G37*
G36*
X7842250Y-5022850D02*
G01*
X7889443Y-5022850D01*
X7885633Y-5015280D01*
X7877911Y-5004054D01*
X7868767Y-4993894D01*
X7858353Y-4985105D01*
X7846872Y-4977790D01*
X7842250Y-4975656D01*
G37*
G36*
X8328304Y-5022850D02*
G01*
X8375650Y-5022850D01*
X8375650Y-4975504D01*
X8374075Y-4976164D01*
X8362340Y-4983124D01*
X8351621Y-4991608D01*
X8342122Y-5001412D01*
X8334044Y-5012385D01*
G37*
G36*
X7706004Y-5022850D02*
G01*
X7753350Y-5022850D01*
X7753350Y-4975504D01*
X7742885Y-4981244D01*
X7731912Y-4989322D01*
X7722108Y-4998821D01*
X7713624Y-5009540D01*
X7706664Y-5021275D01*
G37*
G36*
X8464550Y-5022850D02*
G01*
X8511895Y-5022850D01*
X8506155Y-5012385D01*
X8498078Y-5001412D01*
X8488578Y-4991608D01*
X8477859Y-4983124D01*
X8466124Y-4976164D01*
X8464550Y-4975504D01*
G37*
G36*
X10007600Y-5012690D02*
G01*
X10023398Y-5011775D01*
X10038943Y-5009032D01*
X10054082Y-5004511D01*
X10068610Y-4998212D01*
X10082276Y-4990338D01*
X10094925Y-4980889D01*
X10106456Y-4970068D01*
X10116616Y-4957927D01*
X10125303Y-4944770D01*
X10132364Y-4930648D01*
X10137800Y-4915763D01*
X10141407Y-4900422D01*
X10143236Y-4884724D01*
X10143236Y-4868875D01*
X10141407Y-4853178D01*
X10137800Y-4837836D01*
X10132364Y-4822952D01*
X10125303Y-4808829D01*
X10116616Y-4795672D01*
X10106456Y-4783531D01*
X10094925Y-4772710D01*
X10082276Y-4763262D01*
X10068610Y-4755388D01*
X10054082Y-4749088D01*
X10038943Y-4744567D01*
X10023398Y-4741824D01*
X10007600Y-4740910D01*
X9991801Y-4741824D01*
X9976256Y-4744567D01*
X9961118Y-4749088D01*
X9946589Y-4755388D01*
X9932924Y-4763262D01*
X9920274Y-4772710D01*
X9908743Y-4783531D01*
X9898583Y-4795672D01*
X9889896Y-4808829D01*
X9882835Y-4822952D01*
X9877399Y-4837836D01*
X9873792Y-4853178D01*
X9871964Y-4868875D01*
X9871964Y-4884724D01*
X9873792Y-4900422D01*
X9877399Y-4915763D01*
X9882835Y-4930648D01*
X9889896Y-4944770D01*
X9898583Y-4957927D01*
X9908743Y-4970068D01*
X9920274Y-4980889D01*
X9932924Y-4990338D01*
X9946589Y-4998212D01*
X9961118Y-5004511D01*
X9976256Y-5009032D01*
X9991801Y-5011775D01*
G37*
G36*
X8420100Y-4915408D02*
G01*
X8433714Y-4914493D01*
X8447074Y-4911750D01*
X8459978Y-4907280D01*
X8472119Y-4901133D01*
X8483346Y-4893411D01*
X8493506Y-4884267D01*
X8502294Y-4873853D01*
X8509609Y-4862372D01*
X8515350Y-4849977D01*
X8519414Y-4836972D01*
X8521649Y-4823510D01*
X8522106Y-4809896D01*
X8520785Y-4796332D01*
X8517585Y-4783074D01*
X8512708Y-4770323D01*
X8506155Y-4758385D01*
X8498078Y-4747412D01*
X8488578Y-4737608D01*
X8477859Y-4729124D01*
X8466124Y-4722164D01*
X8453577Y-4716881D01*
X8440420Y-4713274D01*
X8426907Y-4711446D01*
X8413292Y-4711446D01*
X8399780Y-4713274D01*
X8386622Y-4716881D01*
X8374075Y-4722164D01*
X8362340Y-4729124D01*
X8351621Y-4737608D01*
X8342122Y-4747412D01*
X8334044Y-4758385D01*
X8327491Y-4770323D01*
X8322614Y-4783074D01*
X8319414Y-4796332D01*
X8318093Y-4809896D01*
X8318550Y-4823510D01*
X8320786Y-4836972D01*
X8324850Y-4849977D01*
X8330590Y-4862372D01*
X8337905Y-4873853D01*
X8346694Y-4884267D01*
X8356853Y-4893411D01*
X8368080Y-4901133D01*
X8380222Y-4907280D01*
X8393125Y-4911750D01*
X8406485Y-4914493D01*
G37*
G36*
X7794396Y-4915306D02*
G01*
X7808010Y-4914849D01*
X7821472Y-4912614D01*
X7834477Y-4908550D01*
X7846872Y-4902809D01*
X7858353Y-4895494D01*
X7868767Y-4886706D01*
X7877911Y-4876546D01*
X7885633Y-4865319D01*
X7891780Y-4853178D01*
X7896250Y-4840274D01*
X7898993Y-4826914D01*
X7899908Y-4813300D01*
X7898993Y-4799685D01*
X7896250Y-4786325D01*
X7891780Y-4773422D01*
X7885633Y-4761280D01*
X7877911Y-4750054D01*
X7868767Y-4739894D01*
X7858353Y-4731105D01*
X7846872Y-4723790D01*
X7834477Y-4718050D01*
X7821472Y-4713986D01*
X7808010Y-4711750D01*
X7794396Y-4711293D01*
X7780832Y-4712614D01*
X7767574Y-4715814D01*
X7754823Y-4720691D01*
X7742885Y-4727244D01*
X7731912Y-4735322D01*
X7722108Y-4744821D01*
X7713624Y-4755540D01*
X7706664Y-4767275D01*
X7701381Y-4779822D01*
X7697774Y-4792980D01*
X7695946Y-4806492D01*
X7695946Y-4820107D01*
X7697774Y-4833620D01*
X7701381Y-4846777D01*
X7706664Y-4859324D01*
X7713624Y-4871059D01*
X7722108Y-4881778D01*
X7731912Y-4891278D01*
X7742885Y-4899355D01*
X7754823Y-4905908D01*
X7767574Y-4910785D01*
X7780832Y-4913985D01*
G37*
G36*
X3968140Y-4634788D02*
G01*
X3998722Y-4634788D01*
X4005072Y-4634077D01*
X4010507Y-4632198D01*
X4015435Y-4629099D01*
X4019499Y-4625035D01*
X4022598Y-4620107D01*
X4024477Y-4614672D01*
X4025188Y-4608322D01*
X4025188Y-4577740D01*
X3968140Y-4577740D01*
G37*
G36*
X3849878Y-4634788D02*
G01*
X3880459Y-4634788D01*
X3880459Y-4577740D01*
X3823411Y-4577740D01*
X3823411Y-4608322D01*
X3824122Y-4614672D01*
X3826001Y-4620107D01*
X3829100Y-4625035D01*
X3833164Y-4629099D01*
X3838092Y-4632198D01*
X3843528Y-4634077D01*
G37*
G36*
X4611878Y-4634788D02*
G01*
X4760722Y-4634788D01*
X4767072Y-4634077D01*
X4772507Y-4632198D01*
X4777435Y-4629099D01*
X4781499Y-4625035D01*
X4784598Y-4620107D01*
X4786477Y-4614672D01*
X4787188Y-4608322D01*
X4787188Y-4459478D01*
X4786477Y-4453128D01*
X4784598Y-4447692D01*
X4781499Y-4442764D01*
X4777435Y-4438700D01*
X4772507Y-4435602D01*
X4767072Y-4433722D01*
X4760722Y-4433011D01*
X4611878Y-4433011D01*
X4605528Y-4433722D01*
X4600092Y-4435602D01*
X4595164Y-4438700D01*
X4591100Y-4442764D01*
X4588002Y-4447692D01*
X4586122Y-4453128D01*
X4585411Y-4459478D01*
X4585411Y-4608322D01*
X4586122Y-4614672D01*
X4588002Y-4620107D01*
X4591100Y-4625035D01*
X4595164Y-4629099D01*
X4600092Y-4632198D01*
X4605528Y-4634077D01*
G37*
G36*
X5386578Y-4634788D02*
G01*
X5535422Y-4634788D01*
X5541772Y-4634077D01*
X5547207Y-4632198D01*
X5552135Y-4629099D01*
X5556199Y-4625035D01*
X5559298Y-4620107D01*
X5561177Y-4614672D01*
X5561888Y-4608322D01*
X5561888Y-4459478D01*
X5561177Y-4453128D01*
X5559298Y-4447692D01*
X5556199Y-4442764D01*
X5552135Y-4438700D01*
X5547207Y-4435602D01*
X5541772Y-4433722D01*
X5535422Y-4433011D01*
X5386578Y-4433011D01*
X5380228Y-4433722D01*
X5374792Y-4435602D01*
X5369864Y-4438700D01*
X5365800Y-4442764D01*
X5362702Y-4447692D01*
X5360822Y-4453128D01*
X5360111Y-4459478D01*
X5360111Y-4608322D01*
X5360822Y-4614672D01*
X5362702Y-4620107D01*
X5365800Y-4625035D01*
X5369864Y-4629099D01*
X5374792Y-4632198D01*
X5380228Y-4634077D01*
G37*
G36*
X4357878Y-4634788D02*
G01*
X4506722Y-4634788D01*
X4513072Y-4634077D01*
X4518507Y-4632198D01*
X4523435Y-4629099D01*
X4527499Y-4625035D01*
X4530598Y-4620107D01*
X4532477Y-4614672D01*
X4533188Y-4608322D01*
X4533188Y-4459478D01*
X4532477Y-4453128D01*
X4530598Y-4447692D01*
X4527499Y-4442764D01*
X4523435Y-4438700D01*
X4518507Y-4435602D01*
X4513072Y-4433722D01*
X4506722Y-4433011D01*
X4357878Y-4433011D01*
X4351528Y-4433722D01*
X4346092Y-4435602D01*
X4341164Y-4438700D01*
X4337100Y-4442764D01*
X4334002Y-4447692D01*
X4332122Y-4453128D01*
X4331411Y-4459478D01*
X4331411Y-4608322D01*
X4332122Y-4614672D01*
X4334002Y-4620107D01*
X4337100Y-4625035D01*
X4341164Y-4629099D01*
X4346092Y-4632198D01*
X4351528Y-4634077D01*
G37*
G36*
X4865878Y-4634788D02*
G01*
X5014722Y-4634788D01*
X5021072Y-4634077D01*
X5026507Y-4632198D01*
X5031435Y-4629099D01*
X5035499Y-4625035D01*
X5038598Y-4620107D01*
X5040477Y-4614672D01*
X5041188Y-4608322D01*
X5041188Y-4459478D01*
X5040477Y-4453128D01*
X5038598Y-4447692D01*
X5035499Y-4442764D01*
X5031435Y-4438700D01*
X5026507Y-4435602D01*
X5021072Y-4433722D01*
X5014722Y-4433011D01*
X4865878Y-4433011D01*
X4859528Y-4433722D01*
X4854092Y-4435602D01*
X4849164Y-4438700D01*
X4845100Y-4442764D01*
X4842002Y-4447692D01*
X4840122Y-4453128D01*
X4839411Y-4459478D01*
X4839411Y-4608322D01*
X4840122Y-4614672D01*
X4842002Y-4620107D01*
X4845100Y-4625035D01*
X4849164Y-4629099D01*
X4854092Y-4632198D01*
X4859528Y-4634077D01*
G37*
G36*
X3968140Y-4490059D02*
G01*
X4025188Y-4490059D01*
X4025188Y-4459478D01*
X4024477Y-4453128D01*
X4022598Y-4447692D01*
X4019499Y-4442764D01*
X4015435Y-4438700D01*
X4010507Y-4435602D01*
X4005072Y-4433722D01*
X3998722Y-4433011D01*
X3968140Y-4433011D01*
G37*
G36*
X3823411Y-4490059D02*
G01*
X3880459Y-4490059D01*
X3880459Y-4433011D01*
X3849878Y-4433011D01*
X3843528Y-4433722D01*
X3838092Y-4435602D01*
X3833164Y-4438700D01*
X3829100Y-4442764D01*
X3826001Y-4447692D01*
X3824122Y-4453128D01*
X3823411Y-4459478D01*
G37*
G36*
X5386578Y-4380788D02*
G01*
X5535422Y-4380788D01*
X5541772Y-4380077D01*
X5547207Y-4378198D01*
X5552135Y-4375099D01*
X5556199Y-4371035D01*
X5559298Y-4366107D01*
X5561177Y-4360672D01*
X5561888Y-4354322D01*
X5561888Y-4205478D01*
X5561177Y-4199128D01*
X5559298Y-4193692D01*
X5556199Y-4188764D01*
X5552135Y-4184700D01*
X5547207Y-4181601D01*
X5541772Y-4179722D01*
X5535422Y-4179011D01*
X5386578Y-4179011D01*
X5380228Y-4179722D01*
X5374792Y-4181601D01*
X5369864Y-4184700D01*
X5365800Y-4188764D01*
X5362702Y-4193692D01*
X5360822Y-4199128D01*
X5360111Y-4205478D01*
X5360111Y-4354322D01*
X5360822Y-4360672D01*
X5362702Y-4366107D01*
X5365800Y-4371035D01*
X5369864Y-4375099D01*
X5374792Y-4378198D01*
X5380228Y-4380077D01*
G37*
G36*
X3849878Y-4380788D02*
G01*
X3998722Y-4380788D01*
X4005072Y-4380077D01*
X4010507Y-4378198D01*
X4015435Y-4375099D01*
X4019499Y-4371035D01*
X4022598Y-4366107D01*
X4024477Y-4360672D01*
X4025188Y-4354322D01*
X4025188Y-4205478D01*
X4024477Y-4199128D01*
X4022598Y-4193692D01*
X4019499Y-4188764D01*
X4015435Y-4184700D01*
X4010507Y-4181601D01*
X4005072Y-4179722D01*
X3998722Y-4179011D01*
X3849878Y-4179011D01*
X3843528Y-4179722D01*
X3838092Y-4181601D01*
X3833164Y-4184700D01*
X3829100Y-4188764D01*
X3826001Y-4193692D01*
X3824122Y-4199128D01*
X3823411Y-4205478D01*
X3823411Y-4354322D01*
X3824122Y-4360672D01*
X3826001Y-4366107D01*
X3829100Y-4371035D01*
X3833164Y-4375099D01*
X3838092Y-4378198D01*
X3843528Y-4380077D01*
G37*
G36*
X10784433Y-4363008D02*
G01*
X10784433Y-4303166D01*
X10724794Y-4303166D01*
X10728096Y-4309770D01*
X10736783Y-4322927D01*
X10746943Y-4335068D01*
X10758474Y-4345889D01*
X10771124Y-4355338D01*
G37*
G36*
X10907166Y-4363008D02*
G01*
X10920476Y-4355338D01*
X10933125Y-4345889D01*
X10944656Y-4335068D01*
X10954816Y-4322927D01*
X10963503Y-4309770D01*
X10966805Y-4303166D01*
X10907166Y-4303166D01*
G37*
G36*
X10907166Y-4180433D02*
G01*
X10966805Y-4180433D01*
X10963503Y-4173829D01*
X10954816Y-4160672D01*
X10944656Y-4148531D01*
X10933125Y-4137710D01*
X10920476Y-4128262D01*
X10907166Y-4120591D01*
G37*
G36*
X10724794Y-4180433D02*
G01*
X10784433Y-4180433D01*
X10784433Y-4120591D01*
X10771124Y-4128262D01*
X10758474Y-4137710D01*
X10746943Y-4148531D01*
X10736783Y-4160672D01*
X10728096Y-4173829D01*
G37*
G36*
X3849878Y-3872788D02*
G01*
X3998722Y-3872788D01*
X4005072Y-3872077D01*
X4010507Y-3870198D01*
X4015435Y-3867099D01*
X4019499Y-3863035D01*
X4022598Y-3858107D01*
X4024477Y-3852672D01*
X4025188Y-3846322D01*
X4025188Y-3697478D01*
X4024477Y-3691128D01*
X4022598Y-3685692D01*
X4019499Y-3680764D01*
X4015435Y-3676700D01*
X4010507Y-3673601D01*
X4005072Y-3671722D01*
X3998722Y-3671011D01*
X3849878Y-3671011D01*
X3843528Y-3671722D01*
X3838092Y-3673601D01*
X3833164Y-3676700D01*
X3829100Y-3680764D01*
X3826001Y-3685692D01*
X3824122Y-3691128D01*
X3823411Y-3697478D01*
X3823411Y-3846322D01*
X3824122Y-3852672D01*
X3826001Y-3858107D01*
X3829100Y-3863035D01*
X3833164Y-3867099D01*
X3838092Y-3870198D01*
X3843528Y-3872077D01*
G37*
G36*
X6974738Y-3777945D02*
G01*
X6984288Y-3776675D01*
X6993483Y-3773881D01*
X7002119Y-3769512D01*
X7009892Y-3763772D01*
X7016546Y-3756812D01*
X7021931Y-3748836D01*
X7025944Y-3740048D01*
X7028332Y-3730701D01*
X7029196Y-3721100D01*
X7028332Y-3711498D01*
X7025944Y-3702151D01*
X7024116Y-3698138D01*
X7023201Y-3693972D01*
X7023201Y-3581298D01*
X7023963Y-3577386D01*
X7026198Y-3574135D01*
X7257135Y-3343198D01*
X7260386Y-3340963D01*
X7264298Y-3340201D01*
X7703769Y-3340201D01*
X7707223Y-3340811D01*
X7710271Y-3342538D01*
X7712506Y-3345179D01*
X7713624Y-3347059D01*
X7722108Y-3357778D01*
X7731912Y-3367278D01*
X7742885Y-3375355D01*
X7754823Y-3381908D01*
X7767574Y-3386785D01*
X7780832Y-3389985D01*
X7794396Y-3391306D01*
X7808010Y-3390849D01*
X7821472Y-3388614D01*
X7834477Y-3384550D01*
X7846872Y-3378809D01*
X7858353Y-3371494D01*
X7868767Y-3362706D01*
X7877911Y-3352546D01*
X7885633Y-3341319D01*
X7891780Y-3329178D01*
X7896250Y-3316274D01*
X7898993Y-3302914D01*
X7899908Y-3289300D01*
X7898993Y-3275685D01*
X7896250Y-3262325D01*
X7891780Y-3249422D01*
X7885633Y-3237280D01*
X7877911Y-3226054D01*
X7868767Y-3215894D01*
X7858353Y-3207105D01*
X7846872Y-3199790D01*
X7834477Y-3194050D01*
X7821472Y-3189986D01*
X7808010Y-3187750D01*
X7794396Y-3187293D01*
X7780832Y-3188614D01*
X7767574Y-3191814D01*
X7754823Y-3196691D01*
X7742885Y-3203244D01*
X7731912Y-3211322D01*
X7722108Y-3220821D01*
X7713624Y-3231540D01*
X7712506Y-3233420D01*
X7710271Y-3236061D01*
X7707223Y-3237788D01*
X7703769Y-3238398D01*
X7239203Y-3238398D01*
X7234580Y-3238601D01*
X7230160Y-3239160D01*
X7225842Y-3240125D01*
X7221575Y-3241446D01*
X7217511Y-3243173D01*
X7213549Y-3245205D01*
X7209790Y-3247593D01*
X7206284Y-3250285D01*
X7202830Y-3253435D01*
X6936435Y-3519830D01*
X6933285Y-3523284D01*
X6930593Y-3526790D01*
X6928205Y-3530549D01*
X6926173Y-3534511D01*
X6924446Y-3538575D01*
X6923125Y-3542842D01*
X6922160Y-3547160D01*
X6921601Y-3551580D01*
X6921398Y-3556203D01*
X6921398Y-3693414D01*
X6920788Y-3696766D01*
X6917283Y-3706774D01*
X6915658Y-3716274D01*
X6915658Y-3725926D01*
X6917283Y-3735425D01*
X6920484Y-3744518D01*
X6925157Y-3752951D01*
X6931253Y-3760470D01*
X6938467Y-3766820D01*
X6946696Y-3771900D01*
X6955637Y-3775456D01*
X6965086Y-3777487D01*
G37*
G36*
X7753350Y-3635095D02*
G01*
X7753350Y-3587750D01*
X7706004Y-3587750D01*
X7706664Y-3589324D01*
X7713624Y-3601059D01*
X7722108Y-3611778D01*
X7731912Y-3621278D01*
X7742885Y-3629355D01*
G37*
G36*
X7842250Y-3634943D02*
G01*
X7846872Y-3632809D01*
X7858353Y-3625494D01*
X7868767Y-3616706D01*
X7877911Y-3606546D01*
X7885633Y-3595319D01*
X7889443Y-3587750D01*
X7842250Y-3587750D01*
G37*
G36*
X3849878Y-3618788D02*
G01*
X3998722Y-3618788D01*
X4005072Y-3618077D01*
X4010507Y-3616198D01*
X4015435Y-3613099D01*
X4019499Y-3609035D01*
X4022598Y-3604107D01*
X4024477Y-3598672D01*
X4025188Y-3592322D01*
X4025188Y-3443478D01*
X4024477Y-3437128D01*
X4022598Y-3431692D01*
X4019499Y-3426764D01*
X4015435Y-3422700D01*
X4010507Y-3419601D01*
X4005072Y-3417722D01*
X3998722Y-3417011D01*
X3849878Y-3417011D01*
X3843528Y-3417722D01*
X3838092Y-3419601D01*
X3833164Y-3422700D01*
X3829100Y-3426764D01*
X3826001Y-3431692D01*
X3824122Y-3437128D01*
X3823411Y-3443478D01*
X3823411Y-3592322D01*
X3824122Y-3598672D01*
X3826001Y-3604107D01*
X3829100Y-3609035D01*
X3833164Y-3613099D01*
X3838092Y-3616198D01*
X3843528Y-3618077D01*
G37*
G36*
X7842250Y-3498850D02*
G01*
X7889443Y-3498850D01*
X7885633Y-3491280D01*
X7877911Y-3480054D01*
X7868767Y-3469894D01*
X7858353Y-3461105D01*
X7846872Y-3453790D01*
X7842250Y-3451656D01*
G37*
G36*
X7706004Y-3498850D02*
G01*
X7753350Y-3498850D01*
X7753350Y-3451504D01*
X7742885Y-3457244D01*
X7731912Y-3465322D01*
X7722108Y-3474821D01*
X7713624Y-3485540D01*
X7706664Y-3497275D01*
G37*
G36*
X6524396Y-3391306D02*
G01*
X6538010Y-3390849D01*
X6551472Y-3388614D01*
X6564477Y-3384550D01*
X6576872Y-3378809D01*
X6588353Y-3371494D01*
X6598767Y-3362706D01*
X6607911Y-3352546D01*
X6615633Y-3341319D01*
X6621780Y-3329178D01*
X6626250Y-3316274D01*
X6628993Y-3302914D01*
X6629908Y-3289300D01*
X6628993Y-3275685D01*
X6626250Y-3262325D01*
X6621780Y-3249422D01*
X6615633Y-3237280D01*
X6607911Y-3226054D01*
X6598767Y-3215894D01*
X6588353Y-3207105D01*
X6576872Y-3199790D01*
X6564477Y-3194050D01*
X6551472Y-3189986D01*
X6538010Y-3187750D01*
X6524396Y-3187293D01*
X6510832Y-3188614D01*
X6497574Y-3191814D01*
X6484823Y-3196691D01*
X6472885Y-3203244D01*
X6461912Y-3211322D01*
X6452108Y-3220821D01*
X6443624Y-3231540D01*
X6436664Y-3243275D01*
X6431381Y-3255822D01*
X6427774Y-3268979D01*
X6425946Y-3282492D01*
X6425946Y-3296107D01*
X6427774Y-3309620D01*
X6431381Y-3322777D01*
X6436664Y-3335324D01*
X6443624Y-3347059D01*
X6452108Y-3357778D01*
X6461912Y-3367278D01*
X6472885Y-3375355D01*
X6484823Y-3381908D01*
X6497574Y-3386785D01*
X6510832Y-3389985D01*
G37*
G36*
X10020300Y-3247390D02*
G01*
X10036098Y-3246475D01*
X10051643Y-3243732D01*
X10066782Y-3239211D01*
X10081310Y-3232912D01*
X10094976Y-3225038D01*
X10107625Y-3215589D01*
X10119156Y-3204768D01*
X10129316Y-3192627D01*
X10138003Y-3179470D01*
X10145064Y-3165348D01*
X10150500Y-3150463D01*
X10154107Y-3135122D01*
X10155936Y-3119424D01*
X10155936Y-3103575D01*
X10154107Y-3087878D01*
X10150500Y-3072536D01*
X10145064Y-3057652D01*
X10138003Y-3043529D01*
X10129316Y-3030372D01*
X10119156Y-3018231D01*
X10107625Y-3007410D01*
X10094976Y-2997962D01*
X10081310Y-2990088D01*
X10066782Y-2983788D01*
X10051643Y-2979267D01*
X10036098Y-2976524D01*
X10020300Y-2975610D01*
X10004501Y-2976524D01*
X9988956Y-2979267D01*
X9973818Y-2983788D01*
X9959289Y-2990088D01*
X9945624Y-2997962D01*
X9932974Y-3007410D01*
X9921443Y-3018231D01*
X9911283Y-3030372D01*
X9902596Y-3043529D01*
X9895535Y-3057652D01*
X9890099Y-3072536D01*
X9886492Y-3087878D01*
X9884664Y-3103575D01*
X9884664Y-3119424D01*
X9886492Y-3135122D01*
X9890099Y-3150463D01*
X9895535Y-3165348D01*
X9902596Y-3179470D01*
X9911283Y-3192627D01*
X9921443Y-3204768D01*
X9932974Y-3215589D01*
X9945624Y-3225038D01*
X9959289Y-3232912D01*
X9973818Y-3239211D01*
X9988956Y-3243732D01*
X10004501Y-3246475D01*
G37*
G36*
X7794396Y-3137306D02*
G01*
X7808010Y-3136849D01*
X7821472Y-3134614D01*
X7834477Y-3130550D01*
X7846872Y-3124809D01*
X7858353Y-3117494D01*
X7868767Y-3108706D01*
X7877911Y-3098546D01*
X7885633Y-3087319D01*
X7891780Y-3075178D01*
X7896250Y-3062274D01*
X7898993Y-3048914D01*
X7899908Y-3035300D01*
X7898993Y-3021685D01*
X7896250Y-3008325D01*
X7891780Y-2995422D01*
X7885633Y-2983280D01*
X7877911Y-2972054D01*
X7868767Y-2961894D01*
X7858353Y-2953105D01*
X7846872Y-2945790D01*
X7834477Y-2940050D01*
X7821472Y-2935986D01*
X7808010Y-2933750D01*
X7794396Y-2933293D01*
X7780832Y-2934614D01*
X7767574Y-2937814D01*
X7754823Y-2942691D01*
X7742885Y-2949244D01*
X7731912Y-2957322D01*
X7722108Y-2966821D01*
X7713624Y-2977540D01*
X7706664Y-2989275D01*
X7701381Y-3001822D01*
X7697774Y-3014980D01*
X7695946Y-3028492D01*
X7695946Y-3042107D01*
X7697774Y-3055620D01*
X7701381Y-3068777D01*
X7706664Y-3081324D01*
X7713624Y-3093059D01*
X7722108Y-3103778D01*
X7731912Y-3113278D01*
X7742885Y-3121355D01*
X7754823Y-3127908D01*
X7767574Y-3132785D01*
X7780832Y-3135985D01*
G37*
G36*
X3346450Y-3126943D02*
G01*
X3354019Y-3123133D01*
X3365246Y-3115411D01*
X3375406Y-3106267D01*
X3384194Y-3095853D01*
X3391509Y-3084372D01*
X3393643Y-3079750D01*
X3346450Y-3079750D01*
G37*
G36*
X3257550Y-3126943D02*
G01*
X3257550Y-3079750D01*
X3210356Y-3079750D01*
X3212490Y-3084372D01*
X3219805Y-3095853D01*
X3228594Y-3106267D01*
X3238754Y-3115411D01*
X3249980Y-3123133D01*
G37*
G36*
X3849878Y-3110788D02*
G01*
X3880459Y-3110788D01*
X3880459Y-3053740D01*
X3823411Y-3053740D01*
X3823411Y-3084322D01*
X3824122Y-3090672D01*
X3826001Y-3096107D01*
X3829100Y-3101035D01*
X3833164Y-3105099D01*
X3838092Y-3108198D01*
X3843528Y-3110077D01*
G37*
G36*
X3968140Y-3110788D02*
G01*
X3998722Y-3110788D01*
X4005072Y-3110077D01*
X4010507Y-3108198D01*
X4015435Y-3105099D01*
X4019499Y-3101035D01*
X4022598Y-3096107D01*
X4024477Y-3090672D01*
X4025188Y-3084322D01*
X4025188Y-3053740D01*
X3968140Y-3053740D01*
G37*
G36*
X5386578Y-3110788D02*
G01*
X5535422Y-3110788D01*
X5541772Y-3110077D01*
X5547207Y-3108198D01*
X5552135Y-3105099D01*
X5556199Y-3101035D01*
X5559298Y-3096107D01*
X5561177Y-3090672D01*
X5561888Y-3084322D01*
X5561888Y-2935478D01*
X5561177Y-2929128D01*
X5559298Y-2923692D01*
X5556199Y-2918764D01*
X5552135Y-2914700D01*
X5547207Y-2911602D01*
X5541772Y-2909722D01*
X5535422Y-2909011D01*
X5386578Y-2909011D01*
X5380228Y-2909722D01*
X5374792Y-2911602D01*
X5369864Y-2914700D01*
X5365800Y-2918764D01*
X5362702Y-2923692D01*
X5360822Y-2929128D01*
X5360111Y-2935478D01*
X5360111Y-3084322D01*
X5360822Y-3090672D01*
X5362702Y-3096107D01*
X5365800Y-3101035D01*
X5369864Y-3105099D01*
X5374792Y-3108198D01*
X5380228Y-3110077D01*
G37*
G36*
X3346450Y-2990850D02*
G01*
X3393795Y-2990850D01*
X3388055Y-2980385D01*
X3379978Y-2969412D01*
X3370478Y-2959608D01*
X3359759Y-2951124D01*
X3348024Y-2944164D01*
X3346450Y-2943504D01*
G37*
G36*
X3210204Y-2990850D02*
G01*
X3257550Y-2990850D01*
X3257550Y-2943504D01*
X3255975Y-2944164D01*
X3244240Y-2951124D01*
X3233521Y-2959608D01*
X3224022Y-2969412D01*
X3215944Y-2980385D01*
G37*
G36*
X3823411Y-2966059D02*
G01*
X3880459Y-2966059D01*
X3880459Y-2909011D01*
X3849878Y-2909011D01*
X3843528Y-2909722D01*
X3838092Y-2911602D01*
X3833164Y-2914700D01*
X3829100Y-2918764D01*
X3826001Y-2923692D01*
X3824122Y-2929128D01*
X3823411Y-2935478D01*
G37*
G36*
X3968140Y-2966059D02*
G01*
X4025188Y-2966059D01*
X4025188Y-2935478D01*
X4024477Y-2929128D01*
X4022598Y-2923692D01*
X4019499Y-2918764D01*
X4015435Y-2914700D01*
X4010507Y-2911602D01*
X4005072Y-2909722D01*
X3998722Y-2909011D01*
X3968140Y-2909011D01*
G37*
G36*
X7794396Y-2883306D02*
G01*
X7808010Y-2882849D01*
X7821472Y-2880614D01*
X7834477Y-2876550D01*
X7846872Y-2870809D01*
X7858353Y-2863494D01*
X7868767Y-2854706D01*
X7877911Y-2844546D01*
X7885633Y-2833319D01*
X7891780Y-2821178D01*
X7896250Y-2808274D01*
X7898993Y-2794914D01*
X7899908Y-2781300D01*
X7898993Y-2767685D01*
X7896250Y-2754325D01*
X7891780Y-2741422D01*
X7885633Y-2729280D01*
X7877911Y-2718054D01*
X7868767Y-2707894D01*
X7858353Y-2699105D01*
X7846872Y-2691790D01*
X7834477Y-2686050D01*
X7821472Y-2681986D01*
X7808010Y-2679750D01*
X7794396Y-2679293D01*
X7780832Y-2680614D01*
X7767574Y-2683814D01*
X7754823Y-2688691D01*
X7742885Y-2695244D01*
X7731912Y-2703322D01*
X7722108Y-2712821D01*
X7713624Y-2723540D01*
X7706664Y-2735275D01*
X7701381Y-2747822D01*
X7697774Y-2760980D01*
X7695946Y-2774492D01*
X7695946Y-2788107D01*
X7697774Y-2801620D01*
X7701381Y-2814777D01*
X7706664Y-2827324D01*
X7713624Y-2839059D01*
X7722108Y-2849778D01*
X7731912Y-2859278D01*
X7742885Y-2867355D01*
X7754823Y-2873908D01*
X7767574Y-2878785D01*
X7780832Y-2881985D01*
G37*
G36*
X5386578Y-2856788D02*
G01*
X5535422Y-2856788D01*
X5541772Y-2856077D01*
X5547207Y-2854198D01*
X5552135Y-2851099D01*
X5556199Y-2847035D01*
X5559298Y-2842107D01*
X5561177Y-2836672D01*
X5561888Y-2830322D01*
X5561888Y-2681478D01*
X5561177Y-2675128D01*
X5559298Y-2669692D01*
X5556199Y-2664764D01*
X5552135Y-2660700D01*
X5547207Y-2657602D01*
X5541772Y-2655722D01*
X5535422Y-2655011D01*
X5386578Y-2655011D01*
X5380228Y-2655722D01*
X5374792Y-2657602D01*
X5369864Y-2660700D01*
X5365800Y-2664764D01*
X5362702Y-2669692D01*
X5360822Y-2675128D01*
X5360111Y-2681478D01*
X5360111Y-2830322D01*
X5360822Y-2836672D01*
X5362702Y-2842107D01*
X5365800Y-2847035D01*
X5369864Y-2851099D01*
X5374792Y-2854198D01*
X5380228Y-2856077D01*
G37*
G36*
X10020300Y-2739390D02*
G01*
X10036098Y-2738475D01*
X10051643Y-2735732D01*
X10066782Y-2731211D01*
X10081310Y-2724912D01*
X10094976Y-2717038D01*
X10107625Y-2707589D01*
X10119156Y-2696768D01*
X10129316Y-2684627D01*
X10138003Y-2671470D01*
X10145064Y-2657348D01*
X10150500Y-2642463D01*
X10154107Y-2627122D01*
X10155936Y-2611424D01*
X10155936Y-2595575D01*
X10154107Y-2579878D01*
X10150500Y-2564536D01*
X10145064Y-2549652D01*
X10138003Y-2535529D01*
X10129316Y-2522372D01*
X10119156Y-2510231D01*
X10107625Y-2499410D01*
X10094976Y-2489962D01*
X10081310Y-2482088D01*
X10066782Y-2475788D01*
X10051643Y-2471267D01*
X10036098Y-2468524D01*
X10020300Y-2467610D01*
X10004501Y-2468524D01*
X9988956Y-2471267D01*
X9973818Y-2475788D01*
X9959289Y-2482088D01*
X9945624Y-2489962D01*
X9932974Y-2499410D01*
X9921443Y-2510231D01*
X9911283Y-2522372D01*
X9902596Y-2535529D01*
X9895535Y-2549652D01*
X9890099Y-2564536D01*
X9886492Y-2579878D01*
X9884664Y-2595575D01*
X9884664Y-2611424D01*
X9886492Y-2627122D01*
X9890099Y-2642463D01*
X9895535Y-2657348D01*
X9902596Y-2671470D01*
X9911283Y-2684627D01*
X9921443Y-2696768D01*
X9932974Y-2707589D01*
X9945624Y-2717038D01*
X9959289Y-2724912D01*
X9973818Y-2731211D01*
X9988956Y-2735732D01*
X10004501Y-2738475D01*
G37*
G36*
X7794396Y-2629306D02*
G01*
X7808010Y-2628849D01*
X7821472Y-2626614D01*
X7834477Y-2622550D01*
X7846872Y-2616809D01*
X7858353Y-2609494D01*
X7868767Y-2600706D01*
X7877911Y-2590546D01*
X7885633Y-2579319D01*
X7891780Y-2567178D01*
X7896250Y-2554274D01*
X7898993Y-2540914D01*
X7899908Y-2527300D01*
X7898993Y-2513685D01*
X7896250Y-2500325D01*
X7891780Y-2487422D01*
X7885633Y-2475280D01*
X7877911Y-2464054D01*
X7868767Y-2453894D01*
X7858353Y-2445105D01*
X7846872Y-2437790D01*
X7834477Y-2432050D01*
X7821472Y-2427986D01*
X7808010Y-2425750D01*
X7794396Y-2425293D01*
X7780832Y-2426614D01*
X7767574Y-2429814D01*
X7754823Y-2434691D01*
X7742885Y-2441244D01*
X7731912Y-2449322D01*
X7722108Y-2458821D01*
X7713624Y-2469540D01*
X7706664Y-2481275D01*
X7701381Y-2493822D01*
X7697774Y-2506980D01*
X7695946Y-2520492D01*
X7695946Y-2534107D01*
X7697774Y-2547620D01*
X7701381Y-2560777D01*
X7706664Y-2573324D01*
X7713624Y-2585059D01*
X7722108Y-2595778D01*
X7731912Y-2605278D01*
X7742885Y-2613355D01*
X7754823Y-2619908D01*
X7767574Y-2624785D01*
X7780832Y-2627985D01*
G37*
G36*
X6524396Y-2629306D02*
G01*
X6538010Y-2628849D01*
X6551472Y-2626614D01*
X6564477Y-2622550D01*
X6576872Y-2616809D01*
X6588353Y-2609494D01*
X6598767Y-2600706D01*
X6607911Y-2590546D01*
X6615633Y-2579319D01*
X6621780Y-2567178D01*
X6626250Y-2554274D01*
X6628993Y-2540914D01*
X6629908Y-2527300D01*
X6628993Y-2513685D01*
X6626250Y-2500325D01*
X6621780Y-2487422D01*
X6615633Y-2475280D01*
X6607911Y-2464054D01*
X6598767Y-2453894D01*
X6588353Y-2445105D01*
X6576872Y-2437790D01*
X6564477Y-2432050D01*
X6551472Y-2427986D01*
X6538010Y-2425750D01*
X6524396Y-2425293D01*
X6510832Y-2426614D01*
X6497574Y-2429814D01*
X6484823Y-2434691D01*
X6472885Y-2441244D01*
X6461912Y-2449322D01*
X6452108Y-2458821D01*
X6443624Y-2469540D01*
X6436664Y-2481275D01*
X6431381Y-2493822D01*
X6427774Y-2506980D01*
X6425946Y-2520492D01*
X6425946Y-2534107D01*
X6427774Y-2547620D01*
X6431381Y-2560777D01*
X6436664Y-2573324D01*
X6443624Y-2585059D01*
X6452108Y-2595778D01*
X6461912Y-2605278D01*
X6472885Y-2613355D01*
X6484823Y-2619908D01*
X6497574Y-2624785D01*
X6510832Y-2627985D01*
G37*
G36*
X6524396Y-2375306D02*
G01*
X6538010Y-2374849D01*
X6551472Y-2372614D01*
X6564477Y-2368550D01*
X6576872Y-2362809D01*
X6588353Y-2355494D01*
X6598767Y-2346706D01*
X6607911Y-2336546D01*
X6615633Y-2325319D01*
X6621780Y-2313178D01*
X6626250Y-2300274D01*
X6628993Y-2286914D01*
X6629908Y-2273300D01*
X6628993Y-2259685D01*
X6626250Y-2246325D01*
X6621780Y-2233422D01*
X6615633Y-2221280D01*
X6607911Y-2210054D01*
X6598767Y-2199894D01*
X6588353Y-2191105D01*
X6576872Y-2183790D01*
X6564477Y-2178050D01*
X6551472Y-2173986D01*
X6538010Y-2171750D01*
X6524396Y-2171293D01*
X6510832Y-2172614D01*
X6497574Y-2175814D01*
X6484823Y-2180691D01*
X6472885Y-2187244D01*
X6461912Y-2195322D01*
X6452108Y-2204821D01*
X6443624Y-2215540D01*
X6436664Y-2227275D01*
X6431381Y-2239822D01*
X6427774Y-2252980D01*
X6425946Y-2266492D01*
X6425946Y-2280107D01*
X6427774Y-2293620D01*
X6431381Y-2306777D01*
X6436664Y-2319324D01*
X6443624Y-2331059D01*
X6452108Y-2341778D01*
X6461912Y-2351278D01*
X6472885Y-2359355D01*
X6484823Y-2365908D01*
X6497574Y-2370785D01*
X6510832Y-2373985D01*
G37*
G36*
X7794396Y-2375306D02*
G01*
X7808010Y-2374849D01*
X7821472Y-2372614D01*
X7834477Y-2368550D01*
X7846872Y-2362809D01*
X7858353Y-2355494D01*
X7868767Y-2346706D01*
X7877911Y-2336546D01*
X7885633Y-2325319D01*
X7891780Y-2313178D01*
X7896250Y-2300274D01*
X7898993Y-2286914D01*
X7899908Y-2273300D01*
X7898993Y-2259685D01*
X7896250Y-2246325D01*
X7891780Y-2233422D01*
X7885633Y-2221280D01*
X7877911Y-2210054D01*
X7868767Y-2199894D01*
X7858353Y-2191105D01*
X7846872Y-2183790D01*
X7834477Y-2178050D01*
X7821472Y-2173986D01*
X7808010Y-2171750D01*
X7794396Y-2171293D01*
X7780832Y-2172614D01*
X7767574Y-2175814D01*
X7754823Y-2180691D01*
X7742885Y-2187244D01*
X7731912Y-2195322D01*
X7722108Y-2204821D01*
X7713624Y-2215540D01*
X7706664Y-2227275D01*
X7701381Y-2239822D01*
X7697774Y-2252980D01*
X7695946Y-2266492D01*
X7695946Y-2280107D01*
X7697774Y-2293620D01*
X7701381Y-2306777D01*
X7706664Y-2319324D01*
X7713624Y-2331059D01*
X7722108Y-2341778D01*
X7731912Y-2351278D01*
X7742885Y-2359355D01*
X7754823Y-2365908D01*
X7767574Y-2370785D01*
X7780832Y-2373985D01*
G37*
G36*
X6524396Y-2121306D02*
G01*
X6538010Y-2120849D01*
X6551472Y-2118614D01*
X6564477Y-2114550D01*
X6576872Y-2108809D01*
X6588353Y-2101494D01*
X6598767Y-2092706D01*
X6607911Y-2082546D01*
X6615633Y-2071319D01*
X6621780Y-2059178D01*
X6626250Y-2046274D01*
X6628993Y-2032914D01*
X6629908Y-2019300D01*
X6628993Y-2005685D01*
X6626250Y-1992325D01*
X6621780Y-1979422D01*
X6615633Y-1967280D01*
X6607911Y-1956054D01*
X6598767Y-1945893D01*
X6588353Y-1937105D01*
X6576872Y-1929790D01*
X6564477Y-1924050D01*
X6551472Y-1919986D01*
X6538010Y-1917750D01*
X6524396Y-1917293D01*
X6510832Y-1918614D01*
X6497574Y-1921814D01*
X6484823Y-1926691D01*
X6472885Y-1933244D01*
X6461912Y-1941322D01*
X6452108Y-1950821D01*
X6443624Y-1961540D01*
X6436664Y-1973275D01*
X6431381Y-1985822D01*
X6427774Y-1998980D01*
X6425946Y-2012492D01*
X6425946Y-2026107D01*
X6427774Y-2039620D01*
X6431381Y-2052777D01*
X6436664Y-2065324D01*
X6443624Y-2077059D01*
X6452108Y-2087778D01*
X6461912Y-2097278D01*
X6472885Y-2105355D01*
X6484823Y-2111908D01*
X6497574Y-2116785D01*
X6510832Y-2119985D01*
G37*
G36*
X10020300Y-2117090D02*
G01*
X10036098Y-2116175D01*
X10051643Y-2113432D01*
X10066782Y-2108911D01*
X10081310Y-2102612D01*
X10094976Y-2094738D01*
X10107625Y-2085289D01*
X10119156Y-2074468D01*
X10129316Y-2062327D01*
X10138003Y-2049170D01*
X10145064Y-2035048D01*
X10150500Y-2020163D01*
X10154107Y-2004822D01*
X10155936Y-1989124D01*
X10155936Y-1973275D01*
X10154107Y-1957578D01*
X10150500Y-1942236D01*
X10145064Y-1927352D01*
X10138003Y-1913229D01*
X10129316Y-1900072D01*
X10119156Y-1887931D01*
X10107625Y-1877110D01*
X10094976Y-1867662D01*
X10081310Y-1859788D01*
X10066782Y-1853488D01*
X10051643Y-1848967D01*
X10036098Y-1846224D01*
X10020300Y-1845310D01*
X10004501Y-1846224D01*
X9988956Y-1848967D01*
X9973818Y-1853488D01*
X9959289Y-1859788D01*
X9945624Y-1867662D01*
X9932974Y-1877110D01*
X9921443Y-1887931D01*
X9911283Y-1900072D01*
X9902596Y-1913229D01*
X9895535Y-1927352D01*
X9890099Y-1942236D01*
X9886492Y-1957578D01*
X9884664Y-1973275D01*
X9884664Y-1989124D01*
X9886492Y-2004822D01*
X9890099Y-2020163D01*
X9895535Y-2035048D01*
X9902596Y-2049170D01*
X9911283Y-2062327D01*
X9921443Y-2074468D01*
X9932974Y-2085289D01*
X9945624Y-2094738D01*
X9959289Y-2102612D01*
X9973818Y-2108911D01*
X9988956Y-2113432D01*
X10004501Y-2116175D01*
G37*
G36*
X7753350Y-2111095D02*
G01*
X7753350Y-2063750D01*
X7706004Y-2063750D01*
X7706664Y-2065324D01*
X7713624Y-2077059D01*
X7722108Y-2087778D01*
X7731912Y-2097278D01*
X7742885Y-2105355D01*
G37*
G36*
X7842250Y-2110943D02*
G01*
X7846872Y-2108809D01*
X7858353Y-2101494D01*
X7868767Y-2092706D01*
X7877911Y-2082546D01*
X7885633Y-2071319D01*
X7889443Y-2063750D01*
X7842250Y-2063750D01*
G37*
G36*
X8388350Y-2110943D02*
G01*
X8388350Y-2063750D01*
X8341156Y-2063750D01*
X8343290Y-2068372D01*
X8350605Y-2079853D01*
X8359394Y-2090267D01*
X8369553Y-2099411D01*
X8380780Y-2107133D01*
G37*
G36*
X8477250Y-2110943D02*
G01*
X8484819Y-2107133D01*
X8496046Y-2099411D01*
X8506206Y-2090267D01*
X8514994Y-2079853D01*
X8522309Y-2068372D01*
X8524443Y-2063750D01*
X8477250Y-2063750D01*
G37*
G36*
X7842250Y-1974850D02*
G01*
X7889443Y-1974850D01*
X7885633Y-1967280D01*
X7877911Y-1956054D01*
X7868767Y-1945893D01*
X7858353Y-1937105D01*
X7846872Y-1929790D01*
X7842250Y-1927656D01*
G37*
G36*
X7706004Y-1974850D02*
G01*
X7753350Y-1974850D01*
X7753350Y-1927504D01*
X7742885Y-1933244D01*
X7731912Y-1941322D01*
X7722108Y-1950821D01*
X7713624Y-1961540D01*
X7706664Y-1973275D01*
G37*
G36*
X8477250Y-1974850D02*
G01*
X8524595Y-1974850D01*
X8518855Y-1964385D01*
X8510778Y-1953412D01*
X8501278Y-1943607D01*
X8490559Y-1935124D01*
X8478824Y-1928164D01*
X8477250Y-1927504D01*
G37*
G36*
X8341004Y-1974850D02*
G01*
X8388350Y-1974850D01*
X8388350Y-1927504D01*
X8386775Y-1928164D01*
X8375040Y-1935124D01*
X8364321Y-1943607D01*
X8354822Y-1953412D01*
X8346744Y-1964385D01*
G37*
G36*
X8432800Y-1867407D02*
G01*
X8446414Y-1866493D01*
X8459774Y-1863750D01*
X8472678Y-1859280D01*
X8484819Y-1853133D01*
X8496046Y-1845411D01*
X8506206Y-1836267D01*
X8514994Y-1825853D01*
X8522309Y-1814372D01*
X8528050Y-1801977D01*
X8532114Y-1788972D01*
X8534349Y-1775510D01*
X8534806Y-1761896D01*
X8533485Y-1748332D01*
X8530285Y-1735074D01*
X8525408Y-1722323D01*
X8518855Y-1710385D01*
X8510778Y-1699412D01*
X8501278Y-1689607D01*
X8490559Y-1681124D01*
X8478824Y-1674164D01*
X8466277Y-1668881D01*
X8453120Y-1665274D01*
X8439607Y-1663446D01*
X8425992Y-1663446D01*
X8412480Y-1665274D01*
X8399322Y-1668881D01*
X8386775Y-1674164D01*
X8375040Y-1681124D01*
X8364321Y-1689607D01*
X8354822Y-1699412D01*
X8346744Y-1710385D01*
X8340191Y-1722323D01*
X8335314Y-1735074D01*
X8332114Y-1748332D01*
X8330793Y-1761896D01*
X8331250Y-1775510D01*
X8333486Y-1788972D01*
X8337550Y-1801977D01*
X8343290Y-1814372D01*
X8350605Y-1825853D01*
X8359394Y-1836267D01*
X8369553Y-1845411D01*
X8380780Y-1853133D01*
X8392922Y-1859280D01*
X8405825Y-1863750D01*
X8419185Y-1866493D01*
G37*
G36*
X6524396Y-1867306D02*
G01*
X6538010Y-1866849D01*
X6551472Y-1864614D01*
X6564477Y-1860550D01*
X6576872Y-1854809D01*
X6588353Y-1847494D01*
X6598767Y-1838706D01*
X6607911Y-1828546D01*
X6615633Y-1817319D01*
X6621780Y-1805178D01*
X6626250Y-1792274D01*
X6628993Y-1778914D01*
X6629908Y-1765300D01*
X6628993Y-1751685D01*
X6626250Y-1738325D01*
X6621780Y-1725422D01*
X6615633Y-1713280D01*
X6607911Y-1702054D01*
X6598767Y-1691893D01*
X6588353Y-1683105D01*
X6576872Y-1675790D01*
X6564477Y-1670050D01*
X6551472Y-1665986D01*
X6538010Y-1663750D01*
X6524396Y-1663293D01*
X6510832Y-1664614D01*
X6497574Y-1667814D01*
X6484823Y-1672691D01*
X6472885Y-1679244D01*
X6461912Y-1687322D01*
X6452108Y-1696821D01*
X6443624Y-1707540D01*
X6436664Y-1719275D01*
X6431381Y-1731822D01*
X6427774Y-1744980D01*
X6425946Y-1758492D01*
X6425946Y-1772107D01*
X6427774Y-1785620D01*
X6431381Y-1798777D01*
X6436664Y-1811324D01*
X6443624Y-1823059D01*
X6452108Y-1833778D01*
X6461912Y-1843278D01*
X6472885Y-1851355D01*
X6484823Y-1857908D01*
X6497574Y-1862785D01*
X6510832Y-1865985D01*
G37*
G36*
X7794396Y-1867306D02*
G01*
X7808010Y-1866849D01*
X7821472Y-1864614D01*
X7834477Y-1860550D01*
X7846872Y-1854809D01*
X7858353Y-1847494D01*
X7868767Y-1838706D01*
X7877911Y-1828546D01*
X7885633Y-1817319D01*
X7891780Y-1805178D01*
X7896250Y-1792274D01*
X7898993Y-1778914D01*
X7899908Y-1765300D01*
X7898993Y-1751685D01*
X7896250Y-1738325D01*
X7891780Y-1725422D01*
X7885633Y-1713280D01*
X7877911Y-1702054D01*
X7868767Y-1691893D01*
X7858353Y-1683105D01*
X7846872Y-1675790D01*
X7834477Y-1670050D01*
X7821472Y-1665986D01*
X7808010Y-1663750D01*
X7794396Y-1663293D01*
X7780832Y-1664614D01*
X7767574Y-1667814D01*
X7754823Y-1672691D01*
X7742885Y-1679244D01*
X7731912Y-1687322D01*
X7722108Y-1696821D01*
X7713624Y-1707540D01*
X7706664Y-1719275D01*
X7701381Y-1731822D01*
X7697774Y-1744980D01*
X7695946Y-1758492D01*
X7695946Y-1772107D01*
X7697774Y-1785620D01*
X7701381Y-1798777D01*
X7706664Y-1811324D01*
X7713624Y-1823059D01*
X7722108Y-1833778D01*
X7731912Y-1843278D01*
X7742885Y-1851355D01*
X7754823Y-1857908D01*
X7767574Y-1862785D01*
X7780832Y-1865985D01*
G37*
G36*
X10020300Y-1609090D02*
G01*
X10036098Y-1608175D01*
X10051643Y-1605432D01*
X10066782Y-1600911D01*
X10081310Y-1594612D01*
X10094976Y-1586738D01*
X10107625Y-1577289D01*
X10119156Y-1566468D01*
X10129316Y-1554327D01*
X10138003Y-1541170D01*
X10145064Y-1527048D01*
X10150500Y-1512163D01*
X10154107Y-1496822D01*
X10155936Y-1481124D01*
X10155936Y-1465275D01*
X10154107Y-1449578D01*
X10150500Y-1434236D01*
X10145064Y-1419352D01*
X10138003Y-1405229D01*
X10129316Y-1392072D01*
X10119156Y-1379931D01*
X10107625Y-1369110D01*
X10094976Y-1359662D01*
X10081310Y-1351788D01*
X10066782Y-1345488D01*
X10051643Y-1340967D01*
X10036098Y-1338224D01*
X10020300Y-1337310D01*
X10004501Y-1338224D01*
X9988956Y-1340967D01*
X9973818Y-1345488D01*
X9959289Y-1351788D01*
X9945624Y-1359662D01*
X9932974Y-1369110D01*
X9921443Y-1379931D01*
X9911283Y-1392072D01*
X9902596Y-1405229D01*
X9895535Y-1419352D01*
X9890099Y-1434236D01*
X9886492Y-1449578D01*
X9884664Y-1465275D01*
X9884664Y-1481124D01*
X9886492Y-1496822D01*
X9890099Y-1512163D01*
X9895535Y-1527048D01*
X9902596Y-1541170D01*
X9911283Y-1554327D01*
X9921443Y-1566468D01*
X9932974Y-1577289D01*
X9945624Y-1586738D01*
X9959289Y-1594612D01*
X9973818Y-1600911D01*
X9988956Y-1605432D01*
X10004501Y-1608175D01*
G37*

%LPD*%
G36*
X3336899Y-2713532D02*
G01*
X3364839Y-2824378D01*
X3408984Y-2781300D01*
X3396183Y-2730500D01*
G37*
G36*
X3336899Y-2967532D02*
G01*
X3364839Y-3078378D01*
X3408984Y-3035300D01*
X3396183Y-2984500D01*
G37*
G36*
X3244850Y-3085693D02*
G01*
X3276600Y-3139033D01*
X3327400Y-3139033D01*
X3359150Y-3085693D01*
G37*
G36*
X3258972Y-2972409D02*
G01*
X3202178Y-2997200D01*
X3195929Y-3048000D01*
X3245002Y-3085846D01*
G37*
G36*
X2265680Y-2095500D02*
G01*
X2265680Y-2222500D01*
X2298700Y-2184400D01*
X2298700Y-2133600D01*
G37*
G36*
X3849319Y-2692400D02*
G01*
X3773119Y-2730500D01*
X3773119Y-2781300D01*
X3849319Y-2819400D01*
G37*
G36*
X3849319Y-2946400D02*
G01*
X3773119Y-2984500D01*
X3773119Y-3035300D01*
X3849319Y-3073400D01*
G37*
G36*
X3849319Y-4470400D02*
G01*
X3773119Y-4508500D01*
X3773119Y-4559300D01*
X3849319Y-4597400D01*
G37*
D10*
X7797800Y-2019300D02*
G01*
X8432800Y-2019300D01*
D11*
X3162300Y-7200900D02*
G01*
X3162300Y-7200900D01*
X3416300Y-7200900D01*
X3416300Y-7200900D02*
G01*
X3416300Y-7200900D01*
X3670300Y-7200900D01*
X3670300Y-7200900D02*
G01*
X3670300Y-7200900D01*
X3924300Y-7200900D01*
X3924300Y-7200900D02*
G01*
X3924300Y-7200900D01*
X4178300Y-7200900D01*
X4178300Y-7200900D02*
G01*
X4178300Y-7200900D01*
X4432300Y-7200900D01*
X4432300Y-7200900D02*
G01*
X4432300Y-7200900D01*
X4686300Y-7200900D01*
X4686300Y-7200900D02*
G01*
X4686300Y-7200900D01*
X4940300Y-7200900D01*
X4940300Y-7200900D02*
G01*
X4940300Y-7200900D01*
X5194300Y-7200900D01*
X5194300Y-7200900D02*
G01*
X5194300Y-7200900D01*
X5448300Y-7200900D01*
X5118100Y-1473200D02*
G01*
X5118100Y-1752600D01*
X4989575Y-1881123D01*
X4114291Y-2755900D01*
X3924300Y-2755900D01*
D12*
X3263907Y-1473205D02*
G01*
X4102100Y-1473200D01*
X5118100Y-825500D02*
G01*
X4914900Y-825500D01*
X4267200Y-1473200D01*
X4089400Y-1473200D01*
D10*
X3302000Y-3035300D02*
G01*
X3302000Y-4241800D01*
X3594100Y-4533900D01*
X3924300Y-4533900D01*
X3924300Y-3009900D02*
G01*
X3327400Y-3009900D01*
X3302000Y-3035300D01*
X2171700Y-2159000D02*
G01*
X2463800Y-2159000D01*
X2806700Y-2501900D01*
X2806700Y-2768600D01*
X3073400Y-3035300D01*
X3302000Y-3035300D01*
D11*
X3302000Y-2781300D02*
G01*
X3327400Y-2755900D01*
X3924300Y-2755900D01*
X2171700Y-1651000D02*
G01*
X2565394Y-1257305D01*
X3263907Y-1257305D01*
X3263900Y-1689100D02*
G01*
X3263900Y-2095500D01*
X3924300Y-2755900D01*
D10*
X3924300Y-4533900D02*
G01*
X3924300Y-4686300D01*
X6197600Y-6959600D01*
X7429500Y-6959600D01*
X7797800Y-6591300D01*
D11*
X3924300Y-4533900D02*
G01*
X3924300Y-4686300D01*
X4419600Y-5181600D01*
X4419600Y-5715000D01*
D12*
X1917700Y-2413000D02*
G01*
X1905000Y-2400300D01*
X1778000Y-2400300D01*
X1498600Y-2120900D01*
X1498600Y-914400D01*
X1587500Y-825500D01*
X4102100Y-825500D01*
D11*
X5448300Y-7200900D02*
G01*
X7188200Y-7200900D01*
X7797800Y-6591300D01*
X2171700Y-3175000D02*
G01*
X3162300Y-3175000D01*
X3302000Y-3035300D01*
X2171700Y-3937000D02*
G01*
X2400300Y-3937000D01*
X3302000Y-3035300D01*
X2171700Y-5715000D02*
G01*
X2743200Y-5715000D01*
X3924300Y-4533900D01*
X2171700Y-5207000D02*
G01*
X3251200Y-5207000D01*
X3924300Y-4533900D01*
X3162300Y-7200900D02*
G01*
X2349500Y-7200900D01*
X1917700Y-6769100D01*
X1917700Y-6477000D01*
X1917700Y-6477000D02*
G01*
X1625600Y-6477000D01*
X1409700Y-6261100D01*
X1409700Y-4991100D01*
X1701800Y-4699000D01*
X1917700Y-4699000D01*
X1409700Y-4991100D02*
G01*
X1409700Y-2819400D01*
X1562100Y-2667000D01*
X1917700Y-2667000D01*
D12*
X3924300Y-4025900D02*
G01*
X4851400Y-4025900D01*
X5283200Y-4457700D01*
X5283200Y-5486400D01*
X6388100Y-6591300D01*
X6527800Y-6591300D01*
X5461000Y-3263900D02*
G01*
X5511800Y-3263900D01*
X6350000Y-4102100D01*
X6350000Y-4635500D01*
X6527800Y-4813300D01*
X5461000Y-3517900D02*
G01*
X5511800Y-3517900D01*
X6235700Y-4241800D01*
X6235700Y-4775200D01*
X6527800Y-5067300D01*
X5461000Y-3771900D02*
G01*
X5524500Y-3771900D01*
X6134100Y-4381500D01*
X6134100Y-4927600D01*
X6527800Y-5321300D01*
X5461000Y-4025900D02*
G01*
X5524500Y-4025900D01*
X6007100Y-4508500D01*
X6007100Y-5054600D01*
X6527800Y-5575300D01*
X6527800Y-6591300D02*
G01*
X6845300Y-6273800D01*
X6845300Y-3860800D01*
X6527800Y-3543300D01*
X6527800Y-5829300D02*
G01*
X6527800Y-6083300D01*
X6527800Y-2781300D02*
G01*
X6527800Y-3035300D01*
X3924300Y-3263900D02*
G01*
X4178300Y-3263900D01*
X5003800Y-2438400D01*
X6184900Y-2438400D01*
X6527800Y-2781300D01*
X6184900Y-2438400D02*
G01*
X6299200Y-2552700D01*
X6299200Y-3835400D01*
X6705600Y-4241800D01*
X6705600Y-5651500D01*
X6527800Y-5829300D01*
D10*
X7797800Y-5067300D02*
G01*
X8420100Y-5067300D01*
X7797800Y-3543300D02*
G01*
X8140700Y-3543300D01*
X7797800Y-2019300D02*
G01*
X8013700Y-2019300D01*
X8140700Y-2146300D01*
X8140700Y-6502400D01*
X8051800Y-6591300D01*
X7797800Y-6591300D01*
D12*
X6972300Y-3721100D02*
G01*
X6972300Y-3556000D01*
X7239000Y-3289300D01*
X7797800Y-3289300D01*
D10*
X8420100Y-5067300D02*
G01*
X8940800Y-5067300D01*
X9766300Y-4241800D01*
X10845800Y-4241800D01*
D13*
G01*
X4102100Y-825500D03*
G01*
X5118100Y-825500D03*
D14*
G01*
X10020300Y-1981200D03*
G01*
X10020300Y-1473200D03*
G01*
X10020300Y-3111500D03*
G01*
X10020300Y-2603500D03*
G01*
X10007600Y-5384800D03*
G01*
X10007600Y-4876800D03*
G01*
X10020300Y-6527800D03*
G01*
X10020300Y-6019800D03*
D15*
G01*
X3162300Y-6604000D03*
G01*
X3416300Y-6604000D03*
G01*
X3670300Y-6604000D03*
G01*
X3924300Y-6604000D03*
G01*
X4178300Y-6604000D03*
G01*
X4432300Y-6604000D03*
G01*
X4686300Y-6604000D03*
G01*
X4940300Y-6604000D03*
G01*
X5194300Y-6604000D03*
D16*
G01*
X5448300Y-6604000D03*
D15*
G01*
X3162300Y-7200900D03*
G01*
X3416300Y-7200900D03*
G01*
X3670300Y-7200900D03*
G01*
X3924300Y-7200900D03*
G01*
X4178300Y-7200900D03*
G01*
X4432300Y-7200900D03*
G01*
X4686300Y-7200900D03*
G01*
X4940300Y-7200900D03*
G01*
X5194300Y-7200900D03*
D16*
G01*
X5448300Y-7200900D03*
D17*
G01*
X3924300Y-2755900D03*
G01*
X3924300Y-3009900D03*
G01*
X3924300Y-3263900D03*
G01*
X3924300Y-3517900D03*
G01*
X3924300Y-3771900D03*
G01*
X3924300Y-4025900D03*
G01*
X3924300Y-4279900D03*
G01*
X3924300Y-4533900D03*
G01*
X5461000Y-4533900D03*
G01*
X5461000Y-4279900D03*
G01*
X5461000Y-4025900D03*
G01*
X5461000Y-3771900D03*
G01*
X5461000Y-3517900D03*
G01*
X5461000Y-3263900D03*
G01*
X5461000Y-3009900D03*
G01*
X5461000Y-2755900D03*
G01*
X4432300Y-4533900D03*
G01*
X4686300Y-4533900D03*
G01*
X4940300Y-4533900D03*
D18*
G01*
X4165600Y-5715000D03*
D19*
G01*
X4419600Y-5715000D03*
D20*
G01*
X3263900Y-1257300D03*
G01*
X3263900Y-1473200D03*
G01*
X3263900Y-1689100D03*
D14*
G01*
X10845800Y-4241800D03*
G01*
X10845800Y-3733800D03*
D21*
G01*
X3302000Y-2781300D03*
G01*
X3302000Y-3035300D03*
G01*
X8432800Y-1765300D03*
G01*
X8432800Y-2019300D03*
G01*
X8420100Y-4813300D03*
G01*
X8420100Y-5067300D03*
D22*
G01*
X1917700Y-1651000D03*
G01*
X2171700Y-1651000D03*
G01*
X1917700Y-1905000D03*
G01*
X2171700Y-1905000D03*
G01*
X1917700Y-2159000D03*
G01*
X2171700Y-2159000D03*
G01*
X1917700Y-2413000D03*
G01*
X2171700Y-2413000D03*
G01*
X1917700Y-2667000D03*
G01*
X2171700Y-2667000D03*
G01*
X1917700Y-2921000D03*
G01*
X2171700Y-2921000D03*
G01*
X1917700Y-3175000D03*
G01*
X2171700Y-3175000D03*
G01*
X1917700Y-3429000D03*
G01*
X2171700Y-3429000D03*
G01*
X1917700Y-3683000D03*
G01*
X2171700Y-3683000D03*
G01*
X1917700Y-3937000D03*
G01*
X2171700Y-3937000D03*
G01*
X1917700Y-4191000D03*
G01*
X2171700Y-4191000D03*
G01*
X1917700Y-4445000D03*
G01*
X2171700Y-4445000D03*
G01*
X1917700Y-4699000D03*
G01*
X2171700Y-4699000D03*
G01*
X1917700Y-4953000D03*
G01*
X2171700Y-4953000D03*
G01*
X1917700Y-5207000D03*
G01*
X2171700Y-5207000D03*
G01*
X1917700Y-5461000D03*
G01*
X2171700Y-5461000D03*
G01*
X1917700Y-5715000D03*
G01*
X2171700Y-5715000D03*
G01*
X1917700Y-5969000D03*
G01*
X2171700Y-5969000D03*
G01*
X1917700Y-6223000D03*
G01*
X2171700Y-6223000D03*
G01*
X1917700Y-6477000D03*
G01*
X2171700Y-6477000D03*
D13*
G01*
X4102100Y-1473200D03*
G01*
X5118100Y-1473200D03*
D21*
G01*
X7797800Y-2273300D03*
G01*
X7797800Y-2019300D03*
G01*
X7797800Y-1765300D03*
G01*
X7797800Y-2527300D03*
G01*
X7797800Y-2781300D03*
G01*
X7797800Y-3035300D03*
G01*
X7797800Y-3289300D03*
G01*
X7797800Y-3543300D03*
G01*
X6527800Y-3543300D03*
G01*
X6527800Y-3289300D03*
G01*
X6527800Y-3035300D03*
G01*
X6527800Y-2781300D03*
G01*
X6527800Y-2527300D03*
G01*
X6527800Y-2273300D03*
G01*
X6527800Y-2019300D03*
G01*
X6527800Y-1765300D03*
G01*
X7797800Y-5321300D03*
G01*
X7797800Y-5067300D03*
G01*
X7797800Y-4813300D03*
G01*
X7797800Y-5575300D03*
G01*
X7797800Y-5829300D03*
G01*
X7797800Y-6083300D03*
G01*
X7797800Y-6337300D03*
G01*
X7797800Y-6591300D03*
G01*
X6527800Y-6591300D03*
G01*
X6527800Y-6337300D03*
G01*
X6527800Y-6083300D03*
G01*
X6527800Y-5829300D03*
G01*
X6527800Y-5575300D03*
G01*
X6527800Y-5321300D03*
G01*
X6527800Y-5067300D03*
G01*
X6527800Y-4813300D03*
D23*
G01*
X6972300Y-3721100D03*
M02*
