G04 Layer: TopSilkscreenLayer*
G04 EasyEDA v6.5.39, 2024-01-03 13:03:29*
G04 bec576337b18403e98965192822aaada,83f36b9c27a349adb8e694642aa6770b,10*
G04 Gerber Generator version 0.2*
G04 Scale: 100 percent, Rotated: No, Reflected: No *
G04 Dimensions in millimeters *
G04 leading zeros omitted , absolute positions ,4 integer and 5 decimal *
%FSLAX45Y45*%
%MOMM*%

%ADD10C,0.2032*%
%ADD11C,0.4000*%
%ADD12C,0.2000*%
%ADD13C,0.1524*%
%ADD14C,0.2540*%
%ADD15C,0.2030*%
%ADD16C,0.1270*%
%ADD17C,0.0165*%

%LPD*%
G36*
X6457543Y-542137D02*
G01*
X6256782Y-674522D01*
X6256782Y-676452D01*
X6272631Y-698703D01*
X6271768Y-699922D01*
X5947765Y-913434D01*
X5939688Y-918971D01*
X5883198Y-956056D01*
X5879084Y-959053D01*
X5879084Y-960729D01*
X6030976Y-1177239D01*
X6032754Y-1177950D01*
X6034836Y-1176223D01*
X6425641Y-918565D01*
X6427216Y-919124D01*
X6443014Y-941527D01*
X6444437Y-941527D01*
X6618224Y-826820D01*
X6644640Y-809701D01*
X6644690Y-807415D01*
X6458610Y-542747D01*
G37*
G36*
X6206794Y-599033D02*
G01*
X6201054Y-600049D01*
X6191656Y-600151D01*
X6183833Y-601319D01*
X6172403Y-602640D01*
X6150102Y-606450D01*
X6131610Y-610666D01*
X6113780Y-615442D01*
X6095339Y-621639D01*
X6078778Y-628040D01*
X6069431Y-632256D01*
X6068771Y-632256D01*
X6047536Y-642366D01*
X6028436Y-653034D01*
X6011875Y-663498D01*
X5997854Y-673303D01*
X5987237Y-681329D01*
X5968593Y-696722D01*
X5945632Y-718972D01*
X5930544Y-736041D01*
X5916218Y-754176D01*
X5908294Y-765251D01*
X5900572Y-776986D01*
X5889548Y-795528D01*
X5879846Y-814679D01*
X5875782Y-823315D01*
X5868162Y-841705D01*
X5864961Y-851103D01*
X5863894Y-853541D01*
X5861405Y-860958D01*
X5856325Y-878230D01*
X5851753Y-898448D01*
X5848604Y-915873D01*
X5847181Y-926998D01*
X5845962Y-934567D01*
X5845962Y-945845D01*
X5846775Y-945845D01*
X5854547Y-940460D01*
X6236360Y-688746D01*
X6235750Y-687070D01*
X6220409Y-664921D01*
X6220815Y-663752D01*
X6306413Y-607263D01*
X6306464Y-606501D01*
X6297218Y-604977D01*
X6292748Y-603961D01*
X6267907Y-600659D01*
X6253276Y-599440D01*
G37*
G36*
X6597802Y-874826D02*
G01*
X6441592Y-977950D01*
X6439916Y-977900D01*
X6425539Y-957275D01*
X6423710Y-954938D01*
X6421678Y-955700D01*
X6032246Y-1212494D01*
X6023356Y-1218590D01*
X6022086Y-1218641D01*
X5845454Y-966927D01*
X5844692Y-967638D01*
X5844692Y-1291945D01*
X5882894Y-1291945D01*
X5882894Y-1196136D01*
X5885383Y-1192174D01*
X5889599Y-1190904D01*
X5926531Y-1191463D01*
X5936335Y-1193952D01*
X5943041Y-1197203D01*
X5950356Y-1204010D01*
X5954064Y-1211580D01*
X5955538Y-1217472D01*
X5955487Y-1227632D01*
X5953709Y-1234440D01*
X5952490Y-1238250D01*
X5949035Y-1244295D01*
X5941415Y-1251407D01*
X5932220Y-1255623D01*
X5922721Y-1257655D01*
X5904890Y-1258366D01*
X5903925Y-1259738D01*
X5903925Y-1291945D01*
X5973368Y-1291945D01*
X5973368Y-1192834D01*
X5974943Y-1191818D01*
X5979414Y-1190345D01*
X5990234Y-1190650D01*
X5994044Y-1192479D01*
X5994249Y-1259840D01*
X6011570Y-1259840D01*
X6011570Y-1248410D01*
X6014923Y-1245819D01*
X6049365Y-1245819D01*
X6052312Y-1248511D01*
X6052312Y-1259636D01*
X6050229Y-1261872D01*
X6013907Y-1261872D01*
X6011570Y-1259840D01*
X5994249Y-1259840D01*
X5994341Y-1290167D01*
X6070142Y-1290167D01*
X6070142Y-1192834D01*
X6071768Y-1191818D01*
X6075578Y-1190345D01*
X6087059Y-1190650D01*
X6090869Y-1192479D01*
X6091285Y-1248003D01*
X6133693Y-1248003D01*
X6134557Y-1234440D01*
X6135725Y-1227023D01*
X6136995Y-1221181D01*
X6141974Y-1210360D01*
X6147206Y-1203553D01*
X6155436Y-1196746D01*
X6164122Y-1192580D01*
X6166662Y-1191615D01*
X6169863Y-1190802D01*
X6178753Y-1189177D01*
X6189573Y-1189075D01*
X6201054Y-1190904D01*
X6206134Y-1191920D01*
X6214770Y-1195933D01*
X6222441Y-1202080D01*
X6226810Y-1207871D01*
X6231534Y-1217726D01*
X6234480Y-1232560D01*
X6234480Y-1249832D01*
X6231483Y-1264056D01*
X6226759Y-1274419D01*
X6222746Y-1280109D01*
X6214668Y-1287627D01*
X6205880Y-1291945D01*
X6253581Y-1291945D01*
X6253581Y-1197660D01*
X6255308Y-1193698D01*
X6257442Y-1191971D01*
X6261557Y-1190955D01*
X6282690Y-1191361D01*
X6286398Y-1193241D01*
X6290411Y-1197356D01*
X6299504Y-1222095D01*
X6300673Y-1224534D01*
X6314744Y-1262278D01*
X6314744Y-1263751D01*
X6316980Y-1263751D01*
X6319062Y-1257858D01*
X6341770Y-1199235D01*
X6345021Y-1194308D01*
X6349136Y-1191615D01*
X6360210Y-1190752D01*
X6373520Y-1191412D01*
X6377482Y-1195222D01*
X6377838Y-1291894D01*
X6391859Y-1291996D01*
X6392672Y-1288135D01*
X6416090Y-1222705D01*
X6419240Y-1213408D01*
X6420408Y-1210970D01*
X6426200Y-1194358D01*
X6428130Y-1191564D01*
X6432245Y-1190396D01*
X6447942Y-1190294D01*
X6453581Y-1191666D01*
X6455867Y-1195527D01*
X6469430Y-1233779D01*
X6489039Y-1288135D01*
X6489841Y-1291945D01*
X6504533Y-1291945D01*
X6504533Y-1195781D01*
X6506464Y-1192174D01*
X6510629Y-1190904D01*
X6551371Y-1191361D01*
X6555181Y-1192631D01*
X6560921Y-1194206D01*
X6567068Y-1197254D01*
X6573418Y-1203198D01*
X6576720Y-1210310D01*
X6578041Y-1220571D01*
X6576618Y-1228648D01*
X6573164Y-1235456D01*
X6566662Y-1241704D01*
X6558686Y-1245362D01*
X6557822Y-1246682D01*
X6560159Y-1248003D01*
X6565087Y-1252169D01*
X6568744Y-1257452D01*
X6572605Y-1265275D01*
X6582105Y-1286916D01*
X6583730Y-1292199D01*
X6581597Y-1294282D01*
X6564020Y-1294282D01*
X6561124Y-1292453D01*
X6550406Y-1266494D01*
X6547205Y-1260195D01*
X6543446Y-1255166D01*
X6537807Y-1251966D01*
X6525869Y-1252321D01*
X6525564Y-1291945D01*
X6522923Y-1294231D01*
X6507124Y-1294180D01*
X6504533Y-1291945D01*
X6489852Y-1291996D01*
X6488125Y-1294282D01*
X6471767Y-1294282D01*
X6468414Y-1293368D01*
X6466687Y-1289354D01*
X6460286Y-1270863D01*
X6419443Y-1270508D01*
X6415227Y-1283157D01*
X6414211Y-1285646D01*
X6412534Y-1291590D01*
X6409639Y-1294231D01*
X6393637Y-1294282D01*
X6391859Y-1291996D01*
X6377724Y-1291996D01*
X6375146Y-1294282D01*
X6360922Y-1294231D01*
X6358077Y-1292707D01*
X6358077Y-1208176D01*
X6357010Y-1208176D01*
X6354318Y-1214069D01*
X6348577Y-1230122D01*
X6344564Y-1240586D01*
X6342278Y-1247394D01*
X6340297Y-1252321D01*
X6326073Y-1291234D01*
X6323584Y-1293876D01*
X6316573Y-1294688D01*
X6307074Y-1293825D01*
X6304584Y-1291844D01*
X6275019Y-1208176D01*
X6274003Y-1208176D01*
X6274003Y-1291539D01*
X6271615Y-1293825D01*
X6263182Y-1294688D01*
X6255816Y-1293825D01*
X6253581Y-1291945D01*
X6205880Y-1291945D01*
X6194044Y-1295349D01*
X6171692Y-1295400D01*
X6161582Y-1292656D01*
X6152946Y-1288491D01*
X6147104Y-1283868D01*
X6141466Y-1276705D01*
X6136944Y-1266698D01*
X6133693Y-1248003D01*
X6091285Y-1248003D01*
X6091529Y-1277010D01*
X6091834Y-1277315D01*
X6125311Y-1277315D01*
X6127496Y-1278839D01*
X6128766Y-1285697D01*
X6127496Y-1292301D01*
X6126073Y-1293977D01*
X6073851Y-1293977D01*
X6070142Y-1290167D01*
X5994341Y-1290167D01*
X5994349Y-1292707D01*
X5991504Y-1294231D01*
X5975908Y-1294180D01*
X5973368Y-1291945D01*
X5903925Y-1291945D01*
X5901283Y-1294231D01*
X5885484Y-1294180D01*
X5882894Y-1291945D01*
X5844692Y-1291945D01*
X5844692Y-1342136D01*
X6611569Y-1342136D01*
X6611061Y-942441D01*
X6608419Y-920851D01*
X6607098Y-911555D01*
X6603949Y-894892D01*
X6599681Y-876300D01*
X6598767Y-874826D01*
G37*
G36*
X6183833Y-1205941D02*
G01*
X6176213Y-1206652D01*
X6169050Y-1209903D01*
X6163716Y-1214526D01*
X6159550Y-1221435D01*
X6156553Y-1231950D01*
X6156502Y-1253540D01*
X6158179Y-1260348D01*
X6159449Y-1264056D01*
X6162090Y-1269339D01*
X6167932Y-1275181D01*
X6173724Y-1277823D01*
X6181648Y-1279347D01*
X6190234Y-1278686D01*
X6197244Y-1276451D01*
X6202984Y-1272489D01*
X6207506Y-1266494D01*
X6209741Y-1261821D01*
X6211417Y-1255420D01*
X6212789Y-1242974D01*
X6211519Y-1228242D01*
X6210300Y-1225397D01*
X6210300Y-1223264D01*
X6206032Y-1214678D01*
X6200546Y-1209852D01*
X6192774Y-1206500D01*
G37*
G36*
X5904585Y-1206347D02*
G01*
X5903874Y-1209090D01*
X5904230Y-1241806D01*
X5921451Y-1241806D01*
X5926124Y-1239570D01*
X5930696Y-1235252D01*
X5932373Y-1231341D01*
X5933897Y-1223619D01*
X5932373Y-1216050D01*
X5928461Y-1210360D01*
X5923229Y-1207566D01*
X5914440Y-1206347D01*
G37*
G36*
X6526326Y-1206347D02*
G01*
X6525564Y-1208278D01*
X6525564Y-1235049D01*
X6526733Y-1236776D01*
X6543700Y-1236014D01*
X6548678Y-1234033D01*
X6552438Y-1231341D01*
X6555638Y-1226007D01*
X6555638Y-1216456D01*
X6552844Y-1211580D01*
X6551726Y-1210259D01*
X6546291Y-1207719D01*
X6541007Y-1206347D01*
G37*
G36*
X6438950Y-1211173D02*
G01*
X6424320Y-1253794D01*
X6424320Y-1254506D01*
X6454851Y-1254506D01*
X6454851Y-1253540D01*
X6440474Y-1211630D01*
G37*
D10*
X11376152Y-4355338D02*
G01*
X11362690Y-4362195D01*
X11348974Y-4375911D01*
X11342115Y-4389627D01*
X11342115Y-4416806D01*
X11348974Y-4430522D01*
X11362690Y-4443984D01*
X11376152Y-4450841D01*
X11396725Y-4457700D01*
X11430761Y-4457700D01*
X11451336Y-4450841D01*
X11464797Y-4443984D01*
X11478513Y-4430522D01*
X11485372Y-4416806D01*
X11485372Y-4389627D01*
X11478513Y-4375911D01*
X11464797Y-4362195D01*
X11451336Y-4355338D01*
X11430761Y-4355338D01*
X11430761Y-4389627D02*
G01*
X11430761Y-4355338D01*
X11342115Y-4310379D02*
G01*
X11485372Y-4310379D01*
X11342115Y-4310379D02*
G01*
X11485372Y-4214875D01*
X11342115Y-4214875D02*
G01*
X11485372Y-4214875D01*
X11342115Y-4169918D02*
G01*
X11485372Y-4169918D01*
X11342115Y-4169918D02*
G01*
X11342115Y-4122165D01*
X11348974Y-4101845D01*
X11362690Y-4088129D01*
X11376152Y-4081271D01*
X11396725Y-4074413D01*
X11430761Y-4074413D01*
X11451336Y-4081271D01*
X11464797Y-4088129D01*
X11478513Y-4101845D01*
X11485372Y-4122165D01*
X11485372Y-4169918D01*
X11362690Y-3926331D02*
G01*
X11485372Y-3926331D01*
X11423904Y-3987800D02*
G01*
X11423904Y-3865118D01*
X11369293Y-3820160D02*
G01*
X11362690Y-3806444D01*
X11342115Y-3785870D01*
X11485372Y-3785870D01*
X11376152Y-3734054D02*
G01*
X11369293Y-3734054D01*
X11355831Y-3727450D01*
X11348974Y-3720592D01*
X11342115Y-3706876D01*
X11342115Y-3679697D01*
X11348974Y-3665981D01*
X11355831Y-3659123D01*
X11369293Y-3652265D01*
X11383009Y-3652265D01*
X11396725Y-3659123D01*
X11417045Y-3672839D01*
X11485372Y-3740912D01*
X11485372Y-3645407D01*
X11389868Y-3600450D02*
G01*
X11485372Y-3559555D01*
X11389868Y-3518662D02*
G01*
X11485372Y-3559555D01*
X7315200Y-737615D02*
G01*
X7315200Y-880871D01*
X7315200Y-737615D02*
G01*
X7376668Y-737615D01*
X7396988Y-744473D01*
X7403845Y-751331D01*
X7410704Y-764794D01*
X7410704Y-785368D01*
X7403845Y-799084D01*
X7396988Y-805942D01*
X7376668Y-812545D01*
X7315200Y-812545D01*
X7455661Y-737615D02*
G01*
X7455661Y-880871D01*
X7500620Y-819404D02*
G01*
X7623302Y-819404D01*
X7668259Y-737615D02*
G01*
X7668259Y-880871D01*
X7668259Y-880871D02*
G01*
X7750302Y-880871D01*
X7836154Y-737615D02*
G01*
X7822438Y-744473D01*
X7808722Y-758189D01*
X7802118Y-771652D01*
X7795259Y-792226D01*
X7795259Y-826262D01*
X7802118Y-846836D01*
X7808722Y-860297D01*
X7822438Y-874013D01*
X7836154Y-880871D01*
X7863331Y-880871D01*
X7877047Y-874013D01*
X7890763Y-860297D01*
X7897368Y-846836D01*
X7904225Y-826262D01*
X7904225Y-792226D01*
X7897368Y-771652D01*
X7890763Y-758189D01*
X7877047Y-744473D01*
X7863331Y-737615D01*
X7836154Y-737615D01*
X7949184Y-737615D02*
G01*
X7949184Y-880871D01*
X7949184Y-737615D02*
G01*
X8003793Y-880871D01*
X8058404Y-737615D02*
G01*
X8003793Y-880871D01*
X8058404Y-737615D02*
G01*
X8058404Y-880871D01*
X8157972Y-737615D02*
G01*
X8103361Y-880871D01*
X8157972Y-737615D02*
G01*
X8212581Y-880871D01*
X8123936Y-833120D02*
G01*
X8192008Y-833120D01*
X8257540Y-737615D02*
G01*
X8257540Y-880871D01*
X8257540Y-737615D02*
G01*
X8318754Y-737615D01*
X8339327Y-744473D01*
X8346186Y-751331D01*
X8353043Y-764794D01*
X8353043Y-778510D01*
X8346186Y-792226D01*
X8339327Y-799084D01*
X8318754Y-805942D01*
X8257540Y-805942D01*
X8305291Y-805942D02*
G01*
X8353043Y-880871D01*
X8509761Y-771652D02*
G01*
X8509761Y-764794D01*
X8516620Y-751331D01*
X8523477Y-744473D01*
X8536940Y-737615D01*
X8564372Y-737615D01*
X8577834Y-744473D01*
X8584691Y-751331D01*
X8591550Y-764794D01*
X8591550Y-778510D01*
X8584691Y-792226D01*
X8571229Y-812545D01*
X8502904Y-880871D01*
X8598408Y-880871D01*
X7112000Y-1055115D02*
G01*
X7112000Y-1198371D01*
X7112000Y-1055115D02*
G01*
X7173468Y-1055115D01*
X7193788Y-1061973D01*
X7200645Y-1068831D01*
X7207504Y-1082294D01*
X7207504Y-1096010D01*
X7200645Y-1109726D01*
X7193788Y-1116584D01*
X7173468Y-1123442D01*
X7112000Y-1123442D01*
X7159752Y-1123442D02*
G01*
X7207504Y-1198371D01*
X7252461Y-1143762D02*
G01*
X7334250Y-1143762D01*
X7334250Y-1130045D01*
X7327391Y-1116584D01*
X7320534Y-1109726D01*
X7307072Y-1102868D01*
X7286497Y-1102868D01*
X7272781Y-1109726D01*
X7259320Y-1123442D01*
X7252461Y-1143762D01*
X7252461Y-1157478D01*
X7259320Y-1177797D01*
X7272781Y-1191513D01*
X7286497Y-1198371D01*
X7307072Y-1198371D01*
X7320534Y-1191513D01*
X7334250Y-1177797D01*
X7379208Y-1102868D02*
G01*
X7420102Y-1198371D01*
X7460995Y-1102868D02*
G01*
X7420102Y-1198371D01*
X7512811Y-1116584D02*
G01*
X7506208Y-1123442D01*
X7512811Y-1130045D01*
X7519670Y-1123442D01*
X7512811Y-1116584D01*
X7512811Y-1164336D02*
G01*
X7506208Y-1170939D01*
X7512811Y-1177797D01*
X7519670Y-1170939D01*
X7512811Y-1164336D01*
X7676641Y-1089152D02*
G01*
X7676641Y-1082294D01*
X7683245Y-1068831D01*
X7690104Y-1061973D01*
X7703820Y-1055115D01*
X7730997Y-1055115D01*
X7744713Y-1061973D01*
X7751572Y-1068831D01*
X7758429Y-1082294D01*
X7758429Y-1096010D01*
X7751572Y-1109726D01*
X7737856Y-1130045D01*
X7669784Y-1198371D01*
X7765288Y-1198371D01*
X7851140Y-1055115D02*
G01*
X7830565Y-1061973D01*
X7817104Y-1082294D01*
X7810245Y-1116584D01*
X7810245Y-1136904D01*
X7817104Y-1170939D01*
X7830565Y-1191513D01*
X7851140Y-1198371D01*
X7864602Y-1198371D01*
X7885175Y-1191513D01*
X7898891Y-1170939D01*
X7905750Y-1136904D01*
X7905750Y-1116584D01*
X7898891Y-1082294D01*
X7885175Y-1061973D01*
X7864602Y-1055115D01*
X7851140Y-1055115D01*
X7957565Y-1089152D02*
G01*
X7957565Y-1082294D01*
X7964170Y-1068831D01*
X7971027Y-1061973D01*
X7984743Y-1055115D01*
X8011922Y-1055115D01*
X8025638Y-1061973D01*
X8032495Y-1068831D01*
X8039354Y-1082294D01*
X8039354Y-1096010D01*
X8032495Y-1109726D01*
X8018779Y-1130045D01*
X7950708Y-1198371D01*
X8046211Y-1198371D01*
X8104631Y-1055115D02*
G01*
X8179815Y-1055115D01*
X8138922Y-1109726D01*
X8159241Y-1109726D01*
X8172958Y-1116584D01*
X8179815Y-1123442D01*
X8186420Y-1143762D01*
X8186420Y-1157478D01*
X8179815Y-1177797D01*
X8166100Y-1191513D01*
X8145525Y-1198371D01*
X8125206Y-1198371D01*
X8104631Y-1191513D01*
X8098027Y-1184655D01*
X8091170Y-1170939D01*
X8231631Y-1136904D02*
G01*
X8354313Y-1136904D01*
X8399272Y-1082294D02*
G01*
X8412988Y-1075689D01*
X8433308Y-1055115D01*
X8433308Y-1198371D01*
X8485124Y-1089152D02*
G01*
X8485124Y-1082294D01*
X8491981Y-1068831D01*
X8498840Y-1061973D01*
X8512556Y-1055115D01*
X8539734Y-1055115D01*
X8553450Y-1061973D01*
X8560054Y-1068831D01*
X8566911Y-1082294D01*
X8566911Y-1096010D01*
X8560054Y-1109726D01*
X8546591Y-1130045D01*
X8478265Y-1198371D01*
X8573770Y-1198371D01*
X8618727Y-1136904D02*
G01*
X8741663Y-1136904D01*
X8786622Y-1082294D02*
G01*
X8800084Y-1075689D01*
X8820658Y-1055115D01*
X8820658Y-1198371D01*
X8933688Y-1055115D02*
G01*
X8865615Y-1150620D01*
X8967977Y-1150620D01*
X8933688Y-1055115D02*
G01*
X8933688Y-1198371D01*
X3064509Y-1113028D02*
G01*
X3055365Y-1103884D01*
X3046222Y-1099312D01*
X3032506Y-1099312D01*
X3023615Y-1103884D01*
X3014472Y-1113028D01*
X3009900Y-1126489D01*
X3009900Y-1135634D01*
X3014472Y-1149350D01*
X3023615Y-1158494D01*
X3032506Y-1163065D01*
X3046222Y-1163065D01*
X3055365Y-1158494D01*
X3064509Y-1149350D01*
X2946400Y-1410462D02*
G01*
X2946400Y-1505965D01*
X2946400Y-1455928D02*
G01*
X2955543Y-1446784D01*
X2964688Y-1442212D01*
X2978150Y-1442212D01*
X2987293Y-1446784D01*
X2996438Y-1455928D01*
X3001009Y-1469389D01*
X3001009Y-1478534D01*
X2996438Y-1492250D01*
X2987293Y-1501394D01*
X2978150Y-1505965D01*
X2964688Y-1505965D01*
X2955543Y-1501394D01*
X2946400Y-1492250D01*
X3022600Y-1799589D02*
G01*
X3077209Y-1799589D01*
X3077209Y-1790700D01*
X3072638Y-1781555D01*
X3068065Y-1776984D01*
X3058922Y-1772412D01*
X3045206Y-1772412D01*
X3036315Y-1776984D01*
X3027172Y-1786128D01*
X3022600Y-1799589D01*
X3022600Y-1808734D01*
X3027172Y-1822450D01*
X3036315Y-1831594D01*
X3045206Y-1836165D01*
X3058922Y-1836165D01*
X3068065Y-1831594D01*
X3077209Y-1822450D01*
X3885438Y-1270000D02*
G01*
X3789934Y-1270000D01*
X3885438Y-1270000D02*
G01*
X3885438Y-1310894D01*
X3880865Y-1324610D01*
X3876293Y-1329181D01*
X3867404Y-1333754D01*
X3858259Y-1333754D01*
X3849115Y-1329181D01*
X3844543Y-1324610D01*
X3839972Y-1310894D01*
X3839972Y-1270000D02*
G01*
X3839972Y-1310894D01*
X3835400Y-1324610D01*
X3831081Y-1329181D01*
X3821938Y-1333754D01*
X3808222Y-1333754D01*
X3799077Y-1329181D01*
X3794506Y-1324610D01*
X3789934Y-1310894D01*
X3789934Y-1270000D01*
X3862831Y-1431797D02*
G01*
X3871975Y-1427226D01*
X3880865Y-1418081D01*
X3885438Y-1409192D01*
X3885438Y-1390904D01*
X3880865Y-1381760D01*
X3871975Y-1372615D01*
X3862831Y-1368297D01*
X3849115Y-1363726D01*
X3826509Y-1363726D01*
X3812793Y-1368297D01*
X3803650Y-1372615D01*
X3794506Y-1381760D01*
X3789934Y-1390904D01*
X3789934Y-1409192D01*
X3794506Y-1418081D01*
X3803650Y-1427226D01*
X3812793Y-1431797D01*
X3885438Y-1516379D02*
G01*
X3885438Y-1470913D01*
X3844543Y-1466342D01*
X3849115Y-1470913D01*
X3853688Y-1484629D01*
X3853688Y-1498092D01*
X3849115Y-1511807D01*
X3839972Y-1520952D01*
X3826509Y-1525523D01*
X3817365Y-1525523D01*
X3803650Y-1520952D01*
X3794506Y-1511807D01*
X3789934Y-1498092D01*
X3789934Y-1484629D01*
X3794506Y-1470913D01*
X3799077Y-1466342D01*
X3808222Y-1461770D01*
X3885438Y-1600962D02*
G01*
X3821938Y-1555495D01*
X3821938Y-1623568D01*
X3885438Y-1600962D02*
G01*
X3789934Y-1600962D01*
X3885438Y-1676400D02*
G01*
X3880865Y-1662684D01*
X3871975Y-1658112D01*
X3862831Y-1658112D01*
X3853688Y-1662684D01*
X3849115Y-1671828D01*
X3844543Y-1690115D01*
X3839972Y-1703578D01*
X3831081Y-1712721D01*
X3821938Y-1717294D01*
X3808222Y-1717294D01*
X3799077Y-1712721D01*
X3794506Y-1708150D01*
X3789934Y-1694434D01*
X3789934Y-1676400D01*
X3794506Y-1662684D01*
X3799077Y-1658112D01*
X3808222Y-1653539D01*
X3821938Y-1653539D01*
X3831081Y-1658112D01*
X3839972Y-1667255D01*
X3844543Y-1680971D01*
X3849115Y-1699005D01*
X3853688Y-1708150D01*
X3862831Y-1712721D01*
X3871975Y-1712721D01*
X3880865Y-1708150D01*
X3885438Y-1694434D01*
X3885438Y-1676400D01*
X3862831Y-1815337D02*
G01*
X3871975Y-1811020D01*
X3880865Y-1801876D01*
X3885438Y-1792731D01*
X3885438Y-1774444D01*
X3880865Y-1765554D01*
X3871975Y-1756410D01*
X3862831Y-1751837D01*
X3849115Y-1747265D01*
X3826509Y-1747265D01*
X3812793Y-1751837D01*
X3803650Y-1756410D01*
X3794506Y-1765554D01*
X3789934Y-1774444D01*
X3789934Y-1792731D01*
X3794506Y-1801876D01*
X3803650Y-1811020D01*
X3812793Y-1815337D01*
X10515600Y-1347215D02*
G01*
X10515600Y-1490471D01*
X10515600Y-1347215D02*
G01*
X10577068Y-1347215D01*
X10597388Y-1354073D01*
X10604245Y-1360931D01*
X10611104Y-1374394D01*
X10611104Y-1388110D01*
X10604245Y-1401826D01*
X10597388Y-1408684D01*
X10577068Y-1415542D01*
X10515600Y-1415542D02*
G01*
X10577068Y-1415542D01*
X10597388Y-1422145D01*
X10604245Y-1429004D01*
X10611104Y-1442720D01*
X10611104Y-1463039D01*
X10604245Y-1476755D01*
X10597388Y-1483613D01*
X10577068Y-1490471D01*
X10515600Y-1490471D01*
X10662920Y-1381252D02*
G01*
X10662920Y-1374394D01*
X10669777Y-1360931D01*
X10676381Y-1354073D01*
X10690097Y-1347215D01*
X10717529Y-1347215D01*
X10730991Y-1354073D01*
X10737850Y-1360931D01*
X10744708Y-1374394D01*
X10744708Y-1388110D01*
X10737850Y-1401826D01*
X10724134Y-1422145D01*
X10656061Y-1490471D01*
X10751565Y-1490471D01*
X10541000Y-1867915D02*
G01*
X10541000Y-2011171D01*
X10541000Y-1867915D02*
G01*
X10602468Y-1867915D01*
X10622788Y-1874773D01*
X10629645Y-1881631D01*
X10636504Y-1895094D01*
X10636504Y-1908810D01*
X10629645Y-1922526D01*
X10622788Y-1929384D01*
X10602468Y-1936242D01*
X10541000Y-1936242D02*
G01*
X10602468Y-1936242D01*
X10622788Y-1942845D01*
X10629645Y-1949704D01*
X10636504Y-1963420D01*
X10636504Y-1983739D01*
X10629645Y-1997455D01*
X10622788Y-2004313D01*
X10602468Y-2011171D01*
X10541000Y-2011171D01*
X10681461Y-1895094D02*
G01*
X10695177Y-1888489D01*
X10715497Y-1867915D01*
X10715497Y-2011171D01*
X10570209Y-2972815D02*
G01*
X10515600Y-3116071D01*
X10570209Y-2972815D02*
G01*
X10624565Y-3116071D01*
X10536174Y-3068320D02*
G01*
X10604245Y-3068320D01*
X10676381Y-3006852D02*
G01*
X10676381Y-2999994D01*
X10683240Y-2986531D01*
X10690097Y-2979673D01*
X10703813Y-2972815D01*
X10730991Y-2972815D01*
X10744708Y-2979673D01*
X10751565Y-2986531D01*
X10758424Y-2999994D01*
X10758424Y-3013710D01*
X10751565Y-3027426D01*
X10737850Y-3047745D01*
X10669777Y-3116071D01*
X10765027Y-3116071D01*
X10582909Y-2464815D02*
G01*
X10528300Y-2608071D01*
X10582909Y-2464815D02*
G01*
X10637265Y-2608071D01*
X10548874Y-2560320D02*
G01*
X10616945Y-2560320D01*
X10682477Y-2491994D02*
G01*
X10695940Y-2485389D01*
X10716513Y-2464815D01*
X10716513Y-2608071D01*
X10557509Y-5931915D02*
G01*
X10502900Y-6075172D01*
X10557509Y-5931915D02*
G01*
X10611865Y-6075172D01*
X10523474Y-6027420D02*
G01*
X10591545Y-6027420D01*
X10657077Y-5959093D02*
G01*
X10670540Y-5952490D01*
X10691113Y-5931915D01*
X10691113Y-6075172D01*
X10544809Y-6452615D02*
G01*
X10490200Y-6595872D01*
X10544809Y-6452615D02*
G01*
X10599165Y-6595872D01*
X10510774Y-6548120D02*
G01*
X10578845Y-6548120D01*
X10650981Y-6486652D02*
G01*
X10650981Y-6479793D01*
X10657840Y-6466331D01*
X10664697Y-6459474D01*
X10678413Y-6452615D01*
X10705591Y-6452615D01*
X10719308Y-6459474D01*
X10726165Y-6466331D01*
X10733024Y-6479793D01*
X10733024Y-6493509D01*
X10726165Y-6507225D01*
X10712450Y-6527545D01*
X10644377Y-6595872D01*
X10739627Y-6595872D01*
X10541000Y-5296915D02*
G01*
X10541000Y-5440172D01*
X10541000Y-5296915D02*
G01*
X10602468Y-5296915D01*
X10622788Y-5303774D01*
X10629645Y-5310631D01*
X10636504Y-5324093D01*
X10636504Y-5337809D01*
X10629645Y-5351525D01*
X10622788Y-5358384D01*
X10602468Y-5365241D01*
X10541000Y-5365241D02*
G01*
X10602468Y-5365241D01*
X10622788Y-5371845D01*
X10629645Y-5378704D01*
X10636504Y-5392420D01*
X10636504Y-5412740D01*
X10629645Y-5426456D01*
X10622788Y-5433313D01*
X10602468Y-5440172D01*
X10541000Y-5440172D01*
X10681461Y-5324093D02*
G01*
X10695177Y-5317490D01*
X10715497Y-5296915D01*
X10715497Y-5440172D01*
X10515600Y-4763515D02*
G01*
X10515600Y-4906772D01*
X10515600Y-4763515D02*
G01*
X10577068Y-4763515D01*
X10597388Y-4770374D01*
X10604245Y-4777231D01*
X10611104Y-4790693D01*
X10611104Y-4804409D01*
X10604245Y-4818125D01*
X10597388Y-4824984D01*
X10577068Y-4831841D01*
X10515600Y-4831841D02*
G01*
X10577068Y-4831841D01*
X10597388Y-4838445D01*
X10604245Y-4845304D01*
X10611104Y-4859020D01*
X10611104Y-4879340D01*
X10604245Y-4893056D01*
X10597388Y-4899913D01*
X10577068Y-4906772D01*
X10515600Y-4906772D01*
X10662920Y-4797552D02*
G01*
X10662920Y-4790693D01*
X10669777Y-4777231D01*
X10676381Y-4770374D01*
X10690097Y-4763515D01*
X10717529Y-4763515D01*
X10730991Y-4770374D01*
X10737850Y-4777231D01*
X10744708Y-4790693D01*
X10744708Y-4804409D01*
X10737850Y-4818125D01*
X10724134Y-4838445D01*
X10656061Y-4906772D01*
X10751565Y-4906772D01*
X8050022Y-2743962D02*
G01*
X8013700Y-2839465D01*
X8050022Y-2743962D02*
G01*
X8086343Y-2839465D01*
X8027415Y-2807462D02*
G01*
X8072881Y-2807462D01*
X8116315Y-2761995D02*
G01*
X8125459Y-2757423D01*
X8139175Y-2743962D01*
X8139175Y-2839465D01*
X8050022Y-2985262D02*
G01*
X8013700Y-3080765D01*
X8050022Y-2985262D02*
G01*
X8086343Y-3080765D01*
X8027415Y-3048762D02*
G01*
X8072881Y-3048762D01*
X8120888Y-3007868D02*
G01*
X8120888Y-3003295D01*
X8125459Y-2994405D01*
X8130031Y-2989834D01*
X8139175Y-2985262D01*
X8157209Y-2985262D01*
X8166354Y-2989834D01*
X8170925Y-2994405D01*
X8175497Y-3003295D01*
X8175497Y-3012439D01*
X8170925Y-3021584D01*
X8161781Y-3035300D01*
X8116315Y-3080765D01*
X8180070Y-3080765D01*
X8051800Y-2477262D02*
G01*
X8051800Y-2572765D01*
X8051800Y-2477262D02*
G01*
X8092693Y-2477262D01*
X8106409Y-2481834D01*
X8110981Y-2486405D01*
X8115554Y-2495295D01*
X8115554Y-2504439D01*
X8110981Y-2513584D01*
X8106409Y-2518155D01*
X8092693Y-2522728D01*
X8051800Y-2522728D02*
G01*
X8092693Y-2522728D01*
X8106409Y-2527300D01*
X8110981Y-2531618D01*
X8115554Y-2540762D01*
X8115554Y-2554478D01*
X8110981Y-2563621D01*
X8106409Y-2568194D01*
X8092693Y-2572765D01*
X8051800Y-2572765D01*
X8145525Y-2495295D02*
G01*
X8154415Y-2490723D01*
X8168131Y-2477262D01*
X8168131Y-2572765D01*
X8013700Y-2223262D02*
G01*
X8013700Y-2318765D01*
X8013700Y-2223262D02*
G01*
X8054593Y-2223262D01*
X8068309Y-2227834D01*
X8072881Y-2232405D01*
X8077454Y-2241295D01*
X8077454Y-2250439D01*
X8072881Y-2259584D01*
X8068309Y-2264155D01*
X8054593Y-2268728D01*
X8013700Y-2268728D02*
G01*
X8054593Y-2268728D01*
X8068309Y-2273300D01*
X8072881Y-2277618D01*
X8077454Y-2286762D01*
X8077454Y-2300478D01*
X8072881Y-2309621D01*
X8068309Y-2314194D01*
X8054593Y-2318765D01*
X8013700Y-2318765D01*
X8111997Y-2245868D02*
G01*
X8111997Y-2241295D01*
X8116315Y-2232405D01*
X8120888Y-2227834D01*
X8130031Y-2223262D01*
X8148320Y-2223262D01*
X8157209Y-2227834D01*
X8161781Y-2232405D01*
X8166354Y-2241295D01*
X8166354Y-2250439D01*
X8161781Y-2259584D01*
X8152891Y-2273300D01*
X8107425Y-2318765D01*
X8170925Y-2318765D01*
X8062722Y-3239262D02*
G01*
X8026400Y-3334765D01*
X8062722Y-3239262D02*
G01*
X8099043Y-3334765D01*
X8040115Y-3302762D02*
G01*
X8085581Y-3302762D01*
X8192770Y-3239262D02*
G01*
X8129015Y-3334765D01*
X8129015Y-3239262D02*
G01*
X8192770Y-3239262D01*
X8129015Y-3334765D02*
G01*
X8192770Y-3334765D01*
X8222741Y-3293618D02*
G01*
X8304529Y-3293618D01*
X8334502Y-3239262D02*
G01*
X8334502Y-3334765D01*
X8334502Y-3239262D02*
G01*
X8393684Y-3239262D01*
X8334502Y-3284728D02*
G01*
X8370824Y-3284728D01*
X8037322Y-6287261D02*
G01*
X8001000Y-6382765D01*
X8037322Y-6287261D02*
G01*
X8073643Y-6382765D01*
X8014715Y-6350761D02*
G01*
X8060181Y-6350761D01*
X8103615Y-6287261D02*
G01*
X8103615Y-6382765D01*
X8103615Y-6382765D02*
G01*
X8158225Y-6382765D01*
X8220202Y-6287261D02*
G01*
X8220202Y-6382765D01*
X8188197Y-6287261D02*
G01*
X8251952Y-6287261D01*
X8281924Y-6341618D02*
G01*
X8363711Y-6341618D01*
X8393684Y-6287261D02*
G01*
X8393684Y-6382765D01*
X8393684Y-6287261D02*
G01*
X8452865Y-6287261D01*
X8393684Y-6332727D02*
G01*
X8430006Y-6332727D01*
X7975600Y-5271261D02*
G01*
X7975600Y-5366765D01*
X7975600Y-5271261D02*
G01*
X8016493Y-5271261D01*
X8030209Y-5275834D01*
X8034781Y-5280406D01*
X8039354Y-5289295D01*
X8039354Y-5298440D01*
X8034781Y-5307584D01*
X8030209Y-5312156D01*
X8016493Y-5316727D01*
X7975600Y-5316727D02*
G01*
X8016493Y-5316727D01*
X8030209Y-5321300D01*
X8034781Y-5325618D01*
X8039354Y-5334761D01*
X8039354Y-5348477D01*
X8034781Y-5357622D01*
X8030209Y-5362193D01*
X8016493Y-5366765D01*
X7975600Y-5366765D01*
X8073897Y-5293868D02*
G01*
X8073897Y-5289295D01*
X8078215Y-5280406D01*
X8082788Y-5275834D01*
X8091931Y-5271261D01*
X8110220Y-5271261D01*
X8119109Y-5275834D01*
X8123681Y-5280406D01*
X8128254Y-5289295D01*
X8128254Y-5298440D01*
X8123681Y-5307584D01*
X8114791Y-5321300D01*
X8069325Y-5366765D01*
X8132825Y-5366765D01*
X8001000Y-5499861D02*
G01*
X8001000Y-5595365D01*
X8001000Y-5499861D02*
G01*
X8041893Y-5499861D01*
X8055609Y-5504434D01*
X8060181Y-5509006D01*
X8064754Y-5517895D01*
X8064754Y-5527040D01*
X8060181Y-5536184D01*
X8055609Y-5540756D01*
X8041893Y-5545327D01*
X8001000Y-5545327D02*
G01*
X8041893Y-5545327D01*
X8055609Y-5549900D01*
X8060181Y-5554218D01*
X8064754Y-5563361D01*
X8064754Y-5577077D01*
X8060181Y-5586222D01*
X8055609Y-5590793D01*
X8041893Y-5595365D01*
X8001000Y-5595365D01*
X8094725Y-5517895D02*
G01*
X8103615Y-5513324D01*
X8117331Y-5499861D01*
X8117331Y-5595365D01*
X8037322Y-5791961D02*
G01*
X8001000Y-5887465D01*
X8037322Y-5791961D02*
G01*
X8073643Y-5887465D01*
X8014715Y-5855461D02*
G01*
X8060181Y-5855461D01*
X8103615Y-5809995D02*
G01*
X8112759Y-5805424D01*
X8126475Y-5791961D01*
X8126475Y-5887465D01*
X8037322Y-6020561D02*
G01*
X8001000Y-6116065D01*
X8037322Y-6020561D02*
G01*
X8073643Y-6116065D01*
X8014715Y-6084061D02*
G01*
X8060181Y-6084061D01*
X8108188Y-6043168D02*
G01*
X8108188Y-6038595D01*
X8112759Y-6029706D01*
X8117331Y-6025134D01*
X8126475Y-6020561D01*
X8144509Y-6020561D01*
X8153654Y-6025134D01*
X8158225Y-6029706D01*
X8162797Y-6038595D01*
X8162797Y-6047740D01*
X8158225Y-6056884D01*
X8149081Y-6070600D01*
X8103615Y-6116065D01*
X8167370Y-6116065D01*
X7924800Y-4578095D02*
G01*
X7933943Y-4573524D01*
X7947406Y-4560061D01*
X7947406Y-4655565D01*
X7981950Y-4582668D02*
G01*
X7981950Y-4578095D01*
X7986522Y-4569206D01*
X7991093Y-4564634D01*
X8000238Y-4560061D01*
X8018525Y-4560061D01*
X8027415Y-4564634D01*
X8031988Y-4569206D01*
X8036559Y-4578095D01*
X8036559Y-4587240D01*
X8031988Y-4596384D01*
X8023097Y-4610100D01*
X7977631Y-4655565D01*
X8041131Y-4655565D01*
X8071104Y-4560061D02*
G01*
X8107425Y-4655565D01*
X8144002Y-4560061D02*
G01*
X8107425Y-4655565D01*
X7975600Y-1618995D02*
G01*
X7984743Y-1614423D01*
X7998206Y-1600962D01*
X7998206Y-1696465D01*
X8032750Y-1623568D02*
G01*
X8032750Y-1618995D01*
X8037322Y-1610105D01*
X8041893Y-1605534D01*
X8051038Y-1600962D01*
X8069325Y-1600962D01*
X8078215Y-1605534D01*
X8082788Y-1610105D01*
X8087359Y-1618995D01*
X8087359Y-1628139D01*
X8082788Y-1637284D01*
X8073897Y-1651000D01*
X8028431Y-1696465D01*
X8091931Y-1696465D01*
X8121904Y-1600962D02*
G01*
X8158225Y-1696465D01*
X8194802Y-1600962D02*
G01*
X8158225Y-1696465D01*
X8030972Y-2029968D02*
G01*
X8026654Y-2020823D01*
X8017509Y-2011934D01*
X8008365Y-2007362D01*
X7990077Y-2007362D01*
X7981188Y-2011934D01*
X7972043Y-2020823D01*
X7967472Y-2029968D01*
X7962900Y-2043684D01*
X7962900Y-2066289D01*
X7967472Y-2080005D01*
X7972043Y-2089150D01*
X7981188Y-2098294D01*
X7990077Y-2102865D01*
X8008365Y-2102865D01*
X8017509Y-2098294D01*
X8026654Y-2089150D01*
X8030972Y-2080005D01*
X8030972Y-2066289D01*
X8008365Y-2066289D02*
G01*
X8030972Y-2066289D01*
X8061197Y-2007362D02*
G01*
X8061197Y-2102865D01*
X8061197Y-2007362D02*
G01*
X8124697Y-2102865D01*
X8124697Y-2007362D02*
G01*
X8124697Y-2102865D01*
X8154670Y-2007362D02*
G01*
X8154670Y-2102865D01*
X8154670Y-2007362D02*
G01*
X8186420Y-2007362D01*
X8200136Y-2011934D01*
X8209279Y-2020823D01*
X8213852Y-2029968D01*
X8218424Y-2043684D01*
X8218424Y-2066289D01*
X8213852Y-2080005D01*
X8209279Y-2089150D01*
X8200136Y-2098294D01*
X8186420Y-2102865D01*
X8154670Y-2102865D01*
X8119872Y-3515868D02*
G01*
X8115554Y-3506723D01*
X8106409Y-3497834D01*
X8097265Y-3493262D01*
X8078977Y-3493262D01*
X8070088Y-3497834D01*
X8060943Y-3506723D01*
X8056372Y-3515868D01*
X8051800Y-3529584D01*
X8051800Y-3552189D01*
X8056372Y-3565905D01*
X8060943Y-3575050D01*
X8070088Y-3584194D01*
X8078977Y-3588765D01*
X8097265Y-3588765D01*
X8106409Y-3584194D01*
X8115554Y-3575050D01*
X8119872Y-3565905D01*
X8119872Y-3552189D01*
X8097265Y-3552189D02*
G01*
X8119872Y-3552189D01*
X8150097Y-3493262D02*
G01*
X8150097Y-3588765D01*
X8150097Y-3493262D02*
G01*
X8213597Y-3588765D01*
X8213597Y-3493262D02*
G01*
X8213597Y-3588765D01*
X8243570Y-3493262D02*
G01*
X8243570Y-3588765D01*
X8243570Y-3493262D02*
G01*
X8275320Y-3493262D01*
X8289036Y-3497834D01*
X8298179Y-3506723D01*
X8302752Y-3515868D01*
X8307324Y-3529584D01*
X8307324Y-3552189D01*
X8302752Y-3565905D01*
X8298179Y-3575050D01*
X8289036Y-3584194D01*
X8275320Y-3588765D01*
X8243570Y-3588765D01*
X8069072Y-6563868D02*
G01*
X8064754Y-6554724D01*
X8055609Y-6545834D01*
X8046465Y-6541261D01*
X8028177Y-6541261D01*
X8019288Y-6545834D01*
X8010143Y-6554724D01*
X8005572Y-6563868D01*
X8001000Y-6577584D01*
X8001000Y-6600190D01*
X8005572Y-6613906D01*
X8010143Y-6623050D01*
X8019288Y-6632193D01*
X8028177Y-6636765D01*
X8046465Y-6636765D01*
X8055609Y-6632193D01*
X8064754Y-6623050D01*
X8069072Y-6613906D01*
X8069072Y-6600190D01*
X8046465Y-6600190D02*
G01*
X8069072Y-6600190D01*
X8099297Y-6541261D02*
G01*
X8099297Y-6636765D01*
X8099297Y-6541261D02*
G01*
X8162797Y-6636765D01*
X8162797Y-6541261D02*
G01*
X8162797Y-6636765D01*
X8192770Y-6541261D02*
G01*
X8192770Y-6636765D01*
X8192770Y-6541261D02*
G01*
X8224520Y-6541261D01*
X8238236Y-6545834D01*
X8247379Y-6554724D01*
X8251952Y-6563868D01*
X8256524Y-6577584D01*
X8256524Y-6600190D01*
X8251952Y-6613906D01*
X8247379Y-6623050D01*
X8238236Y-6632193D01*
X8224520Y-6636765D01*
X8192770Y-6636765D01*
X8043672Y-5077968D02*
G01*
X8039354Y-5068824D01*
X8030209Y-5059934D01*
X8021065Y-5055361D01*
X8002777Y-5055361D01*
X7993888Y-5059934D01*
X7984743Y-5068824D01*
X7980172Y-5077968D01*
X7975600Y-5091684D01*
X7975600Y-5114290D01*
X7980172Y-5128006D01*
X7984743Y-5137150D01*
X7993888Y-5146293D01*
X8002777Y-5150865D01*
X8021065Y-5150865D01*
X8030209Y-5146293D01*
X8039354Y-5137150D01*
X8043672Y-5128006D01*
X8043672Y-5114290D01*
X8021065Y-5114290D02*
G01*
X8043672Y-5114290D01*
X8073897Y-5055361D02*
G01*
X8073897Y-5150865D01*
X8073897Y-5055361D02*
G01*
X8137397Y-5150865D01*
X8137397Y-5055361D02*
G01*
X8137397Y-5150865D01*
X8167370Y-5055361D02*
G01*
X8167370Y-5150865D01*
X8167370Y-5055361D02*
G01*
X8199120Y-5055361D01*
X8212836Y-5059934D01*
X8221979Y-5068824D01*
X8226552Y-5077968D01*
X8231124Y-5091684D01*
X8231124Y-5114290D01*
X8226552Y-5128006D01*
X8221979Y-5137150D01*
X8212836Y-5146293D01*
X8199120Y-5150865D01*
X8167370Y-5150865D01*
X6121400Y-1727962D02*
G01*
X6121400Y-1823465D01*
X6121400Y-1727962D02*
G01*
X6180581Y-1727962D01*
X6121400Y-1773428D02*
G01*
X6157722Y-1773428D01*
X6121400Y-1823465D02*
G01*
X6180581Y-1823465D01*
X6210554Y-1727962D02*
G01*
X6210554Y-1823465D01*
X6210554Y-1727962D02*
G01*
X6274054Y-1823465D01*
X6274054Y-1727962D02*
G01*
X6274054Y-1823465D01*
X6340602Y-1727962D02*
G01*
X6304025Y-1823465D01*
X6340602Y-1727962D02*
G01*
X6376924Y-1823465D01*
X6317741Y-1791462D02*
G01*
X6363208Y-1791462D01*
X6070600Y-4763261D02*
G01*
X6070600Y-4858765D01*
X6070600Y-4763261D02*
G01*
X6129781Y-4763261D01*
X6070600Y-4808727D02*
G01*
X6106922Y-4808727D01*
X6070600Y-4858765D02*
G01*
X6129781Y-4858765D01*
X6159754Y-4763261D02*
G01*
X6159754Y-4858765D01*
X6159754Y-4763261D02*
G01*
X6223254Y-4858765D01*
X6223254Y-4763261D02*
G01*
X6223254Y-4858765D01*
X6289802Y-4763261D02*
G01*
X6253225Y-4858765D01*
X6289802Y-4763261D02*
G01*
X6326124Y-4858765D01*
X6266941Y-4826761D02*
G01*
X6312408Y-4826761D01*
X6005322Y-3239262D02*
G01*
X5969000Y-3334765D01*
X6005322Y-3239262D02*
G01*
X6041643Y-3334765D01*
X5982715Y-3302762D02*
G01*
X6028181Y-3302762D01*
X6135370Y-3239262D02*
G01*
X6071615Y-3334765D01*
X6071615Y-3239262D02*
G01*
X6135370Y-3239262D01*
X6071615Y-3334765D02*
G01*
X6135370Y-3334765D01*
X6165341Y-3293618D02*
G01*
X6247129Y-3293618D01*
X6340856Y-3252723D02*
G01*
X6331711Y-3243834D01*
X6317995Y-3239262D01*
X6299961Y-3239262D01*
X6286245Y-3243834D01*
X6277102Y-3252723D01*
X6277102Y-3261868D01*
X6281674Y-3271012D01*
X6286245Y-3275584D01*
X6295390Y-3280155D01*
X6322568Y-3289300D01*
X6331711Y-3293618D01*
X6336284Y-3298189D01*
X6340856Y-3307334D01*
X6340856Y-3321050D01*
X6331711Y-3330194D01*
X6317995Y-3334765D01*
X6299961Y-3334765D01*
X6286245Y-3330194D01*
X6277102Y-3321050D01*
X5878322Y-6299961D02*
G01*
X5842000Y-6395465D01*
X5878322Y-6299961D02*
G01*
X5914643Y-6395465D01*
X5855715Y-6363461D02*
G01*
X5901181Y-6363461D01*
X5944615Y-6299961D02*
G01*
X5944615Y-6395465D01*
X5944615Y-6395465D02*
G01*
X5999225Y-6395465D01*
X6061202Y-6299961D02*
G01*
X6061202Y-6395465D01*
X6029197Y-6299961D02*
G01*
X6092952Y-6299961D01*
X6122924Y-6354318D02*
G01*
X6204711Y-6354318D01*
X6298438Y-6313424D02*
G01*
X6289293Y-6304534D01*
X6275577Y-6299961D01*
X6257543Y-6299961D01*
X6243827Y-6304534D01*
X6234684Y-6313424D01*
X6234684Y-6322568D01*
X6239256Y-6331711D01*
X6243827Y-6336284D01*
X6252972Y-6340856D01*
X6280150Y-6350000D01*
X6289293Y-6354318D01*
X6293865Y-6358890D01*
X6298438Y-6368034D01*
X6298438Y-6381750D01*
X6289293Y-6390893D01*
X6275577Y-6395465D01*
X6257543Y-6395465D01*
X6243827Y-6390893D01*
X6234684Y-6381750D01*
X6134100Y-6566661D02*
G01*
X6134100Y-6662165D01*
X6134100Y-6566661D02*
G01*
X6165850Y-6566661D01*
X6179565Y-6571234D01*
X6188709Y-6580124D01*
X6193281Y-6589268D01*
X6197854Y-6602984D01*
X6197854Y-6625590D01*
X6193281Y-6639306D01*
X6188709Y-6648450D01*
X6179565Y-6657593D01*
X6165850Y-6662165D01*
X6134100Y-6662165D01*
X6227825Y-6566661D02*
G01*
X6227825Y-6662165D01*
X6257797Y-6566661D02*
G01*
X6257797Y-6662165D01*
X6257797Y-6566661D02*
G01*
X6298691Y-6566661D01*
X6312408Y-6571234D01*
X6316725Y-6575806D01*
X6321297Y-6584695D01*
X6321297Y-6593840D01*
X6316725Y-6602984D01*
X6312408Y-6607556D01*
X6298691Y-6612127D01*
X6257797Y-6612127D01*
X6289547Y-6612127D02*
G01*
X6321297Y-6662165D01*
X6172200Y-3505962D02*
G01*
X6172200Y-3601465D01*
X6172200Y-3505962D02*
G01*
X6203950Y-3505962D01*
X6217665Y-3510534D01*
X6226809Y-3519423D01*
X6231381Y-3528568D01*
X6235954Y-3542284D01*
X6235954Y-3564889D01*
X6231381Y-3578605D01*
X6226809Y-3587750D01*
X6217665Y-3596894D01*
X6203950Y-3601465D01*
X6172200Y-3601465D01*
X6265925Y-3505962D02*
G01*
X6265925Y-3601465D01*
X6295897Y-3505962D02*
G01*
X6295897Y-3601465D01*
X6295897Y-3505962D02*
G01*
X6336791Y-3505962D01*
X6350508Y-3510534D01*
X6354825Y-3515105D01*
X6359397Y-3523995D01*
X6359397Y-3533139D01*
X6354825Y-3542284D01*
X6350508Y-3546855D01*
X6336791Y-3551428D01*
X6295897Y-3551428D01*
X6327647Y-3551428D02*
G01*
X6359397Y-3601465D01*
X6159754Y-2998723D02*
G01*
X6150609Y-2989834D01*
X6136893Y-2985262D01*
X6118606Y-2985262D01*
X6105143Y-2989834D01*
X6096000Y-2998723D01*
X6096000Y-3007868D01*
X6100572Y-3017012D01*
X6105143Y-3021584D01*
X6114288Y-3026155D01*
X6141465Y-3035300D01*
X6150609Y-3039618D01*
X6155181Y-3044189D01*
X6159754Y-3053334D01*
X6159754Y-3067050D01*
X6150609Y-3076194D01*
X6136893Y-3080765D01*
X6118606Y-3080765D01*
X6105143Y-3076194D01*
X6096000Y-3067050D01*
X6189725Y-2985262D02*
G01*
X6189725Y-3080765D01*
X6189725Y-3080765D02*
G01*
X6244081Y-3080765D01*
X6274308Y-2985262D02*
G01*
X6274308Y-3080765D01*
X6274308Y-2985262D02*
G01*
X6315202Y-2985262D01*
X6328663Y-2989834D01*
X6333236Y-2994405D01*
X6337808Y-3003295D01*
X6337808Y-3017012D01*
X6333236Y-3026155D01*
X6328663Y-3030728D01*
X6315202Y-3035300D01*
X6274308Y-3035300D01*
X6159754Y-6046724D02*
G01*
X6150609Y-6037834D01*
X6136893Y-6033261D01*
X6118606Y-6033261D01*
X6105143Y-6037834D01*
X6096000Y-6046724D01*
X6096000Y-6055868D01*
X6100572Y-6065011D01*
X6105143Y-6069584D01*
X6114288Y-6074156D01*
X6141465Y-6083300D01*
X6150609Y-6087618D01*
X6155181Y-6092190D01*
X6159754Y-6101334D01*
X6159754Y-6115050D01*
X6150609Y-6124193D01*
X6136893Y-6128765D01*
X6118606Y-6128765D01*
X6105143Y-6124193D01*
X6096000Y-6115050D01*
X6189725Y-6033261D02*
G01*
X6189725Y-6128765D01*
X6189725Y-6128765D02*
G01*
X6244081Y-6128765D01*
X6274308Y-6033261D02*
G01*
X6274308Y-6128765D01*
X6274308Y-6033261D02*
G01*
X6315202Y-6033261D01*
X6328663Y-6037834D01*
X6333236Y-6042406D01*
X6337808Y-6051295D01*
X6337808Y-6065011D01*
X6333236Y-6074156D01*
X6328663Y-6078727D01*
X6315202Y-6083300D01*
X6274308Y-6083300D01*
X6083300Y-2743962D02*
G01*
X6083300Y-2839465D01*
X6083300Y-2743962D02*
G01*
X6124193Y-2743962D01*
X6137909Y-2748534D01*
X6142481Y-2753105D01*
X6147054Y-2761995D01*
X6147054Y-2771139D01*
X6142481Y-2780284D01*
X6137909Y-2784855D01*
X6124193Y-2789428D01*
X6083300Y-2789428D01*
X6115050Y-2789428D02*
G01*
X6147054Y-2839465D01*
X6240525Y-2757423D02*
G01*
X6231381Y-2748534D01*
X6217920Y-2743962D01*
X6199631Y-2743962D01*
X6185915Y-2748534D01*
X6177025Y-2757423D01*
X6177025Y-2766568D01*
X6181597Y-2775712D01*
X6185915Y-2780284D01*
X6195059Y-2784855D01*
X6222491Y-2794000D01*
X6231381Y-2798318D01*
X6235954Y-2802889D01*
X6240525Y-2812034D01*
X6240525Y-2825750D01*
X6231381Y-2834894D01*
X6217920Y-2839465D01*
X6199631Y-2839465D01*
X6185915Y-2834894D01*
X6177025Y-2825750D01*
X6302502Y-2743962D02*
G01*
X6302502Y-2839465D01*
X6270497Y-2743962D02*
G01*
X6334252Y-2743962D01*
X6083300Y-5779261D02*
G01*
X6083300Y-5874765D01*
X6083300Y-5779261D02*
G01*
X6124193Y-5779261D01*
X6137909Y-5783834D01*
X6142481Y-5788406D01*
X6147054Y-5797295D01*
X6147054Y-5806440D01*
X6142481Y-5815584D01*
X6137909Y-5820156D01*
X6124193Y-5824727D01*
X6083300Y-5824727D01*
X6115050Y-5824727D02*
G01*
X6147054Y-5874765D01*
X6240525Y-5792724D02*
G01*
X6231381Y-5783834D01*
X6217920Y-5779261D01*
X6199631Y-5779261D01*
X6185915Y-5783834D01*
X6177025Y-5792724D01*
X6177025Y-5801868D01*
X6181597Y-5811011D01*
X6185915Y-5815584D01*
X6195059Y-5820156D01*
X6222491Y-5829300D01*
X6231381Y-5833618D01*
X6235954Y-5838190D01*
X6240525Y-5847334D01*
X6240525Y-5861050D01*
X6231381Y-5870193D01*
X6217920Y-5874765D01*
X6199631Y-5874765D01*
X6185915Y-5870193D01*
X6177025Y-5861050D01*
X6302502Y-5779261D02*
G01*
X6302502Y-5874765D01*
X6270497Y-5779261D02*
G01*
X6334252Y-5779261D01*
X6159500Y-1981962D02*
G01*
X6159500Y-2077465D01*
X6159500Y-1981962D02*
G01*
X6195822Y-2077465D01*
X6232143Y-1981962D02*
G01*
X6195822Y-2077465D01*
X6232143Y-1981962D02*
G01*
X6232143Y-2077465D01*
X6289547Y-1981962D02*
G01*
X6275831Y-1986534D01*
X6266688Y-1999995D01*
X6262115Y-2022855D01*
X6262115Y-2036318D01*
X6266688Y-2059178D01*
X6275831Y-2072894D01*
X6289547Y-2077465D01*
X6298691Y-2077465D01*
X6312154Y-2072894D01*
X6321297Y-2059178D01*
X6325870Y-2036318D01*
X6325870Y-2022855D01*
X6321297Y-1999995D01*
X6312154Y-1986534D01*
X6298691Y-1981962D01*
X6289547Y-1981962D01*
X6146800Y-5004561D02*
G01*
X6146800Y-5100065D01*
X6146800Y-5004561D02*
G01*
X6183122Y-5100065D01*
X6219443Y-5004561D02*
G01*
X6183122Y-5100065D01*
X6219443Y-5004561D02*
G01*
X6219443Y-5100065D01*
X6276847Y-5004561D02*
G01*
X6263131Y-5009134D01*
X6253988Y-5022595D01*
X6249415Y-5045456D01*
X6249415Y-5058918D01*
X6253988Y-5081777D01*
X6263131Y-5095493D01*
X6276847Y-5100065D01*
X6285991Y-5100065D01*
X6299454Y-5095493D01*
X6308597Y-5081777D01*
X6313170Y-5058918D01*
X6313170Y-5045456D01*
X6308597Y-5022595D01*
X6299454Y-5009134D01*
X6285991Y-5004561D01*
X6276847Y-5004561D01*
X6184900Y-2210562D02*
G01*
X6184900Y-2306065D01*
X6184900Y-2210562D02*
G01*
X6221222Y-2306065D01*
X6257543Y-2210562D02*
G01*
X6221222Y-2306065D01*
X6257543Y-2210562D02*
G01*
X6257543Y-2306065D01*
X6287515Y-2228595D02*
G01*
X6296659Y-2224023D01*
X6310375Y-2210562D01*
X6310375Y-2306065D01*
X6159500Y-5283961D02*
G01*
X6159500Y-5379465D01*
X6159500Y-5283961D02*
G01*
X6195822Y-5379465D01*
X6232143Y-5283961D02*
G01*
X6195822Y-5379465D01*
X6232143Y-5283961D02*
G01*
X6232143Y-5379465D01*
X6262115Y-5301995D02*
G01*
X6271259Y-5297424D01*
X6284975Y-5283961D01*
X6284975Y-5379465D01*
X6146800Y-5512561D02*
G01*
X6146800Y-5608065D01*
X6146800Y-5512561D02*
G01*
X6183122Y-5608065D01*
X6219443Y-5512561D02*
G01*
X6183122Y-5608065D01*
X6219443Y-5512561D02*
G01*
X6219443Y-5608065D01*
X6253988Y-5535168D02*
G01*
X6253988Y-5530595D01*
X6258559Y-5521706D01*
X6263131Y-5517134D01*
X6272275Y-5512561D01*
X6290309Y-5512561D01*
X6299454Y-5517134D01*
X6304025Y-5521706D01*
X6308597Y-5530595D01*
X6308597Y-5539740D01*
X6304025Y-5548884D01*
X6294881Y-5562600D01*
X6249415Y-5608065D01*
X6313170Y-5608065D01*
X6159500Y-2489962D02*
G01*
X6159500Y-2585465D01*
X6159500Y-2489962D02*
G01*
X6195822Y-2585465D01*
X6232143Y-2489962D02*
G01*
X6195822Y-2585465D01*
X6232143Y-2489962D02*
G01*
X6232143Y-2585465D01*
X6266688Y-2512568D02*
G01*
X6266688Y-2507995D01*
X6271259Y-2499105D01*
X6275831Y-2494534D01*
X6284975Y-2489962D01*
X6303009Y-2489962D01*
X6312154Y-2494534D01*
X6316725Y-2499105D01*
X6321297Y-2507995D01*
X6321297Y-2517139D01*
X6316725Y-2526284D01*
X6307581Y-2540000D01*
X6262115Y-2585465D01*
X6325870Y-2585465D01*
X5626100Y-3213862D02*
G01*
X5626100Y-3309365D01*
X5626100Y-3213862D02*
G01*
X5685281Y-3213862D01*
X5626100Y-3259328D02*
G01*
X5662422Y-3259328D01*
X5626100Y-3309365D02*
G01*
X5685281Y-3309365D01*
X5715254Y-3213862D02*
G01*
X5715254Y-3309365D01*
X5715254Y-3213862D02*
G01*
X5778754Y-3309365D01*
X5778754Y-3213862D02*
G01*
X5778754Y-3309365D01*
X5845302Y-3213862D02*
G01*
X5808725Y-3309365D01*
X5845302Y-3213862D02*
G01*
X5881624Y-3309365D01*
X5822441Y-3277362D02*
G01*
X5867908Y-3277362D01*
X5600700Y-3429762D02*
G01*
X5600700Y-3525265D01*
X5600700Y-3429762D02*
G01*
X5637022Y-3525265D01*
X5673343Y-3429762D02*
G01*
X5637022Y-3525265D01*
X5673343Y-3429762D02*
G01*
X5673343Y-3525265D01*
X5730747Y-3429762D02*
G01*
X5717031Y-3434334D01*
X5707888Y-3447795D01*
X5703315Y-3470655D01*
X5703315Y-3484118D01*
X5707888Y-3506978D01*
X5717031Y-3520694D01*
X5730747Y-3525265D01*
X5739891Y-3525265D01*
X5753354Y-3520694D01*
X5762497Y-3506978D01*
X5767070Y-3484118D01*
X5767070Y-3470655D01*
X5762497Y-3447795D01*
X5753354Y-3434334D01*
X5739891Y-3429762D01*
X5730747Y-3429762D01*
X5626100Y-3696462D02*
G01*
X5626100Y-3791965D01*
X5626100Y-3696462D02*
G01*
X5662422Y-3791965D01*
X5698743Y-3696462D02*
G01*
X5662422Y-3791965D01*
X5698743Y-3696462D02*
G01*
X5698743Y-3791965D01*
X5728715Y-3714495D02*
G01*
X5737859Y-3709923D01*
X5751575Y-3696462D01*
X5751575Y-3791965D01*
X5588000Y-3963162D02*
G01*
X5588000Y-4058665D01*
X5588000Y-3963162D02*
G01*
X5624322Y-4058665D01*
X5660643Y-3963162D02*
G01*
X5624322Y-4058665D01*
X5660643Y-3963162D02*
G01*
X5660643Y-4058665D01*
X5695188Y-3985768D02*
G01*
X5695188Y-3981195D01*
X5699759Y-3972305D01*
X5704331Y-3967734D01*
X5713475Y-3963162D01*
X5731509Y-3963162D01*
X5740654Y-3967734D01*
X5745225Y-3972305D01*
X5749797Y-3981195D01*
X5749797Y-3990339D01*
X5745225Y-3999484D01*
X5736081Y-4013200D01*
X5690615Y-4058665D01*
X5754370Y-4058665D01*
X5624322Y-4204461D02*
G01*
X5588000Y-4299965D01*
X5624322Y-4204461D02*
G01*
X5660643Y-4299965D01*
X5601715Y-4267961D02*
G01*
X5647181Y-4267961D01*
X5754370Y-4204461D02*
G01*
X5690615Y-4299965D01*
X5690615Y-4204461D02*
G01*
X5754370Y-4204461D01*
X5690615Y-4299965D02*
G01*
X5754370Y-4299965D01*
X5784341Y-4258818D02*
G01*
X5866129Y-4258818D01*
X5896102Y-4204461D02*
G01*
X5896102Y-4299965D01*
X5896102Y-4204461D02*
G01*
X5955284Y-4204461D01*
X5896102Y-4249927D02*
G01*
X5932424Y-4249927D01*
X5637022Y-4496561D02*
G01*
X5600700Y-4592065D01*
X5637022Y-4496561D02*
G01*
X5673343Y-4592065D01*
X5614415Y-4560061D02*
G01*
X5659881Y-4560061D01*
X5703315Y-4496561D02*
G01*
X5703315Y-4592065D01*
X5703315Y-4592065D02*
G01*
X5757925Y-4592065D01*
X5819902Y-4496561D02*
G01*
X5819902Y-4592065D01*
X5787897Y-4496561D02*
G01*
X5851652Y-4496561D01*
X5881624Y-4550918D02*
G01*
X5963411Y-4550918D01*
X5993384Y-4496561D02*
G01*
X5993384Y-4592065D01*
X5993384Y-4496561D02*
G01*
X6052565Y-4496561D01*
X5993384Y-4542027D02*
G01*
X6029706Y-4542027D01*
X3617722Y-5664961D02*
G01*
X3581400Y-5760465D01*
X3617722Y-5664961D02*
G01*
X3654043Y-5760465D01*
X3595115Y-5728461D02*
G01*
X3640581Y-5728461D01*
X3684015Y-5664961D02*
G01*
X3684015Y-5760465D01*
X3684015Y-5664961D02*
G01*
X3716020Y-5664961D01*
X3729481Y-5669534D01*
X3738625Y-5678424D01*
X3743197Y-5687568D01*
X3747770Y-5701284D01*
X3747770Y-5723890D01*
X3743197Y-5737606D01*
X3738625Y-5746750D01*
X3729481Y-5755893D01*
X3716020Y-5760465D01*
X3684015Y-5760465D01*
X3846068Y-5687568D02*
G01*
X3841495Y-5678424D01*
X3832352Y-5669534D01*
X3823208Y-5664961D01*
X3804920Y-5664961D01*
X3796029Y-5669534D01*
X3786886Y-5678424D01*
X3782313Y-5687568D01*
X3777741Y-5701284D01*
X3777741Y-5723890D01*
X3782313Y-5737606D01*
X3786886Y-5746750D01*
X3796029Y-5755893D01*
X3804920Y-5760465D01*
X3823208Y-5760465D01*
X3832352Y-5755893D01*
X3841495Y-5746750D01*
X3846068Y-5737606D01*
X3903218Y-5664961D02*
G01*
X3889502Y-5669534D01*
X3880611Y-5682995D01*
X3876040Y-5705856D01*
X3876040Y-5719318D01*
X3880611Y-5742177D01*
X3889502Y-5755893D01*
X3903218Y-5760465D01*
X3912361Y-5760465D01*
X3925824Y-5755893D01*
X3934968Y-5742177D01*
X3939540Y-5719318D01*
X3939540Y-5705856D01*
X3934968Y-5682995D01*
X3925824Y-5669534D01*
X3912361Y-5664961D01*
X3903218Y-5664961D01*
X4690872Y-5687568D02*
G01*
X4686554Y-5678424D01*
X4677409Y-5669534D01*
X4668265Y-5664961D01*
X4649977Y-5664961D01*
X4641088Y-5669534D01*
X4631943Y-5678424D01*
X4627372Y-5687568D01*
X4622800Y-5701284D01*
X4622800Y-5723890D01*
X4627372Y-5737606D01*
X4631943Y-5746750D01*
X4641088Y-5755893D01*
X4649977Y-5760465D01*
X4668265Y-5760465D01*
X4677409Y-5755893D01*
X4686554Y-5746750D01*
X4690872Y-5737606D01*
X4690872Y-5723890D01*
X4668265Y-5723890D02*
G01*
X4690872Y-5723890D01*
X4721097Y-5664961D02*
G01*
X4721097Y-5760465D01*
X4721097Y-5664961D02*
G01*
X4784597Y-5760465D01*
X4784597Y-5664961D02*
G01*
X4784597Y-5760465D01*
X4814570Y-5664961D02*
G01*
X4814570Y-5760465D01*
X4814570Y-5664961D02*
G01*
X4846320Y-5664961D01*
X4860036Y-5669534D01*
X4869179Y-5678424D01*
X4873752Y-5687568D01*
X4878324Y-5701284D01*
X4878324Y-5723890D01*
X4873752Y-5737606D01*
X4869179Y-5746750D01*
X4860036Y-5755893D01*
X4846320Y-5760465D01*
X4814570Y-5760465D01*
X3427222Y-4242561D02*
G01*
X3390900Y-4338065D01*
X3427222Y-4242561D02*
G01*
X3463543Y-4338065D01*
X3404615Y-4306061D02*
G01*
X3450081Y-4306061D01*
X3493515Y-4242561D02*
G01*
X3493515Y-4338065D01*
X3493515Y-4242561D02*
G01*
X3525520Y-4242561D01*
X3538981Y-4247134D01*
X3548125Y-4256024D01*
X3552697Y-4265168D01*
X3557270Y-4278884D01*
X3557270Y-4301490D01*
X3552697Y-4315206D01*
X3548125Y-4324350D01*
X3538981Y-4333493D01*
X3525520Y-4338065D01*
X3493515Y-4338065D01*
X3655568Y-4265168D02*
G01*
X3650995Y-4256024D01*
X3641852Y-4247134D01*
X3632708Y-4242561D01*
X3614420Y-4242561D01*
X3605529Y-4247134D01*
X3596386Y-4256024D01*
X3591813Y-4265168D01*
X3587241Y-4278884D01*
X3587241Y-4301490D01*
X3591813Y-4315206D01*
X3596386Y-4324350D01*
X3605529Y-4333493D01*
X3614420Y-4338065D01*
X3632708Y-4338065D01*
X3641852Y-4333493D01*
X3650995Y-4324350D01*
X3655568Y-4315206D01*
X3712718Y-4242561D02*
G01*
X3699002Y-4247134D01*
X3690111Y-4260595D01*
X3685540Y-4283456D01*
X3685540Y-4296918D01*
X3690111Y-4319777D01*
X3699002Y-4333493D01*
X3712718Y-4338065D01*
X3721861Y-4338065D01*
X3735324Y-4333493D01*
X3744468Y-4319777D01*
X3749040Y-4296918D01*
X3749040Y-4283456D01*
X3744468Y-4260595D01*
X3735324Y-4247134D01*
X3721861Y-4242561D01*
X3712718Y-4242561D01*
X3573272Y-4506468D02*
G01*
X3568954Y-4497324D01*
X3559809Y-4488434D01*
X3550665Y-4483861D01*
X3532377Y-4483861D01*
X3523488Y-4488434D01*
X3514343Y-4497324D01*
X3509772Y-4506468D01*
X3505200Y-4520184D01*
X3505200Y-4542790D01*
X3509772Y-4556506D01*
X3514343Y-4565650D01*
X3523488Y-4574793D01*
X3532377Y-4579365D01*
X3550665Y-4579365D01*
X3559809Y-4574793D01*
X3568954Y-4565650D01*
X3573272Y-4556506D01*
X3573272Y-4542790D01*
X3550665Y-4542790D02*
G01*
X3573272Y-4542790D01*
X3603497Y-4483861D02*
G01*
X3603497Y-4579365D01*
X3603497Y-4483861D02*
G01*
X3666997Y-4579365D01*
X3666997Y-4483861D02*
G01*
X3666997Y-4579365D01*
X3696970Y-4483861D02*
G01*
X3696970Y-4579365D01*
X3696970Y-4483861D02*
G01*
X3728720Y-4483861D01*
X3742436Y-4488434D01*
X3751579Y-4497324D01*
X3756152Y-4506468D01*
X3760724Y-4520184D01*
X3760724Y-4542790D01*
X3756152Y-4556506D01*
X3751579Y-4565650D01*
X3742436Y-4574793D01*
X3728720Y-4579365D01*
X3696970Y-4579365D01*
X3611372Y-2969768D02*
G01*
X3607054Y-2960623D01*
X3597909Y-2951734D01*
X3588765Y-2947162D01*
X3570477Y-2947162D01*
X3561588Y-2951734D01*
X3552443Y-2960623D01*
X3547872Y-2969768D01*
X3543300Y-2983484D01*
X3543300Y-3006089D01*
X3547872Y-3019805D01*
X3552443Y-3028950D01*
X3561588Y-3038094D01*
X3570477Y-3042665D01*
X3588765Y-3042665D01*
X3597909Y-3038094D01*
X3607054Y-3028950D01*
X3611372Y-3019805D01*
X3611372Y-3006089D01*
X3588765Y-3006089D02*
G01*
X3611372Y-3006089D01*
X3641597Y-2947162D02*
G01*
X3641597Y-3042665D01*
X3641597Y-2947162D02*
G01*
X3705097Y-3042665D01*
X3705097Y-2947162D02*
G01*
X3705097Y-3042665D01*
X3735070Y-2947162D02*
G01*
X3735070Y-3042665D01*
X3735070Y-2947162D02*
G01*
X3766820Y-2947162D01*
X3780536Y-2951734D01*
X3789679Y-2960623D01*
X3794252Y-2969768D01*
X3798824Y-2983484D01*
X3798824Y-3006089D01*
X3794252Y-3019805D01*
X3789679Y-3028950D01*
X3780536Y-3038094D01*
X3766820Y-3042665D01*
X3735070Y-3042665D01*
X3530600Y-3975862D02*
G01*
X3530600Y-4071365D01*
X3530600Y-3975862D02*
G01*
X3562350Y-3975862D01*
X3576065Y-3980434D01*
X3585209Y-3989323D01*
X3589781Y-3998468D01*
X3594354Y-4012184D01*
X3594354Y-4034789D01*
X3589781Y-4048505D01*
X3585209Y-4057650D01*
X3576065Y-4066794D01*
X3562350Y-4071365D01*
X3530600Y-4071365D01*
X3624325Y-3975862D02*
G01*
X3624325Y-4071365D01*
X3654297Y-3975862D02*
G01*
X3654297Y-4071365D01*
X3654297Y-3975862D02*
G01*
X3695191Y-3975862D01*
X3708908Y-3980434D01*
X3713225Y-3985005D01*
X3717797Y-3993895D01*
X3717797Y-4003039D01*
X3713225Y-4012184D01*
X3708908Y-4016755D01*
X3695191Y-4021328D01*
X3654297Y-4021328D01*
X3686047Y-4021328D02*
G01*
X3717797Y-4071365D01*
X3325622Y-3721862D02*
G01*
X3289300Y-3817365D01*
X3325622Y-3721862D02*
G01*
X3361943Y-3817365D01*
X3303015Y-3785362D02*
G01*
X3348481Y-3785362D01*
X3391915Y-3721862D02*
G01*
X3391915Y-3817365D01*
X3391915Y-3817365D02*
G01*
X3446525Y-3817365D01*
X3508502Y-3721862D02*
G01*
X3508502Y-3817365D01*
X3476497Y-3721862D02*
G01*
X3540252Y-3721862D01*
X3570224Y-3776218D02*
G01*
X3652011Y-3776218D01*
X3745738Y-3735323D02*
G01*
X3736593Y-3726434D01*
X3722877Y-3721862D01*
X3704843Y-3721862D01*
X3691127Y-3726434D01*
X3681984Y-3735323D01*
X3681984Y-3744468D01*
X3686556Y-3753612D01*
X3691127Y-3758184D01*
X3700272Y-3762755D01*
X3727450Y-3771900D01*
X3736593Y-3776218D01*
X3741165Y-3780789D01*
X3745738Y-3789934D01*
X3745738Y-3803650D01*
X3736593Y-3812794D01*
X3722877Y-3817365D01*
X3704843Y-3817365D01*
X3691127Y-3812794D01*
X3681984Y-3803650D01*
X3401822Y-3467862D02*
G01*
X3365500Y-3563365D01*
X3401822Y-3467862D02*
G01*
X3438143Y-3563365D01*
X3379215Y-3531362D02*
G01*
X3424681Y-3531362D01*
X3531870Y-3467862D02*
G01*
X3468115Y-3563365D01*
X3468115Y-3467862D02*
G01*
X3531870Y-3467862D01*
X3468115Y-3563365D02*
G01*
X3531870Y-3563365D01*
X3561841Y-3522218D02*
G01*
X3643629Y-3522218D01*
X3737356Y-3481323D02*
G01*
X3728211Y-3472434D01*
X3714495Y-3467862D01*
X3696461Y-3467862D01*
X3682745Y-3472434D01*
X3673602Y-3481323D01*
X3673602Y-3490468D01*
X3678174Y-3499612D01*
X3682745Y-3504184D01*
X3691890Y-3508755D01*
X3719068Y-3517900D01*
X3728211Y-3522218D01*
X3732784Y-3526789D01*
X3737356Y-3535934D01*
X3737356Y-3549650D01*
X3728211Y-3558794D01*
X3714495Y-3563365D01*
X3696461Y-3563365D01*
X3682745Y-3558794D01*
X3673602Y-3549650D01*
X3527043Y-3226562D02*
G01*
X3577081Y-3226562D01*
X3549650Y-3262884D01*
X3563365Y-3262884D01*
X3572509Y-3267455D01*
X3577081Y-3272028D01*
X3581654Y-3285489D01*
X3581654Y-3294634D01*
X3577081Y-3308350D01*
X3567938Y-3317494D01*
X3554222Y-3322065D01*
X3540506Y-3322065D01*
X3527043Y-3317494D01*
X3522472Y-3312921D01*
X3517900Y-3303778D01*
X3611625Y-3226562D02*
G01*
X3647947Y-3322065D01*
X3684270Y-3226562D02*
G01*
X3647947Y-3322065D01*
X3723386Y-3226562D02*
G01*
X3773424Y-3226562D01*
X3745991Y-3262884D01*
X3759708Y-3262884D01*
X3768852Y-3267455D01*
X3773424Y-3272028D01*
X3777995Y-3285489D01*
X3777995Y-3294634D01*
X3773424Y-3308350D01*
X3764279Y-3317494D01*
X3750563Y-3322065D01*
X3737102Y-3322065D01*
X3723386Y-3317494D01*
X3718813Y-3312921D01*
X3714241Y-3303778D01*
X5626100Y-2947162D02*
G01*
X5626100Y-3042665D01*
X5626100Y-2947162D02*
G01*
X5666993Y-2947162D01*
X5680709Y-2951734D01*
X5685281Y-2956305D01*
X5689854Y-2965195D01*
X5689854Y-2974339D01*
X5685281Y-2983484D01*
X5680709Y-2988055D01*
X5666993Y-2992628D01*
X5626100Y-2992628D01*
X5657850Y-2992628D02*
G01*
X5689854Y-3042665D01*
X5719825Y-2947162D02*
G01*
X5783325Y-3042665D01*
X5783325Y-2947162D02*
G01*
X5719825Y-3042665D01*
X5645150Y-2731262D02*
G01*
X5645150Y-2826765D01*
X5613400Y-2731262D02*
G01*
X5677154Y-2731262D01*
X5707125Y-2731262D02*
G01*
X5770625Y-2826765D01*
X5770625Y-2731262D02*
G01*
X5707125Y-2826765D01*
X2597150Y-2362962D02*
G01*
X2597150Y-2458465D01*
X2565400Y-2362962D02*
G01*
X2629154Y-2362962D01*
X2659125Y-2362962D02*
G01*
X2722625Y-2458465D01*
X2722625Y-2362962D02*
G01*
X2659125Y-2458465D01*
X2578100Y-2604262D02*
G01*
X2578100Y-2699765D01*
X2578100Y-2604262D02*
G01*
X2618993Y-2604262D01*
X2632709Y-2608834D01*
X2637281Y-2613405D01*
X2641854Y-2622295D01*
X2641854Y-2631439D01*
X2637281Y-2640584D01*
X2632709Y-2645155D01*
X2618993Y-2649728D01*
X2578100Y-2649728D01*
X2609850Y-2649728D02*
G01*
X2641854Y-2699765D01*
X2671825Y-2604262D02*
G01*
X2735325Y-2699765D01*
X2735325Y-2604262D02*
G01*
X2671825Y-2699765D01*
X2632709Y-1639062D02*
G01*
X2587243Y-1639062D01*
X2582672Y-1679955D01*
X2587243Y-1675384D01*
X2600706Y-1670812D01*
X2614422Y-1670812D01*
X2628138Y-1675384D01*
X2637281Y-1684528D01*
X2641854Y-1697989D01*
X2641854Y-1707134D01*
X2637281Y-1720850D01*
X2628138Y-1729994D01*
X2614422Y-1734565D01*
X2600706Y-1734565D01*
X2587243Y-1729994D01*
X2582672Y-1725421D01*
X2578100Y-1716278D01*
X2671825Y-1639062D02*
G01*
X2708147Y-1734565D01*
X2744470Y-1639062D02*
G01*
X2708147Y-1734565D01*
X2633472Y-2106168D02*
G01*
X2629154Y-2097023D01*
X2620009Y-2088134D01*
X2610865Y-2083562D01*
X2592577Y-2083562D01*
X2583688Y-2088134D01*
X2574543Y-2097023D01*
X2569972Y-2106168D01*
X2565400Y-2119884D01*
X2565400Y-2142489D01*
X2569972Y-2156205D01*
X2574543Y-2165350D01*
X2583688Y-2174494D01*
X2592577Y-2179065D01*
X2610865Y-2179065D01*
X2620009Y-2174494D01*
X2629154Y-2165350D01*
X2633472Y-2156205D01*
X2633472Y-2142489D01*
X2610865Y-2142489D02*
G01*
X2633472Y-2142489D01*
X2663697Y-2083562D02*
G01*
X2663697Y-2179065D01*
X2663697Y-2083562D02*
G01*
X2727197Y-2179065D01*
X2727197Y-2083562D02*
G01*
X2727197Y-2179065D01*
X2757170Y-2083562D02*
G01*
X2757170Y-2179065D01*
X2757170Y-2083562D02*
G01*
X2788920Y-2083562D01*
X2802636Y-2088134D01*
X2811779Y-2097023D01*
X2816352Y-2106168D01*
X2820924Y-2119884D01*
X2820924Y-2142489D01*
X2816352Y-2156205D01*
X2811779Y-2165350D01*
X2802636Y-2174494D01*
X2788920Y-2179065D01*
X2757170Y-2179065D01*
X1401571Y-2385568D02*
G01*
X1397254Y-2376423D01*
X1388110Y-2367534D01*
X1378965Y-2362962D01*
X1360678Y-2362962D01*
X1351787Y-2367534D01*
X1342644Y-2376423D01*
X1338071Y-2385568D01*
X1333500Y-2399284D01*
X1333500Y-2421889D01*
X1338071Y-2435605D01*
X1342644Y-2444750D01*
X1351787Y-2453894D01*
X1360678Y-2458465D01*
X1378965Y-2458465D01*
X1388110Y-2453894D01*
X1397254Y-2444750D01*
X1401571Y-2435605D01*
X1401571Y-2421889D01*
X1378965Y-2421889D02*
G01*
X1401571Y-2421889D01*
X1477010Y-2362962D02*
G01*
X1431797Y-2426462D01*
X1499870Y-2426462D01*
X1477010Y-2362962D02*
G01*
X1477010Y-2458465D01*
X5706872Y-7186168D02*
G01*
X5702554Y-7177024D01*
X5693409Y-7168134D01*
X5684265Y-7163561D01*
X5665977Y-7163561D01*
X5657088Y-7168134D01*
X5647943Y-7177024D01*
X5643372Y-7186168D01*
X5638800Y-7199884D01*
X5638800Y-7222490D01*
X5643372Y-7236206D01*
X5647943Y-7245350D01*
X5657088Y-7254493D01*
X5665977Y-7259065D01*
X5684265Y-7259065D01*
X5693409Y-7254493D01*
X5702554Y-7245350D01*
X5706872Y-7236206D01*
X5706872Y-7222490D01*
X5684265Y-7222490D02*
G01*
X5706872Y-7222490D01*
X5737097Y-7163561D02*
G01*
X5737097Y-7259065D01*
X5737097Y-7163561D02*
G01*
X5800597Y-7259065D01*
X5800597Y-7163561D02*
G01*
X5800597Y-7259065D01*
X5830570Y-7163561D02*
G01*
X5830570Y-7259065D01*
X5830570Y-7163561D02*
G01*
X5862320Y-7163561D01*
X5876036Y-7168134D01*
X5885179Y-7177024D01*
X5889752Y-7186168D01*
X5894324Y-7199884D01*
X5894324Y-7222490D01*
X5889752Y-7236206D01*
X5885179Y-7245350D01*
X5876036Y-7254493D01*
X5862320Y-7259065D01*
X5830570Y-7259065D01*
X2620009Y-1842262D02*
G01*
X2574543Y-1842262D01*
X2569972Y-1883155D01*
X2574543Y-1878584D01*
X2588006Y-1874012D01*
X2601722Y-1874012D01*
X2615438Y-1878584D01*
X2624581Y-1887728D01*
X2629154Y-1901189D01*
X2629154Y-1910334D01*
X2624581Y-1924050D01*
X2615438Y-1933194D01*
X2601722Y-1937765D01*
X2588006Y-1937765D01*
X2574543Y-1933194D01*
X2569972Y-1928621D01*
X2565400Y-1919478D01*
X2659125Y-1842262D02*
G01*
X2695447Y-1937765D01*
X2731770Y-1842262D02*
G01*
X2695447Y-1937765D01*
X5398261Y-6417056D02*
G01*
X5398261Y-6367018D01*
X5434584Y-6394450D01*
X5434584Y-6380734D01*
X5439156Y-6371590D01*
X5443727Y-6367018D01*
X5457190Y-6362445D01*
X5466334Y-6362445D01*
X5480050Y-6367018D01*
X5489193Y-6376161D01*
X5493765Y-6389877D01*
X5493765Y-6403593D01*
X5489193Y-6417056D01*
X5484622Y-6421627D01*
X5475477Y-6426200D01*
X5398261Y-6332474D02*
G01*
X5493765Y-6296152D01*
X5398261Y-6259829D02*
G01*
X5493765Y-6296152D01*
X5398261Y-6220713D02*
G01*
X5398261Y-6170675D01*
X5434584Y-6198108D01*
X5434584Y-6184391D01*
X5439156Y-6175247D01*
X5443727Y-6170675D01*
X5457190Y-6166104D01*
X5466334Y-6166104D01*
X5480050Y-6170675D01*
X5489193Y-6179820D01*
X5493765Y-6193536D01*
X5493765Y-6206997D01*
X5489193Y-6220713D01*
X5484622Y-6225286D01*
X5475477Y-6229858D01*
X5157724Y-6362445D02*
G01*
X5148834Y-6371590D01*
X5144261Y-6385306D01*
X5144261Y-6403593D01*
X5148834Y-6417056D01*
X5157724Y-6426200D01*
X5166868Y-6426200D01*
X5176011Y-6421627D01*
X5180584Y-6417056D01*
X5185156Y-6407911D01*
X5194300Y-6380734D01*
X5198618Y-6371590D01*
X5203190Y-6367018D01*
X5212334Y-6362445D01*
X5226050Y-6362445D01*
X5235193Y-6371590D01*
X5239765Y-6385306D01*
X5239765Y-6403593D01*
X5235193Y-6417056D01*
X5226050Y-6426200D01*
X5144261Y-6332474D02*
G01*
X5239765Y-6332474D01*
X5144261Y-6332474D02*
G01*
X5144261Y-6300724D01*
X5148834Y-6287008D01*
X5157724Y-6278118D01*
X5166868Y-6273545D01*
X5180584Y-6268974D01*
X5203190Y-6268974D01*
X5216906Y-6273545D01*
X5226050Y-6278118D01*
X5235193Y-6287008D01*
X5239765Y-6300724D01*
X5239765Y-6332474D01*
X5144261Y-6202679D02*
G01*
X5239765Y-6239002D01*
X5144261Y-6202679D02*
G01*
X5239765Y-6166104D01*
X5207761Y-6225286D02*
G01*
X5207761Y-6179820D01*
X4903724Y-6362445D02*
G01*
X4894834Y-6371590D01*
X4890261Y-6385306D01*
X4890261Y-6403593D01*
X4894834Y-6417056D01*
X4903724Y-6426200D01*
X4912868Y-6426200D01*
X4922011Y-6421627D01*
X4926584Y-6417056D01*
X4931156Y-6407911D01*
X4940300Y-6380734D01*
X4944618Y-6371590D01*
X4949190Y-6367018D01*
X4958334Y-6362445D01*
X4972050Y-6362445D01*
X4981193Y-6371590D01*
X4985765Y-6385306D01*
X4985765Y-6403593D01*
X4981193Y-6417056D01*
X4972050Y-6426200D01*
X4912868Y-6264402D02*
G01*
X4903724Y-6268974D01*
X4894834Y-6278118D01*
X4890261Y-6287008D01*
X4890261Y-6305295D01*
X4894834Y-6314440D01*
X4903724Y-6323584D01*
X4912868Y-6327902D01*
X4926584Y-6332474D01*
X4949190Y-6332474D01*
X4962906Y-6327902D01*
X4972050Y-6323584D01*
X4981193Y-6314440D01*
X4985765Y-6305295D01*
X4985765Y-6287008D01*
X4981193Y-6278118D01*
X4972050Y-6268974D01*
X4962906Y-6264402D01*
X4890261Y-6234429D02*
G01*
X4985765Y-6234429D01*
X4985765Y-6234429D02*
G01*
X4985765Y-6179820D01*
X4658868Y-6358127D02*
G01*
X4649724Y-6362445D01*
X4640834Y-6371590D01*
X4636261Y-6380734D01*
X4636261Y-6399022D01*
X4640834Y-6407911D01*
X4649724Y-6417056D01*
X4658868Y-6421627D01*
X4672584Y-6426200D01*
X4695190Y-6426200D01*
X4708906Y-6421627D01*
X4718050Y-6417056D01*
X4727193Y-6407911D01*
X4731765Y-6399022D01*
X4731765Y-6380734D01*
X4727193Y-6371590D01*
X4718050Y-6362445D01*
X4708906Y-6358127D01*
X4695190Y-6358127D01*
X4695190Y-6380734D02*
G01*
X4695190Y-6358127D01*
X4636261Y-6327902D02*
G01*
X4731765Y-6327902D01*
X4636261Y-6327902D02*
G01*
X4636261Y-6287008D01*
X4640834Y-6273545D01*
X4645406Y-6268974D01*
X4654295Y-6264402D01*
X4668011Y-6264402D01*
X4677156Y-6268974D01*
X4681727Y-6273545D01*
X4686300Y-6287008D01*
X4686300Y-6327902D01*
X4654295Y-6234429D02*
G01*
X4649724Y-6225286D01*
X4636261Y-6211570D01*
X4731765Y-6211570D01*
X4658868Y-6177025D02*
G01*
X4654295Y-6177025D01*
X4645406Y-6172454D01*
X4640834Y-6168136D01*
X4636261Y-6158991D01*
X4636261Y-6140704D01*
X4640834Y-6131559D01*
X4645406Y-6126988D01*
X4654295Y-6122670D01*
X4663440Y-6122670D01*
X4672584Y-6126988D01*
X4686300Y-6136131D01*
X4731765Y-6181597D01*
X4731765Y-6118097D01*
X4417568Y-6358127D02*
G01*
X4408424Y-6362445D01*
X4399534Y-6371590D01*
X4394961Y-6380734D01*
X4394961Y-6399022D01*
X4399534Y-6407911D01*
X4408424Y-6417056D01*
X4417568Y-6421627D01*
X4431284Y-6426200D01*
X4453890Y-6426200D01*
X4467606Y-6421627D01*
X4476750Y-6417056D01*
X4485893Y-6407911D01*
X4490465Y-6399022D01*
X4490465Y-6380734D01*
X4485893Y-6371590D01*
X4476750Y-6362445D01*
X4467606Y-6358127D01*
X4453890Y-6358127D01*
X4453890Y-6380734D02*
G01*
X4453890Y-6358127D01*
X4394961Y-6327902D02*
G01*
X4490465Y-6327902D01*
X4394961Y-6327902D02*
G01*
X4394961Y-6287008D01*
X4399534Y-6273545D01*
X4404106Y-6268974D01*
X4412995Y-6264402D01*
X4426711Y-6264402D01*
X4435856Y-6268974D01*
X4440427Y-6273545D01*
X4445000Y-6287008D01*
X4445000Y-6327902D01*
X4412995Y-6234429D02*
G01*
X4408424Y-6225286D01*
X4394961Y-6211570D01*
X4490465Y-6211570D01*
X4394961Y-6172454D02*
G01*
X4394961Y-6122670D01*
X4431284Y-6149847D01*
X4431284Y-6136131D01*
X4435856Y-6126988D01*
X4440427Y-6122670D01*
X4453890Y-6118097D01*
X4463034Y-6118097D01*
X4476750Y-6122670D01*
X4485893Y-6131559D01*
X4490465Y-6145275D01*
X4490465Y-6158991D01*
X4485893Y-6172454D01*
X4481322Y-6177025D01*
X4472177Y-6181597D01*
X4150868Y-6358127D02*
G01*
X4141724Y-6362445D01*
X4132834Y-6371590D01*
X4128261Y-6380734D01*
X4128261Y-6399022D01*
X4132834Y-6407911D01*
X4141724Y-6417056D01*
X4150868Y-6421627D01*
X4164584Y-6426200D01*
X4187190Y-6426200D01*
X4200906Y-6421627D01*
X4210050Y-6417056D01*
X4219193Y-6407911D01*
X4223765Y-6399022D01*
X4223765Y-6380734D01*
X4219193Y-6371590D01*
X4210050Y-6362445D01*
X4200906Y-6358127D01*
X4187190Y-6358127D01*
X4187190Y-6380734D02*
G01*
X4187190Y-6358127D01*
X4128261Y-6327902D02*
G01*
X4223765Y-6327902D01*
X4128261Y-6327902D02*
G01*
X4128261Y-6287008D01*
X4132834Y-6273545D01*
X4137406Y-6268974D01*
X4146295Y-6264402D01*
X4160011Y-6264402D01*
X4169156Y-6268974D01*
X4173727Y-6273545D01*
X4178300Y-6287008D01*
X4178300Y-6327902D01*
X4146295Y-6234429D02*
G01*
X4141724Y-6225286D01*
X4128261Y-6211570D01*
X4223765Y-6211570D01*
X4141724Y-6126988D02*
G01*
X4132834Y-6131559D01*
X4128261Y-6145275D01*
X4128261Y-6154420D01*
X4132834Y-6168136D01*
X4146295Y-6177025D01*
X4169156Y-6181597D01*
X4191761Y-6181597D01*
X4210050Y-6177025D01*
X4219193Y-6168136D01*
X4223765Y-6154420D01*
X4223765Y-6149847D01*
X4219193Y-6136131D01*
X4210050Y-6126988D01*
X4196334Y-6122670D01*
X4191761Y-6122670D01*
X4178300Y-6126988D01*
X4169156Y-6136131D01*
X4164584Y-6149847D01*
X4164584Y-6154420D01*
X4169156Y-6168136D01*
X4178300Y-6177025D01*
X4191761Y-6181597D01*
X3896868Y-6358127D02*
G01*
X3887724Y-6362445D01*
X3878834Y-6371590D01*
X3874261Y-6380734D01*
X3874261Y-6399022D01*
X3878834Y-6407911D01*
X3887724Y-6417056D01*
X3896868Y-6421627D01*
X3910584Y-6426200D01*
X3933190Y-6426200D01*
X3946906Y-6421627D01*
X3956050Y-6417056D01*
X3965193Y-6407911D01*
X3969765Y-6399022D01*
X3969765Y-6380734D01*
X3965193Y-6371590D01*
X3956050Y-6362445D01*
X3946906Y-6358127D01*
X3933190Y-6358127D01*
X3933190Y-6380734D02*
G01*
X3933190Y-6358127D01*
X3874261Y-6327902D02*
G01*
X3969765Y-6327902D01*
X3874261Y-6327902D02*
G01*
X3874261Y-6287008D01*
X3878834Y-6273545D01*
X3883406Y-6268974D01*
X3892295Y-6264402D01*
X3906011Y-6264402D01*
X3915156Y-6268974D01*
X3919727Y-6273545D01*
X3924300Y-6287008D01*
X3924300Y-6327902D01*
X3892295Y-6234429D02*
G01*
X3887724Y-6225286D01*
X3874261Y-6211570D01*
X3969765Y-6211570D01*
X3906011Y-6122670D02*
G01*
X3919727Y-6126988D01*
X3928618Y-6136131D01*
X3933190Y-6149847D01*
X3933190Y-6154420D01*
X3928618Y-6168136D01*
X3919727Y-6177025D01*
X3906011Y-6181597D01*
X3901440Y-6181597D01*
X3887724Y-6177025D01*
X3878834Y-6168136D01*
X3874261Y-6154420D01*
X3874261Y-6149847D01*
X3878834Y-6136131D01*
X3887724Y-6126988D01*
X3906011Y-6122670D01*
X3928618Y-6122670D01*
X3951477Y-6126988D01*
X3965193Y-6136131D01*
X3969765Y-6149847D01*
X3969765Y-6158991D01*
X3965193Y-6172454D01*
X3956050Y-6177025D01*
X3642868Y-6358127D02*
G01*
X3633724Y-6362445D01*
X3624834Y-6371590D01*
X3620261Y-6380734D01*
X3620261Y-6399022D01*
X3624834Y-6407911D01*
X3633724Y-6417056D01*
X3642868Y-6421627D01*
X3656584Y-6426200D01*
X3679190Y-6426200D01*
X3692906Y-6421627D01*
X3702050Y-6417056D01*
X3711193Y-6407911D01*
X3715765Y-6399022D01*
X3715765Y-6380734D01*
X3711193Y-6371590D01*
X3702050Y-6362445D01*
X3692906Y-6358127D01*
X3679190Y-6358127D01*
X3679190Y-6380734D02*
G01*
X3679190Y-6358127D01*
X3620261Y-6327902D02*
G01*
X3715765Y-6327902D01*
X3620261Y-6327902D02*
G01*
X3620261Y-6287008D01*
X3624834Y-6273545D01*
X3629406Y-6268974D01*
X3638295Y-6264402D01*
X3652011Y-6264402D01*
X3661156Y-6268974D01*
X3665727Y-6273545D01*
X3670300Y-6287008D01*
X3670300Y-6327902D01*
X3642868Y-6229858D02*
G01*
X3638295Y-6229858D01*
X3629406Y-6225286D01*
X3624834Y-6220713D01*
X3620261Y-6211570D01*
X3620261Y-6193536D01*
X3624834Y-6184391D01*
X3629406Y-6179820D01*
X3638295Y-6175247D01*
X3647440Y-6175247D01*
X3656584Y-6179820D01*
X3670300Y-6188963D01*
X3715765Y-6234429D01*
X3715765Y-6170675D01*
X3620261Y-6113525D02*
G01*
X3624834Y-6126988D01*
X3638295Y-6136131D01*
X3661156Y-6140704D01*
X3674618Y-6140704D01*
X3697477Y-6136131D01*
X3711193Y-6126988D01*
X3715765Y-6113525D01*
X3715765Y-6104381D01*
X3711193Y-6090665D01*
X3697477Y-6081775D01*
X3674618Y-6077204D01*
X3661156Y-6077204D01*
X3638295Y-6081775D01*
X3624834Y-6090665D01*
X3620261Y-6104381D01*
X3620261Y-6113525D01*
X3388868Y-6358127D02*
G01*
X3379724Y-6362445D01*
X3370834Y-6371590D01*
X3366261Y-6380734D01*
X3366261Y-6399022D01*
X3370834Y-6407911D01*
X3379724Y-6417056D01*
X3388868Y-6421627D01*
X3402584Y-6426200D01*
X3425190Y-6426200D01*
X3438906Y-6421627D01*
X3448050Y-6417056D01*
X3457193Y-6407911D01*
X3461765Y-6399022D01*
X3461765Y-6380734D01*
X3457193Y-6371590D01*
X3448050Y-6362445D01*
X3438906Y-6358127D01*
X3425190Y-6358127D01*
X3425190Y-6380734D02*
G01*
X3425190Y-6358127D01*
X3366261Y-6327902D02*
G01*
X3461765Y-6327902D01*
X3366261Y-6327902D02*
G01*
X3366261Y-6287008D01*
X3370834Y-6273545D01*
X3375406Y-6268974D01*
X3384295Y-6264402D01*
X3398011Y-6264402D01*
X3407156Y-6268974D01*
X3411727Y-6273545D01*
X3416300Y-6287008D01*
X3416300Y-6327902D01*
X3388868Y-6229858D02*
G01*
X3384295Y-6229858D01*
X3375406Y-6225286D01*
X3370834Y-6220713D01*
X3366261Y-6211570D01*
X3366261Y-6193536D01*
X3370834Y-6184391D01*
X3375406Y-6179820D01*
X3384295Y-6175247D01*
X3393440Y-6175247D01*
X3402584Y-6179820D01*
X3416300Y-6188963D01*
X3461765Y-6234429D01*
X3461765Y-6170675D01*
X3384295Y-6140704D02*
G01*
X3379724Y-6131559D01*
X3366261Y-6118097D01*
X3461765Y-6118097D01*
X3134868Y-6358127D02*
G01*
X3125724Y-6362445D01*
X3116834Y-6371590D01*
X3112261Y-6380734D01*
X3112261Y-6399022D01*
X3116834Y-6407911D01*
X3125724Y-6417056D01*
X3134868Y-6421627D01*
X3148584Y-6426200D01*
X3171190Y-6426200D01*
X3184906Y-6421627D01*
X3194050Y-6417056D01*
X3203193Y-6407911D01*
X3207765Y-6399022D01*
X3207765Y-6380734D01*
X3203193Y-6371590D01*
X3194050Y-6362445D01*
X3184906Y-6358127D01*
X3171190Y-6358127D01*
X3171190Y-6380734D02*
G01*
X3171190Y-6358127D01*
X3112261Y-6327902D02*
G01*
X3207765Y-6327902D01*
X3112261Y-6327902D02*
G01*
X3112261Y-6287008D01*
X3116834Y-6273545D01*
X3121406Y-6268974D01*
X3130295Y-6264402D01*
X3144011Y-6264402D01*
X3153156Y-6268974D01*
X3157727Y-6273545D01*
X3162300Y-6287008D01*
X3162300Y-6327902D01*
X3134868Y-6229858D02*
G01*
X3130295Y-6229858D01*
X3121406Y-6225286D01*
X3116834Y-6220713D01*
X3112261Y-6211570D01*
X3112261Y-6193536D01*
X3116834Y-6184391D01*
X3121406Y-6179820D01*
X3130295Y-6175247D01*
X3139440Y-6175247D01*
X3148584Y-6179820D01*
X3162300Y-6188963D01*
X3207765Y-6234429D01*
X3207765Y-6170675D01*
X3125724Y-6086093D02*
G01*
X3116834Y-6090665D01*
X3112261Y-6104381D01*
X3112261Y-6113525D01*
X3116834Y-6126988D01*
X3130295Y-6136131D01*
X3153156Y-6140704D01*
X3175761Y-6140704D01*
X3194050Y-6136131D01*
X3203193Y-6126988D01*
X3207765Y-6113525D01*
X3207765Y-6108954D01*
X3203193Y-6095238D01*
X3194050Y-6086093D01*
X3180334Y-6081775D01*
X3175761Y-6081775D01*
X3162300Y-6086093D01*
X3153156Y-6095238D01*
X3148584Y-6108954D01*
X3148584Y-6113525D01*
X3153156Y-6126988D01*
X3162300Y-6136131D01*
X3175761Y-6140704D01*
X2895592Y-6795770D02*
G01*
X2895592Y-6986777D01*
X2895592Y-6795770D02*
G01*
X2977380Y-6795770D01*
X3004812Y-6804913D01*
X3013702Y-6814058D01*
X3022846Y-6832345D01*
X3022846Y-6850379D01*
X3013702Y-6868668D01*
X3004812Y-6877811D01*
X2977380Y-6886702D01*
X2895592Y-6886702D01*
X2959346Y-6886702D02*
G01*
X3022846Y-6986777D01*
X3082790Y-6795770D02*
G01*
X3082790Y-6986777D01*
X3082790Y-6795770D02*
G01*
X3164578Y-6795770D01*
X3192010Y-6804913D01*
X3201154Y-6814058D01*
X3210044Y-6832345D01*
X3210044Y-6859524D01*
X3201154Y-6877811D01*
X3192010Y-6886702D01*
X3164578Y-6895845D01*
X3082790Y-6895845D01*
X3270242Y-6795770D02*
G01*
X3270242Y-6986777D01*
X3606538Y-6841236D02*
G01*
X3597394Y-6823202D01*
X3579360Y-6804913D01*
X3561072Y-6795770D01*
X3524750Y-6795770D01*
X3506462Y-6804913D01*
X3488428Y-6823202D01*
X3479284Y-6841236D01*
X3470140Y-6868668D01*
X3470140Y-6914134D01*
X3479284Y-6941311D01*
X3488428Y-6959600D01*
X3506462Y-6977634D01*
X3524750Y-6986777D01*
X3561072Y-6986777D01*
X3579360Y-6977634D01*
X3597394Y-6959600D01*
X3606538Y-6941311D01*
X3606538Y-6914134D01*
X3561072Y-6914134D02*
G01*
X3606538Y-6914134D01*
X3666482Y-6795770D02*
G01*
X3666482Y-6986777D01*
X3666482Y-6795770D02*
G01*
X3748270Y-6795770D01*
X3775702Y-6804913D01*
X3784592Y-6814058D01*
X3793736Y-6832345D01*
X3793736Y-6859524D01*
X3784592Y-6877811D01*
X3775702Y-6886702D01*
X3748270Y-6895845D01*
X3666482Y-6895845D01*
X3853680Y-6795770D02*
G01*
X3853680Y-6986777D01*
X3968234Y-6795770D02*
G01*
X3950200Y-6804913D01*
X3931912Y-6823202D01*
X3922768Y-6841236D01*
X3913878Y-6868668D01*
X3913878Y-6914134D01*
X3922768Y-6941311D01*
X3931912Y-6959600D01*
X3950200Y-6977634D01*
X3968234Y-6986777D01*
X4004810Y-6986777D01*
X4022844Y-6977634D01*
X4041132Y-6959600D01*
X4050022Y-6941311D01*
X4059166Y-6914134D01*
X4059166Y-6868668D01*
X4050022Y-6841236D01*
X4041132Y-6823202D01*
X4022844Y-6804913D01*
X4004810Y-6795770D01*
X3968234Y-6795770D01*
X4259318Y-6795770D02*
G01*
X4259318Y-6986777D01*
X4259318Y-6795770D02*
G01*
X4377428Y-6795770D01*
X4259318Y-6886702D02*
G01*
X4331962Y-6886702D01*
X4259318Y-6986777D02*
G01*
X4377428Y-6986777D01*
X4437372Y-6795770D02*
G01*
X4564626Y-6986777D01*
X4564626Y-6795770D02*
G01*
X4437372Y-6986777D01*
X4624570Y-6795770D02*
G01*
X4624570Y-6986777D01*
X4624570Y-6795770D02*
G01*
X4706612Y-6795770D01*
X4733790Y-6804913D01*
X4742934Y-6814058D01*
X4752078Y-6832345D01*
X4752078Y-6859524D01*
X4742934Y-6877811D01*
X4733790Y-6886702D01*
X4706612Y-6895845D01*
X4624570Y-6895845D01*
X4884666Y-6795770D02*
G01*
X4812022Y-6986777D01*
X4884666Y-6795770D02*
G01*
X4957310Y-6986777D01*
X4839200Y-6923277D02*
G01*
X4930132Y-6923277D01*
X5017508Y-6795770D02*
G01*
X5017508Y-6986777D01*
X5017508Y-6795770D02*
G01*
X5144762Y-6986777D01*
X5144762Y-6795770D02*
G01*
X5144762Y-6986777D01*
X5331960Y-6823202D02*
G01*
X5313672Y-6804913D01*
X5286494Y-6795770D01*
X5250172Y-6795770D01*
X5222994Y-6804913D01*
X5204706Y-6823202D01*
X5204706Y-6841236D01*
X5213850Y-6859524D01*
X5222994Y-6868668D01*
X5241028Y-6877811D01*
X5295638Y-6895845D01*
X5313672Y-6904990D01*
X5322816Y-6914134D01*
X5331960Y-6932168D01*
X5331960Y-6959600D01*
X5313672Y-6977634D01*
X5286494Y-6986777D01*
X5250172Y-6986777D01*
X5222994Y-6977634D01*
X5204706Y-6959600D01*
X5391904Y-6795770D02*
G01*
X5391904Y-6986777D01*
X5506458Y-6795770D02*
G01*
X5488424Y-6804913D01*
X5470136Y-6823202D01*
X5460992Y-6841236D01*
X5451848Y-6868668D01*
X5451848Y-6914134D01*
X5460992Y-6941311D01*
X5470136Y-6959600D01*
X5488424Y-6977634D01*
X5506458Y-6986777D01*
X5542780Y-6986777D01*
X5561068Y-6977634D01*
X5579356Y-6959600D01*
X5588246Y-6941311D01*
X5597390Y-6914134D01*
X5597390Y-6868668D01*
X5588246Y-6841236D01*
X5579356Y-6823202D01*
X5561068Y-6804913D01*
X5542780Y-6795770D01*
X5506458Y-6795770D01*
X5657334Y-6795770D02*
G01*
X5657334Y-6986777D01*
X5657334Y-6795770D02*
G01*
X5784588Y-6986777D01*
X5784588Y-6795770D02*
G01*
X5784588Y-6986777D01*
X2895854Y-5119370D02*
G01*
X2895854Y-5310377D01*
X2832100Y-5119370D02*
G01*
X2959354Y-5119370D01*
X3019297Y-5119370D02*
G01*
X3019297Y-5310377D01*
X3079495Y-5119370D02*
G01*
X3079495Y-5310377D01*
X3079495Y-5119370D02*
G01*
X3206750Y-5310377D01*
X3206750Y-5119370D02*
G01*
X3206750Y-5310377D01*
X3266693Y-5119370D02*
G01*
X3339338Y-5210302D01*
X3339338Y-5310377D01*
X3411981Y-5119370D02*
G01*
X3339338Y-5210302D01*
X3481070Y-5164836D02*
G01*
X3481070Y-5155945D01*
X3490213Y-5137658D01*
X3499358Y-5128513D01*
X3517645Y-5119370D01*
X3553968Y-5119370D01*
X3572002Y-5128513D01*
X3581145Y-5137658D01*
X3590290Y-5155945D01*
X3590290Y-5173979D01*
X3581145Y-5192268D01*
X3563111Y-5219445D01*
X3472179Y-5310377D01*
X3599434Y-5310377D01*
X3713988Y-5119370D02*
G01*
X3686556Y-5128513D01*
X3668522Y-5155945D01*
X3659377Y-5201411D01*
X3659377Y-5228590D01*
X3668522Y-5274056D01*
X3686556Y-5301234D01*
X3713988Y-5310377D01*
X3732022Y-5310377D01*
X3759454Y-5301234D01*
X3777488Y-5274056D01*
X3786631Y-5228590D01*
X3786631Y-5201411D01*
X3777488Y-5155945D01*
X3759454Y-5128513D01*
X3732022Y-5119370D01*
X3713988Y-5119370D01*
X3937508Y-5119370D02*
G01*
X3846575Y-5246877D01*
X3982974Y-5246877D01*
X3937508Y-5119370D02*
G01*
X3937508Y-5310377D01*
X4097527Y-5119370D02*
G01*
X4070350Y-5128513D01*
X4052061Y-5155945D01*
X4042918Y-5201411D01*
X4042918Y-5228590D01*
X4052061Y-5274056D01*
X4070350Y-5301234D01*
X4097527Y-5310377D01*
X4115815Y-5310377D01*
X4142993Y-5301234D01*
X4161281Y-5274056D01*
X4170172Y-5228590D01*
X4170172Y-5201411D01*
X4161281Y-5155945D01*
X4142993Y-5128513D01*
X4115815Y-5119370D01*
X4097527Y-5119370D01*
X4370324Y-5119370D02*
G01*
X4370324Y-5310377D01*
X4370324Y-5119370D02*
G01*
X4488434Y-5119370D01*
X4370324Y-5210302D02*
G01*
X4442968Y-5210302D01*
X4370324Y-5310377D02*
G01*
X4488434Y-5310377D01*
X4548377Y-5119370D02*
G01*
X4675631Y-5310377D01*
X4675631Y-5119370D02*
G01*
X4548377Y-5310377D01*
X4735829Y-5119370D02*
G01*
X4735829Y-5310377D01*
X4735829Y-5119370D02*
G01*
X4817618Y-5119370D01*
X4844795Y-5128513D01*
X4853940Y-5137658D01*
X4863084Y-5155945D01*
X4863084Y-5183124D01*
X4853940Y-5201411D01*
X4844795Y-5210302D01*
X4817618Y-5219445D01*
X4735829Y-5219445D01*
X4995672Y-5119370D02*
G01*
X4923027Y-5310377D01*
X4995672Y-5119370D02*
G01*
X5068570Y-5310377D01*
X4950206Y-5246877D02*
G01*
X5041138Y-5246877D01*
X5128513Y-5119370D02*
G01*
X5128513Y-5310377D01*
X5128513Y-5119370D02*
G01*
X5255768Y-5310377D01*
X5255768Y-5119370D02*
G01*
X5255768Y-5310377D01*
X5442965Y-5146802D02*
G01*
X5424931Y-5128513D01*
X5397500Y-5119370D01*
X5361177Y-5119370D01*
X5334000Y-5128513D01*
X5315711Y-5146802D01*
X5315711Y-5164836D01*
X5324856Y-5183124D01*
X5334000Y-5192268D01*
X5352034Y-5201411D01*
X5406643Y-5219445D01*
X5424931Y-5228590D01*
X5433822Y-5237734D01*
X5442965Y-5255768D01*
X5442965Y-5283200D01*
X5424931Y-5301234D01*
X5397500Y-5310377D01*
X5361177Y-5310377D01*
X5334000Y-5301234D01*
X5315711Y-5283200D01*
X5502909Y-5119370D02*
G01*
X5502909Y-5310377D01*
X5617463Y-5119370D02*
G01*
X5599429Y-5128513D01*
X5581141Y-5146802D01*
X5571997Y-5164836D01*
X5563108Y-5192268D01*
X5563108Y-5237734D01*
X5571997Y-5264911D01*
X5581141Y-5283200D01*
X5599429Y-5301234D01*
X5617463Y-5310377D01*
X5653786Y-5310377D01*
X5672074Y-5301234D01*
X5690361Y-5283200D01*
X5699252Y-5264911D01*
X5708395Y-5237734D01*
X5708395Y-5192268D01*
X5699252Y-5164836D01*
X5690361Y-5146802D01*
X5672074Y-5128513D01*
X5653786Y-5119370D01*
X5617463Y-5119370D01*
X5768340Y-5119370D02*
G01*
X5768340Y-5310377D01*
X5768340Y-5119370D02*
G01*
X5895847Y-5310377D01*
X5895847Y-5119370D02*
G01*
X5895847Y-5310377D01*
X1236471Y-6233668D02*
G01*
X1232154Y-6224524D01*
X1223010Y-6215634D01*
X1213865Y-6211061D01*
X1195578Y-6211061D01*
X1186687Y-6215634D01*
X1177544Y-6224524D01*
X1172971Y-6233668D01*
X1168400Y-6247384D01*
X1168400Y-6269990D01*
X1172971Y-6283706D01*
X1177544Y-6292850D01*
X1186687Y-6301993D01*
X1195578Y-6306565D01*
X1213865Y-6306565D01*
X1223010Y-6301993D01*
X1232154Y-6292850D01*
X1236471Y-6283706D01*
X1236471Y-6269990D01*
X1213865Y-6269990D02*
G01*
X1236471Y-6269990D01*
X1266697Y-6211061D02*
G01*
X1266697Y-6306565D01*
X1266697Y-6211061D02*
G01*
X1307592Y-6211061D01*
X1321054Y-6215634D01*
X1325626Y-6220206D01*
X1330197Y-6229095D01*
X1330197Y-6242811D01*
X1325626Y-6251956D01*
X1321054Y-6256527D01*
X1307592Y-6261100D01*
X1266697Y-6261100D01*
X1364742Y-6233668D02*
G01*
X1364742Y-6229095D01*
X1369313Y-6220206D01*
X1373886Y-6215634D01*
X1383029Y-6211061D01*
X1401063Y-6211061D01*
X1410207Y-6215634D01*
X1414779Y-6220206D01*
X1419352Y-6229095D01*
X1419352Y-6238240D01*
X1414779Y-6247384D01*
X1405636Y-6261100D01*
X1360170Y-6306565D01*
X1423923Y-6306565D01*
X1508505Y-6224524D02*
G01*
X1503934Y-6215634D01*
X1490218Y-6211061D01*
X1481073Y-6211061D01*
X1467612Y-6215634D01*
X1458468Y-6229095D01*
X1453895Y-6251956D01*
X1453895Y-6274561D01*
X1458468Y-6292850D01*
X1467612Y-6301993D01*
X1481073Y-6306565D01*
X1485645Y-6306565D01*
X1499362Y-6301993D01*
X1508505Y-6292850D01*
X1512823Y-6279134D01*
X1512823Y-6274561D01*
X1508505Y-6261100D01*
X1499362Y-6251956D01*
X1485645Y-6247384D01*
X1481073Y-6247384D01*
X1467612Y-6251956D01*
X1458468Y-6261100D01*
X1453895Y-6274561D01*
X2620772Y-6449568D02*
G01*
X2616454Y-6440424D01*
X2607309Y-6431534D01*
X2598165Y-6426961D01*
X2579877Y-6426961D01*
X2570988Y-6431534D01*
X2561843Y-6440424D01*
X2557272Y-6449568D01*
X2552700Y-6463284D01*
X2552700Y-6485890D01*
X2557272Y-6499606D01*
X2561843Y-6508750D01*
X2570988Y-6517893D01*
X2579877Y-6522465D01*
X2598165Y-6522465D01*
X2607309Y-6517893D01*
X2616454Y-6508750D01*
X2620772Y-6499606D01*
X2620772Y-6485890D01*
X2598165Y-6485890D02*
G01*
X2620772Y-6485890D01*
X2650997Y-6426961D02*
G01*
X2650997Y-6522465D01*
X2650997Y-6426961D02*
G01*
X2691891Y-6426961D01*
X2705354Y-6431534D01*
X2709925Y-6436106D01*
X2714497Y-6444995D01*
X2714497Y-6458711D01*
X2709925Y-6467856D01*
X2705354Y-6472427D01*
X2691891Y-6477000D01*
X2650997Y-6477000D01*
X2749041Y-6449568D02*
G01*
X2749041Y-6444995D01*
X2753613Y-6436106D01*
X2758186Y-6431534D01*
X2767329Y-6426961D01*
X2785363Y-6426961D01*
X2794508Y-6431534D01*
X2799079Y-6436106D01*
X2803652Y-6444995D01*
X2803652Y-6454140D01*
X2799079Y-6463284D01*
X2789936Y-6477000D01*
X2744470Y-6522465D01*
X2808224Y-6522465D01*
X2838195Y-6444995D02*
G01*
X2847340Y-6440424D01*
X2860802Y-6426961D01*
X2860802Y-6522465D01*
X2620772Y-6208268D02*
G01*
X2616454Y-6199124D01*
X2607309Y-6190234D01*
X2598165Y-6185661D01*
X2579877Y-6185661D01*
X2570988Y-6190234D01*
X2561843Y-6199124D01*
X2557272Y-6208268D01*
X2552700Y-6221984D01*
X2552700Y-6244590D01*
X2557272Y-6258306D01*
X2561843Y-6267450D01*
X2570988Y-6276593D01*
X2579877Y-6281165D01*
X2598165Y-6281165D01*
X2607309Y-6276593D01*
X2616454Y-6267450D01*
X2620772Y-6258306D01*
X2620772Y-6244590D01*
X2598165Y-6244590D02*
G01*
X2620772Y-6244590D01*
X2650997Y-6185661D02*
G01*
X2650997Y-6281165D01*
X2650997Y-6185661D02*
G01*
X2691891Y-6185661D01*
X2705354Y-6190234D01*
X2709925Y-6194806D01*
X2714497Y-6203695D01*
X2714497Y-6217411D01*
X2709925Y-6226556D01*
X2705354Y-6231127D01*
X2691891Y-6235700D01*
X2650997Y-6235700D01*
X2749041Y-6208268D02*
G01*
X2749041Y-6203695D01*
X2753613Y-6194806D01*
X2758186Y-6190234D01*
X2767329Y-6185661D01*
X2785363Y-6185661D01*
X2794508Y-6190234D01*
X2799079Y-6194806D01*
X2803652Y-6203695D01*
X2803652Y-6212840D01*
X2799079Y-6221984D01*
X2789936Y-6235700D01*
X2744470Y-6281165D01*
X2808224Y-6281165D01*
X2865374Y-6185661D02*
G01*
X2851911Y-6190234D01*
X2842768Y-6203695D01*
X2838195Y-6226556D01*
X2838195Y-6240018D01*
X2842768Y-6262877D01*
X2851911Y-6276593D01*
X2865374Y-6281165D01*
X2874518Y-6281165D01*
X2888234Y-6276593D01*
X2897124Y-6262877D01*
X2901695Y-6240018D01*
X2901695Y-6226556D01*
X2897124Y-6203695D01*
X2888234Y-6190234D01*
X2874518Y-6185661D01*
X2865374Y-6185661D01*
X1274571Y-5992368D02*
G01*
X1270254Y-5983224D01*
X1261110Y-5974334D01*
X1251965Y-5969761D01*
X1233678Y-5969761D01*
X1224787Y-5974334D01*
X1215644Y-5983224D01*
X1211071Y-5992368D01*
X1206500Y-6006084D01*
X1206500Y-6028690D01*
X1211071Y-6042406D01*
X1215644Y-6051550D01*
X1224787Y-6060693D01*
X1233678Y-6065265D01*
X1251965Y-6065265D01*
X1261110Y-6060693D01*
X1270254Y-6051550D01*
X1274571Y-6042406D01*
X1274571Y-6028690D01*
X1251965Y-6028690D02*
G01*
X1274571Y-6028690D01*
X1304797Y-5969761D02*
G01*
X1304797Y-6065265D01*
X1304797Y-5969761D02*
G01*
X1345692Y-5969761D01*
X1359154Y-5974334D01*
X1363726Y-5978906D01*
X1368297Y-5987795D01*
X1368297Y-6001511D01*
X1363726Y-6010656D01*
X1359154Y-6015227D01*
X1345692Y-6019800D01*
X1304797Y-6019800D01*
X1398270Y-5987795D02*
G01*
X1407413Y-5983224D01*
X1421129Y-5969761D01*
X1421129Y-6065265D01*
X1510029Y-6001511D02*
G01*
X1505712Y-6015227D01*
X1496568Y-6024118D01*
X1482852Y-6028690D01*
X1478279Y-6028690D01*
X1464563Y-6024118D01*
X1455673Y-6015227D01*
X1451102Y-6001511D01*
X1451102Y-5996940D01*
X1455673Y-5983224D01*
X1464563Y-5974334D01*
X1478279Y-5969761D01*
X1482852Y-5969761D01*
X1496568Y-5974334D01*
X1505712Y-5983224D01*
X1510029Y-6001511D01*
X1510029Y-6024118D01*
X1505712Y-6046977D01*
X1496568Y-6060693D01*
X1482852Y-6065265D01*
X1473707Y-6065265D01*
X1460245Y-6060693D01*
X1455673Y-6051550D01*
X2620772Y-5954268D02*
G01*
X2616454Y-5945124D01*
X2607309Y-5936234D01*
X2598165Y-5931661D01*
X2579877Y-5931661D01*
X2570988Y-5936234D01*
X2561843Y-5945124D01*
X2557272Y-5954268D01*
X2552700Y-5967984D01*
X2552700Y-5990590D01*
X2557272Y-6004306D01*
X2561843Y-6013450D01*
X2570988Y-6022593D01*
X2579877Y-6027165D01*
X2598165Y-6027165D01*
X2607309Y-6022593D01*
X2616454Y-6013450D01*
X2620772Y-6004306D01*
X2620772Y-5990590D01*
X2598165Y-5990590D02*
G01*
X2620772Y-5990590D01*
X2650997Y-5931661D02*
G01*
X2650997Y-6027165D01*
X2650997Y-5931661D02*
G01*
X2691891Y-5931661D01*
X2705354Y-5936234D01*
X2709925Y-5940806D01*
X2714497Y-5949695D01*
X2714497Y-5963411D01*
X2709925Y-5972556D01*
X2705354Y-5977127D01*
X2691891Y-5981700D01*
X2650997Y-5981700D01*
X2744470Y-5949695D02*
G01*
X2753613Y-5945124D01*
X2767329Y-5931661D01*
X2767329Y-6027165D01*
X2851911Y-5945124D02*
G01*
X2847340Y-5936234D01*
X2833624Y-5931661D01*
X2824479Y-5931661D01*
X2810763Y-5936234D01*
X2801874Y-5949695D01*
X2797302Y-5972556D01*
X2797302Y-5995161D01*
X2801874Y-6013450D01*
X2810763Y-6022593D01*
X2824479Y-6027165D01*
X2829052Y-6027165D01*
X2842768Y-6022593D01*
X2851911Y-6013450D01*
X2856229Y-5999734D01*
X2856229Y-5995161D01*
X2851911Y-5981700D01*
X2842768Y-5972556D01*
X2829052Y-5967984D01*
X2824479Y-5967984D01*
X2810763Y-5972556D01*
X2801874Y-5981700D01*
X2797302Y-5995161D01*
X1274571Y-5725668D02*
G01*
X1270254Y-5716524D01*
X1261110Y-5707634D01*
X1251965Y-5703061D01*
X1233678Y-5703061D01*
X1224787Y-5707634D01*
X1215644Y-5716524D01*
X1211071Y-5725668D01*
X1206500Y-5739384D01*
X1206500Y-5761990D01*
X1211071Y-5775706D01*
X1215644Y-5784850D01*
X1224787Y-5793993D01*
X1233678Y-5798565D01*
X1251965Y-5798565D01*
X1261110Y-5793993D01*
X1270254Y-5784850D01*
X1274571Y-5775706D01*
X1274571Y-5761990D01*
X1251965Y-5761990D02*
G01*
X1274571Y-5761990D01*
X1304797Y-5703061D02*
G01*
X1304797Y-5798565D01*
X1304797Y-5703061D02*
G01*
X1345692Y-5703061D01*
X1359154Y-5707634D01*
X1363726Y-5712206D01*
X1368297Y-5721095D01*
X1368297Y-5734811D01*
X1363726Y-5743956D01*
X1359154Y-5748527D01*
X1345692Y-5753100D01*
X1304797Y-5753100D01*
X1398270Y-5721095D02*
G01*
X1407413Y-5716524D01*
X1421129Y-5703061D01*
X1421129Y-5798565D01*
X1460245Y-5703061D02*
G01*
X1510029Y-5703061D01*
X1482852Y-5739384D01*
X1496568Y-5739384D01*
X1505712Y-5743956D01*
X1510029Y-5748527D01*
X1514602Y-5761990D01*
X1514602Y-5771134D01*
X1510029Y-5784850D01*
X1501139Y-5793993D01*
X1487423Y-5798565D01*
X1473707Y-5798565D01*
X1460245Y-5793993D01*
X1455673Y-5789422D01*
X1451102Y-5780277D01*
X2646172Y-5433568D02*
G01*
X2641854Y-5424424D01*
X2632709Y-5415534D01*
X2623565Y-5410961D01*
X2605277Y-5410961D01*
X2596388Y-5415534D01*
X2587243Y-5424424D01*
X2582672Y-5433568D01*
X2578100Y-5447284D01*
X2578100Y-5469890D01*
X2582672Y-5483606D01*
X2587243Y-5492750D01*
X2596388Y-5501893D01*
X2605277Y-5506465D01*
X2623565Y-5506465D01*
X2632709Y-5501893D01*
X2641854Y-5492750D01*
X2646172Y-5483606D01*
X2646172Y-5469890D01*
X2623565Y-5469890D02*
G01*
X2646172Y-5469890D01*
X2676397Y-5410961D02*
G01*
X2676397Y-5506465D01*
X2676397Y-5410961D02*
G01*
X2717291Y-5410961D01*
X2730754Y-5415534D01*
X2735325Y-5420106D01*
X2739897Y-5428995D01*
X2739897Y-5442711D01*
X2735325Y-5451856D01*
X2730754Y-5456427D01*
X2717291Y-5461000D01*
X2676397Y-5461000D01*
X2769870Y-5428995D02*
G01*
X2779013Y-5424424D01*
X2792729Y-5410961D01*
X2792729Y-5506465D01*
X2827274Y-5433568D02*
G01*
X2827274Y-5428995D01*
X2831845Y-5420106D01*
X2836163Y-5415534D01*
X2845308Y-5410961D01*
X2863595Y-5410961D01*
X2872740Y-5415534D01*
X2877311Y-5420106D01*
X2881629Y-5428995D01*
X2881629Y-5438140D01*
X2877311Y-5447284D01*
X2868168Y-5461000D01*
X2822702Y-5506465D01*
X2886202Y-5506465D01*
X1333754Y-2135123D02*
G01*
X1324610Y-2126234D01*
X1310894Y-2121662D01*
X1292605Y-2121662D01*
X1279144Y-2126234D01*
X1270000Y-2135123D01*
X1270000Y-2144268D01*
X1274571Y-2153412D01*
X1279144Y-2157984D01*
X1288287Y-2162555D01*
X1315465Y-2171700D01*
X1324610Y-2176018D01*
X1329181Y-2180589D01*
X1333754Y-2189734D01*
X1333754Y-2203450D01*
X1324610Y-2212594D01*
X1310894Y-2217165D01*
X1292605Y-2217165D01*
X1279144Y-2212594D01*
X1270000Y-2203450D01*
X1431797Y-2144268D02*
G01*
X1427226Y-2135123D01*
X1418081Y-2126234D01*
X1409192Y-2121662D01*
X1390904Y-2121662D01*
X1381760Y-2126234D01*
X1372615Y-2135123D01*
X1368297Y-2144268D01*
X1363726Y-2157984D01*
X1363726Y-2180589D01*
X1368297Y-2194305D01*
X1372615Y-2203450D01*
X1381760Y-2212594D01*
X1390904Y-2217165D01*
X1409192Y-2217165D01*
X1418081Y-2212594D01*
X1427226Y-2203450D01*
X1431797Y-2194305D01*
X1461770Y-2121662D02*
G01*
X1461770Y-2217165D01*
X1461770Y-2217165D02*
G01*
X1516379Y-2217165D01*
X1308354Y-1881123D02*
G01*
X1299210Y-1872234D01*
X1285494Y-1867662D01*
X1267205Y-1867662D01*
X1253744Y-1872234D01*
X1244600Y-1881123D01*
X1244600Y-1890268D01*
X1249171Y-1899412D01*
X1253744Y-1903984D01*
X1262887Y-1908555D01*
X1290065Y-1917700D01*
X1299210Y-1922018D01*
X1303781Y-1926589D01*
X1308354Y-1935734D01*
X1308354Y-1949450D01*
X1299210Y-1958594D01*
X1285494Y-1963165D01*
X1267205Y-1963165D01*
X1253744Y-1958594D01*
X1244600Y-1949450D01*
X1338326Y-1867662D02*
G01*
X1338326Y-1963165D01*
X1338326Y-1867662D02*
G01*
X1370076Y-1867662D01*
X1383792Y-1872234D01*
X1392681Y-1881123D01*
X1397254Y-1890268D01*
X1401826Y-1903984D01*
X1401826Y-1926589D01*
X1397254Y-1940305D01*
X1392681Y-1949450D01*
X1383792Y-1958594D01*
X1370076Y-1963165D01*
X1338326Y-1963165D01*
X1468120Y-1867662D02*
G01*
X1431797Y-1963165D01*
X1468120Y-1867662D02*
G01*
X1504695Y-1963165D01*
X1445513Y-1931162D02*
G01*
X1490979Y-1931162D01*
X1253744Y-1613662D02*
G01*
X1303781Y-1613662D01*
X1276350Y-1649984D01*
X1290065Y-1649984D01*
X1299210Y-1654555D01*
X1303781Y-1659128D01*
X1308354Y-1672589D01*
X1308354Y-1681734D01*
X1303781Y-1695450D01*
X1294637Y-1704594D01*
X1280921Y-1709165D01*
X1267205Y-1709165D01*
X1253744Y-1704594D01*
X1249171Y-1700021D01*
X1244600Y-1690878D01*
X1338326Y-1613662D02*
G01*
X1374647Y-1709165D01*
X1410970Y-1613662D02*
G01*
X1374647Y-1709165D01*
X1450086Y-1613662D02*
G01*
X1500123Y-1613662D01*
X1472692Y-1649984D01*
X1486407Y-1649984D01*
X1495552Y-1654555D01*
X1500123Y-1659128D01*
X1504695Y-1672589D01*
X1504695Y-1681734D01*
X1500123Y-1695450D01*
X1490979Y-1704594D01*
X1477263Y-1709165D01*
X1463802Y-1709165D01*
X1450086Y-1704594D01*
X1445513Y-1700021D01*
X1440942Y-1690878D01*
X7100061Y-2971800D02*
G01*
X7195565Y-2971800D01*
X7100061Y-2971800D02*
G01*
X7100061Y-2940050D01*
X7104634Y-2926334D01*
X7113524Y-2917189D01*
X7122668Y-2912618D01*
X7136384Y-2908045D01*
X7158990Y-2908045D01*
X7172706Y-2912618D01*
X7181850Y-2917189D01*
X7190993Y-2926334D01*
X7195565Y-2940050D01*
X7195565Y-2971800D01*
X7100061Y-2878073D02*
G01*
X7195565Y-2878073D01*
X7100061Y-2878073D02*
G01*
X7100061Y-2837179D01*
X7104634Y-2823718D01*
X7109206Y-2819145D01*
X7118095Y-2814573D01*
X7127240Y-2814573D01*
X7136384Y-2819145D01*
X7140956Y-2823718D01*
X7145527Y-2837179D01*
X7145527Y-2878073D01*
X7145527Y-2846323D02*
G01*
X7195565Y-2814573D01*
X7100061Y-2784602D02*
G01*
X7195565Y-2748279D01*
X7100061Y-2711704D02*
G01*
X7195565Y-2748279D01*
X7100061Y-2659126D02*
G01*
X7104634Y-2672587D01*
X7113524Y-2677160D01*
X7122668Y-2677160D01*
X7131811Y-2672587D01*
X7136384Y-2663697D01*
X7140956Y-2645410D01*
X7145527Y-2631694D01*
X7154418Y-2622804D01*
X7163561Y-2618231D01*
X7177277Y-2618231D01*
X7186422Y-2622804D01*
X7190993Y-2627376D01*
X7195565Y-2640837D01*
X7195565Y-2659126D01*
X7190993Y-2672587D01*
X7186422Y-2677160D01*
X7177277Y-2681731D01*
X7163561Y-2681731D01*
X7154418Y-2677160D01*
X7145527Y-2668270D01*
X7140956Y-2654554D01*
X7136384Y-2636265D01*
X7131811Y-2627376D01*
X7122668Y-2622804D01*
X7113524Y-2622804D01*
X7104634Y-2627376D01*
X7100061Y-2640837D01*
X7100061Y-2659126D01*
X7100061Y-2565400D02*
G01*
X7104634Y-2579115D01*
X7113524Y-2583687D01*
X7122668Y-2583687D01*
X7131811Y-2579115D01*
X7136384Y-2569971D01*
X7140956Y-2551684D01*
X7145527Y-2538221D01*
X7154418Y-2529078D01*
X7163561Y-2524505D01*
X7177277Y-2524505D01*
X7186422Y-2529078D01*
X7190993Y-2533650D01*
X7195565Y-2547365D01*
X7195565Y-2565400D01*
X7190993Y-2579115D01*
X7186422Y-2583687D01*
X7177277Y-2588260D01*
X7163561Y-2588260D01*
X7154418Y-2583687D01*
X7145527Y-2574544D01*
X7140956Y-2560828D01*
X7136384Y-2542794D01*
X7131811Y-2533650D01*
X7122668Y-2529078D01*
X7113524Y-2529078D01*
X7104634Y-2533650D01*
X7100061Y-2547365D01*
X7100061Y-2565400D01*
X7122668Y-2489962D02*
G01*
X7118095Y-2489962D01*
X7109206Y-2485389D01*
X7104634Y-2480818D01*
X7100061Y-2471673D01*
X7100061Y-2453639D01*
X7104634Y-2444495D01*
X7109206Y-2439923D01*
X7118095Y-2435352D01*
X7127240Y-2435352D01*
X7136384Y-2439923D01*
X7150100Y-2449068D01*
X7195565Y-2494534D01*
X7195565Y-2430779D01*
X7100061Y-2346452D02*
G01*
X7100061Y-2391918D01*
X7140956Y-2396236D01*
X7136384Y-2391918D01*
X7131811Y-2378202D01*
X7131811Y-2364486D01*
X7136384Y-2350770D01*
X7145527Y-2341879D01*
X7158990Y-2337307D01*
X7168134Y-2337307D01*
X7181850Y-2341879D01*
X7190993Y-2350770D01*
X7195565Y-2364486D01*
X7195565Y-2378202D01*
X7190993Y-2391918D01*
X7186422Y-2396236D01*
X7177277Y-2400807D01*
X7176261Y-5943600D02*
G01*
X7271765Y-5943600D01*
X7176261Y-5943600D02*
G01*
X7176261Y-5911850D01*
X7180834Y-5898134D01*
X7189724Y-5888990D01*
X7198868Y-5884418D01*
X7212584Y-5879845D01*
X7235190Y-5879845D01*
X7248906Y-5884418D01*
X7258050Y-5888990D01*
X7267193Y-5898134D01*
X7271765Y-5911850D01*
X7271765Y-5943600D01*
X7176261Y-5849874D02*
G01*
X7271765Y-5849874D01*
X7176261Y-5849874D02*
G01*
X7176261Y-5808979D01*
X7180834Y-5795518D01*
X7185406Y-5790945D01*
X7194295Y-5786374D01*
X7203440Y-5786374D01*
X7212584Y-5790945D01*
X7217156Y-5795518D01*
X7221727Y-5808979D01*
X7221727Y-5849874D01*
X7221727Y-5818124D02*
G01*
X7271765Y-5786374D01*
X7176261Y-5756402D02*
G01*
X7271765Y-5720079D01*
X7176261Y-5683504D02*
G01*
X7271765Y-5720079D01*
X7176261Y-5630925D02*
G01*
X7180834Y-5644388D01*
X7189724Y-5648959D01*
X7198868Y-5648959D01*
X7208011Y-5644388D01*
X7212584Y-5635497D01*
X7217156Y-5617209D01*
X7221727Y-5603493D01*
X7230618Y-5594604D01*
X7239761Y-5590031D01*
X7253477Y-5590031D01*
X7262622Y-5594604D01*
X7267193Y-5599175D01*
X7271765Y-5612638D01*
X7271765Y-5630925D01*
X7267193Y-5644388D01*
X7262622Y-5648959D01*
X7253477Y-5653531D01*
X7239761Y-5653531D01*
X7230618Y-5648959D01*
X7221727Y-5640070D01*
X7217156Y-5626354D01*
X7212584Y-5608065D01*
X7208011Y-5599175D01*
X7198868Y-5594604D01*
X7189724Y-5594604D01*
X7180834Y-5599175D01*
X7176261Y-5612638D01*
X7176261Y-5630925D01*
X7176261Y-5537200D02*
G01*
X7180834Y-5550915D01*
X7189724Y-5555488D01*
X7198868Y-5555488D01*
X7208011Y-5550915D01*
X7212584Y-5541772D01*
X7217156Y-5523484D01*
X7221727Y-5510022D01*
X7230618Y-5500877D01*
X7239761Y-5496306D01*
X7253477Y-5496306D01*
X7262622Y-5500877D01*
X7267193Y-5505450D01*
X7271765Y-5519165D01*
X7271765Y-5537200D01*
X7267193Y-5550915D01*
X7262622Y-5555488D01*
X7253477Y-5560059D01*
X7239761Y-5560059D01*
X7230618Y-5555488D01*
X7221727Y-5546343D01*
X7217156Y-5532627D01*
X7212584Y-5514593D01*
X7208011Y-5505450D01*
X7198868Y-5500877D01*
X7189724Y-5500877D01*
X7180834Y-5505450D01*
X7176261Y-5519165D01*
X7176261Y-5537200D01*
X7198868Y-5461761D02*
G01*
X7194295Y-5461761D01*
X7185406Y-5457190D01*
X7180834Y-5452618D01*
X7176261Y-5443474D01*
X7176261Y-5425440D01*
X7180834Y-5416295D01*
X7185406Y-5411724D01*
X7194295Y-5407152D01*
X7203440Y-5407152D01*
X7212584Y-5411724D01*
X7226300Y-5420868D01*
X7271765Y-5466334D01*
X7271765Y-5402579D01*
X7176261Y-5318252D02*
G01*
X7176261Y-5363718D01*
X7217156Y-5368036D01*
X7212584Y-5363718D01*
X7208011Y-5350002D01*
X7208011Y-5336286D01*
X7212584Y-5322570D01*
X7221727Y-5313679D01*
X7235190Y-5309108D01*
X7244334Y-5309108D01*
X7258050Y-5313679D01*
X7267193Y-5322570D01*
X7271765Y-5336286D01*
X7271765Y-5350002D01*
X7267193Y-5363718D01*
X7262622Y-5368036D01*
X7253477Y-5372608D01*
X4636261Y-3854450D02*
G01*
X4731765Y-3854450D01*
X4636261Y-3886200D02*
G01*
X4636261Y-3822445D01*
X4636261Y-3792473D02*
G01*
X4731765Y-3792473D01*
X4636261Y-3762502D02*
G01*
X4731765Y-3762502D01*
X4636261Y-3762502D02*
G01*
X4731765Y-3699002D01*
X4636261Y-3699002D02*
G01*
X4731765Y-3699002D01*
X4636261Y-3669029D02*
G01*
X4681727Y-3632454D01*
X4731765Y-3632454D01*
X4636261Y-3596131D02*
G01*
X4681727Y-3632454D01*
X4658868Y-3561587D02*
G01*
X4654295Y-3561587D01*
X4645406Y-3557015D01*
X4640834Y-3552444D01*
X4636261Y-3543554D01*
X4636261Y-3525265D01*
X4640834Y-3516121D01*
X4645406Y-3511550D01*
X4654295Y-3507231D01*
X4663440Y-3507231D01*
X4672584Y-3511550D01*
X4686300Y-3520694D01*
X4731765Y-3566160D01*
X4731765Y-3502660D01*
X4636261Y-3445255D02*
G01*
X4640834Y-3458971D01*
X4654295Y-3468115D01*
X4677156Y-3472687D01*
X4690618Y-3472687D01*
X4713477Y-3468115D01*
X4727193Y-3458971D01*
X4731765Y-3445255D01*
X4731765Y-3436112D01*
X4727193Y-3422650D01*
X4713477Y-3413505D01*
X4690618Y-3408934D01*
X4677156Y-3408934D01*
X4654295Y-3413505D01*
X4640834Y-3422650D01*
X4636261Y-3436112D01*
X4636261Y-3445255D01*
X4636261Y-3333495D02*
G01*
X4699761Y-3378962D01*
X4699761Y-3310636D01*
X4636261Y-3333495D02*
G01*
X4731765Y-3333495D01*
X4636261Y-3253486D02*
G01*
X4640834Y-3267202D01*
X4654295Y-3276092D01*
X4677156Y-3280663D01*
X4690618Y-3280663D01*
X4713477Y-3276092D01*
X4727193Y-3267202D01*
X4731765Y-3253486D01*
X4731765Y-3244342D01*
X4727193Y-3230626D01*
X4713477Y-3221736D01*
X4690618Y-3217163D01*
X4677156Y-3217163D01*
X4654295Y-3221736D01*
X4640834Y-3230626D01*
X4636261Y-3244342D01*
X4636261Y-3253486D01*
D11*
X3480054Y-1984502D02*
G01*
X3461765Y-1966213D01*
X3434588Y-1957070D01*
X3398265Y-1957070D01*
X3371088Y-1966213D01*
X3352800Y-1984502D01*
X3352800Y-2002536D01*
X3361943Y-2020823D01*
X3371088Y-2029968D01*
X3389122Y-2039112D01*
X3443731Y-2057145D01*
X3461765Y-2066289D01*
X3470909Y-2075434D01*
X3480054Y-2093468D01*
X3480054Y-2120900D01*
X3461765Y-2138934D01*
X3434588Y-2148078D01*
X3398265Y-2148078D01*
X3371088Y-2138934D01*
X3352800Y-2120900D01*
X3539997Y-1957070D02*
G01*
X3539997Y-2148078D01*
X3539997Y-1957070D02*
G01*
X3658361Y-1957070D01*
X3539997Y-2048002D02*
G01*
X3612895Y-2048002D01*
X3539997Y-2148078D02*
G01*
X3658361Y-2148078D01*
X3718306Y-1957070D02*
G01*
X3718306Y-2148078D01*
X3718306Y-1957070D02*
G01*
X3836415Y-1957070D01*
X3718306Y-2048002D02*
G01*
X3790950Y-2048002D01*
X3718306Y-2148078D02*
G01*
X3836415Y-2148078D01*
X4036313Y-1957070D02*
G01*
X4036313Y-2093468D01*
X4045458Y-2120900D01*
X4063745Y-2138934D01*
X4090924Y-2148078D01*
X4109211Y-2148078D01*
X4136390Y-2138934D01*
X4154677Y-2120900D01*
X4163822Y-2093468D01*
X4163822Y-1957070D01*
X4351020Y-1984502D02*
G01*
X4332731Y-1966213D01*
X4305554Y-1957070D01*
X4269231Y-1957070D01*
X4241800Y-1966213D01*
X4223765Y-1984502D01*
X4223765Y-2002536D01*
X4232909Y-2020823D01*
X4241800Y-2029968D01*
X4260088Y-2039112D01*
X4314697Y-2057145D01*
X4332731Y-2066289D01*
X4341875Y-2075434D01*
X4351020Y-2093468D01*
X4351020Y-2120900D01*
X4332731Y-2138934D01*
X4305554Y-2148078D01*
X4269231Y-2148078D01*
X4241800Y-2138934D01*
X4223765Y-2120900D01*
X4410963Y-1957070D02*
G01*
X4410963Y-2148078D01*
X4410963Y-1957070D02*
G01*
X4492752Y-1957070D01*
X4520184Y-1966213D01*
X4529074Y-1975357D01*
X4538218Y-1993645D01*
X4538218Y-2011679D01*
X4529074Y-2029968D01*
X4520184Y-2039112D01*
X4492752Y-2048002D01*
X4410963Y-2048002D02*
G01*
X4492752Y-2048002D01*
X4520184Y-2057145D01*
X4529074Y-2066289D01*
X4538218Y-2084578D01*
X4538218Y-2111755D01*
X4529074Y-2129789D01*
X4520184Y-2138934D01*
X4492752Y-2148078D01*
X4410963Y-2148078D01*
X4738370Y-1957070D02*
G01*
X4783581Y-2148078D01*
X4829047Y-1957070D02*
G01*
X4783581Y-2148078D01*
X4829047Y-1957070D02*
G01*
X4874513Y-2148078D01*
X4919979Y-1957070D02*
G01*
X4874513Y-2148078D01*
X5052822Y-1957070D02*
G01*
X4980177Y-2148078D01*
X5052822Y-1957070D02*
G01*
X5125465Y-2148078D01*
X5007356Y-2084578D02*
G01*
X5098288Y-2084578D01*
X5185409Y-1957070D02*
G01*
X5185409Y-2148078D01*
X5185409Y-1957070D02*
G01*
X5267452Y-1957070D01*
X5294629Y-1966213D01*
X5303774Y-1975357D01*
X5312918Y-1993645D01*
X5312918Y-2011679D01*
X5303774Y-2029968D01*
X5294629Y-2039112D01*
X5267452Y-2048002D01*
X5185409Y-2048002D01*
X5249163Y-2048002D02*
G01*
X5312918Y-2148078D01*
X5372861Y-1957070D02*
G01*
X5372861Y-2148078D01*
X5372861Y-1957070D02*
G01*
X5500115Y-2148078D01*
X5500115Y-1957070D02*
G01*
X5500115Y-2148078D01*
X5560059Y-1957070D02*
G01*
X5560059Y-2148078D01*
X5620004Y-1957070D02*
G01*
X5620004Y-2148078D01*
X5620004Y-1957070D02*
G01*
X5747258Y-2148078D01*
X5747258Y-1957070D02*
G01*
X5747258Y-2148078D01*
X5943600Y-2002536D02*
G01*
X5934709Y-1984502D01*
X5916422Y-1966213D01*
X5898134Y-1957070D01*
X5861811Y-1957070D01*
X5843777Y-1966213D01*
X5825490Y-1984502D01*
X5816345Y-2002536D01*
X5807456Y-2029968D01*
X5807456Y-2075434D01*
X5816345Y-2102612D01*
X5825490Y-2120900D01*
X5843777Y-2138934D01*
X5861811Y-2148078D01*
X5898134Y-2148078D01*
X5916422Y-2138934D01*
X5934709Y-2120900D01*
X5943600Y-2102612D01*
X5943600Y-2075434D01*
X5898134Y-2075434D02*
G01*
X5943600Y-2075434D01*
X6248400Y-6833870D02*
G01*
X6248400Y-6970268D01*
X6257543Y-6997700D01*
X6275577Y-7015734D01*
X6303009Y-7024877D01*
X6321043Y-7024877D01*
X6348475Y-7015734D01*
X6366509Y-6997700D01*
X6375654Y-6970268D01*
X6375654Y-6833870D01*
X6562852Y-6861302D02*
G01*
X6544818Y-6843013D01*
X6517386Y-6833870D01*
X6481063Y-6833870D01*
X6453886Y-6843013D01*
X6435597Y-6861302D01*
X6435597Y-6879336D01*
X6444741Y-6897624D01*
X6453886Y-6906768D01*
X6471920Y-6915911D01*
X6526529Y-6933945D01*
X6544818Y-6943090D01*
X6553961Y-6952234D01*
X6562852Y-6970268D01*
X6562852Y-6997700D01*
X6544818Y-7015734D01*
X6517386Y-7024877D01*
X6481063Y-7024877D01*
X6453886Y-7015734D01*
X6435597Y-6997700D01*
X6623050Y-6833870D02*
G01*
X6623050Y-7024877D01*
X6623050Y-6833870D02*
G01*
X6704838Y-6833870D01*
X6732015Y-6843013D01*
X6741159Y-6852158D01*
X6750304Y-6870445D01*
X6750304Y-6888479D01*
X6741159Y-6906768D01*
X6732015Y-6915911D01*
X6704838Y-6924802D01*
X6623050Y-6924802D02*
G01*
X6704838Y-6924802D01*
X6732015Y-6933945D01*
X6741159Y-6943090D01*
X6750304Y-6961377D01*
X6750304Y-6988556D01*
X6741159Y-7006590D01*
X6732015Y-7015734D01*
X6704838Y-7024877D01*
X6623050Y-7024877D01*
X6950202Y-6833870D02*
G01*
X6995668Y-7024877D01*
X7041134Y-6833870D02*
G01*
X6995668Y-7024877D01*
X7041134Y-6833870D02*
G01*
X7086600Y-7024877D01*
X7132065Y-6833870D02*
G01*
X7086600Y-7024877D01*
X7264654Y-6833870D02*
G01*
X7192009Y-7024877D01*
X7264654Y-6833870D02*
G01*
X7337552Y-7024877D01*
X7219188Y-6961377D02*
G01*
X7310120Y-6961377D01*
X7397495Y-6833870D02*
G01*
X7397495Y-7024877D01*
X7397495Y-6833870D02*
G01*
X7479284Y-6833870D01*
X7506461Y-6843013D01*
X7515606Y-6852158D01*
X7524750Y-6870445D01*
X7524750Y-6888479D01*
X7515606Y-6906768D01*
X7506461Y-6915911D01*
X7479284Y-6924802D01*
X7397495Y-6924802D01*
X7461250Y-6924802D02*
G01*
X7524750Y-7024877D01*
X7584693Y-6833870D02*
G01*
X7584693Y-7024877D01*
X7584693Y-6833870D02*
G01*
X7711947Y-7024877D01*
X7711947Y-6833870D02*
G01*
X7711947Y-7024877D01*
X7772145Y-6833870D02*
G01*
X7772145Y-7024877D01*
X7832090Y-6833870D02*
G01*
X7832090Y-7024877D01*
X7832090Y-6833870D02*
G01*
X7959343Y-7024877D01*
X7959343Y-6833870D02*
G01*
X7959343Y-7024877D01*
X8155686Y-6879336D02*
G01*
X8146541Y-6861302D01*
X8128508Y-6843013D01*
X8110220Y-6833870D01*
X8073897Y-6833870D01*
X8055609Y-6843013D01*
X8037575Y-6861302D01*
X8028431Y-6879336D01*
X8019288Y-6906768D01*
X8019288Y-6952234D01*
X8028431Y-6979411D01*
X8037575Y-6997700D01*
X8055609Y-7015734D01*
X8073897Y-7024877D01*
X8110220Y-7024877D01*
X8128508Y-7015734D01*
X8146541Y-6997700D01*
X8155686Y-6979411D01*
X8155686Y-6952234D01*
X8110220Y-6952234D02*
G01*
X8155686Y-6952234D01*
D12*
X6248400Y-7100061D02*
G01*
X6248400Y-7195565D01*
X6248400Y-7100061D02*
G01*
X6289293Y-7100061D01*
X6303009Y-7104634D01*
X6307581Y-7109206D01*
X6312154Y-7118095D01*
X6312154Y-7127240D01*
X6307581Y-7136384D01*
X6303009Y-7140956D01*
X6289293Y-7145527D01*
X6248400Y-7145527D02*
G01*
X6289293Y-7145527D01*
X6303009Y-7150100D01*
X6307581Y-7154418D01*
X6312154Y-7163561D01*
X6312154Y-7177277D01*
X6307581Y-7186422D01*
X6303009Y-7190993D01*
X6289293Y-7195565D01*
X6248400Y-7195565D01*
X6342125Y-7100061D02*
G01*
X6342125Y-7195565D01*
X6342125Y-7100061D02*
G01*
X6401054Y-7100061D01*
X6342125Y-7145527D02*
G01*
X6378447Y-7145527D01*
X6342125Y-7195565D02*
G01*
X6401054Y-7195565D01*
X6431025Y-7100061D02*
G01*
X6453886Y-7195565D01*
X6476491Y-7100061D02*
G01*
X6453886Y-7195565D01*
X6476491Y-7100061D02*
G01*
X6499352Y-7195565D01*
X6521958Y-7100061D02*
G01*
X6499352Y-7195565D01*
X6588506Y-7100061D02*
G01*
X6551929Y-7195565D01*
X6588506Y-7100061D02*
G01*
X6624827Y-7195565D01*
X6565645Y-7163561D02*
G01*
X6611111Y-7163561D01*
X6654800Y-7100061D02*
G01*
X6654800Y-7195565D01*
X6654800Y-7100061D02*
G01*
X6695693Y-7100061D01*
X6709409Y-7104634D01*
X6713727Y-7109206D01*
X6718300Y-7118095D01*
X6718300Y-7127240D01*
X6713727Y-7136384D01*
X6709409Y-7140956D01*
X6695693Y-7145527D01*
X6654800Y-7145527D01*
X6686550Y-7145527D02*
G01*
X6718300Y-7195565D01*
X6748525Y-7100061D02*
G01*
X6748525Y-7195565D01*
X6748525Y-7100061D02*
G01*
X6807454Y-7100061D01*
X6748525Y-7145527D02*
G01*
X6784847Y-7145527D01*
X6748525Y-7195565D02*
G01*
X6807454Y-7195565D01*
X6907529Y-7100061D02*
G01*
X6907529Y-7195565D01*
X6907529Y-7100061D02*
G01*
X6948424Y-7100061D01*
X6962140Y-7104634D01*
X6966458Y-7109206D01*
X6971029Y-7118095D01*
X6971029Y-7131811D01*
X6966458Y-7140956D01*
X6962140Y-7145527D01*
X6948424Y-7150100D01*
X6907529Y-7150100D01*
X7028434Y-7100061D02*
G01*
X7019290Y-7104634D01*
X7010145Y-7113524D01*
X7005574Y-7122668D01*
X7001002Y-7136384D01*
X7001002Y-7158990D01*
X7005574Y-7172706D01*
X7010145Y-7181850D01*
X7019290Y-7190993D01*
X7028434Y-7195565D01*
X7046468Y-7195565D01*
X7055611Y-7190993D01*
X7064756Y-7181850D01*
X7069327Y-7172706D01*
X7073900Y-7158990D01*
X7073900Y-7136384D01*
X7069327Y-7122668D01*
X7064756Y-7113524D01*
X7055611Y-7104634D01*
X7046468Y-7100061D01*
X7028434Y-7100061D01*
X7103872Y-7100061D02*
G01*
X7126477Y-7195565D01*
X7149338Y-7100061D02*
G01*
X7126477Y-7195565D01*
X7149338Y-7100061D02*
G01*
X7171943Y-7195565D01*
X7194804Y-7100061D02*
G01*
X7171943Y-7195565D01*
X7224775Y-7100061D02*
G01*
X7224775Y-7195565D01*
X7224775Y-7100061D02*
G01*
X7283958Y-7100061D01*
X7224775Y-7145527D02*
G01*
X7261097Y-7145527D01*
X7224775Y-7195565D02*
G01*
X7283958Y-7195565D01*
X7313929Y-7100061D02*
G01*
X7313929Y-7195565D01*
X7313929Y-7100061D02*
G01*
X7354824Y-7100061D01*
X7368286Y-7104634D01*
X7372858Y-7109206D01*
X7377429Y-7118095D01*
X7377429Y-7127240D01*
X7372858Y-7136384D01*
X7368286Y-7140956D01*
X7354824Y-7145527D01*
X7313929Y-7145527D01*
X7345679Y-7145527D02*
G01*
X7377429Y-7195565D01*
X7407402Y-7100061D02*
G01*
X7407402Y-7195565D01*
X7437374Y-7100061D02*
G01*
X7437374Y-7195565D01*
X7437374Y-7100061D02*
G01*
X7501127Y-7195565D01*
X7501127Y-7100061D02*
G01*
X7501127Y-7195565D01*
X7599425Y-7122668D02*
G01*
X7594854Y-7113524D01*
X7585709Y-7104634D01*
X7576565Y-7100061D01*
X7558277Y-7100061D01*
X7549388Y-7104634D01*
X7540243Y-7113524D01*
X7535672Y-7122668D01*
X7531100Y-7136384D01*
X7531100Y-7158990D01*
X7535672Y-7172706D01*
X7540243Y-7181850D01*
X7549388Y-7190993D01*
X7558277Y-7195565D01*
X7576565Y-7195565D01*
X7585709Y-7190993D01*
X7594854Y-7181850D01*
X7599425Y-7172706D01*
X7599425Y-7158990D01*
X7576565Y-7158990D02*
G01*
X7599425Y-7158990D01*
X7730997Y-7100061D02*
G01*
X7730997Y-7195565D01*
X7699247Y-7100061D02*
G01*
X7763002Y-7100061D01*
X7792974Y-7100061D02*
G01*
X7792974Y-7195565D01*
X7822945Y-7100061D02*
G01*
X7822945Y-7195565D01*
X7822945Y-7100061D02*
G01*
X7886700Y-7195565D01*
X7886700Y-7100061D02*
G01*
X7886700Y-7195565D01*
X7916672Y-7100061D02*
G01*
X7952993Y-7145527D01*
X7952993Y-7195565D01*
X7989315Y-7100061D02*
G01*
X7952993Y-7145527D01*
X8023859Y-7122668D02*
G01*
X8023859Y-7118095D01*
X8028431Y-7109206D01*
X8033004Y-7104634D01*
X8042147Y-7100061D01*
X8060181Y-7100061D01*
X8069325Y-7104634D01*
X8073897Y-7109206D01*
X8078470Y-7118095D01*
X8078470Y-7127240D01*
X8073897Y-7136384D01*
X8064754Y-7150100D01*
X8019288Y-7195565D01*
X8083041Y-7195565D01*
X8140191Y-7100061D02*
G01*
X8126475Y-7104634D01*
X8117586Y-7118095D01*
X8113013Y-7140956D01*
X8113013Y-7154418D01*
X8117586Y-7177277D01*
X8126475Y-7190993D01*
X8140191Y-7195565D01*
X8149336Y-7195565D01*
X8163052Y-7190993D01*
X8171941Y-7177277D01*
X8176513Y-7154418D01*
X8176513Y-7140956D01*
X8171941Y-7118095D01*
X8163052Y-7104634D01*
X8149336Y-7100061D01*
X8140191Y-7100061D01*
X8251952Y-7100061D02*
G01*
X8206486Y-7163561D01*
X8274811Y-7163561D01*
X8251952Y-7100061D02*
G01*
X8251952Y-7195565D01*
X8331961Y-7100061D02*
G01*
X8318500Y-7104634D01*
X8309356Y-7118095D01*
X8304784Y-7140956D01*
X8304784Y-7154418D01*
X8309356Y-7177277D01*
X8318500Y-7190993D01*
X8331961Y-7195565D01*
X8341106Y-7195565D01*
X8354822Y-7190993D01*
X8363965Y-7177277D01*
X8368284Y-7154418D01*
X8368284Y-7140956D01*
X8363965Y-7118095D01*
X8354822Y-7104634D01*
X8341106Y-7100061D01*
X8331961Y-7100061D01*
X8468359Y-7100061D02*
G01*
X8468359Y-7195565D01*
X8468359Y-7100061D02*
G01*
X8527541Y-7100061D01*
X8468359Y-7145527D02*
G01*
X8504681Y-7145527D01*
X8557513Y-7100061D02*
G01*
X8557513Y-7195565D01*
X8557513Y-7100061D02*
G01*
X8598408Y-7100061D01*
X8612124Y-7104634D01*
X8616695Y-7109206D01*
X8621013Y-7118095D01*
X8621013Y-7127240D01*
X8616695Y-7136384D01*
X8612124Y-7140956D01*
X8598408Y-7145527D01*
X8557513Y-7145527D01*
X8589263Y-7145527D02*
G01*
X8621013Y-7195565D01*
X8678418Y-7100061D02*
G01*
X8669274Y-7104634D01*
X8660129Y-7113524D01*
X8655558Y-7122668D01*
X8651240Y-7136384D01*
X8651240Y-7158990D01*
X8655558Y-7172706D01*
X8660129Y-7181850D01*
X8669274Y-7190993D01*
X8678418Y-7195565D01*
X8696452Y-7195565D01*
X8705595Y-7190993D01*
X8714740Y-7181850D01*
X8719311Y-7172706D01*
X8723884Y-7158990D01*
X8723884Y-7136384D01*
X8719311Y-7122668D01*
X8714740Y-7113524D01*
X8705595Y-7104634D01*
X8696452Y-7100061D01*
X8678418Y-7100061D01*
X8753856Y-7100061D02*
G01*
X8753856Y-7195565D01*
X8753856Y-7100061D02*
G01*
X8790177Y-7195565D01*
X8826500Y-7100061D02*
G01*
X8790177Y-7195565D01*
X8826500Y-7100061D02*
G01*
X8826500Y-7195565D01*
X8926575Y-7100061D02*
G01*
X8926575Y-7168134D01*
X8931147Y-7181850D01*
X8940291Y-7190993D01*
X8953754Y-7195565D01*
X8962897Y-7195565D01*
X8976613Y-7190993D01*
X8985758Y-7181850D01*
X8990329Y-7168134D01*
X8990329Y-7100061D01*
X9083802Y-7113524D02*
G01*
X9074658Y-7104634D01*
X9061195Y-7100061D01*
X9042908Y-7100061D01*
X9029191Y-7104634D01*
X9020302Y-7113524D01*
X9020302Y-7122668D01*
X9024874Y-7131811D01*
X9029191Y-7136384D01*
X9038336Y-7140956D01*
X9065768Y-7150100D01*
X9074658Y-7154418D01*
X9079229Y-7158990D01*
X9083802Y-7168134D01*
X9083802Y-7181850D01*
X9074658Y-7190993D01*
X9061195Y-7195565D01*
X9042908Y-7195565D01*
X9029191Y-7190993D01*
X9020302Y-7181850D01*
X9113774Y-7100061D02*
G01*
X9113774Y-7195565D01*
X9113774Y-7100061D02*
G01*
X9154668Y-7100061D01*
X9168384Y-7104634D01*
X9172956Y-7109206D01*
X9177527Y-7118095D01*
X9177527Y-7127240D01*
X9172956Y-7136384D01*
X9168384Y-7140956D01*
X9154668Y-7145527D01*
X9113774Y-7145527D02*
G01*
X9154668Y-7145527D01*
X9168384Y-7150100D01*
X9172956Y-7154418D01*
X9177527Y-7163561D01*
X9177527Y-7177277D01*
X9172956Y-7186422D01*
X9168384Y-7190993D01*
X9154668Y-7195565D01*
X9113774Y-7195565D01*
X6316472Y-7324343D02*
G01*
X6312154Y-7315200D01*
X6303009Y-7306056D01*
X6293865Y-7301484D01*
X6275577Y-7301484D01*
X6266688Y-7306056D01*
X6257543Y-7315200D01*
X6252972Y-7324343D01*
X6248400Y-7338059D01*
X6248400Y-7360665D01*
X6252972Y-7374381D01*
X6257543Y-7383525D01*
X6266688Y-7392415D01*
X6275577Y-7396988D01*
X6293865Y-7396988D01*
X6303009Y-7392415D01*
X6312154Y-7383525D01*
X6316472Y-7374381D01*
X6383020Y-7301484D02*
G01*
X6346697Y-7396988D01*
X6383020Y-7301484D02*
G01*
X6419341Y-7396988D01*
X6360159Y-7365238D02*
G01*
X6405625Y-7365238D01*
X6449313Y-7301484D02*
G01*
X6449313Y-7396988D01*
X6449313Y-7301484D02*
G01*
X6490208Y-7301484D01*
X6503924Y-7306056D01*
X6508495Y-7310627D01*
X6513068Y-7319772D01*
X6513068Y-7328915D01*
X6508495Y-7338059D01*
X6503924Y-7342377D01*
X6490208Y-7346950D01*
X6449313Y-7346950D02*
G01*
X6490208Y-7346950D01*
X6503924Y-7351522D01*
X6508495Y-7356093D01*
X6513068Y-7365238D01*
X6513068Y-7378954D01*
X6508495Y-7387843D01*
X6503924Y-7392415D01*
X6490208Y-7396988D01*
X6449313Y-7396988D01*
X6543040Y-7301484D02*
G01*
X6543040Y-7396988D01*
X6543040Y-7396988D02*
G01*
X6597395Y-7396988D01*
X6627368Y-7301484D02*
G01*
X6627368Y-7396988D01*
X6627368Y-7301484D02*
G01*
X6686550Y-7301484D01*
X6627368Y-7346950D02*
G01*
X6663943Y-7346950D01*
X6627368Y-7396988D02*
G01*
X6686550Y-7396988D01*
X6822947Y-7301484D02*
G01*
X6786625Y-7396988D01*
X6822947Y-7301484D02*
G01*
X6859270Y-7396988D01*
X6800341Y-7365238D02*
G01*
X6845554Y-7365238D01*
X6889241Y-7301484D02*
G01*
X6889241Y-7396988D01*
X6889241Y-7301484D02*
G01*
X6952995Y-7396988D01*
X6952995Y-7301484D02*
G01*
X6952995Y-7396988D01*
X6982968Y-7301484D02*
G01*
X6982968Y-7396988D01*
X6982968Y-7301484D02*
G01*
X7014718Y-7301484D01*
X7028434Y-7306056D01*
X7037577Y-7315200D01*
X7042150Y-7324343D01*
X7046468Y-7338059D01*
X7046468Y-7360665D01*
X7042150Y-7374381D01*
X7037577Y-7383525D01*
X7028434Y-7392415D01*
X7014718Y-7396988D01*
X6982968Y-7396988D01*
X7214870Y-7324343D02*
G01*
X7210297Y-7315200D01*
X7201154Y-7306056D01*
X7192009Y-7301484D01*
X7173975Y-7301484D01*
X7164831Y-7306056D01*
X7155688Y-7315200D01*
X7151115Y-7324343D01*
X7146543Y-7338059D01*
X7146543Y-7360665D01*
X7151115Y-7374381D01*
X7155688Y-7383525D01*
X7164831Y-7392415D01*
X7173975Y-7396988D01*
X7192009Y-7396988D01*
X7201154Y-7392415D01*
X7210297Y-7383525D01*
X7214870Y-7374381D01*
X7214870Y-7360665D01*
X7192009Y-7360665D02*
G01*
X7214870Y-7360665D01*
X7244841Y-7301484D02*
G01*
X7244841Y-7396988D01*
X7244841Y-7301484D02*
G01*
X7285736Y-7301484D01*
X7299197Y-7306056D01*
X7303770Y-7310627D01*
X7308341Y-7319772D01*
X7308341Y-7333488D01*
X7303770Y-7342377D01*
X7299197Y-7346950D01*
X7285736Y-7351522D01*
X7244841Y-7351522D01*
X7338313Y-7301484D02*
G01*
X7338313Y-7396988D01*
X7395718Y-7301484D02*
G01*
X7386574Y-7306056D01*
X7377429Y-7315200D01*
X7372858Y-7324343D01*
X7368286Y-7338059D01*
X7368286Y-7360665D01*
X7372858Y-7374381D01*
X7377429Y-7383525D01*
X7386574Y-7392415D01*
X7395718Y-7396988D01*
X7413752Y-7396988D01*
X7422895Y-7392415D01*
X7432040Y-7383525D01*
X7436611Y-7374381D01*
X7441184Y-7360665D01*
X7441184Y-7338059D01*
X7436611Y-7324343D01*
X7432040Y-7315200D01*
X7422895Y-7306056D01*
X7413752Y-7301484D01*
X7395718Y-7301484D01*
X7541006Y-7301484D02*
G01*
X7541006Y-7396988D01*
X7604759Y-7301484D02*
G01*
X7604759Y-7396988D01*
X7541006Y-7346950D02*
G01*
X7604759Y-7346950D01*
X7634731Y-7301484D02*
G01*
X7634731Y-7396988D01*
X7634731Y-7301484D02*
G01*
X7693913Y-7301484D01*
X7634731Y-7346950D02*
G01*
X7671054Y-7346950D01*
X7634731Y-7396988D02*
G01*
X7693913Y-7396988D01*
X7760208Y-7301484D02*
G01*
X7723886Y-7396988D01*
X7760208Y-7301484D02*
G01*
X7796529Y-7396988D01*
X7737602Y-7365238D02*
G01*
X7783068Y-7365238D01*
X7826502Y-7301484D02*
G01*
X7826502Y-7396988D01*
X7826502Y-7301484D02*
G01*
X7858506Y-7301484D01*
X7871968Y-7306056D01*
X7881111Y-7315200D01*
X7885684Y-7324343D01*
X7890256Y-7338059D01*
X7890256Y-7360665D01*
X7885684Y-7374381D01*
X7881111Y-7383525D01*
X7871968Y-7392415D01*
X7858506Y-7396988D01*
X7826502Y-7396988D01*
X7920227Y-7301484D02*
G01*
X7920227Y-7396988D01*
X7920227Y-7301484D02*
G01*
X7979409Y-7301484D01*
X7920227Y-7346950D02*
G01*
X7956550Y-7346950D01*
X7920227Y-7396988D02*
G01*
X7979409Y-7396988D01*
X8009381Y-7301484D02*
G01*
X8009381Y-7396988D01*
X8009381Y-7301484D02*
G01*
X8050275Y-7301484D01*
X8063738Y-7306056D01*
X8068309Y-7310627D01*
X8072881Y-7319772D01*
X8072881Y-7328915D01*
X8068309Y-7338059D01*
X8063738Y-7342377D01*
X8050275Y-7346950D01*
X8009381Y-7346950D01*
X8041131Y-7346950D02*
G01*
X8072881Y-7396988D01*
X8209279Y-7301484D02*
G01*
X8172958Y-7396988D01*
X8209279Y-7301484D02*
G01*
X8245602Y-7396988D01*
X8186674Y-7365238D02*
G01*
X8232140Y-7365238D01*
X8307577Y-7301484D02*
G01*
X8307577Y-7396988D01*
X8275574Y-7301484D02*
G01*
X8339327Y-7301484D01*
X8471154Y-7301484D02*
G01*
X8471154Y-7396988D01*
X8439404Y-7301484D02*
G01*
X8502904Y-7301484D01*
X8532875Y-7301484D02*
G01*
X8532875Y-7396988D01*
X8596629Y-7301484D02*
G01*
X8596629Y-7396988D01*
X8532875Y-7346950D02*
G01*
X8596629Y-7346950D01*
X8626602Y-7301484D02*
G01*
X8626602Y-7396988D01*
X8626602Y-7301484D02*
G01*
X8685784Y-7301484D01*
X8626602Y-7346950D02*
G01*
X8662924Y-7346950D01*
X8626602Y-7396988D02*
G01*
X8685784Y-7396988D01*
X8849359Y-7315200D02*
G01*
X8840215Y-7306056D01*
X8826500Y-7301484D01*
X8808465Y-7301484D01*
X8794750Y-7306056D01*
X8785606Y-7315200D01*
X8785606Y-7324343D01*
X8790177Y-7333488D01*
X8794750Y-7338059D01*
X8803893Y-7342377D01*
X8831072Y-7351522D01*
X8840215Y-7356093D01*
X8844788Y-7360665D01*
X8849359Y-7369809D01*
X8849359Y-7383525D01*
X8840215Y-7392415D01*
X8826500Y-7396988D01*
X8808465Y-7396988D01*
X8794750Y-7392415D01*
X8785606Y-7383525D01*
X8915654Y-7301484D02*
G01*
X8879331Y-7396988D01*
X8915654Y-7301484D02*
G01*
X8951975Y-7396988D01*
X8893047Y-7365238D02*
G01*
X8938513Y-7365238D01*
X8981947Y-7301484D02*
G01*
X8981947Y-7396988D01*
X8981947Y-7301484D02*
G01*
X9018270Y-7396988D01*
X9054845Y-7301484D02*
G01*
X9018270Y-7396988D01*
X9054845Y-7301484D02*
G01*
X9054845Y-7396988D01*
X9084818Y-7301484D02*
G01*
X9084818Y-7396988D01*
X9084818Y-7301484D02*
G01*
X9143745Y-7301484D01*
X9084818Y-7346950D02*
G01*
X9121140Y-7346950D01*
X9084818Y-7396988D02*
G01*
X9143745Y-7396988D01*
X9275572Y-7301484D02*
G01*
X9275572Y-7396988D01*
X9243822Y-7301484D02*
G01*
X9307575Y-7301484D01*
X9337547Y-7301484D02*
G01*
X9337547Y-7396988D01*
X9367520Y-7301484D02*
G01*
X9367520Y-7396988D01*
X9367520Y-7301484D02*
G01*
X9403841Y-7396988D01*
X9440163Y-7301484D02*
G01*
X9403841Y-7396988D01*
X9440163Y-7301484D02*
G01*
X9440163Y-7396988D01*
X9470136Y-7301484D02*
G01*
X9470136Y-7396988D01*
X9470136Y-7301484D02*
G01*
X9529318Y-7301484D01*
X9470136Y-7346950D02*
G01*
X9506458Y-7346950D01*
X9470136Y-7396988D02*
G01*
X9529318Y-7396988D01*
D13*
X4328922Y-2373884D02*
G01*
X4328922Y-2482850D01*
X4292600Y-2373884D02*
G01*
X4365243Y-2373884D01*
X4399534Y-2373884D02*
G01*
X4399534Y-2482850D01*
X4433824Y-2373884D02*
G01*
X4433824Y-2482850D01*
X4433824Y-2373884D02*
G01*
X4506722Y-2482850D01*
X4506722Y-2373884D02*
G01*
X4506722Y-2482850D01*
X4541011Y-2373884D02*
G01*
X4582413Y-2425700D01*
X4582413Y-2482850D01*
X4624070Y-2373884D02*
G01*
X4582413Y-2425700D01*
X4663440Y-2399792D02*
G01*
X4663440Y-2394712D01*
X4668774Y-2384297D01*
X4673854Y-2378963D01*
X4684268Y-2373884D01*
X4705095Y-2373884D01*
X4715509Y-2378963D01*
X4720590Y-2384297D01*
X4725924Y-2394712D01*
X4725924Y-2405126D01*
X4720590Y-2415539D01*
X4710429Y-2431034D01*
X4658359Y-2482850D01*
X4731004Y-2482850D01*
X4796536Y-2373884D02*
G01*
X4781041Y-2378963D01*
X4770627Y-2394712D01*
X4765293Y-2420620D01*
X4765293Y-2436113D01*
X4770627Y-2462276D01*
X4781041Y-2477770D01*
X4796536Y-2482850D01*
X4806950Y-2482850D01*
X4822443Y-2477770D01*
X4832858Y-2462276D01*
X4838191Y-2436113D01*
X4838191Y-2420620D01*
X4832858Y-2394712D01*
X4822443Y-2378963D01*
X4806950Y-2373884D01*
X4796536Y-2373884D01*
X4924297Y-2373884D02*
G01*
X4872481Y-2446528D01*
X4950459Y-2446528D01*
X4924297Y-2373884D02*
G01*
X4924297Y-2482850D01*
X5015738Y-2373884D02*
G01*
X5000243Y-2378963D01*
X4989829Y-2394712D01*
X4984750Y-2420620D01*
X4984750Y-2436113D01*
X4989829Y-2462276D01*
X5000243Y-2477770D01*
X5015738Y-2482850D01*
X5026152Y-2482850D01*
X5041900Y-2477770D01*
X5052059Y-2462276D01*
X5057393Y-2436113D01*
X5057393Y-2420620D01*
X5052059Y-2394712D01*
X5041900Y-2378963D01*
X5026152Y-2373884D01*
X5015738Y-2373884D01*
D11*
X10986770Y-2695955D02*
G01*
X11177777Y-2768600D01*
X10986770Y-2695955D02*
G01*
X11177777Y-2623057D01*
X11114277Y-2741421D02*
G01*
X11114277Y-2650489D01*
X10986770Y-2435860D02*
G01*
X11177777Y-2563113D01*
X10986770Y-2563113D02*
G01*
X10986770Y-2435860D01*
X11177777Y-2563113D02*
G01*
X11177777Y-2435860D01*
X10986770Y-2375915D02*
G01*
X11177777Y-2375915D01*
X10986770Y-2315971D02*
G01*
X11177777Y-2315971D01*
X10986770Y-2315971D02*
G01*
X11177777Y-2243073D01*
X10986770Y-2170429D02*
G01*
X11177777Y-2243073D01*
X10986770Y-2170429D02*
G01*
X11177777Y-2170429D01*
X10986770Y-2110486D02*
G01*
X11123168Y-2110486D01*
X11150600Y-2101342D01*
X11168634Y-2083054D01*
X11177777Y-2055876D01*
X11177777Y-2037587D01*
X11168634Y-2010410D01*
X11150600Y-1992121D01*
X11123168Y-1983231D01*
X10986770Y-1983231D01*
X10986770Y-1859534D02*
G01*
X11177777Y-1859534D01*
X10986770Y-1923034D02*
G01*
X10986770Y-1795779D01*
X10986770Y-1735836D02*
G01*
X11177777Y-1735836D01*
X10986770Y-1608581D02*
G01*
X11177777Y-1608581D01*
X11077702Y-1735836D02*
G01*
X11077702Y-1608581D01*
X10948670Y-6328156D02*
G01*
X11139677Y-6400800D01*
X10948670Y-6328156D02*
G01*
X11139677Y-6255258D01*
X11076177Y-6373622D02*
G01*
X11076177Y-6282690D01*
X10948670Y-6195313D02*
G01*
X11139677Y-6195313D01*
X11139677Y-6195313D02*
G01*
X11139677Y-6086347D01*
X10948670Y-5962650D02*
G01*
X11139677Y-5962650D01*
X10948670Y-6026150D02*
G01*
X10948670Y-5898895D01*
X10948670Y-5838952D02*
G01*
X11139677Y-5838952D01*
X10948670Y-5715254D02*
G01*
X11139677Y-5715254D01*
X10948670Y-5779008D02*
G01*
X10948670Y-5651754D01*
X10948670Y-5591809D02*
G01*
X11085068Y-5591809D01*
X11112500Y-5582665D01*
X11130534Y-5564377D01*
X11139677Y-5537200D01*
X11139677Y-5518911D01*
X11130534Y-5491734D01*
X11112500Y-5473445D01*
X11085068Y-5464556D01*
X10948670Y-5464556D01*
X10948670Y-5404358D02*
G01*
X11139677Y-5404358D01*
X10948670Y-5404358D02*
G01*
X10948670Y-5340858D01*
X10957813Y-5313425D01*
X10976102Y-5295391D01*
X10994136Y-5286247D01*
X11021568Y-5277104D01*
X11067034Y-5277104D01*
X11094211Y-5286247D01*
X11112500Y-5295391D01*
X11130534Y-5313425D01*
X11139677Y-5340858D01*
X11139677Y-5404358D01*
X10948670Y-5217159D02*
G01*
X11139677Y-5217159D01*
X10948670Y-5217159D02*
G01*
X10948670Y-5099050D01*
X11039602Y-5217159D02*
G01*
X11039602Y-5144515D01*
X11139677Y-5217159D02*
G01*
X11139677Y-5099050D01*
D10*
X3674109Y-2578862D02*
G01*
X3628643Y-2578862D01*
X3624072Y-2619755D01*
X3628643Y-2615184D01*
X3642106Y-2610612D01*
X3655822Y-2610612D01*
X3669538Y-2615184D01*
X3678681Y-2624328D01*
X3683254Y-2637789D01*
X3683254Y-2646934D01*
X3678681Y-2660650D01*
X3669538Y-2669794D01*
X3655822Y-2674365D01*
X3642106Y-2674365D01*
X3628643Y-2669794D01*
X3624072Y-2665221D01*
X3619500Y-2656078D01*
X3713225Y-2578862D02*
G01*
X3749547Y-2674365D01*
X3785870Y-2578862D02*
G01*
X3749547Y-2674365D01*
D13*
X4493513Y-1002284D02*
G01*
X4550663Y-1002284D01*
X4519422Y-1043939D01*
X4535170Y-1043939D01*
X4545329Y-1049020D01*
X4550663Y-1054100D01*
X4555743Y-1069847D01*
X4555743Y-1080262D01*
X4550663Y-1095755D01*
X4540250Y-1106170D01*
X4524756Y-1111250D01*
X4509008Y-1111250D01*
X4493513Y-1106170D01*
X4488179Y-1101089D01*
X4483100Y-1090676D01*
X4595368Y-1028192D02*
G01*
X4595368Y-1023112D01*
X4600447Y-1012697D01*
X4605781Y-1007363D01*
X4616195Y-1002284D01*
X4636770Y-1002284D01*
X4647184Y-1007363D01*
X4652518Y-1012697D01*
X4657597Y-1023112D01*
X4657597Y-1033526D01*
X4652518Y-1043939D01*
X4642104Y-1059434D01*
X4590034Y-1111250D01*
X4662931Y-1111250D01*
X4728209Y-1002284D02*
G01*
X4712715Y-1007363D01*
X4702302Y-1023112D01*
X4697222Y-1049020D01*
X4697222Y-1064513D01*
X4702302Y-1090676D01*
X4712715Y-1106170D01*
X4728209Y-1111250D01*
X4738624Y-1111250D01*
X4754372Y-1106170D01*
X4764786Y-1090676D01*
X4769865Y-1064513D01*
X4769865Y-1049020D01*
X4764786Y-1023112D01*
X4754372Y-1007363D01*
X4738624Y-1002284D01*
X4728209Y-1002284D01*
X4533900Y-557784D02*
G01*
X4533900Y-666750D01*
X4533900Y-557784D02*
G01*
X4580636Y-557784D01*
X4596129Y-562863D01*
X4601463Y-568197D01*
X4606543Y-578612D01*
X4606543Y-589026D01*
X4601463Y-599439D01*
X4596129Y-604520D01*
X4580636Y-609600D01*
X4533900Y-609600D01*
X4570222Y-609600D02*
G01*
X4606543Y-666750D01*
X4640834Y-578612D02*
G01*
X4651247Y-573278D01*
X4666995Y-557784D01*
X4666995Y-666750D01*
X9447784Y-1778000D02*
G01*
X9556750Y-1778000D01*
X9447784Y-1778000D02*
G01*
X9447784Y-1731263D01*
X9452863Y-1715770D01*
X9458197Y-1710436D01*
X9468611Y-1705355D01*
X9484106Y-1705355D01*
X9494520Y-1710436D01*
X9499600Y-1715770D01*
X9504934Y-1731263D01*
X9504934Y-1778000D01*
X9473691Y-1665731D02*
G01*
X9468611Y-1665731D01*
X9458197Y-1660652D01*
X9452863Y-1655318D01*
X9447784Y-1644904D01*
X9447784Y-1624329D01*
X9452863Y-1613915D01*
X9458197Y-1608581D01*
X9468611Y-1603502D01*
X9479025Y-1603502D01*
X9489440Y-1608581D01*
X9504934Y-1618995D01*
X9556750Y-1671065D01*
X9556750Y-1598168D01*
X9447784Y-2908300D02*
G01*
X9556750Y-2908300D01*
X9447784Y-2908300D02*
G01*
X9447784Y-2861563D01*
X9452863Y-2846070D01*
X9458197Y-2840736D01*
X9468611Y-2835655D01*
X9484106Y-2835655D01*
X9494520Y-2840736D01*
X9499600Y-2846070D01*
X9504934Y-2861563D01*
X9504934Y-2908300D01*
X9447784Y-2790952D02*
G01*
X9447784Y-2733802D01*
X9489440Y-2764789D01*
X9489440Y-2749295D01*
X9494520Y-2738881D01*
X9499600Y-2733802D01*
X9515347Y-2728468D01*
X9525761Y-2728468D01*
X9541256Y-2733802D01*
X9551670Y-2744215D01*
X9556750Y-2759710D01*
X9556750Y-2775204D01*
X9551670Y-2790952D01*
X9546590Y-2796031D01*
X9536175Y-2801365D01*
X9435084Y-5181600D02*
G01*
X9544050Y-5181600D01*
X9435084Y-5181600D02*
G01*
X9435084Y-5134863D01*
X9440163Y-5119370D01*
X9445497Y-5114036D01*
X9455911Y-5108956D01*
X9471406Y-5108956D01*
X9481820Y-5114036D01*
X9486900Y-5119370D01*
X9492234Y-5134863D01*
X9492234Y-5181600D01*
X9435084Y-5022595D02*
G01*
X9507727Y-5074665D01*
X9507727Y-4996688D01*
X9435084Y-5022595D02*
G01*
X9544050Y-5022595D01*
X9447784Y-6324600D02*
G01*
X9556750Y-6324600D01*
X9447784Y-6324600D02*
G01*
X9447784Y-6277863D01*
X9452863Y-6262370D01*
X9458197Y-6257036D01*
X9468611Y-6251956D01*
X9484106Y-6251956D01*
X9494520Y-6257036D01*
X9499600Y-6262370D01*
X9504934Y-6277863D01*
X9504934Y-6324600D01*
X9447784Y-6155181D02*
G01*
X9447784Y-6207252D01*
X9494520Y-6212331D01*
X9489440Y-6207252D01*
X9484106Y-6191504D01*
X9484106Y-6176009D01*
X9489440Y-6160515D01*
X9499600Y-6150102D01*
X9515347Y-6144768D01*
X9525761Y-6144768D01*
X9541256Y-6150102D01*
X9551670Y-6160515D01*
X9556750Y-6176009D01*
X9556750Y-6191504D01*
X9551670Y-6207252D01*
X9546590Y-6212331D01*
X9536175Y-6217665D01*
X2831084Y-6692900D02*
G01*
X2940050Y-6692900D01*
X2831084Y-6620256D02*
G01*
X2940050Y-6620256D01*
X2882900Y-6692900D02*
G01*
X2882900Y-6620256D01*
X2831084Y-6575552D02*
G01*
X2831084Y-6518402D01*
X2872740Y-6549390D01*
X2872740Y-6533895D01*
X2877820Y-6523481D01*
X2882900Y-6518402D01*
X2898647Y-6513068D01*
X2909061Y-6513068D01*
X2924556Y-6518402D01*
X2934970Y-6528815D01*
X2940050Y-6544309D01*
X2940050Y-6559804D01*
X2934970Y-6575552D01*
X2929890Y-6580631D01*
X2919475Y-6585965D01*
X2831084Y-7277100D02*
G01*
X2940050Y-7277100D01*
X2831084Y-7204456D02*
G01*
X2940050Y-7204456D01*
X2882900Y-7277100D02*
G01*
X2882900Y-7204456D01*
X2831084Y-7118095D02*
G01*
X2903727Y-7170165D01*
X2903727Y-7092188D01*
X2831084Y-7118095D02*
G01*
X2940050Y-7118095D01*
X4597400Y-2538984D02*
G01*
X4597400Y-2616962D01*
X4602479Y-2632455D01*
X4612893Y-2642870D01*
X4628641Y-2647950D01*
X4639056Y-2647950D01*
X4654550Y-2642870D01*
X4664963Y-2632455D01*
X4670043Y-2616962D01*
X4670043Y-2538984D01*
X4714747Y-2538984D02*
G01*
X4771897Y-2538984D01*
X4740909Y-2580639D01*
X4756404Y-2580639D01*
X4766818Y-2585720D01*
X4771897Y-2590800D01*
X4777231Y-2606547D01*
X4777231Y-2616962D01*
X4771897Y-2632455D01*
X4761484Y-2642870D01*
X4745990Y-2647950D01*
X4730495Y-2647950D01*
X4714747Y-2642870D01*
X4709668Y-2637789D01*
X4704334Y-2627376D01*
X4212843Y-5424677D02*
G01*
X4202429Y-5414263D01*
X4186936Y-5409184D01*
X4166108Y-5409184D01*
X4150613Y-5414263D01*
X4140200Y-5424677D01*
X4140200Y-5435091D01*
X4145279Y-5445506D01*
X4150613Y-5450840D01*
X4161027Y-5455920D01*
X4192270Y-5466334D01*
X4202429Y-5471413D01*
X4207763Y-5476747D01*
X4212843Y-5487161D01*
X4212843Y-5502656D01*
X4202429Y-5513070D01*
X4186936Y-5518150D01*
X4166108Y-5518150D01*
X4150613Y-5513070D01*
X4140200Y-5502656D01*
X4247134Y-5409184D02*
G01*
X4273295Y-5518150D01*
X4299204Y-5409184D02*
G01*
X4273295Y-5518150D01*
X4299204Y-5409184D02*
G01*
X4325111Y-5518150D01*
X4351020Y-5409184D02*
G01*
X4325111Y-5518150D01*
X4385309Y-5430011D02*
G01*
X4395724Y-5424677D01*
X4411472Y-5409184D01*
X4411472Y-5518150D01*
X3696723Y-1460505D02*
G01*
X3618745Y-1460505D01*
X3603251Y-1465585D01*
X3592837Y-1475999D01*
X3587757Y-1491747D01*
X3587757Y-1502161D01*
X3592837Y-1517655D01*
X3603251Y-1528069D01*
X3618745Y-1533149D01*
X3696723Y-1533149D01*
X3675895Y-1567439D02*
G01*
X3681229Y-1577853D01*
X3696723Y-1593601D01*
X3587757Y-1593601D01*
X10108184Y-4584700D02*
G01*
X10217150Y-4584700D01*
X10108184Y-4584700D02*
G01*
X10217150Y-4543043D01*
X10108184Y-4501641D02*
G01*
X10217150Y-4543043D01*
X10108184Y-4501641D02*
G01*
X10217150Y-4501641D01*
X10108184Y-4436109D02*
G01*
X10113263Y-4446524D01*
X10123677Y-4456938D01*
X10134091Y-4462018D01*
X10149840Y-4467352D01*
X10175747Y-4467352D01*
X10191241Y-4462018D01*
X10201656Y-4456938D01*
X10212070Y-4446524D01*
X10217150Y-4436109D01*
X10217150Y-4415281D01*
X10212070Y-4404868D01*
X10201656Y-4394454D01*
X10191241Y-4389374D01*
X10175747Y-4384040D01*
X10149840Y-4384040D01*
X10134091Y-4389374D01*
X10123677Y-4394454D01*
X10113263Y-4404868D01*
X10108184Y-4415281D01*
X10108184Y-4436109D01*
X10108184Y-4313427D02*
G01*
X10217150Y-4313427D01*
X10108184Y-4349750D02*
G01*
X10108184Y-4277106D01*
X10108184Y-4211574D02*
G01*
X10113263Y-4221988D01*
X10123677Y-4232402D01*
X10134091Y-4237736D01*
X10149840Y-4242815D01*
X10175747Y-4242815D01*
X10191241Y-4237736D01*
X10201656Y-4232402D01*
X10212070Y-4221988D01*
X10217150Y-4211574D01*
X10217150Y-4191000D01*
X10212070Y-4180586D01*
X10201656Y-4170171D01*
X10191241Y-4164837D01*
X10175747Y-4159757D01*
X10149840Y-4159757D01*
X10134091Y-4164837D01*
X10123677Y-4170171D01*
X10113263Y-4180586D01*
X10108184Y-4191000D01*
X10108184Y-4211574D01*
X10108184Y-4125468D02*
G01*
X10217150Y-4125468D01*
X10108184Y-4125468D02*
G01*
X10108184Y-4078731D01*
X10113263Y-4062984D01*
X10118597Y-4057904D01*
X10129011Y-4052570D01*
X10139425Y-4052570D01*
X10149840Y-4057904D01*
X10154920Y-4062984D01*
X10160000Y-4078731D01*
X10160000Y-4125468D01*
X10160000Y-4089145D02*
G01*
X10217150Y-4052570D01*
X10108184Y-3938270D02*
G01*
X10217150Y-3938270D01*
X10108184Y-3938270D02*
G01*
X10108184Y-3891534D01*
X10113263Y-3876039D01*
X10118597Y-3870960D01*
X10129011Y-3865626D01*
X10144506Y-3865626D01*
X10154920Y-3870960D01*
X10160000Y-3876039D01*
X10165334Y-3891534D01*
X10165334Y-3938270D01*
X10108184Y-3800094D02*
G01*
X10113263Y-3810507D01*
X10123677Y-3820921D01*
X10134091Y-3826255D01*
X10149840Y-3831336D01*
X10175747Y-3831336D01*
X10191241Y-3826255D01*
X10201656Y-3820921D01*
X10212070Y-3810507D01*
X10217150Y-3800094D01*
X10217150Y-3779520D01*
X10212070Y-3769105D01*
X10201656Y-3758692D01*
X10191241Y-3753357D01*
X10175747Y-3748278D01*
X10149840Y-3748278D01*
X10134091Y-3753357D01*
X10123677Y-3758692D01*
X10113263Y-3769105D01*
X10108184Y-3779520D01*
X10108184Y-3800094D01*
X10108184Y-3713987D02*
G01*
X10217150Y-3688079D01*
X10108184Y-3661918D02*
G01*
X10217150Y-3688079D01*
X10108184Y-3661918D02*
G01*
X10217150Y-3636010D01*
X10108184Y-3610102D02*
G01*
X10217150Y-3636010D01*
X10108184Y-3575812D02*
G01*
X10217150Y-3575812D01*
X10108184Y-3575812D02*
G01*
X10108184Y-3508247D01*
X10160000Y-3575812D02*
G01*
X10160000Y-3534155D01*
X10217150Y-3575812D02*
G01*
X10217150Y-3508247D01*
X10108184Y-3473957D02*
G01*
X10217150Y-3473957D01*
X10108184Y-3473957D02*
G01*
X10108184Y-3427221D01*
X10113263Y-3411473D01*
X10118597Y-3406394D01*
X10129011Y-3401060D01*
X10139425Y-3401060D01*
X10149840Y-3406394D01*
X10154920Y-3411473D01*
X10160000Y-3427221D01*
X10160000Y-3473957D01*
X10160000Y-3437636D02*
G01*
X10217150Y-3401060D01*
X10273284Y-4038600D02*
G01*
X10382250Y-4038600D01*
X10273284Y-4038600D02*
G01*
X10273284Y-3991863D01*
X10278363Y-3976370D01*
X10283697Y-3971036D01*
X10294111Y-3965955D01*
X10309606Y-3965955D01*
X10320020Y-3971036D01*
X10325100Y-3976370D01*
X10330434Y-3991863D01*
X10330434Y-4038600D01*
X10294111Y-3931665D02*
G01*
X10288777Y-3921252D01*
X10273284Y-3905504D01*
X10382250Y-3905504D01*
X2896615Y-2807970D02*
G01*
X2823972Y-2755900D01*
X2823972Y-2833878D01*
X2896615Y-2807970D02*
G01*
X2787650Y-2807970D01*
X2896615Y-2940812D02*
G01*
X2787650Y-2888995D01*
X2896615Y-2868168D02*
G01*
X2896615Y-2940812D01*
X2860293Y-2975102D02*
G01*
X2808224Y-2975102D01*
X2792729Y-2980436D01*
X2787650Y-2990850D01*
X2787650Y-3006344D01*
X2792729Y-3016757D01*
X2808224Y-3032252D01*
X2860293Y-3032252D02*
G01*
X2787650Y-3032252D01*
X2896615Y-3108197D02*
G01*
X2896615Y-3097784D01*
X2891536Y-3087370D01*
X2875788Y-3082289D01*
X2787650Y-3082289D01*
X2860293Y-3066542D02*
G01*
X2860293Y-3102863D01*
X3303777Y-2475992D02*
G01*
X3298443Y-2465578D01*
X3288029Y-2455163D01*
X3277870Y-2450084D01*
X3257041Y-2450084D01*
X3246627Y-2455163D01*
X3236213Y-2465578D01*
X3230879Y-2475992D01*
X3225800Y-2491739D01*
X3225800Y-2517647D01*
X3230879Y-2533142D01*
X3236213Y-2543555D01*
X3246627Y-2553970D01*
X3257041Y-2559050D01*
X3277870Y-2559050D01*
X3288029Y-2553970D01*
X3298443Y-2543555D01*
X3303777Y-2533142D01*
X3338068Y-2470912D02*
G01*
X3348481Y-2465578D01*
X3363975Y-2450084D01*
X3363975Y-2559050D01*
X8764270Y-2043684D02*
G01*
X8712200Y-2116328D01*
X8790177Y-2116328D01*
X8764270Y-2043684D02*
G01*
X8764270Y-2152650D01*
X8897111Y-2043684D02*
G01*
X8845295Y-2152650D01*
X8824468Y-2043684D02*
G01*
X8897111Y-2043684D01*
X8931402Y-2080005D02*
G01*
X8931402Y-2132076D01*
X8936736Y-2147570D01*
X8947150Y-2152650D01*
X8962643Y-2152650D01*
X8973058Y-2147570D01*
X8988552Y-2132076D01*
X8988552Y-2080005D02*
G01*
X8988552Y-2152650D01*
X9064497Y-2043684D02*
G01*
X9054084Y-2043684D01*
X9043670Y-2048763D01*
X9038590Y-2064512D01*
X9038590Y-2152650D01*
X9022841Y-2080005D02*
G01*
X9059163Y-2080005D01*
X8879077Y-1879092D02*
G01*
X8873743Y-1868678D01*
X8863329Y-1858263D01*
X8853170Y-1853184D01*
X8832341Y-1853184D01*
X8821927Y-1858263D01*
X8811513Y-1868678D01*
X8806179Y-1879092D01*
X8801100Y-1894839D01*
X8801100Y-1920747D01*
X8806179Y-1936242D01*
X8811513Y-1946655D01*
X8821927Y-1957070D01*
X8832341Y-1962150D01*
X8853170Y-1962150D01*
X8863329Y-1957070D01*
X8873743Y-1946655D01*
X8879077Y-1936242D01*
X8918447Y-1879092D02*
G01*
X8918447Y-1874012D01*
X8923781Y-1863597D01*
X8928861Y-1858263D01*
X8939275Y-1853184D01*
X8960104Y-1853184D01*
X8970518Y-1858263D01*
X8975597Y-1863597D01*
X8980931Y-1874012D01*
X8980931Y-1884426D01*
X8975597Y-1894839D01*
X8965184Y-1910334D01*
X8913368Y-1962150D01*
X8986011Y-1962150D01*
X8802370Y-4710684D02*
G01*
X8750300Y-4783327D01*
X8828277Y-4783327D01*
X8802370Y-4710684D02*
G01*
X8802370Y-4819650D01*
X8935211Y-4710684D02*
G01*
X8883395Y-4819650D01*
X8862568Y-4710684D02*
G01*
X8935211Y-4710684D01*
X8969502Y-4747006D02*
G01*
X8969502Y-4799075D01*
X8974836Y-4814570D01*
X8985250Y-4819650D01*
X9000743Y-4819650D01*
X9011158Y-4814570D01*
X9026652Y-4799075D01*
X9026652Y-4747006D02*
G01*
X9026652Y-4819650D01*
X9102597Y-4710684D02*
G01*
X9092184Y-4710684D01*
X9081770Y-4715763D01*
X9076690Y-4731511D01*
X9076690Y-4819650D01*
X9060941Y-4747006D02*
G01*
X9097263Y-4747006D01*
X8840977Y-4939791D02*
G01*
X8835643Y-4929377D01*
X8825229Y-4918963D01*
X8815070Y-4913884D01*
X8794241Y-4913884D01*
X8783827Y-4918963D01*
X8773413Y-4929377D01*
X8768079Y-4939791D01*
X8763000Y-4955540D01*
X8763000Y-4981447D01*
X8768079Y-4996941D01*
X8773413Y-5007356D01*
X8783827Y-5017770D01*
X8794241Y-5022850D01*
X8815070Y-5022850D01*
X8825229Y-5017770D01*
X8835643Y-5007356D01*
X8840977Y-4996941D01*
X8885681Y-4913884D02*
G01*
X8942831Y-4913884D01*
X8911590Y-4955540D01*
X8927084Y-4955540D01*
X8937497Y-4960620D01*
X8942831Y-4965700D01*
X8947911Y-4981447D01*
X8947911Y-4991861D01*
X8942831Y-5007356D01*
X8932418Y-5017770D01*
X8916670Y-5022850D01*
X8901175Y-5022850D01*
X8885681Y-5017770D01*
X8880347Y-5012690D01*
X8875268Y-5002275D01*
X2096770Y-1002284D02*
G01*
X2096770Y-1085342D01*
X2091436Y-1101089D01*
X2086356Y-1106170D01*
X2075941Y-1111250D01*
X2065527Y-1111250D01*
X2055113Y-1106170D01*
X2049779Y-1101089D01*
X2044700Y-1085342D01*
X2044700Y-1074928D01*
X2131059Y-1002284D02*
G01*
X2131059Y-1111250D01*
X2131059Y-1002284D02*
G01*
X2177795Y-1002284D01*
X2193290Y-1007363D01*
X2198370Y-1012697D01*
X2203704Y-1023112D01*
X2203704Y-1038605D01*
X2198370Y-1049020D01*
X2193290Y-1054100D01*
X2177795Y-1059434D01*
X2131059Y-1059434D01*
X2237993Y-1023112D02*
G01*
X2248408Y-1017778D01*
X2263902Y-1002284D01*
X2263902Y-1111250D01*
X4495800Y-1683512D02*
G01*
X4506213Y-1678178D01*
X4521708Y-1662684D01*
X4521708Y-1771650D01*
X4587240Y-1662684D02*
G01*
X4571745Y-1667763D01*
X4561331Y-1683512D01*
X4555997Y-1709420D01*
X4555997Y-1724913D01*
X4561331Y-1751076D01*
X4571745Y-1766570D01*
X4587240Y-1771650D01*
X4597654Y-1771650D01*
X4613147Y-1766570D01*
X4623561Y-1751076D01*
X4628895Y-1724913D01*
X4628895Y-1709420D01*
X4623561Y-1683512D01*
X4613147Y-1667763D01*
X4597654Y-1662684D01*
X4587240Y-1662684D01*
X4663186Y-1662684D02*
G01*
X4663186Y-1771650D01*
X4715002Y-1699005D02*
G01*
X4663186Y-1751076D01*
X4683759Y-1730247D02*
G01*
X4720336Y-1771650D01*
X4533900Y-1205484D02*
G01*
X4533900Y-1314450D01*
X4533900Y-1205484D02*
G01*
X4580636Y-1205484D01*
X4596129Y-1210563D01*
X4601463Y-1215897D01*
X4606543Y-1226312D01*
X4606543Y-1236726D01*
X4601463Y-1247139D01*
X4596129Y-1252220D01*
X4580636Y-1257300D01*
X4533900Y-1257300D01*
X4570222Y-1257300D02*
G01*
X4606543Y-1314450D01*
X4646168Y-1231392D02*
G01*
X4646168Y-1226312D01*
X4651247Y-1215897D01*
X4656581Y-1210563D01*
X4666995Y-1205484D01*
X4687570Y-1205484D01*
X4697984Y-1210563D01*
X4703318Y-1215897D01*
X4708397Y-1226312D01*
X4708397Y-1236726D01*
X4703318Y-1247139D01*
X4692904Y-1262634D01*
X4640834Y-1314450D01*
X4713731Y-1314450D01*
X6654800Y-1484884D02*
G01*
X6654800Y-1562862D01*
X6659879Y-1578355D01*
X6670293Y-1588770D01*
X6686041Y-1593850D01*
X6696456Y-1593850D01*
X6711950Y-1588770D01*
X6722363Y-1578355D01*
X6727443Y-1562862D01*
X6727443Y-1484884D01*
X6761734Y-1505712D02*
G01*
X6772147Y-1500378D01*
X6787895Y-1484884D01*
X6787895Y-1593850D01*
X6822186Y-1547113D02*
G01*
X6915658Y-1547113D01*
X6991350Y-1484884D02*
G01*
X6949947Y-1593850D01*
X6991350Y-1484884D02*
G01*
X7033006Y-1593850D01*
X6965441Y-1557528D02*
G01*
X7017511Y-1557528D01*
X7139940Y-1484884D02*
G01*
X7067295Y-1593850D01*
X7067295Y-1484884D02*
G01*
X7139940Y-1484884D01*
X7067295Y-1593850D02*
G01*
X7139940Y-1593850D01*
X7174229Y-1484884D02*
G01*
X7174229Y-1593850D01*
X7208520Y-1484884D02*
G01*
X7208520Y-1593850D01*
X7208520Y-1484884D02*
G01*
X7250175Y-1593850D01*
X7291831Y-1484884D02*
G01*
X7250175Y-1593850D01*
X7291831Y-1484884D02*
G01*
X7291831Y-1593850D01*
X7326122Y-1484884D02*
G01*
X7326122Y-1562862D01*
X7331202Y-1578355D01*
X7341615Y-1588770D01*
X7357109Y-1593850D01*
X7367524Y-1593850D01*
X7383272Y-1588770D01*
X7393686Y-1578355D01*
X7398765Y-1562862D01*
X7398765Y-1484884D01*
X7469377Y-1484884D02*
G01*
X7469377Y-1593850D01*
X7433056Y-1484884D02*
G01*
X7505700Y-1484884D01*
X7539990Y-1484884D02*
G01*
X7539990Y-1593850D01*
X7612888Y-1484884D02*
G01*
X7612888Y-1593850D01*
X7539990Y-1536700D02*
G01*
X7612888Y-1536700D01*
D10*
X6642100Y-1963928D02*
G01*
X6642100Y-2060955D01*
X6642100Y-1963928D02*
G01*
X6678929Y-2060955D01*
X6716013Y-1963928D02*
G01*
X6678929Y-2060955D01*
X6716013Y-1963928D02*
G01*
X6716013Y-2060955D01*
X6811009Y-1977644D02*
G01*
X6801865Y-1968500D01*
X6788150Y-1963928D01*
X6769608Y-1963928D01*
X6755638Y-1968500D01*
X6746493Y-1977644D01*
X6746493Y-1987042D01*
X6751065Y-1996186D01*
X6755638Y-2000757D01*
X6765036Y-2005329D01*
X6792722Y-2014728D01*
X6801865Y-2019300D01*
X6806438Y-2023871D01*
X6811009Y-2033270D01*
X6811009Y-2046986D01*
X6801865Y-2056129D01*
X6788150Y-2060955D01*
X6769608Y-2060955D01*
X6755638Y-2056129D01*
X6746493Y-2046986D01*
X6841490Y-1982470D02*
G01*
X6850888Y-1977644D01*
X6864604Y-1963928D01*
X6864604Y-2060955D01*
X6642100Y-2217928D02*
G01*
X6642100Y-2314955D01*
X6642100Y-2217928D02*
G01*
X6678929Y-2314955D01*
X6716013Y-2217928D02*
G01*
X6678929Y-2314955D01*
X6716013Y-2217928D02*
G01*
X6716013Y-2314955D01*
X6811009Y-2231644D02*
G01*
X6801865Y-2222500D01*
X6788150Y-2217928D01*
X6769608Y-2217928D01*
X6755638Y-2222500D01*
X6746493Y-2231644D01*
X6746493Y-2241042D01*
X6751065Y-2250186D01*
X6755638Y-2254757D01*
X6765036Y-2259329D01*
X6792722Y-2268728D01*
X6801865Y-2273300D01*
X6806438Y-2277871D01*
X6811009Y-2287270D01*
X6811009Y-2300986D01*
X6801865Y-2310129D01*
X6788150Y-2314955D01*
X6769608Y-2314955D01*
X6755638Y-2310129D01*
X6746493Y-2300986D01*
X6846315Y-2241042D02*
G01*
X6846315Y-2236470D01*
X6850888Y-2227071D01*
X6855459Y-2222500D01*
X6864604Y-2217928D01*
X6883145Y-2217928D01*
X6892290Y-2222500D01*
X6897115Y-2227071D01*
X6901688Y-2236470D01*
X6901688Y-2245613D01*
X6897115Y-2254757D01*
X6887718Y-2268728D01*
X6841490Y-2314955D01*
X6906259Y-2314955D01*
X6642100Y-2471928D02*
G01*
X6642100Y-2568955D01*
X6642100Y-2471928D02*
G01*
X6678929Y-2568955D01*
X6716013Y-2471928D02*
G01*
X6678929Y-2568955D01*
X6716013Y-2471928D02*
G01*
X6716013Y-2568955D01*
X6811009Y-2485644D02*
G01*
X6801865Y-2476500D01*
X6788150Y-2471928D01*
X6769608Y-2471928D01*
X6755638Y-2476500D01*
X6746493Y-2485644D01*
X6746493Y-2495042D01*
X6751065Y-2504186D01*
X6755638Y-2508757D01*
X6765036Y-2513329D01*
X6792722Y-2522728D01*
X6801865Y-2527300D01*
X6806438Y-2531871D01*
X6811009Y-2541270D01*
X6811009Y-2554986D01*
X6801865Y-2564129D01*
X6788150Y-2568955D01*
X6769608Y-2568955D01*
X6755638Y-2564129D01*
X6746493Y-2554986D01*
X6850888Y-2471928D02*
G01*
X6901688Y-2471928D01*
X6874002Y-2508757D01*
X6887718Y-2508757D01*
X6897115Y-2513329D01*
X6901688Y-2518155D01*
X6906259Y-2531871D01*
X6906259Y-2541270D01*
X6901688Y-2554986D01*
X6892290Y-2564129D01*
X6878574Y-2568955D01*
X6864604Y-2568955D01*
X6850888Y-2564129D01*
X6846315Y-2559557D01*
X6841490Y-2550413D01*
X6706870Y-3247644D02*
G01*
X6697472Y-3238500D01*
X6683756Y-3233928D01*
X6665213Y-3233928D01*
X6651243Y-3238500D01*
X6642100Y-3247644D01*
X6642100Y-3257042D01*
X6646672Y-3266186D01*
X6651243Y-3270757D01*
X6660641Y-3275329D01*
X6688327Y-3284728D01*
X6697472Y-3289300D01*
X6702043Y-3293871D01*
X6706870Y-3303270D01*
X6706870Y-3316986D01*
X6697472Y-3326129D01*
X6683756Y-3330955D01*
X6665213Y-3330955D01*
X6651243Y-3326129D01*
X6642100Y-3316986D01*
X6769608Y-3233928D02*
G01*
X6769608Y-3330955D01*
X6737350Y-3233928D02*
G01*
X6801865Y-3233928D01*
X6832345Y-3233928D02*
G01*
X6832345Y-3330955D01*
X6832345Y-3233928D02*
G01*
X6892290Y-3233928D01*
X6832345Y-3280155D02*
G01*
X6869429Y-3280155D01*
X6832345Y-3330955D02*
G01*
X6892290Y-3330955D01*
X6922770Y-3233928D02*
G01*
X6922770Y-3330955D01*
X6922770Y-3233928D02*
G01*
X6964425Y-3233928D01*
X6978395Y-3238500D01*
X6982968Y-3243071D01*
X6987540Y-3252470D01*
X6987540Y-3266186D01*
X6982968Y-3275329D01*
X6978395Y-3280155D01*
X6964425Y-3284728D01*
X6922770Y-3284728D01*
X6642100Y-3487928D02*
G01*
X6642100Y-3584955D01*
X6642100Y-3487928D02*
G01*
X6674358Y-3487928D01*
X6688327Y-3492500D01*
X6697472Y-3501644D01*
X6702043Y-3511042D01*
X6706870Y-3524757D01*
X6706870Y-3547871D01*
X6702043Y-3561842D01*
X6697472Y-3570986D01*
X6688327Y-3580129D01*
X6674358Y-3584955D01*
X6642100Y-3584955D01*
X6737350Y-3487928D02*
G01*
X6737350Y-3584955D01*
X6767829Y-3487928D02*
G01*
X6767829Y-3584955D01*
X6767829Y-3487928D02*
G01*
X6809231Y-3487928D01*
X6823202Y-3492500D01*
X6827774Y-3497071D01*
X6832345Y-3506470D01*
X6832345Y-3515613D01*
X6827774Y-3524757D01*
X6823202Y-3529329D01*
X6809231Y-3534155D01*
X6767829Y-3534155D01*
X6800088Y-3534155D02*
G01*
X6832345Y-3584955D01*
X7498841Y-3511042D02*
G01*
X7494270Y-3501644D01*
X7484872Y-3492500D01*
X7475727Y-3487928D01*
X7457186Y-3487928D01*
X7448041Y-3492500D01*
X7438643Y-3501644D01*
X7434072Y-3511042D01*
X7429500Y-3524757D01*
X7429500Y-3547871D01*
X7434072Y-3561842D01*
X7438643Y-3570986D01*
X7448041Y-3580129D01*
X7457186Y-3584955D01*
X7475727Y-3584955D01*
X7484872Y-3580129D01*
X7494270Y-3570986D01*
X7498841Y-3561842D01*
X7498841Y-3547871D01*
X7475727Y-3547871D02*
G01*
X7498841Y-3547871D01*
X7529322Y-3487928D02*
G01*
X7529322Y-3584955D01*
X7529322Y-3487928D02*
G01*
X7593838Y-3584955D01*
X7593838Y-3487928D02*
G01*
X7593838Y-3584955D01*
X7624318Y-3487928D02*
G01*
X7624318Y-3584955D01*
X7624318Y-3487928D02*
G01*
X7656829Y-3487928D01*
X7670545Y-3492500D01*
X7679690Y-3501644D01*
X7684515Y-3511042D01*
X7689088Y-3524757D01*
X7689088Y-3547871D01*
X7684515Y-3561842D01*
X7679690Y-3570986D01*
X7670545Y-3580129D01*
X7656829Y-3584955D01*
X7624318Y-3584955D01*
X7353300Y-3233928D02*
G01*
X7353300Y-3330955D01*
X7353300Y-3233928D02*
G01*
X7413243Y-3233928D01*
X7353300Y-3280155D02*
G01*
X7390129Y-3280155D01*
X7480808Y-3233928D02*
G01*
X7443724Y-3330955D01*
X7480808Y-3233928D02*
G01*
X7517638Y-3330955D01*
X7457693Y-3298444D02*
G01*
X7503922Y-3298444D01*
X7548118Y-3233928D02*
G01*
X7548118Y-3330955D01*
X7548118Y-3330955D02*
G01*
X7603490Y-3330955D01*
X7666481Y-3233928D02*
G01*
X7666481Y-3330955D01*
X7633970Y-3233928D02*
G01*
X7698740Y-3233928D01*
X7466329Y-2979928D02*
G01*
X7429500Y-3076955D01*
X7466329Y-2979928D02*
G01*
X7503413Y-3076955D01*
X7443470Y-3044444D02*
G01*
X7489443Y-3044444D01*
X7538465Y-3003042D02*
G01*
X7538465Y-2998470D01*
X7543038Y-2989071D01*
X7547609Y-2984500D01*
X7557008Y-2979928D01*
X7575550Y-2979928D01*
X7584693Y-2984500D01*
X7589265Y-2989071D01*
X7593838Y-2998470D01*
X7593838Y-3007613D01*
X7589265Y-3016757D01*
X7580122Y-3030728D01*
X7533893Y-3076955D01*
X7598409Y-3076955D01*
X7466329Y-2725928D02*
G01*
X7429500Y-2822955D01*
X7466329Y-2725928D02*
G01*
X7503413Y-2822955D01*
X7443470Y-2790444D02*
G01*
X7489443Y-2790444D01*
X7533893Y-2744470D02*
G01*
X7543038Y-2739644D01*
X7557008Y-2725928D01*
X7557008Y-2822955D01*
X7429500Y-2471928D02*
G01*
X7429500Y-2568955D01*
X7429500Y-2471928D02*
G01*
X7471156Y-2471928D01*
X7484872Y-2476500D01*
X7489443Y-2481071D01*
X7494270Y-2490470D01*
X7494270Y-2499613D01*
X7489443Y-2508757D01*
X7484872Y-2513329D01*
X7471156Y-2518155D01*
X7429500Y-2518155D02*
G01*
X7471156Y-2518155D01*
X7484872Y-2522728D01*
X7489443Y-2527300D01*
X7494270Y-2536444D01*
X7494270Y-2550413D01*
X7489443Y-2559557D01*
X7484872Y-2564129D01*
X7471156Y-2568955D01*
X7429500Y-2568955D01*
X7524750Y-2490470D02*
G01*
X7533893Y-2485644D01*
X7547609Y-2471928D01*
X7547609Y-2568955D01*
X7429500Y-2217928D02*
G01*
X7429500Y-2314955D01*
X7429500Y-2217928D02*
G01*
X7471156Y-2217928D01*
X7484872Y-2222500D01*
X7489443Y-2227071D01*
X7494270Y-2236470D01*
X7494270Y-2245613D01*
X7489443Y-2254757D01*
X7484872Y-2259329D01*
X7471156Y-2264155D01*
X7429500Y-2264155D02*
G01*
X7471156Y-2264155D01*
X7484872Y-2268728D01*
X7489443Y-2273300D01*
X7494270Y-2282444D01*
X7494270Y-2296413D01*
X7489443Y-2305557D01*
X7484872Y-2310129D01*
X7471156Y-2314955D01*
X7429500Y-2314955D01*
X7529322Y-2241042D02*
G01*
X7529322Y-2236470D01*
X7533893Y-2227071D01*
X7538465Y-2222500D01*
X7547609Y-2217928D01*
X7566152Y-2217928D01*
X7575550Y-2222500D01*
X7580122Y-2227071D01*
X7584693Y-2236470D01*
X7584693Y-2245613D01*
X7580122Y-2254757D01*
X7570724Y-2268728D01*
X7524750Y-2314955D01*
X7589265Y-2314955D01*
X7498841Y-1987042D02*
G01*
X7494270Y-1977644D01*
X7484872Y-1968500D01*
X7475727Y-1963928D01*
X7457186Y-1963928D01*
X7448041Y-1968500D01*
X7438643Y-1977644D01*
X7434072Y-1987042D01*
X7429500Y-2000757D01*
X7429500Y-2023871D01*
X7434072Y-2037842D01*
X7438643Y-2046986D01*
X7448041Y-2056129D01*
X7457186Y-2060955D01*
X7475727Y-2060955D01*
X7484872Y-2056129D01*
X7494270Y-2046986D01*
X7498841Y-2037842D01*
X7498841Y-2023871D01*
X7475727Y-2023871D02*
G01*
X7498841Y-2023871D01*
X7529322Y-1963928D02*
G01*
X7529322Y-2060955D01*
X7529322Y-1963928D02*
G01*
X7593838Y-2060955D01*
X7593838Y-1963928D02*
G01*
X7593838Y-2060955D01*
X7624318Y-1963928D02*
G01*
X7624318Y-2060955D01*
X7624318Y-1963928D02*
G01*
X7656829Y-1963928D01*
X7670545Y-1968500D01*
X7679690Y-1977644D01*
X7684515Y-1987042D01*
X7689088Y-2000757D01*
X7689088Y-2023871D01*
X7684515Y-2037842D01*
X7679690Y-2046986D01*
X7670545Y-2056129D01*
X7656829Y-2060955D01*
X7624318Y-2060955D01*
X7327900Y-1709928D02*
G01*
X7364729Y-1806955D01*
X7401813Y-1709928D02*
G01*
X7364729Y-1806955D01*
X7432293Y-1709928D02*
G01*
X7432293Y-1806955D01*
X7432293Y-1709928D02*
G01*
X7469124Y-1806955D01*
X7506208Y-1709928D02*
G01*
X7469124Y-1806955D01*
X7506208Y-1709928D02*
G01*
X7506208Y-1806955D01*
X7564374Y-1709928D02*
G01*
X7555229Y-1714500D01*
X7545831Y-1723644D01*
X7541259Y-1733042D01*
X7536688Y-1746757D01*
X7536688Y-1769871D01*
X7541259Y-1783842D01*
X7545831Y-1792986D01*
X7555229Y-1802129D01*
X7564374Y-1806955D01*
X7582915Y-1806955D01*
X7592059Y-1802129D01*
X7601204Y-1792986D01*
X7606029Y-1783842D01*
X7610602Y-1769871D01*
X7610602Y-1746757D01*
X7606029Y-1733042D01*
X7601204Y-1723644D01*
X7592059Y-1714500D01*
X7582915Y-1709928D01*
X7564374Y-1709928D01*
X7673340Y-1709928D02*
G01*
X7673340Y-1806955D01*
X7641081Y-1709928D02*
G01*
X7705597Y-1709928D01*
X6642100Y-1709928D02*
G01*
X6642100Y-1806955D01*
X6642100Y-1709928D02*
G01*
X6702043Y-1709928D01*
X6642100Y-1756155D02*
G01*
X6678929Y-1756155D01*
X6642100Y-1806955D02*
G01*
X6702043Y-1806955D01*
X6732524Y-1709928D02*
G01*
X6732524Y-1806955D01*
X6732524Y-1709928D02*
G01*
X6797293Y-1806955D01*
X6797293Y-1709928D02*
G01*
X6797293Y-1806955D01*
X6642100Y-2725928D02*
G01*
X6642100Y-2822955D01*
X6642100Y-2725928D02*
G01*
X6683756Y-2725928D01*
X6697472Y-2730500D01*
X6702043Y-2735071D01*
X6706870Y-2744470D01*
X6706870Y-2753613D01*
X6702043Y-2762757D01*
X6697472Y-2767329D01*
X6683756Y-2772155D01*
X6642100Y-2772155D01*
X6674358Y-2772155D02*
G01*
X6706870Y-2822955D01*
X6801865Y-2739644D02*
G01*
X6792722Y-2730500D01*
X6778752Y-2725928D01*
X6760209Y-2725928D01*
X6746493Y-2730500D01*
X6737350Y-2739644D01*
X6737350Y-2749042D01*
X6741922Y-2758186D01*
X6746493Y-2762757D01*
X6755638Y-2767329D01*
X6783324Y-2776728D01*
X6792722Y-2781300D01*
X6797293Y-2785871D01*
X6801865Y-2795270D01*
X6801865Y-2808986D01*
X6792722Y-2818129D01*
X6778752Y-2822955D01*
X6760209Y-2822955D01*
X6746493Y-2818129D01*
X6737350Y-2808986D01*
X6864604Y-2725928D02*
G01*
X6864604Y-2822955D01*
X6832345Y-2725928D02*
G01*
X6897115Y-2725928D01*
X6706870Y-2993644D02*
G01*
X6697472Y-2984500D01*
X6683756Y-2979928D01*
X6665213Y-2979928D01*
X6651243Y-2984500D01*
X6642100Y-2993644D01*
X6642100Y-3003042D01*
X6646672Y-3012186D01*
X6651243Y-3016757D01*
X6660641Y-3021329D01*
X6688327Y-3030728D01*
X6697472Y-3035300D01*
X6702043Y-3039871D01*
X6706870Y-3049270D01*
X6706870Y-3062986D01*
X6697472Y-3072129D01*
X6683756Y-3076955D01*
X6665213Y-3076955D01*
X6651243Y-3072129D01*
X6642100Y-3062986D01*
X6737350Y-2979928D02*
G01*
X6737350Y-3076955D01*
X6737350Y-3076955D02*
G01*
X6792722Y-3076955D01*
X6823202Y-2979928D02*
G01*
X6823202Y-3076955D01*
X6823202Y-2979928D02*
G01*
X6864604Y-2979928D01*
X6878574Y-2984500D01*
X6883145Y-2989071D01*
X6887718Y-2998470D01*
X6887718Y-3012186D01*
X6883145Y-3021329D01*
X6878574Y-3026155D01*
X6864604Y-3030728D01*
X6823202Y-3030728D01*
D13*
X6642100Y-4507484D02*
G01*
X6642100Y-4585461D01*
X6647179Y-4600956D01*
X6657593Y-4611370D01*
X6673341Y-4616450D01*
X6683756Y-4616450D01*
X6699250Y-4611370D01*
X6709663Y-4600956D01*
X6714743Y-4585461D01*
X6714743Y-4507484D01*
X6754368Y-4533391D02*
G01*
X6754368Y-4528311D01*
X6759447Y-4517897D01*
X6764781Y-4512563D01*
X6775195Y-4507484D01*
X6795770Y-4507484D01*
X6806184Y-4512563D01*
X6811518Y-4517897D01*
X6816597Y-4528311D01*
X6816597Y-4538725D01*
X6811518Y-4549140D01*
X6801104Y-4564634D01*
X6749034Y-4616450D01*
X6821931Y-4616450D01*
X6856222Y-4569713D02*
G01*
X6949693Y-4569713D01*
X7025640Y-4507484D02*
G01*
X6983984Y-4616450D01*
X7025640Y-4507484D02*
G01*
X7067041Y-4616450D01*
X6999477Y-4580127D02*
G01*
X7051547Y-4580127D01*
X7101331Y-4507484D02*
G01*
X7101331Y-4616450D01*
X7101331Y-4616450D02*
G01*
X7163815Y-4616450D01*
X7234427Y-4507484D02*
G01*
X7234427Y-4616450D01*
X7198106Y-4507484D02*
G01*
X7270750Y-4507484D01*
X7305040Y-4507484D02*
G01*
X7305040Y-4616450D01*
X7375652Y-4507484D02*
G01*
X7375652Y-4616450D01*
X7339329Y-4507484D02*
G01*
X7411974Y-4507484D01*
X7446263Y-4507484D02*
G01*
X7446263Y-4585461D01*
X7451597Y-4600956D01*
X7462011Y-4611370D01*
X7477506Y-4616450D01*
X7487920Y-4616450D01*
X7503413Y-4611370D01*
X7513827Y-4600956D01*
X7519161Y-4585461D01*
X7519161Y-4507484D01*
X7553452Y-4507484D02*
G01*
X7553452Y-4616450D01*
X7553452Y-4507484D02*
G01*
X7589774Y-4507484D01*
X7605268Y-4512563D01*
X7615681Y-4522977D01*
X7621015Y-4533391D01*
X7626095Y-4549140D01*
X7626095Y-4575047D01*
X7621015Y-4590541D01*
X7615681Y-4600956D01*
X7605268Y-4611370D01*
X7589774Y-4616450D01*
X7553452Y-4616450D01*
X7660386Y-4507484D02*
G01*
X7660386Y-4616450D01*
X7660386Y-4507484D02*
G01*
X7727950Y-4507484D01*
X7660386Y-4559300D02*
G01*
X7702041Y-4559300D01*
X7660386Y-4616450D02*
G01*
X7727950Y-4616450D01*
D10*
X6642100Y-5011927D02*
G01*
X6642100Y-5108956D01*
X6642100Y-5011927D02*
G01*
X6678929Y-5108956D01*
X6716013Y-5011927D02*
G01*
X6678929Y-5108956D01*
X6716013Y-5011927D02*
G01*
X6716013Y-5108956D01*
X6811009Y-5025643D02*
G01*
X6801865Y-5016500D01*
X6788150Y-5011927D01*
X6769608Y-5011927D01*
X6755638Y-5016500D01*
X6746493Y-5025643D01*
X6746493Y-5035041D01*
X6751065Y-5044186D01*
X6755638Y-5048758D01*
X6765036Y-5053329D01*
X6792722Y-5062727D01*
X6801865Y-5067300D01*
X6806438Y-5071872D01*
X6811009Y-5081270D01*
X6811009Y-5094986D01*
X6801865Y-5104129D01*
X6788150Y-5108956D01*
X6769608Y-5108956D01*
X6755638Y-5104129D01*
X6746493Y-5094986D01*
X6841490Y-5030470D02*
G01*
X6850888Y-5025643D01*
X6864604Y-5011927D01*
X6864604Y-5108956D01*
X6642100Y-5265927D02*
G01*
X6642100Y-5362956D01*
X6642100Y-5265927D02*
G01*
X6678929Y-5362956D01*
X6716013Y-5265927D02*
G01*
X6678929Y-5362956D01*
X6716013Y-5265927D02*
G01*
X6716013Y-5362956D01*
X6811009Y-5279643D02*
G01*
X6801865Y-5270500D01*
X6788150Y-5265927D01*
X6769608Y-5265927D01*
X6755638Y-5270500D01*
X6746493Y-5279643D01*
X6746493Y-5289041D01*
X6751065Y-5298186D01*
X6755638Y-5302758D01*
X6765036Y-5307329D01*
X6792722Y-5316727D01*
X6801865Y-5321300D01*
X6806438Y-5325872D01*
X6811009Y-5335270D01*
X6811009Y-5348986D01*
X6801865Y-5358129D01*
X6788150Y-5362956D01*
X6769608Y-5362956D01*
X6755638Y-5358129D01*
X6746493Y-5348986D01*
X6846315Y-5289041D02*
G01*
X6846315Y-5284470D01*
X6850888Y-5275072D01*
X6855459Y-5270500D01*
X6864604Y-5265927D01*
X6883145Y-5265927D01*
X6892290Y-5270500D01*
X6897115Y-5275072D01*
X6901688Y-5284470D01*
X6901688Y-5293613D01*
X6897115Y-5302758D01*
X6887718Y-5316727D01*
X6841490Y-5362956D01*
X6906259Y-5362956D01*
X6642100Y-5519927D02*
G01*
X6642100Y-5616956D01*
X6642100Y-5519927D02*
G01*
X6678929Y-5616956D01*
X6716013Y-5519927D02*
G01*
X6678929Y-5616956D01*
X6716013Y-5519927D02*
G01*
X6716013Y-5616956D01*
X6811009Y-5533643D02*
G01*
X6801865Y-5524500D01*
X6788150Y-5519927D01*
X6769608Y-5519927D01*
X6755638Y-5524500D01*
X6746493Y-5533643D01*
X6746493Y-5543041D01*
X6751065Y-5552186D01*
X6755638Y-5556758D01*
X6765036Y-5561329D01*
X6792722Y-5570727D01*
X6801865Y-5575300D01*
X6806438Y-5579872D01*
X6811009Y-5589270D01*
X6811009Y-5602986D01*
X6801865Y-5612129D01*
X6788150Y-5616956D01*
X6769608Y-5616956D01*
X6755638Y-5612129D01*
X6746493Y-5602986D01*
X6850888Y-5519927D02*
G01*
X6901688Y-5519927D01*
X6874002Y-5556758D01*
X6887718Y-5556758D01*
X6897115Y-5561329D01*
X6901688Y-5566156D01*
X6906259Y-5579872D01*
X6906259Y-5589270D01*
X6901688Y-5602986D01*
X6892290Y-5612129D01*
X6878574Y-5616956D01*
X6864604Y-5616956D01*
X6850888Y-5612129D01*
X6846315Y-5607558D01*
X6841490Y-5598413D01*
X6706870Y-6295643D02*
G01*
X6697472Y-6286500D01*
X6683756Y-6281927D01*
X6665213Y-6281927D01*
X6651243Y-6286500D01*
X6642100Y-6295643D01*
X6642100Y-6305041D01*
X6646672Y-6314186D01*
X6651243Y-6318758D01*
X6660641Y-6323329D01*
X6688327Y-6332727D01*
X6697472Y-6337300D01*
X6702043Y-6341872D01*
X6706870Y-6351270D01*
X6706870Y-6364986D01*
X6697472Y-6374129D01*
X6683756Y-6378956D01*
X6665213Y-6378956D01*
X6651243Y-6374129D01*
X6642100Y-6364986D01*
X6769608Y-6281927D02*
G01*
X6769608Y-6378956D01*
X6737350Y-6281927D02*
G01*
X6801865Y-6281927D01*
X6832345Y-6281927D02*
G01*
X6832345Y-6378956D01*
X6832345Y-6281927D02*
G01*
X6892290Y-6281927D01*
X6832345Y-6328156D02*
G01*
X6869429Y-6328156D01*
X6832345Y-6378956D02*
G01*
X6892290Y-6378956D01*
X6922770Y-6281927D02*
G01*
X6922770Y-6378956D01*
X6922770Y-6281927D02*
G01*
X6964425Y-6281927D01*
X6978395Y-6286500D01*
X6982968Y-6291072D01*
X6987540Y-6300470D01*
X6987540Y-6314186D01*
X6982968Y-6323329D01*
X6978395Y-6328156D01*
X6964425Y-6332727D01*
X6922770Y-6332727D01*
X6642100Y-6535927D02*
G01*
X6642100Y-6632956D01*
X6642100Y-6535927D02*
G01*
X6674358Y-6535927D01*
X6688327Y-6540500D01*
X6697472Y-6549643D01*
X6702043Y-6559041D01*
X6706870Y-6572758D01*
X6706870Y-6595872D01*
X6702043Y-6609841D01*
X6697472Y-6618986D01*
X6688327Y-6628129D01*
X6674358Y-6632956D01*
X6642100Y-6632956D01*
X6737350Y-6535927D02*
G01*
X6737350Y-6632956D01*
X6767829Y-6535927D02*
G01*
X6767829Y-6632956D01*
X6767829Y-6535927D02*
G01*
X6809231Y-6535927D01*
X6823202Y-6540500D01*
X6827774Y-6545072D01*
X6832345Y-6554470D01*
X6832345Y-6563613D01*
X6827774Y-6572758D01*
X6823202Y-6577329D01*
X6809231Y-6582156D01*
X6767829Y-6582156D01*
X6800088Y-6582156D02*
G01*
X6832345Y-6632956D01*
X7498841Y-6559041D02*
G01*
X7494270Y-6549643D01*
X7484872Y-6540500D01*
X7475727Y-6535927D01*
X7457186Y-6535927D01*
X7448041Y-6540500D01*
X7438643Y-6549643D01*
X7434072Y-6559041D01*
X7429500Y-6572758D01*
X7429500Y-6595872D01*
X7434072Y-6609841D01*
X7438643Y-6618986D01*
X7448041Y-6628129D01*
X7457186Y-6632956D01*
X7475727Y-6632956D01*
X7484872Y-6628129D01*
X7494270Y-6618986D01*
X7498841Y-6609841D01*
X7498841Y-6595872D01*
X7475727Y-6595872D02*
G01*
X7498841Y-6595872D01*
X7529322Y-6535927D02*
G01*
X7529322Y-6632956D01*
X7529322Y-6535927D02*
G01*
X7593838Y-6632956D01*
X7593838Y-6535927D02*
G01*
X7593838Y-6632956D01*
X7624318Y-6535927D02*
G01*
X7624318Y-6632956D01*
X7624318Y-6535927D02*
G01*
X7656829Y-6535927D01*
X7670545Y-6540500D01*
X7679690Y-6549643D01*
X7684515Y-6559041D01*
X7689088Y-6572758D01*
X7689088Y-6595872D01*
X7684515Y-6609841D01*
X7679690Y-6618986D01*
X7670545Y-6628129D01*
X7656829Y-6632956D01*
X7624318Y-6632956D01*
X7353300Y-6281927D02*
G01*
X7353300Y-6378956D01*
X7353300Y-6281927D02*
G01*
X7413243Y-6281927D01*
X7353300Y-6328156D02*
G01*
X7390129Y-6328156D01*
X7480808Y-6281927D02*
G01*
X7443724Y-6378956D01*
X7480808Y-6281927D02*
G01*
X7517638Y-6378956D01*
X7457693Y-6346443D02*
G01*
X7503922Y-6346443D01*
X7548118Y-6281927D02*
G01*
X7548118Y-6378956D01*
X7548118Y-6378956D02*
G01*
X7603490Y-6378956D01*
X7666481Y-6281927D02*
G01*
X7666481Y-6378956D01*
X7633970Y-6281927D02*
G01*
X7698740Y-6281927D01*
X7466329Y-6027927D02*
G01*
X7429500Y-6124956D01*
X7466329Y-6027927D02*
G01*
X7503413Y-6124956D01*
X7443470Y-6092443D02*
G01*
X7489443Y-6092443D01*
X7538465Y-6051041D02*
G01*
X7538465Y-6046470D01*
X7543038Y-6037072D01*
X7547609Y-6032500D01*
X7557008Y-6027927D01*
X7575550Y-6027927D01*
X7584693Y-6032500D01*
X7589265Y-6037072D01*
X7593838Y-6046470D01*
X7593838Y-6055613D01*
X7589265Y-6064758D01*
X7580122Y-6078727D01*
X7533893Y-6124956D01*
X7598409Y-6124956D01*
X7466329Y-5773927D02*
G01*
X7429500Y-5870956D01*
X7466329Y-5773927D02*
G01*
X7503413Y-5870956D01*
X7443470Y-5838443D02*
G01*
X7489443Y-5838443D01*
X7533893Y-5792470D02*
G01*
X7543038Y-5787643D01*
X7557008Y-5773927D01*
X7557008Y-5870956D01*
X7429500Y-5519927D02*
G01*
X7429500Y-5616956D01*
X7429500Y-5519927D02*
G01*
X7471156Y-5519927D01*
X7484872Y-5524500D01*
X7489443Y-5529072D01*
X7494270Y-5538470D01*
X7494270Y-5547613D01*
X7489443Y-5556758D01*
X7484872Y-5561329D01*
X7471156Y-5566156D01*
X7429500Y-5566156D02*
G01*
X7471156Y-5566156D01*
X7484872Y-5570727D01*
X7489443Y-5575300D01*
X7494270Y-5584443D01*
X7494270Y-5598413D01*
X7489443Y-5607558D01*
X7484872Y-5612129D01*
X7471156Y-5616956D01*
X7429500Y-5616956D01*
X7524750Y-5538470D02*
G01*
X7533893Y-5533643D01*
X7547609Y-5519927D01*
X7547609Y-5616956D01*
X7429500Y-5265927D02*
G01*
X7429500Y-5362956D01*
X7429500Y-5265927D02*
G01*
X7471156Y-5265927D01*
X7484872Y-5270500D01*
X7489443Y-5275072D01*
X7494270Y-5284470D01*
X7494270Y-5293613D01*
X7489443Y-5302758D01*
X7484872Y-5307329D01*
X7471156Y-5312156D01*
X7429500Y-5312156D02*
G01*
X7471156Y-5312156D01*
X7484872Y-5316727D01*
X7489443Y-5321300D01*
X7494270Y-5330443D01*
X7494270Y-5344413D01*
X7489443Y-5353558D01*
X7484872Y-5358129D01*
X7471156Y-5362956D01*
X7429500Y-5362956D01*
X7529322Y-5289041D02*
G01*
X7529322Y-5284470D01*
X7533893Y-5275072D01*
X7538465Y-5270500D01*
X7547609Y-5265927D01*
X7566152Y-5265927D01*
X7575550Y-5270500D01*
X7580122Y-5275072D01*
X7584693Y-5284470D01*
X7584693Y-5293613D01*
X7580122Y-5302758D01*
X7570724Y-5316727D01*
X7524750Y-5362956D01*
X7589265Y-5362956D01*
X7498841Y-5035041D02*
G01*
X7494270Y-5025643D01*
X7484872Y-5016500D01*
X7475727Y-5011927D01*
X7457186Y-5011927D01*
X7448041Y-5016500D01*
X7438643Y-5025643D01*
X7434072Y-5035041D01*
X7429500Y-5048758D01*
X7429500Y-5071872D01*
X7434072Y-5085841D01*
X7438643Y-5094986D01*
X7448041Y-5104129D01*
X7457186Y-5108956D01*
X7475727Y-5108956D01*
X7484872Y-5104129D01*
X7494270Y-5094986D01*
X7498841Y-5085841D01*
X7498841Y-5071872D01*
X7475727Y-5071872D02*
G01*
X7498841Y-5071872D01*
X7529322Y-5011927D02*
G01*
X7529322Y-5108956D01*
X7529322Y-5011927D02*
G01*
X7593838Y-5108956D01*
X7593838Y-5011927D02*
G01*
X7593838Y-5108956D01*
X7624318Y-5011927D02*
G01*
X7624318Y-5108956D01*
X7624318Y-5011927D02*
G01*
X7656829Y-5011927D01*
X7670545Y-5016500D01*
X7679690Y-5025643D01*
X7684515Y-5035041D01*
X7689088Y-5048758D01*
X7689088Y-5071872D01*
X7684515Y-5085841D01*
X7679690Y-5094986D01*
X7670545Y-5104129D01*
X7656829Y-5108956D01*
X7624318Y-5108956D01*
X7327900Y-4757927D02*
G01*
X7364729Y-4854956D01*
X7401813Y-4757927D02*
G01*
X7364729Y-4854956D01*
X7432293Y-4757927D02*
G01*
X7432293Y-4854956D01*
X7432293Y-4757927D02*
G01*
X7469124Y-4854956D01*
X7506208Y-4757927D02*
G01*
X7469124Y-4854956D01*
X7506208Y-4757927D02*
G01*
X7506208Y-4854956D01*
X7564374Y-4757927D02*
G01*
X7555229Y-4762500D01*
X7545831Y-4771643D01*
X7541259Y-4781041D01*
X7536688Y-4794758D01*
X7536688Y-4817872D01*
X7541259Y-4831841D01*
X7545831Y-4840986D01*
X7555229Y-4850129D01*
X7564374Y-4854956D01*
X7582915Y-4854956D01*
X7592059Y-4850129D01*
X7601204Y-4840986D01*
X7606029Y-4831841D01*
X7610602Y-4817872D01*
X7610602Y-4794758D01*
X7606029Y-4781041D01*
X7601204Y-4771643D01*
X7592059Y-4762500D01*
X7582915Y-4757927D01*
X7564374Y-4757927D01*
X7673340Y-4757927D02*
G01*
X7673340Y-4854956D01*
X7641081Y-4757927D02*
G01*
X7705597Y-4757927D01*
X6642100Y-4757927D02*
G01*
X6642100Y-4854956D01*
X6642100Y-4757927D02*
G01*
X6702043Y-4757927D01*
X6642100Y-4804156D02*
G01*
X6678929Y-4804156D01*
X6642100Y-4854956D02*
G01*
X6702043Y-4854956D01*
X6732524Y-4757927D02*
G01*
X6732524Y-4854956D01*
X6732524Y-4757927D02*
G01*
X6797293Y-4854956D01*
X6797293Y-4757927D02*
G01*
X6797293Y-4854956D01*
X6642100Y-5773927D02*
G01*
X6642100Y-5870956D01*
X6642100Y-5773927D02*
G01*
X6683756Y-5773927D01*
X6697472Y-5778500D01*
X6702043Y-5783072D01*
X6706870Y-5792470D01*
X6706870Y-5801613D01*
X6702043Y-5810758D01*
X6697472Y-5815329D01*
X6683756Y-5820156D01*
X6642100Y-5820156D01*
X6674358Y-5820156D02*
G01*
X6706870Y-5870956D01*
X6801865Y-5787643D02*
G01*
X6792722Y-5778500D01*
X6778752Y-5773927D01*
X6760209Y-5773927D01*
X6746493Y-5778500D01*
X6737350Y-5787643D01*
X6737350Y-5797041D01*
X6741922Y-5806186D01*
X6746493Y-5810758D01*
X6755638Y-5815329D01*
X6783324Y-5824727D01*
X6792722Y-5829300D01*
X6797293Y-5833872D01*
X6801865Y-5843270D01*
X6801865Y-5856986D01*
X6792722Y-5866129D01*
X6778752Y-5870956D01*
X6760209Y-5870956D01*
X6746493Y-5866129D01*
X6737350Y-5856986D01*
X6864604Y-5773927D02*
G01*
X6864604Y-5870956D01*
X6832345Y-5773927D02*
G01*
X6897115Y-5773927D01*
X6706870Y-6041643D02*
G01*
X6697472Y-6032500D01*
X6683756Y-6027927D01*
X6665213Y-6027927D01*
X6651243Y-6032500D01*
X6642100Y-6041643D01*
X6642100Y-6051041D01*
X6646672Y-6060186D01*
X6651243Y-6064758D01*
X6660641Y-6069329D01*
X6688327Y-6078727D01*
X6697472Y-6083300D01*
X6702043Y-6087872D01*
X6706870Y-6097270D01*
X6706870Y-6110986D01*
X6697472Y-6120129D01*
X6683756Y-6124956D01*
X6665213Y-6124956D01*
X6651243Y-6120129D01*
X6642100Y-6110986D01*
X6737350Y-6027927D02*
G01*
X6737350Y-6124956D01*
X6737350Y-6124956D02*
G01*
X6792722Y-6124956D01*
X6823202Y-6027927D02*
G01*
X6823202Y-6124956D01*
X6823202Y-6027927D02*
G01*
X6864604Y-6027927D01*
X6878574Y-6032500D01*
X6883145Y-6037072D01*
X6887718Y-6046470D01*
X6887718Y-6060186D01*
X6883145Y-6069329D01*
X6878574Y-6074156D01*
X6864604Y-6078727D01*
X6823202Y-6078727D01*
G36*
X10287000Y-2235200D02*
G01*
X10287000Y-2298700D01*
X10372699Y-2298700D01*
X10372699Y-2235200D01*
G37*
G36*
X9728200Y-2235200D02*
G01*
X9731400Y-2238400D01*
X9731400Y-2298700D01*
X9817100Y-2298700D01*
X9817100Y-2235200D01*
G37*
G36*
X10287000Y-3365500D02*
G01*
X10287000Y-3429000D01*
X10372699Y-3429000D01*
X10372699Y-3365500D01*
G37*
G36*
X9728200Y-3365500D02*
G01*
X9731400Y-3368700D01*
X9731400Y-3429000D01*
X9817100Y-3429000D01*
X9817100Y-3365500D01*
G37*
G36*
X10274300Y-5638800D02*
G01*
X10274300Y-5702300D01*
X10359999Y-5702300D01*
X10359999Y-5638800D01*
G37*
G36*
X9715500Y-5638800D02*
G01*
X9718700Y-5642000D01*
X9718700Y-5702300D01*
X9804400Y-5702300D01*
X9804400Y-5638800D01*
G37*
G36*
X10287000Y-6781800D02*
G01*
X10287000Y-6845300D01*
X10372699Y-6845300D01*
X10372699Y-6781800D01*
G37*
G36*
X9728200Y-6781800D02*
G01*
X9731400Y-6785000D01*
X9731400Y-6845300D01*
X9817100Y-6845300D01*
X9817100Y-6781800D01*
G37*
G36*
X11112500Y-4495800D02*
G01*
X11112500Y-4559300D01*
X11198199Y-4559300D01*
X11198199Y-4495800D01*
G37*
G36*
X10553700Y-4495800D02*
G01*
X10556900Y-4499000D01*
X10556900Y-4559300D01*
X10642600Y-4559300D01*
X10642600Y-4495800D01*
G37*
G36*
X3073400Y-3124200D02*
G01*
X3084322Y-3135680D01*
X3095802Y-3146602D01*
X3107842Y-3156915D01*
X3120440Y-3166567D01*
X3133445Y-3175609D01*
X3146958Y-3183940D01*
X3160826Y-3191560D01*
X3175101Y-3198469D01*
X3189732Y-3204616D01*
X3204616Y-3210001D01*
X3219805Y-3214624D01*
X3235147Y-3218484D01*
X3250742Y-3221482D01*
X3266389Y-3223717D01*
X3282187Y-3225139D01*
X3298037Y-3225749D01*
X3313887Y-3225546D01*
X3329686Y-3224530D01*
X3345434Y-3222701D01*
X3361080Y-3220059D01*
X3368852Y-3218484D01*
X3384194Y-3214624D01*
X3399383Y-3210001D01*
X3414268Y-3204616D01*
X3428898Y-3198469D01*
X3443173Y-3191560D01*
X3457041Y-3183940D01*
X3470554Y-3175609D01*
X3483559Y-3166567D01*
X3496157Y-3156915D01*
X3508197Y-3146602D01*
X3519678Y-3135680D01*
X3530600Y-3124200D01*
G37*
G36*
X8204200Y-2108200D02*
G01*
X8215122Y-2119680D01*
X8226602Y-2130602D01*
X8238642Y-2140915D01*
X8251240Y-2150567D01*
X8264245Y-2159609D01*
X8277758Y-2167940D01*
X8291626Y-2175560D01*
X8305901Y-2182469D01*
X8320531Y-2188616D01*
X8335416Y-2194001D01*
X8350605Y-2198624D01*
X8365947Y-2202484D01*
X8381542Y-2205482D01*
X8397189Y-2207717D01*
X8412988Y-2209139D01*
X8428837Y-2209749D01*
X8444687Y-2209546D01*
X8460486Y-2208530D01*
X8476234Y-2206701D01*
X8491880Y-2204059D01*
X8499652Y-2202484D01*
X8514994Y-2198624D01*
X8530183Y-2194001D01*
X8545068Y-2188616D01*
X8559698Y-2182469D01*
X8573973Y-2175560D01*
X8587841Y-2167940D01*
X8601354Y-2159609D01*
X8614359Y-2150567D01*
X8626957Y-2140915D01*
X8638997Y-2130602D01*
X8650478Y-2119680D01*
X8661400Y-2108200D01*
G37*
G36*
X8191500Y-5156200D02*
G01*
X8202422Y-5167680D01*
X8213902Y-5178602D01*
X8225942Y-5188915D01*
X8238540Y-5198567D01*
X8251545Y-5207609D01*
X8265058Y-5215940D01*
X8278926Y-5223560D01*
X8293201Y-5230469D01*
X8307831Y-5236616D01*
X8322716Y-5242001D01*
X8337905Y-5246624D01*
X8353247Y-5250484D01*
X8368842Y-5253482D01*
X8384489Y-5255717D01*
X8400288Y-5257139D01*
X8416137Y-5257749D01*
X8431987Y-5257546D01*
X8447786Y-5256530D01*
X8463534Y-5254701D01*
X8479180Y-5252059D01*
X8486952Y-5250484D01*
X8502294Y-5246624D01*
X8517483Y-5242001D01*
X8532368Y-5236616D01*
X8546998Y-5230469D01*
X8561273Y-5223560D01*
X8575141Y-5215940D01*
X8588654Y-5207609D01*
X8601659Y-5198567D01*
X8614257Y-5188915D01*
X8626297Y-5178602D01*
X8637778Y-5167680D01*
X8648700Y-5156200D01*
G37*
D14*
X4295140Y-944879D02*
G01*
X4295140Y-706120D01*
X4295140Y-706120D02*
G01*
X4925059Y-706120D01*
X4925059Y-706120D02*
G01*
X4925059Y-944879D01*
X4925059Y-944879D02*
G01*
X4295140Y-944879D01*
X10430256Y-1633728D02*
G01*
X10430256Y-1612900D01*
X10236200Y-1612900D01*
X10185400Y-1562100D01*
X10185400Y-1384300D01*
X10236200Y-1333500D01*
X10430256Y-1333500D01*
X10430256Y-2141728D02*
G01*
X10430256Y-2120900D01*
X10236200Y-2120900D01*
X10185400Y-2070100D01*
X10185400Y-1892300D01*
X10236200Y-1841500D01*
X10430256Y-1841500D01*
X9823343Y-2235200D02*
G01*
X9823343Y-1219200D01*
X10287000Y-2235200D02*
G01*
X10287000Y-2298700D01*
X10372681Y-2298700D01*
X10372681Y-2235200D01*
X9731418Y-2235200D02*
G01*
X9731418Y-2298700D01*
X9817100Y-2298700D01*
X9817100Y-2235200D01*
X10430296Y-2235200D02*
G01*
X10430296Y-1219200D01*
X9610303Y-1219200D02*
G01*
X10430296Y-1219200D01*
X9610303Y-2235200D02*
G01*
X10430296Y-2235200D01*
X9610303Y-2235200D02*
G01*
X9610303Y-1219200D01*
X10430256Y-2764028D02*
G01*
X10430256Y-2743200D01*
X10236200Y-2743200D01*
X10185400Y-2692400D01*
X10185400Y-2514600D01*
X10236200Y-2463800D01*
X10430256Y-2463800D01*
X10430256Y-3272028D02*
G01*
X10430256Y-3251200D01*
X10236200Y-3251200D01*
X10185400Y-3200400D01*
X10185400Y-3022600D01*
X10236200Y-2971800D01*
X10430256Y-2971800D01*
X9823343Y-3365500D02*
G01*
X9823343Y-2349500D01*
X10287000Y-3365500D02*
G01*
X10287000Y-3429000D01*
X10372681Y-3429000D01*
X10372681Y-3365500D01*
X9731418Y-3365500D02*
G01*
X9731418Y-3429000D01*
X9817100Y-3429000D01*
X9817100Y-3365500D01*
X10430296Y-3365500D02*
G01*
X10430296Y-2349500D01*
X9610303Y-2349500D02*
G01*
X10430296Y-2349500D01*
X9610303Y-3365500D02*
G01*
X10430296Y-3365500D01*
X9610303Y-3365500D02*
G01*
X9610303Y-2349500D01*
X10417556Y-5037327D02*
G01*
X10417556Y-5016500D01*
X10223500Y-5016500D01*
X10172700Y-4965700D01*
X10172700Y-4787900D01*
X10223500Y-4737100D01*
X10417556Y-4737100D01*
X10417556Y-5545327D02*
G01*
X10417556Y-5524500D01*
X10223500Y-5524500D01*
X10172700Y-5473700D01*
X10172700Y-5295900D01*
X10223500Y-5245100D01*
X10417556Y-5245100D01*
X9810643Y-5638800D02*
G01*
X9810643Y-4622800D01*
X10274300Y-5638800D02*
G01*
X10274300Y-5702300D01*
X10359981Y-5702300D01*
X10359981Y-5638800D01*
X9718718Y-5638800D02*
G01*
X9718718Y-5702300D01*
X9804400Y-5702300D01*
X9804400Y-5638800D01*
X10417596Y-5638800D02*
G01*
X10417596Y-4622800D01*
X9597603Y-4622800D02*
G01*
X10417596Y-4622800D01*
X9597603Y-5638800D02*
G01*
X10417596Y-5638800D01*
X9597603Y-5638800D02*
G01*
X9597603Y-4622800D01*
X10430256Y-6180327D02*
G01*
X10430256Y-6159500D01*
X10236200Y-6159500D01*
X10185400Y-6108700D01*
X10185400Y-5930900D01*
X10236200Y-5880100D01*
X10430256Y-5880100D01*
X10430256Y-6688327D02*
G01*
X10430256Y-6667500D01*
X10236200Y-6667500D01*
X10185400Y-6616700D01*
X10185400Y-6438900D01*
X10236200Y-6388100D01*
X10430256Y-6388100D01*
X9823343Y-6781800D02*
G01*
X9823343Y-5765800D01*
X10287000Y-6781800D02*
G01*
X10287000Y-6845300D01*
X10372681Y-6845300D01*
X10372681Y-6781800D01*
X9731418Y-6781800D02*
G01*
X9731418Y-6845300D01*
X9817100Y-6845300D01*
X9817100Y-6781800D01*
X10430296Y-6781800D02*
G01*
X10430296Y-5765800D01*
X9610303Y-5765800D02*
G01*
X10430296Y-5765800D01*
X9610303Y-6781800D02*
G01*
X10430296Y-6781800D01*
X9610303Y-6781800D02*
G01*
X9610303Y-5765800D01*
D10*
X5384800Y-6731000D02*
G01*
X5575300Y-6731000D01*
X5575300Y-6477000D01*
X3035300Y-6477000D01*
X3035300Y-6731000D01*
D15*
X3035300Y-6731000D02*
G01*
X5384800Y-6731000D01*
D10*
X5384800Y-7327900D02*
G01*
X5575300Y-7327900D01*
X5575300Y-7073900D01*
X3035300Y-7073900D01*
X3035300Y-7327900D01*
D15*
X3035300Y-7327900D02*
G01*
X5384800Y-7327900D01*
D14*
X4000500Y-2679700D02*
G01*
X5384800Y-2679700D01*
X5384800Y-4610100D01*
X4000500Y-4610100D01*
X4000500Y-2679700D01*
D15*
X4546600Y-5588000D02*
G01*
X4229100Y-5588000D01*
D10*
X4546600Y-5588000D02*
G01*
X4546600Y-5842000D01*
X4038600Y-5842000D01*
X4038600Y-5588000D01*
X4229100Y-5588000D01*
D14*
X3238507Y-1699262D02*
G01*
X3238510Y-1739902D01*
X3238510Y-1206502D02*
G01*
X3238507Y-1247142D01*
X3098810Y-1264922D02*
G01*
X3098810Y-1681482D01*
X11255756Y-3894328D02*
G01*
X11255756Y-3873500D01*
X11061700Y-3873500D01*
X11010900Y-3822700D01*
X11010900Y-3644900D01*
X11061700Y-3594100D01*
X11255756Y-3594100D01*
X11255756Y-4402327D02*
G01*
X11255756Y-4381500D01*
X11061700Y-4381500D01*
X11010900Y-4330700D01*
X11010900Y-4152900D01*
X11061700Y-4102100D01*
X11255756Y-4102100D01*
X10648843Y-4495800D02*
G01*
X10648843Y-3479800D01*
X11112500Y-4495800D02*
G01*
X11112500Y-4559300D01*
X11198181Y-4559300D01*
X11198181Y-4495800D01*
X10556918Y-4495800D02*
G01*
X10556918Y-4559300D01*
X10642600Y-4559300D01*
X10642600Y-4495800D01*
X11255796Y-4495800D02*
G01*
X11255796Y-3479800D01*
X10435803Y-3479800D02*
G01*
X11255796Y-3479800D01*
X10435803Y-4495800D02*
G01*
X11255796Y-4495800D01*
X10435803Y-4495800D02*
G01*
X10435803Y-3479800D01*
X3454400Y-2730500D02*
G01*
X3454400Y-2832100D01*
X3505200Y-2781300D02*
G01*
X3403600Y-2781300D01*
X8585200Y-1714500D02*
G01*
X8585200Y-1816100D01*
X8636000Y-1765300D02*
G01*
X8534400Y-1765300D01*
X8572500Y-4762500D02*
G01*
X8572500Y-4864100D01*
X8623300Y-4813300D02*
G01*
X8521700Y-4813300D01*
X1767839Y-1587500D02*
G01*
X1767839Y-1714500D01*
X2494279Y-1148079D02*
G01*
X2494279Y-6979920D01*
X1595120Y-6979920D01*
X1595120Y-1148079D01*
X2484120Y-1148079D01*
X1595120Y-3843020D02*
G01*
X1744979Y-3843020D01*
X1744979Y-4284979D01*
X1595120Y-4284979D01*
X4295140Y-1592579D02*
G01*
X4295140Y-1353820D01*
X4295140Y-1353820D02*
G01*
X4925059Y-1353820D01*
X4925059Y-1353820D02*
G01*
X4925059Y-1592579D01*
X4925059Y-1592579D02*
G01*
X4295140Y-1592579D01*
D16*
X7924800Y-3670300D02*
G01*
X6400800Y-3670300D01*
X6400800Y-1638300D01*
X7924800Y-1638300D01*
X7924800Y-3670300D01*
X7924800Y-6718300D02*
G01*
X6400800Y-6718300D01*
X6400800Y-4686300D01*
X7924800Y-4686300D01*
X7924800Y-6718300D01*
D14*
G75*
G01*
X4610100Y-2679700D02*
G03*
X4762500Y-2679700I76200J0D01*
G75*
G01*
X3098810Y-1263744D02*
G02*
X3518759Y-1394572I165099J-209461D01*
G75*
G01*
X3518751Y-1551882D02*
G02*
X3098810Y-1682702I-254841J78628D01*
G75*
G01
X3616960Y-2908300D02*
G03X3616960Y-2908300I-314960J0D01*
G75*
G01
X8747760Y-1892300D02*
G03X8747760Y-1892300I-314960J0D01*
G75*
G01
X8735060Y-4940300D02*
G03X8735060Y-4940300I-314960J0D01*
X5753100Y-508000D02*
G01*
X9283700Y-508000D01*
X9283700Y-1397000D01*
X5753100Y-1397000D01*
X5753100Y-508000D01*
X2692400Y-6019800D02*
G01*
X5994400Y-6019800D01*
X5994400Y-7391400D01*
X2692400Y-7391400D01*
X2692400Y-6019800D01*
X2692400Y-5029200D02*
G01*
X5994400Y-5029200D01*
X5994400Y-5956300D01*
X2692400Y-5956300D01*
X2692400Y-5029200D01*
X5702300Y-457200D02*
G01*
X9334500Y-457200D01*
X9334500Y-1447800D01*
X5702300Y-1447800D01*
X5702300Y-457200D01*
M02*
