G04 Layer: TopSolderMaskLayer*
G04 EasyEDA v6.5.39, 2024-01-03 13:03:29*
G04 bec576337b18403e98965192822aaada,83f36b9c27a349adb8e694642aa6770b,10*
G04 Gerber Generator version 0.2*
G04 Scale: 100 percent, Rotated: No, Reflected: No *
G04 Dimensions in millimeters *
G04 leading zeros omitted , absolute positions ,4 integer and 5 decimal *
%FSLAX45Y45*%
%MOMM*%

%AMMACRO1*1,1,$1,$2,$3*1,1,$1,$4,$5*1,1,$1,0-$2,0-$3*1,1,$1,0-$4,0-$5*20,1,$1,$2,$3,$4,$5,0*20,1,$1,$4,$5,0-$2,0-$3,0*20,1,$1,0-$2,0-$3,0-$4,0-$5,0*20,1,$1,0-$4,0-$5,$2,$3,0*4,1,4,$2,$3,$4,$5,0-$2,0-$3,0-$4,0-$5,$2,$3,0*%
%ADD10C,1.9812*%
%ADD11C,2.3016*%
%ADD12C,1.6764*%
%ADD13MACRO1,0.1016X0.7874X-0.7874X-0.7874X-0.7874*%
%ADD14MACRO1,0.02X-0.75X0.75X0.75X0.75*%
%ADD15MACRO1,0.1016X-0.85X0.7874X0.85X0.7874*%
%ADD16C,1.8016*%
%ADD17MACRO1,0.2032X0.8382X0.8382X0.8382X-0.8382*%
%ADD18C,1.7272*%
%ADD19MACRO1,0.1016X0.9398X0.9398X0.9398X-0.9398*%
%ADD20C,1.6256*%

%LPD*%
D10*
G01*
X4102100Y-825500D03*
G01*
X5118100Y-825500D03*
D11*
G01*
X10020300Y-1981200D03*
G01*
X10020300Y-1473200D03*
G01*
X10020300Y-3111500D03*
G01*
X10020300Y-2603500D03*
G01*
X10007600Y-5384800D03*
G01*
X10007600Y-4876800D03*
G01*
X10020300Y-6527800D03*
G01*
X10020300Y-6019800D03*
D12*
G01*
X3162300Y-6604000D03*
G01*
X3416300Y-6604000D03*
G01*
X3670300Y-6604000D03*
G01*
X3924300Y-6604000D03*
G01*
X4178300Y-6604000D03*
G01*
X4432300Y-6604000D03*
G01*
X4686300Y-6604000D03*
G01*
X4940300Y-6604000D03*
G01*
X5194300Y-6604000D03*
D13*
G01*
X5448300Y-6604000D03*
D12*
G01*
X3162300Y-7200900D03*
G01*
X3416300Y-7200900D03*
G01*
X3670300Y-7200900D03*
G01*
X3924300Y-7200900D03*
G01*
X4178300Y-7200900D03*
G01*
X4432300Y-7200900D03*
G01*
X4686300Y-7200900D03*
G01*
X4940300Y-7200900D03*
G01*
X5194300Y-7200900D03*
D13*
G01*
X5448300Y-7200900D03*
D14*
G01*
X3924300Y-2755900D03*
G01*
X3924300Y-3009900D03*
G01*
X3924300Y-3263900D03*
G01*
X3924300Y-3517900D03*
G01*
X3924300Y-3771900D03*
G01*
X3924300Y-4025900D03*
G01*
X3924300Y-4279900D03*
G01*
X3924300Y-4533900D03*
G01*
X5461000Y-4533900D03*
G01*
X5461000Y-4279900D03*
G01*
X5461000Y-4025900D03*
G01*
X5461000Y-3771900D03*
G01*
X5461000Y-3517900D03*
G01*
X5461000Y-3263900D03*
G01*
X5461000Y-3009900D03*
G01*
X5461000Y-2755900D03*
G01*
X4432300Y-4533900D03*
G01*
X4686300Y-4533900D03*
G01*
X4940300Y-4533900D03*
D15*
G01*
X4165601Y-5715000D03*
D16*
G01*
X4419600Y-5715000D03*
D17*
G01*
X3263910Y-1257302D03*
G01*
X3263910Y-1473202D03*
G01*
X3263910Y-1689102D03*
D11*
G01*
X10845800Y-4241800D03*
G01*
X10845800Y-3733800D03*
D18*
G01*
X3302000Y-2781300D03*
G01*
X3302000Y-3035300D03*
G01*
X8432800Y-1765300D03*
G01*
X8432800Y-2019300D03*
G01*
X8420100Y-4813300D03*
G01*
X8420100Y-5067300D03*
D19*
G01*
X1917700Y-1651000D03*
G01*
X2171700Y-1651000D03*
G01*
X1917700Y-1905000D03*
G01*
X2171700Y-1905000D03*
G01*
X1917700Y-2159000D03*
G01*
X2171700Y-2159000D03*
G01*
X1917700Y-2413000D03*
G01*
X2171700Y-2413000D03*
G01*
X1917700Y-2667000D03*
G01*
X2171700Y-2667000D03*
G01*
X1917700Y-2921000D03*
G01*
X2171700Y-2921000D03*
G01*
X1917700Y-3175000D03*
G01*
X2171700Y-3175000D03*
G01*
X1917700Y-3429000D03*
G01*
X2171700Y-3429000D03*
G01*
X1917700Y-3683000D03*
G01*
X2171700Y-3683000D03*
G01*
X1917700Y-3937000D03*
G01*
X2171700Y-3937000D03*
G01*
X1917700Y-4191000D03*
G01*
X2171700Y-4191000D03*
G01*
X1917700Y-4445000D03*
G01*
X2171700Y-4445000D03*
G01*
X1917700Y-4699000D03*
G01*
X2171700Y-4699000D03*
G01*
X1917700Y-4953000D03*
G01*
X2171700Y-4953000D03*
G01*
X1917700Y-5207000D03*
G01*
X2171700Y-5207000D03*
G01*
X1917700Y-5461000D03*
G01*
X2171700Y-5461000D03*
G01*
X1917700Y-5715000D03*
G01*
X2171700Y-5715000D03*
G01*
X1917700Y-5969000D03*
G01*
X2171700Y-5969000D03*
G01*
X1917700Y-6223000D03*
G01*
X2171700Y-6223000D03*
G01*
X1917700Y-6477000D03*
G01*
X2171700Y-6477000D03*
D10*
G01*
X4102100Y-1473200D03*
G01*
X5118100Y-1473200D03*
D20*
G01*
X7797800Y-2273300D03*
G01*
X7797800Y-2019300D03*
G01*
X7797800Y-1765300D03*
G01*
X7797800Y-2527300D03*
G01*
X7797800Y-2781300D03*
G01*
X7797800Y-3035300D03*
G01*
X7797800Y-3289300D03*
G01*
X7797800Y-3543300D03*
G01*
X6527800Y-3543300D03*
G01*
X6527800Y-3289300D03*
G01*
X6527800Y-3035300D03*
G01*
X6527800Y-2781300D03*
G01*
X6527800Y-2527300D03*
G01*
X6527800Y-2273300D03*
G01*
X6527800Y-2019300D03*
G01*
X6527800Y-1765300D03*
G01*
X7797800Y-5321300D03*
G01*
X7797800Y-5067300D03*
G01*
X7797800Y-4813300D03*
G01*
X7797800Y-5575300D03*
G01*
X7797800Y-5829300D03*
G01*
X7797800Y-6083300D03*
G01*
X7797800Y-6337300D03*
G01*
X7797800Y-6591300D03*
G01*
X6527800Y-6591300D03*
G01*
X6527800Y-6337300D03*
G01*
X6527800Y-6083300D03*
G01*
X6527800Y-5829300D03*
G01*
X6527800Y-5575300D03*
G01*
X6527800Y-5321300D03*
G01*
X6527800Y-5067300D03*
G01*
X6527800Y-4813300D03*
M02*
