G04 Layer: TopLayer*
G04 EasyEDA v6.5.39, 2024-01-03 13:03:29*
G04 bec576337b18403e98965192822aaada,83f36b9c27a349adb8e694642aa6770b,10*
G04 Gerber Generator version 0.2*
G04 Scale: 100 percent, Rotated: No, Reflected: No *
G04 Dimensions in millimeters *
G04 leading zeros omitted , absolute positions ,4 integer and 5 decimal *
%FSLAX45Y45*%
%MOMM*%

%ADD10C,0.5000*%
%ADD11C,1.0000*%
%ADD12C,2.0000*%
%ADD13C,1.8796*%
%ADD14C,2.2000*%
%ADD15C,1.5748*%
%ADD16R,1.5748X1.5748*%
%ADD17R,1.5000X1.5000*%
%ADD18R,1.7000X1.5748*%
%ADD19C,1.7000*%
%ADD20R,1.6764X1.6764*%
%ADD21C,1.5240*%
%ADD22R,1.8796X1.8796*%
%ADD23C,0.6200*%
%ADD24C,0.0183*%

%LPD*%
G36*
X9279280Y-5054549D02*
G01*
X8553094Y-5046116D01*
X8549690Y-5045456D01*
X8546693Y-5043728D01*
X8544458Y-5041036D01*
X8538565Y-5022392D01*
X8532266Y-5008422D01*
X8524341Y-4995316D01*
X8514943Y-4983276D01*
X8504123Y-4972456D01*
X8492083Y-4963058D01*
X8478977Y-4955133D01*
X8466582Y-4949545D01*
X8463432Y-4947361D01*
X8461349Y-4944110D01*
X8460994Y-4942433D01*
X8458758Y-4944059D01*
X8455101Y-4945024D01*
X8435390Y-4941570D01*
X8420100Y-4940604D01*
X8404809Y-4941570D01*
X8385098Y-4945024D01*
X8381441Y-4944059D01*
X8379206Y-4942433D01*
X8378850Y-4944110D01*
X8376767Y-4947361D01*
X8373618Y-4949545D01*
X8361222Y-4955133D01*
X8348116Y-4963058D01*
X8336076Y-4972456D01*
X8325256Y-4983276D01*
X8315858Y-4995316D01*
X8307933Y-5008422D01*
X8301634Y-5022392D01*
X8297468Y-5035905D01*
X8295335Y-5039614D01*
X8291830Y-5042154D01*
X8287613Y-5043017D01*
X7928711Y-5038852D01*
X7924596Y-5037937D01*
X7921244Y-5035397D01*
X7919161Y-5031689D01*
X7916265Y-5022392D01*
X7909966Y-5008422D01*
X7902041Y-4995316D01*
X7892643Y-4983276D01*
X7881823Y-4972456D01*
X7869783Y-4963058D01*
X7856677Y-4955133D01*
X7844281Y-4949545D01*
X7841132Y-4947361D01*
X7839049Y-4944110D01*
X7838694Y-4942433D01*
X7836458Y-4944059D01*
X7832801Y-4945024D01*
X7813090Y-4941570D01*
X7797800Y-4940604D01*
X7782509Y-4941570D01*
X7762798Y-4945024D01*
X7759141Y-4944059D01*
X7756906Y-4942433D01*
X7756550Y-4944110D01*
X7754467Y-4947361D01*
X7751318Y-4949545D01*
X7738922Y-4955133D01*
X7725816Y-4963058D01*
X7713776Y-4972456D01*
X7702956Y-4983276D01*
X7693558Y-4995316D01*
X7685633Y-5008422D01*
X7679334Y-5022392D01*
X7677403Y-5028692D01*
X7675270Y-5032400D01*
X7671816Y-5034940D01*
X7667599Y-5035804D01*
X7362647Y-5032248D01*
X7358786Y-5031435D01*
X7355535Y-5029250D01*
X7353350Y-5025948D01*
X7352588Y-5022088D01*
X7352538Y-4886858D01*
X7351725Y-4878070D01*
X7351318Y-4875631D01*
X7349185Y-4867046D01*
X7348423Y-4864760D01*
X7343952Y-4854397D01*
X7339380Y-4846828D01*
X7337958Y-4844846D01*
X7332319Y-4838039D01*
X7103770Y-4609388D01*
X7101535Y-4606086D01*
X7100773Y-4602175D01*
X7111949Y-1407261D01*
X7112762Y-1403350D01*
X7114997Y-1400048D01*
X7118350Y-1397863D01*
X7122261Y-1397152D01*
X8765641Y-1422247D01*
X8769502Y-1423060D01*
X8772753Y-1425295D01*
X8774887Y-1428597D01*
X8775649Y-1432458D01*
X8771229Y-2098903D01*
X8770416Y-2102764D01*
X8768232Y-2106015D01*
X8754414Y-2119833D01*
X8751163Y-2122017D01*
X8747252Y-2122830D01*
X8532622Y-2122830D01*
X8528761Y-2122017D01*
X8525459Y-2119833D01*
X8523274Y-2116531D01*
X8522462Y-2112670D01*
X8523274Y-2108758D01*
X8525459Y-2105456D01*
X8527643Y-2103323D01*
X8537041Y-2091283D01*
X8544966Y-2078177D01*
X8551265Y-2064207D01*
X8555786Y-2049627D01*
X8558530Y-2034590D01*
X8559495Y-2019300D01*
X8558530Y-2004009D01*
X8555786Y-1988972D01*
X8551265Y-1974392D01*
X8544966Y-1960422D01*
X8537041Y-1947316D01*
X8527643Y-1935276D01*
X8516823Y-1924456D01*
X8504783Y-1915058D01*
X8491677Y-1907133D01*
X8479282Y-1901545D01*
X8476132Y-1899361D01*
X8474049Y-1896110D01*
X8473694Y-1894433D01*
X8471458Y-1896059D01*
X8467801Y-1897024D01*
X8448090Y-1893570D01*
X8432800Y-1892604D01*
X8417509Y-1893570D01*
X8397798Y-1897024D01*
X8394141Y-1896059D01*
X8391906Y-1894433D01*
X8391550Y-1896110D01*
X8389467Y-1899361D01*
X8386318Y-1901545D01*
X8373922Y-1907133D01*
X8360816Y-1915058D01*
X8348776Y-1924456D01*
X8337956Y-1935276D01*
X8328558Y-1947316D01*
X8320633Y-1960422D01*
X8314334Y-1974392D01*
X8309813Y-1988972D01*
X8307070Y-2004009D01*
X8306104Y-2019300D01*
X8307070Y-2034590D01*
X8309813Y-2049627D01*
X8314334Y-2064207D01*
X8320633Y-2078177D01*
X8328558Y-2091283D01*
X8337956Y-2103323D01*
X8340140Y-2105456D01*
X8342325Y-2108758D01*
X8343138Y-2112670D01*
X8342325Y-2116531D01*
X8340140Y-2119833D01*
X8336838Y-2122017D01*
X8332978Y-2122830D01*
X7897622Y-2122830D01*
X7893761Y-2122017D01*
X7890459Y-2119833D01*
X7888274Y-2116531D01*
X7887462Y-2112670D01*
X7888274Y-2108758D01*
X7890459Y-2105456D01*
X7892643Y-2103323D01*
X7902041Y-2091283D01*
X7909966Y-2078177D01*
X7916265Y-2064207D01*
X7920786Y-2049627D01*
X7923530Y-2034590D01*
X7924495Y-2019300D01*
X7923530Y-2004009D01*
X7920786Y-1988972D01*
X7916265Y-1974392D01*
X7909966Y-1960422D01*
X7902041Y-1947316D01*
X7892643Y-1935276D01*
X7881823Y-1924456D01*
X7869783Y-1915058D01*
X7856677Y-1907133D01*
X7844281Y-1901545D01*
X7841132Y-1899361D01*
X7839049Y-1896110D01*
X7838694Y-1894433D01*
X7836458Y-1896059D01*
X7832801Y-1897024D01*
X7813090Y-1893570D01*
X7797800Y-1892604D01*
X7782509Y-1893570D01*
X7762798Y-1897024D01*
X7759141Y-1896059D01*
X7756906Y-1894433D01*
X7756550Y-1896110D01*
X7754467Y-1899361D01*
X7751318Y-1901545D01*
X7738922Y-1907133D01*
X7725816Y-1915058D01*
X7713776Y-1924456D01*
X7702956Y-1935276D01*
X7693558Y-1947316D01*
X7685633Y-1960422D01*
X7679334Y-1974392D01*
X7674813Y-1988972D01*
X7672070Y-2004009D01*
X7671104Y-2019300D01*
X7672070Y-2034590D01*
X7674813Y-2049627D01*
X7679334Y-2064207D01*
X7685633Y-2078177D01*
X7693558Y-2091283D01*
X7702956Y-2103323D01*
X7713776Y-2114143D01*
X7726222Y-2123795D01*
X7729321Y-2126691D01*
X7730947Y-2130552D01*
X7730896Y-2134768D01*
X7729067Y-2138629D01*
X7725918Y-2141372D01*
X7717739Y-2145893D01*
X7703972Y-2155647D01*
X7691374Y-2166874D01*
X7680147Y-2179472D01*
X7670393Y-2193239D01*
X7662214Y-2208022D01*
X7655763Y-2223617D01*
X7651089Y-2239822D01*
X7648244Y-2256434D01*
X7647330Y-2273300D01*
X7648244Y-2290165D01*
X7651089Y-2306777D01*
X7655763Y-2322982D01*
X7662214Y-2338578D01*
X7670393Y-2353360D01*
X7680147Y-2367127D01*
X7691374Y-2379726D01*
X7703972Y-2390952D01*
X7705496Y-2392019D01*
X7708138Y-2394813D01*
X7709560Y-2398369D01*
X7709560Y-2402230D01*
X7708138Y-2405786D01*
X7705496Y-2408580D01*
X7703972Y-2409647D01*
X7691374Y-2420874D01*
X7680147Y-2433472D01*
X7670393Y-2447239D01*
X7662214Y-2462022D01*
X7655763Y-2477617D01*
X7651089Y-2493822D01*
X7648244Y-2510434D01*
X7647330Y-2527300D01*
X7648244Y-2544165D01*
X7651089Y-2560777D01*
X7655763Y-2576982D01*
X7662214Y-2592578D01*
X7670393Y-2607360D01*
X7680147Y-2621127D01*
X7691374Y-2633726D01*
X7703972Y-2644952D01*
X7705496Y-2646019D01*
X7708138Y-2648813D01*
X7709560Y-2652369D01*
X7709560Y-2656230D01*
X7708138Y-2659786D01*
X7705496Y-2662580D01*
X7703972Y-2663647D01*
X7691374Y-2674874D01*
X7680147Y-2687472D01*
X7670393Y-2701239D01*
X7662214Y-2716022D01*
X7655763Y-2731617D01*
X7651089Y-2747822D01*
X7648244Y-2764434D01*
X7647330Y-2781300D01*
X7648244Y-2798165D01*
X7651089Y-2814777D01*
X7655763Y-2830982D01*
X7662214Y-2846578D01*
X7670393Y-2861360D01*
X7680147Y-2875127D01*
X7691374Y-2887726D01*
X7703972Y-2898952D01*
X7705496Y-2900019D01*
X7708138Y-2902813D01*
X7709560Y-2906369D01*
X7709560Y-2910230D01*
X7708138Y-2913786D01*
X7705496Y-2916580D01*
X7703972Y-2917647D01*
X7691374Y-2928874D01*
X7680147Y-2941472D01*
X7670393Y-2955239D01*
X7662214Y-2970022D01*
X7655763Y-2985617D01*
X7651089Y-3001822D01*
X7648244Y-3018434D01*
X7647330Y-3035300D01*
X7648244Y-3052165D01*
X7651089Y-3068777D01*
X7655763Y-3084982D01*
X7662214Y-3100578D01*
X7670393Y-3115360D01*
X7680147Y-3129127D01*
X7691374Y-3141726D01*
X7703972Y-3152952D01*
X7717739Y-3162706D01*
X7725918Y-3167227D01*
X7729067Y-3169970D01*
X7730896Y-3173831D01*
X7730947Y-3178048D01*
X7729321Y-3181908D01*
X7725816Y-3185058D01*
X7713776Y-3194456D01*
X7702956Y-3205276D01*
X7693558Y-3217316D01*
X7685633Y-3230422D01*
X7679334Y-3244392D01*
X7674813Y-3258972D01*
X7672070Y-3274009D01*
X7671104Y-3289300D01*
X7672070Y-3304590D01*
X7674813Y-3319627D01*
X7679334Y-3334207D01*
X7685633Y-3348177D01*
X7693558Y-3361283D01*
X7702956Y-3373323D01*
X7713776Y-3384143D01*
X7725816Y-3393541D01*
X7738922Y-3401466D01*
X7751318Y-3407054D01*
X7754467Y-3409238D01*
X7756550Y-3412490D01*
X7757312Y-3416300D01*
X7756550Y-3420110D01*
X7754467Y-3423361D01*
X7751318Y-3425545D01*
X7738922Y-3431133D01*
X7725816Y-3439058D01*
X7713776Y-3448456D01*
X7702956Y-3459276D01*
X7693558Y-3471316D01*
X7685633Y-3484422D01*
X7679334Y-3498392D01*
X7674813Y-3512972D01*
X7672070Y-3528009D01*
X7671104Y-3543300D01*
X7672070Y-3558590D01*
X7674813Y-3573627D01*
X7679334Y-3588207D01*
X7685633Y-3602177D01*
X7693558Y-3615283D01*
X7702956Y-3627323D01*
X7713776Y-3638143D01*
X7725816Y-3647541D01*
X7738922Y-3655466D01*
X7752892Y-3661765D01*
X7767472Y-3666286D01*
X7782509Y-3669029D01*
X7797800Y-3669995D01*
X7813090Y-3669029D01*
X7828127Y-3666286D01*
X7842707Y-3661765D01*
X7856677Y-3655466D01*
X7869783Y-3647541D01*
X7881823Y-3638143D01*
X7892643Y-3627323D01*
X7902041Y-3615283D01*
X7909966Y-3602177D01*
X7916265Y-3588207D01*
X7920786Y-3573627D01*
X7923530Y-3558590D01*
X7924495Y-3543300D01*
X7923530Y-3528009D01*
X7920786Y-3512972D01*
X7916265Y-3498392D01*
X7909966Y-3484422D01*
X7902041Y-3471316D01*
X7892643Y-3459276D01*
X7881823Y-3448456D01*
X7869783Y-3439058D01*
X7856677Y-3431133D01*
X7844281Y-3425545D01*
X7841132Y-3423361D01*
X7839049Y-3420110D01*
X7838287Y-3416300D01*
X7839049Y-3412490D01*
X7841132Y-3409238D01*
X7844281Y-3407054D01*
X7856677Y-3401466D01*
X7869783Y-3393541D01*
X7881823Y-3384143D01*
X7892643Y-3373323D01*
X7902041Y-3361283D01*
X7909966Y-3348177D01*
X7916265Y-3334207D01*
X7920786Y-3319627D01*
X7923530Y-3304590D01*
X7924495Y-3289300D01*
X7923530Y-3274009D01*
X7920786Y-3258972D01*
X7916265Y-3244392D01*
X7909966Y-3230422D01*
X7902041Y-3217316D01*
X7892643Y-3205276D01*
X7890459Y-3203143D01*
X7888274Y-3199841D01*
X7887462Y-3195980D01*
X7888274Y-3192068D01*
X7890459Y-3188766D01*
X7893761Y-3186582D01*
X7897622Y-3185820D01*
X8753805Y-3185820D01*
X8757716Y-3186582D01*
X8761018Y-3188817D01*
X8763203Y-3192119D01*
X8763965Y-3196031D01*
X8763000Y-3339084D01*
X8764016Y-3340100D01*
X11330940Y-3340100D01*
X11334851Y-3340862D01*
X11338102Y-3343097D01*
X11340338Y-3346348D01*
X11341100Y-3350260D01*
X11341100Y-4053840D01*
X11340338Y-4057751D01*
X11338102Y-4061002D01*
X11334851Y-4063237D01*
X11330940Y-4064000D01*
X10237266Y-4064000D01*
X10235488Y-4064711D01*
X9286748Y-5051450D01*
X9283344Y-5053736D01*
G37*

%LPC*%
G36*
X7842250Y-4932476D02*
G01*
X7844281Y-4931054D01*
X7856677Y-4925466D01*
X7869783Y-4917541D01*
X7881823Y-4908143D01*
X7892643Y-4897323D01*
X7902041Y-4885283D01*
X7909966Y-4872177D01*
X7916367Y-4857750D01*
X7842250Y-4857750D01*
G37*
G36*
X8375650Y-4932476D02*
G01*
X8375650Y-4857750D01*
X8301532Y-4857750D01*
X8307933Y-4872177D01*
X8315858Y-4885283D01*
X8325256Y-4897323D01*
X8336076Y-4908143D01*
X8348116Y-4917541D01*
X8361222Y-4925466D01*
X8373618Y-4931054D01*
G37*
G36*
X8464550Y-4932476D02*
G01*
X8466582Y-4931054D01*
X8478977Y-4925466D01*
X8492083Y-4917541D01*
X8504123Y-4908143D01*
X8514943Y-4897323D01*
X8524341Y-4885283D01*
X8532266Y-4872177D01*
X8538667Y-4857750D01*
X8464550Y-4857750D01*
G37*
G36*
X7753350Y-4932476D02*
G01*
X7753350Y-4857750D01*
X7679232Y-4857750D01*
X7685633Y-4872177D01*
X7693558Y-4885283D01*
X7702956Y-4897323D01*
X7713776Y-4908143D01*
X7725816Y-4917541D01*
X7738922Y-4925466D01*
X7751318Y-4931054D01*
G37*
G36*
X7842250Y-4768850D02*
G01*
X7916367Y-4768850D01*
X7909966Y-4754422D01*
X7902041Y-4741316D01*
X7892643Y-4729276D01*
X7881823Y-4718456D01*
X7869783Y-4709058D01*
X7856677Y-4701133D01*
X7842250Y-4694732D01*
G37*
G36*
X8301532Y-4768850D02*
G01*
X8375650Y-4768850D01*
X8375650Y-4694732D01*
X8361222Y-4701133D01*
X8348116Y-4709058D01*
X8336076Y-4718456D01*
X8325256Y-4729276D01*
X8315858Y-4741316D01*
X8307933Y-4754422D01*
G37*
G36*
X7679232Y-4768850D02*
G01*
X7753350Y-4768850D01*
X7753350Y-4694732D01*
X7738922Y-4701133D01*
X7725816Y-4709058D01*
X7713776Y-4718456D01*
X7702956Y-4729276D01*
X7693558Y-4741316D01*
X7685633Y-4754422D01*
G37*
G36*
X8464550Y-4768850D02*
G01*
X8538667Y-4768850D01*
X8532266Y-4754422D01*
X8524341Y-4741316D01*
X8514943Y-4729276D01*
X8504123Y-4718456D01*
X8492083Y-4709058D01*
X8478977Y-4701133D01*
X8464550Y-4694732D01*
G37*
G36*
X10907166Y-3881831D02*
G01*
X10913160Y-3879443D01*
X10928553Y-3871315D01*
X10942929Y-3861562D01*
X10956137Y-3850284D01*
X10968126Y-3837686D01*
X10978642Y-3823868D01*
X10987582Y-3808984D01*
X10993983Y-3795166D01*
X10907166Y-3795166D01*
G37*
G36*
X10784433Y-3881831D02*
G01*
X10784433Y-3795166D01*
X10697616Y-3795166D01*
X10704017Y-3808984D01*
X10712958Y-3823868D01*
X10723473Y-3837686D01*
X10735462Y-3850284D01*
X10748670Y-3861562D01*
X10763046Y-3871315D01*
X10778439Y-3879443D01*
G37*
G36*
X10697616Y-3672433D02*
G01*
X10784433Y-3672433D01*
X10784433Y-3585768D01*
X10778439Y-3588156D01*
X10763046Y-3596284D01*
X10748670Y-3606037D01*
X10735462Y-3617315D01*
X10723473Y-3629914D01*
X10712958Y-3643731D01*
X10704017Y-3658615D01*
G37*
G36*
X10907166Y-3672433D02*
G01*
X10993983Y-3672433D01*
X10987582Y-3658615D01*
X10978642Y-3643731D01*
X10968126Y-3629914D01*
X10956137Y-3617315D01*
X10942929Y-3606037D01*
X10928553Y-3596284D01*
X10913160Y-3588156D01*
X10907166Y-3585768D01*
G37*
G36*
X7842250Y-1884476D02*
G01*
X7844281Y-1883054D01*
X7856677Y-1877466D01*
X7869783Y-1869541D01*
X7881823Y-1860143D01*
X7892643Y-1849323D01*
X7902041Y-1837283D01*
X7909966Y-1824177D01*
X7916367Y-1809750D01*
X7842250Y-1809750D01*
G37*
G36*
X8388350Y-1884476D02*
G01*
X8388350Y-1809750D01*
X8314232Y-1809750D01*
X8320633Y-1824177D01*
X8328558Y-1837283D01*
X8337956Y-1849323D01*
X8348776Y-1860143D01*
X8360816Y-1869541D01*
X8373922Y-1877466D01*
X8386318Y-1883054D01*
G37*
G36*
X7753350Y-1884476D02*
G01*
X7753350Y-1809750D01*
X7679232Y-1809750D01*
X7685633Y-1824177D01*
X7693558Y-1837283D01*
X7702956Y-1849323D01*
X7713776Y-1860143D01*
X7725816Y-1869541D01*
X7738922Y-1877466D01*
X7751318Y-1883054D01*
G37*
G36*
X8477250Y-1884476D02*
G01*
X8479282Y-1883054D01*
X8491677Y-1877466D01*
X8504783Y-1869541D01*
X8516823Y-1860143D01*
X8527643Y-1849323D01*
X8537041Y-1837283D01*
X8544966Y-1824177D01*
X8551367Y-1809750D01*
X8477250Y-1809750D01*
G37*
G36*
X8477250Y-1720850D02*
G01*
X8551367Y-1720850D01*
X8544966Y-1706422D01*
X8537041Y-1693316D01*
X8527643Y-1681276D01*
X8516823Y-1670456D01*
X8504783Y-1661058D01*
X8491677Y-1653133D01*
X8477250Y-1646732D01*
G37*
G36*
X7842250Y-1720850D02*
G01*
X7916367Y-1720850D01*
X7909966Y-1706422D01*
X7902041Y-1693316D01*
X7892643Y-1681276D01*
X7881823Y-1670456D01*
X7869783Y-1661058D01*
X7856677Y-1653133D01*
X7842250Y-1646732D01*
G37*
G36*
X7679232Y-1720850D02*
G01*
X7753350Y-1720850D01*
X7753350Y-1646732D01*
X7738922Y-1653133D01*
X7725816Y-1661058D01*
X7713776Y-1670456D01*
X7702956Y-1681276D01*
X7693558Y-1693316D01*
X7685633Y-1706422D01*
G37*
G36*
X8314232Y-1720850D02*
G01*
X8388350Y-1720850D01*
X8388350Y-1646732D01*
X8373922Y-1653133D01*
X8360816Y-1661058D01*
X8348776Y-1670456D01*
X8337956Y-1681276D01*
X8328558Y-1693316D01*
X8320633Y-1706422D01*
G37*

%LPD*%
G36*
X2265680Y-2363012D02*
G01*
X2265680Y-2462987D01*
X2325674Y-2433015D01*
X2325674Y-2392984D01*
G37*
G36*
X2265680Y-2617012D02*
G01*
X2265680Y-2716987D01*
X2286000Y-2687015D01*
X2286000Y-2646984D01*
G37*
G36*
X5595975Y-2910332D02*
G01*
X5535980Y-2947365D01*
X5535980Y-3047339D01*
X5595975Y-2966415D01*
G37*
G36*
X5326024Y-2656128D02*
G01*
X5326024Y-2712669D01*
X5386019Y-2794406D01*
X5386019Y-2694381D01*
G37*
D10*
X2171700Y-5969000D02*
G01*
X3543300Y-5969000D01*
X4178300Y-6604000D01*
X2171700Y-6477000D02*
G01*
X2171700Y-6451600D01*
X3263900Y-6451600D01*
X3416300Y-6604000D01*
D11*
X1905000Y-1651000D02*
G01*
X1625600Y-1651000D01*
X1257300Y-2019300D01*
X1257300Y-6718300D01*
X1968500Y-7429500D01*
X5613400Y-7429500D01*
X5702300Y-7340600D01*
X5702300Y-6858000D01*
X5448300Y-6604000D01*
X2171700Y-2413000D02*
G01*
X2311400Y-2413000D01*
X2451100Y-2273300D01*
X5308600Y-2273300D01*
X5664200Y-2628900D01*
X5664200Y-2868929D01*
X5522722Y-3010407D01*
X5461000Y-3009900D01*
X5461000Y-2755900D02*
G01*
X5257800Y-2755900D01*
X4991100Y-2489200D01*
X2552700Y-2489200D01*
X2374900Y-2667000D01*
X2171700Y-2667000D01*
D10*
X3924300Y-4279900D02*
G01*
X4089400Y-4279900D01*
X4165600Y-4356100D01*
X4165600Y-5715000D01*
X2171700Y-5461000D02*
G01*
X3416300Y-5461000D01*
X4140200Y-6184900D01*
X4533900Y-6184900D01*
X4686300Y-6337300D01*
X4686300Y-6604000D01*
X2171700Y-6223000D02*
G01*
X3289300Y-6223000D01*
X3670300Y-6604000D01*
X1917700Y-6223000D02*
G01*
X1752600Y-6223000D01*
X1727200Y-6248400D01*
X1727200Y-6578600D01*
X1803400Y-6654800D01*
X3111500Y-6654800D01*
X3162300Y-6604000D01*
X1917700Y-5969000D02*
G01*
X1701800Y-5969000D01*
X1638300Y-6032500D01*
X1638300Y-6604000D01*
X1790700Y-6756400D01*
X3771900Y-6756400D01*
X3924300Y-6604000D01*
X1917700Y-5715000D02*
G01*
X1752600Y-5715000D01*
X1549400Y-5918200D01*
X1549400Y-6629400D01*
X1778000Y-6858000D01*
X4178300Y-6858000D01*
X4432300Y-6604000D01*
X1917700Y-2159000D02*
G01*
X1600200Y-2159000D01*
X1460500Y-2298700D01*
X1460500Y-6654800D01*
X1739900Y-6934200D01*
X4610100Y-6934200D01*
X4940300Y-6604000D01*
X1917700Y-1905000D02*
G01*
X1739900Y-1905000D01*
X1371600Y-2273300D01*
X1371600Y-6680200D01*
X1714500Y-7023100D01*
X4775200Y-7023100D01*
X5194300Y-6604000D01*
X6527800Y-3289300D02*
G01*
X5664200Y-4152900D01*
X5283200Y-4152900D01*
X4648200Y-3517900D01*
X3924300Y-3517900D01*
D12*
X7797800Y-2273300D02*
G01*
X8813800Y-2273300D01*
X9613900Y-1473200D01*
X10020300Y-1473200D01*
X7797800Y-2527300D02*
G01*
X9004300Y-2527300D01*
X9550400Y-1981200D01*
X10020300Y-1981200D01*
X7797800Y-5321300D02*
G01*
X9285399Y-5321300D01*
X9729899Y-4876800D01*
X10007600Y-4876800D01*
X7785100Y-4813300D02*
G01*
X8420100Y-4813300D01*
X8432800Y-1765300D02*
G01*
X7797800Y-1765300D01*
X7797800Y-1765300D02*
G01*
X7543800Y-1765300D01*
X7289800Y-2019300D01*
X7289800Y-3670300D01*
X7797800Y-4178300D01*
X7797800Y-4813300D01*
D10*
X5461000Y-4279900D02*
G01*
X6413500Y-4279900D01*
X6972300Y-3721100D01*
D12*
X7797800Y-5575300D02*
G01*
X9575800Y-5575300D01*
X9766300Y-5384800D01*
X10007600Y-5384800D01*
X7797800Y-5829300D02*
G01*
X9563100Y-5829300D01*
X9753600Y-6019800D01*
X10020300Y-6019800D01*
X7797800Y-6083300D02*
G01*
X9296400Y-6083300D01*
X9740900Y-6527800D01*
X10020300Y-6527800D01*
X7797800Y-2781300D02*
G01*
X9258300Y-2781300D01*
X9436100Y-2603500D01*
X10020300Y-2603500D01*
X7797800Y-3035300D02*
G01*
X9486900Y-3035300D01*
X9563100Y-3111500D01*
X10020300Y-3111500D01*
D10*
X7797800Y-6337300D02*
G01*
X7632700Y-6337300D01*
X7277100Y-5981700D01*
X7277100Y-4889500D01*
X6921500Y-4533900D01*
X5461000Y-4533900D01*
D12*
X8420100Y-4813300D02*
G01*
X8699500Y-4813300D01*
X9779000Y-3733800D01*
X10845800Y-3733800D01*
D10*
X3924300Y-3771900D02*
G01*
X4546600Y-3771900D01*
X5194300Y-4419600D01*
X5194300Y-5054600D01*
X6477000Y-6337300D01*
X6527800Y-6337300D01*
X5461000Y-3263900D02*
G01*
X5549900Y-3263900D01*
X5842000Y-2971800D01*
X5842000Y-2451100D01*
X6527800Y-1765300D01*
X5461000Y-3517900D02*
G01*
X5537200Y-3517900D01*
X5969000Y-3086100D01*
X5969000Y-2578100D01*
X6527800Y-2019300D01*
X5461000Y-4025900D02*
G01*
X5537200Y-4025900D01*
X6235700Y-3327400D01*
X6235700Y-2819400D01*
X6527800Y-2527300D01*
X5461000Y-3771900D02*
G01*
X5537200Y-3771900D01*
X6096000Y-3213100D01*
X6096000Y-2705100D01*
X6527800Y-2273300D01*
D13*
G01*
X4102100Y-825500D03*
G01*
X5118100Y-825500D03*
D14*
G01*
X10020300Y-1981200D03*
G01*
X10020300Y-1473200D03*
G01*
X10020300Y-3111500D03*
G01*
X10020300Y-2603500D03*
G01*
X10007600Y-5384800D03*
G01*
X10007600Y-4876800D03*
G01*
X10020300Y-6527800D03*
G01*
X10020300Y-6019800D03*
D15*
G01*
X3162300Y-6604000D03*
G01*
X3416300Y-6604000D03*
G01*
X3670300Y-6604000D03*
G01*
X3924300Y-6604000D03*
G01*
X4178300Y-6604000D03*
G01*
X4432300Y-6604000D03*
G01*
X4686300Y-6604000D03*
G01*
X4940300Y-6604000D03*
G01*
X5194300Y-6604000D03*
D16*
G01*
X5448300Y-6604000D03*
D15*
G01*
X3162300Y-7200900D03*
G01*
X3416300Y-7200900D03*
G01*
X3670300Y-7200900D03*
G01*
X3924300Y-7200900D03*
G01*
X4178300Y-7200900D03*
G01*
X4432300Y-7200900D03*
G01*
X4686300Y-7200900D03*
G01*
X4940300Y-7200900D03*
G01*
X5194300Y-7200900D03*
D16*
G01*
X5448300Y-7200900D03*
D17*
G01*
X3924300Y-2755900D03*
G01*
X3924300Y-3009900D03*
G01*
X3924300Y-3263900D03*
G01*
X3924300Y-3517900D03*
G01*
X3924300Y-3771900D03*
G01*
X3924300Y-4025900D03*
G01*
X3924300Y-4279900D03*
G01*
X3924300Y-4533900D03*
G01*
X5461000Y-4533900D03*
G01*
X5461000Y-4279900D03*
G01*
X5461000Y-4025900D03*
G01*
X5461000Y-3771900D03*
G01*
X5461000Y-3517900D03*
G01*
X5461000Y-3263900D03*
G01*
X5461000Y-3009900D03*
G01*
X5461000Y-2755900D03*
G01*
X4432300Y-4533900D03*
G01*
X4686300Y-4533900D03*
G01*
X4940300Y-4533900D03*
D18*
G01*
X4165600Y-5715000D03*
D19*
G01*
X4419600Y-5715000D03*
D20*
G01*
X3263900Y-1257300D03*
G01*
X3263900Y-1473200D03*
G01*
X3263900Y-1689100D03*
D14*
G01*
X10845800Y-4241800D03*
G01*
X10845800Y-3733800D03*
D21*
G01*
X3302000Y-2781300D03*
G01*
X3302000Y-3035300D03*
G01*
X8432800Y-1765300D03*
G01*
X8432800Y-2019300D03*
G01*
X8420100Y-4813300D03*
G01*
X8420100Y-5067300D03*
D22*
G01*
X1917700Y-1651000D03*
G01*
X2171700Y-1651000D03*
G01*
X1917700Y-1905000D03*
G01*
X2171700Y-1905000D03*
G01*
X1917700Y-2159000D03*
G01*
X2171700Y-2159000D03*
G01*
X1917700Y-2413000D03*
G01*
X2171700Y-2413000D03*
G01*
X1917700Y-2667000D03*
G01*
X2171700Y-2667000D03*
G01*
X1917700Y-2921000D03*
G01*
X2171700Y-2921000D03*
G01*
X1917700Y-3175000D03*
G01*
X2171700Y-3175000D03*
G01*
X1917700Y-3429000D03*
G01*
X2171700Y-3429000D03*
G01*
X1917700Y-3683000D03*
G01*
X2171700Y-3683000D03*
G01*
X1917700Y-3937000D03*
G01*
X2171700Y-3937000D03*
G01*
X1917700Y-4191000D03*
G01*
X2171700Y-4191000D03*
G01*
X1917700Y-4445000D03*
G01*
X2171700Y-4445000D03*
G01*
X1917700Y-4699000D03*
G01*
X2171700Y-4699000D03*
G01*
X1917700Y-4953000D03*
G01*
X2171700Y-4953000D03*
G01*
X1917700Y-5207000D03*
G01*
X2171700Y-5207000D03*
G01*
X1917700Y-5461000D03*
G01*
X2171700Y-5461000D03*
G01*
X1917700Y-5715000D03*
G01*
X2171700Y-5715000D03*
G01*
X1917700Y-5969000D03*
G01*
X2171700Y-5969000D03*
G01*
X1917700Y-6223000D03*
G01*
X2171700Y-6223000D03*
G01*
X1917700Y-6477000D03*
G01*
X2171700Y-6477000D03*
D13*
G01*
X4102100Y-1473200D03*
G01*
X5118100Y-1473200D03*
D21*
G01*
X7797800Y-2273300D03*
G01*
X7797800Y-2019300D03*
G01*
X7797800Y-1765300D03*
G01*
X7797800Y-2527300D03*
G01*
X7797800Y-2781300D03*
G01*
X7797800Y-3035300D03*
G01*
X7797800Y-3289300D03*
G01*
X7797800Y-3543300D03*
G01*
X6527800Y-3543300D03*
G01*
X6527800Y-3289300D03*
G01*
X6527800Y-3035300D03*
G01*
X6527800Y-2781300D03*
G01*
X6527800Y-2527300D03*
G01*
X6527800Y-2273300D03*
G01*
X6527800Y-2019300D03*
G01*
X6527800Y-1765300D03*
G01*
X7797800Y-5321300D03*
G01*
X7797800Y-5067300D03*
G01*
X7797800Y-4813300D03*
G01*
X7797800Y-5575300D03*
G01*
X7797800Y-5829300D03*
G01*
X7797800Y-6083300D03*
G01*
X7797800Y-6337300D03*
G01*
X7797800Y-6591300D03*
G01*
X6527800Y-6591300D03*
G01*
X6527800Y-6337300D03*
G01*
X6527800Y-6083300D03*
G01*
X6527800Y-5829300D03*
G01*
X6527800Y-5575300D03*
G01*
X6527800Y-5321300D03*
G01*
X6527800Y-5067300D03*
G01*
X6527800Y-4813300D03*
D23*
G01*
X6972300Y-3721100D03*
M02*
