M48
; DRILL file {KiCad 9.0.5} date 2026-02-28T09:01:22+0000
; FORMAT={-:-/ absolute / inch / decimal}
; #@! TF.CreationDate,2026-02-28T09:01:22+00:00
; #@! TF.GenerationSoftware,Kicad,Pcbnew,9.0.5
; #@! TF.FileFunction,Plated,1,2,PTH
FMAT,2
INCH
; #@! TA.AperFunction,Plated,PTH,ViaDrill
T1C0.0118
; #@! TA.AperFunction,Plated,PTH,ComponentDrill
T2C0.0315
; #@! TA.AperFunction,Plated,PTH,ComponentDrill
T3C0.0394
; #@! TA.AperFunction,Plated,PTH,ComponentDrill
T4C0.0433
; #@! TA.AperFunction,Plated,PTH,ComponentDrill
T5C0.0512
; #@! TA.AperFunction,Plated,PTH,ComponentDrill
T6C0.1260
%
G90
G05
T1
X5.49Y-3.71
X5.9244Y-3.29
X5.975Y-3.975
T2
X5.04Y-2.5
X5.04Y-2.62
X5.04Y-2.82
X5.44Y-2.5
X5.44Y-2.62
X5.44Y-2.82
X5.8616Y-1.86
X5.96Y-1.86
X6.05Y-2.95
X6.05Y-3.15
X6.06Y-2.1
X6.06Y-2.2
X6.06Y-2.3
X6.06Y-2.4
X6.06Y-2.5
X6.06Y-2.6
X6.06Y-2.7
X6.06Y-2.8
X6.06Y-3.29
X6.06Y-3.39
X6.06Y-3.49
X6.06Y-3.59
X6.06Y-3.69
X6.06Y-3.79
X6.06Y-3.89
X6.06Y-3.99
X6.4266Y-1.85
X6.45Y-2.95
X6.45Y-3.15
X6.525Y-1.85
X6.56Y-2.1
X6.56Y-2.2
X6.56Y-2.3
X6.56Y-2.4
X6.56Y-2.5
X6.56Y-2.6
X6.56Y-2.7
X6.56Y-2.8
X6.56Y-3.29
X6.56Y-3.39
X6.56Y-3.49
X6.56Y-3.59
X6.56Y-3.69
X6.56Y-3.79
X6.56Y-3.89
X6.56Y-3.99
X6.65Y-3.05
X6.7484Y-3.05
T3
X3.67Y-2.19
X3.67Y-2.29
X3.67Y-2.39
X3.67Y-2.49
X3.67Y-3.0
X3.67Y-3.1
X3.67Y-3.2
X3.67Y-3.3
X3.67Y-3.4
X3.67Y-3.5
X3.67Y-3.6
X3.67Y-3.7
X3.67Y-3.8
X3.67Y-3.9
X4.008Y-2.0511
X4.008Y-2.1511
X4.008Y-2.2511
X4.008Y-2.3511
X4.008Y-2.4511
X4.008Y-2.5511
X4.008Y-2.6511
X4.008Y-2.7511
X4.008Y-2.8511
X4.008Y-2.9511
X4.008Y-3.0511
X4.008Y-3.1511
X4.008Y-3.2511
X4.008Y-3.3511
X4.008Y-3.4511
X4.008Y-3.5511
X4.008Y-3.6511
X4.008Y-3.7511
X4.008Y-3.8511
X4.008Y-3.9511
X4.108Y-2.0511
X4.108Y-2.1511
X4.108Y-2.2511
X4.108Y-2.3511
X4.108Y-2.4511
X4.108Y-2.5511
X4.108Y-2.6511
X4.108Y-2.7511
X4.108Y-2.8511
X4.108Y-2.9511
X4.108Y-3.0511
X4.108Y-3.1511
X4.108Y-3.2511
X4.108Y-3.3511
X4.108Y-3.4511
X4.108Y-3.5511
X4.108Y-3.6511
X4.108Y-3.7511
X4.108Y-3.8511
X4.108Y-3.9511
X4.3896Y-1.85
X4.39Y-2.83
X4.39Y-3.25
X4.39Y-3.64
X4.475Y-4.19
X4.4896Y-1.85
X4.49Y-2.83
X4.49Y-3.25
X4.49Y-3.64
X4.575Y-4.19
X4.5896Y-1.85
X4.59Y-2.83
X4.59Y-3.25
X4.59Y-3.64
X4.675Y-4.19
X4.6896Y-1.85
X4.69Y-2.83
X4.69Y-3.25
X4.69Y-3.64
X4.775Y-4.19
X4.875Y-4.19
X4.891Y-2.0612
X4.891Y-2.1612
X4.891Y-2.2612
X4.891Y-2.3612
X4.891Y-2.4612
X4.891Y-2.5612
X4.891Y-2.6612
X4.891Y-2.7612
X4.891Y-2.8612
X4.891Y-2.9612
X4.891Y-3.0612
X4.891Y-3.1612
X4.891Y-3.2612
X4.891Y-3.3612
X4.891Y-3.4612
X4.891Y-3.5612
X4.891Y-3.6612
X4.891Y-3.7612
X4.891Y-3.8612
X4.891Y-3.9612
X4.975Y-4.19
X5.075Y-4.19
X5.175Y-4.19
X5.275Y-4.19
X5.375Y-4.19
X5.475Y-4.19
X5.575Y-4.19
X5.591Y-2.0612
X5.591Y-2.1612
X5.591Y-2.2612
X5.591Y-2.3612
X5.591Y-2.4612
X5.591Y-2.5612
X5.591Y-2.6612
X5.591Y-2.7612
X5.591Y-2.8612
X5.591Y-2.9612
X5.591Y-3.0612
X5.591Y-3.1612
X5.591Y-3.2612
X5.591Y-3.3612
X5.591Y-3.4612
X5.591Y-3.5612
X5.591Y-3.6612
X5.591Y-3.7612
X5.591Y-3.8612
X5.591Y-3.9612
X5.675Y-4.19
X5.775Y-4.19
X5.875Y-4.19
X5.975Y-4.19
X6.075Y-4.19
X6.1598Y-3.29
X6.16Y-2.1
X6.175Y-4.19
X6.2598Y-3.29
X6.26Y-2.1
X6.275Y-4.19
X6.375Y-4.19
X6.84Y-1.87
X6.94Y-1.87
X7.04Y-1.87
X7.14Y-1.87
X7.45Y-2.24
X7.45Y-2.34
X7.45Y-2.44
X7.45Y-2.54
X7.45Y-3.5596
X7.45Y-3.6596
X7.45Y-3.7596
X7.45Y-3.8596
T4
X5.195Y-1.87
X5.195Y-2.17
T5
X7.02Y-2.09
X7.02Y-2.29
X7.02Y-2.49
X7.02Y-2.69
X7.03Y-3.41
X7.03Y-3.61
X7.03Y-3.81
X7.03Y-4.01
X7.23Y-2.95
X7.23Y-3.15
T6
X3.6143Y-1.8543
X3.6143Y-4.2165
X7.5513Y-1.8543
X7.5513Y-4.2165
M30
