%TF.GenerationSoftware,KiCad,Pcbnew,9.0.5*%
%TF.CreationDate,2026-02-28T09:01:38+00:00*%
%TF.ProjectId,Pilomar3_2025_12,50696c6f-6d61-4723-935f-323032355f31,rev?*%
%TF.SameCoordinates,Original*%
%TF.FileFunction,Copper,L1,Top*%
%TF.FilePolarity,Positive*%
%FSLAX46Y46*%
G04 Gerber Fmt 4.6, Leading zero omitted, Abs format (unit mm)*
G04 Created by KiCad (PCBNEW 9.0.5) date 2026-02-28 09:01:38*
%MOMM*%
%LPD*%
G01*
G04 APERTURE LIST*
G04 Aperture macros list*
%AMRoundRect*
0 Rectangle with rounded corners*
0 $1 Rounding radius*
0 $2 $3 $4 $5 $6 $7 $8 $9 X,Y pos of 4 corners*
0 Add a 4 corners polygon primitive as box body*
4,1,4,$2,$3,$4,$5,$6,$7,$8,$9,$2,$3,0*
0 Add four circle primitives for the rounded corners*
1,1,$1+$1,$2,$3*
1,1,$1+$1,$4,$5*
1,1,$1+$1,$6,$7*
1,1,$1+$1,$8,$9*
0 Add four rect primitives between the rounded corners*
20,1,$1+$1,$2,$3,$4,$5,0*
20,1,$1+$1,$4,$5,$6,$7,0*
20,1,$1+$1,$6,$7,$8,$9,0*
20,1,$1+$1,$8,$9,$2,$3,0*%
G04 Aperture macros list end*
%TA.AperFunction,SMDPad,CuDef*%
%ADD10RoundRect,0.250000X-0.400000X-0.625000X0.400000X-0.625000X0.400000X0.625000X-0.400000X0.625000X0*%
%TD*%
%TA.AperFunction,ComponentPad*%
%ADD11R,2.200000X2.200000*%
%TD*%
%TA.AperFunction,ComponentPad*%
%ADD12O,2.200000X2.200000*%
%TD*%
%TA.AperFunction,ComponentPad*%
%ADD13R,1.600000X1.600000*%
%TD*%
%TA.AperFunction,ComponentPad*%
%ADD14O,1.600000X1.600000*%
%TD*%
%TA.AperFunction,ComponentPad*%
%ADD15C,1.600000*%
%TD*%
%TA.AperFunction,ComponentPad*%
%ADD16C,5.600000*%
%TD*%
%TA.AperFunction,ComponentPad*%
%ADD17R,1.700000X1.700000*%
%TD*%
%TA.AperFunction,ComponentPad*%
%ADD18O,1.700000X1.700000*%
%TD*%
%TA.AperFunction,ComponentPad*%
%ADD19RoundRect,0.250000X-0.600000X-0.600000X0.600000X-0.600000X0.600000X0.600000X-0.600000X0.600000X0*%
%TD*%
%TA.AperFunction,ComponentPad*%
%ADD20C,1.700000*%
%TD*%
%TA.AperFunction,ComponentPad*%
%ADD21R,2.600000X2.600000*%
%TD*%
%TA.AperFunction,ComponentPad*%
%ADD22C,2.600000*%
%TD*%
%TA.AperFunction,ViaPad*%
%ADD23C,0.600000*%
%TD*%
%TA.AperFunction,Conductor*%
%ADD24C,0.500000*%
%TD*%
%TA.AperFunction,Conductor*%
%ADD25C,0.300000*%
%TD*%
%TA.AperFunction,Conductor*%
%ADD26C,0.200000*%
%TD*%
%TA.AperFunction,Conductor*%
%ADD27C,1.000000*%
%TD*%
%TA.AperFunction,Conductor*%
%ADD28C,0.400000*%
%TD*%
%TA.AperFunction,Conductor*%
%ADD29C,2.000000*%
%TD*%
G04 APERTURE END LIST*
D10*
%TO.P,R7,1*%
%TO.N,RPI_3V3*%
X91795000Y-71755000D03*
%TO.P,R7,2*%
%TO.N,RPI_SCL*%
X94895000Y-71755000D03*
%TD*%
D11*
%TO.P,D1,1,K*%
%TO.N,Net-(D1-K)*%
X131953000Y-55118000D03*
D12*
%TO.P,D1,2,A*%
%TO.N,RPI_5V*%
X131953000Y-47498000D03*
%TD*%
D13*
%TO.P,A1,1,GND*%
%TO.N,GND*%
X166624000Y-71120000D03*
D14*
%TO.P,A1,2,~{FLT}*%
%TO.N,PICO_3V3*%
X166624000Y-68580000D03*
%TO.P,A1,3,A2*%
%TO.N,Net-(A1-A2)*%
X166624000Y-66040000D03*
%TO.P,A1,4,A1*%
%TO.N,Net-(A1-A1)*%
X166624000Y-63500000D03*
%TO.P,A1,5,B1*%
%TO.N,Net-(A1-B1)*%
X166624000Y-60960000D03*
%TO.P,A1,6,B2*%
%TO.N,Net-(A1-B2)*%
X166624000Y-58420000D03*
%TO.P,A1,7,GND*%
%TO.N,GND*%
X166624000Y-55880000D03*
%TO.P,A1,8,VMOT*%
%TO.N,VMOT*%
X166624000Y-53340000D03*
%TO.P,A1,9,~{EN}*%
%TO.N,COM_EN*%
X153924000Y-53340000D03*
%TO.P,A1,10,M0*%
%TO.N,GND*%
X153924000Y-55880000D03*
%TO.P,A1,11,M1*%
X153924000Y-58420000D03*
%TO.P,A1,12,M2*%
%TO.N,U1_RX2TX*%
X153924000Y-60960000D03*
%TO.P,A1,13,~{RST}*%
%TO.N,unconnected-(A1-~{RST}-Pad13)*%
X153924000Y-63500000D03*
%TO.P,A1,14,~{SLP}*%
%TO.N,unconnected-(A1-~{SLP}-Pad14)*%
X153924000Y-66040000D03*
%TO.P,A1,15,STEP*%
%TO.N,AZ_STEP*%
X153924000Y-68580000D03*
%TO.P,A1,16,DIR*%
%TO.N,COM_DIR*%
X153924000Y-71120000D03*
%TD*%
D15*
%TO.P,R2,1*%
%TO.N,A0*%
X153670000Y-74930000D03*
D14*
%TO.P,R2,2*%
%TO.N,VMOT*%
X163830000Y-74930000D03*
%TD*%
D16*
%TO.P,REF\u002A\u002A,1*%
%TO.N,N/C*%
X91802000Y-107098000D03*
%TD*%
D13*
%TO.P,A2,1,GND*%
%TO.N,GND*%
X166624000Y-101346000D03*
D14*
%TO.P,A2,2,~{FLT}*%
%TO.N,PICO_3V3*%
X166624000Y-98806000D03*
%TO.P,A2,3,A2*%
%TO.N,Net-(A2-A2)*%
X166624000Y-96266000D03*
%TO.P,A2,4,A1*%
%TO.N,Net-(A2-A1)*%
X166624000Y-93726000D03*
%TO.P,A2,5,B1*%
%TO.N,Net-(A2-B1)*%
X166624000Y-91186000D03*
%TO.P,A2,6,B2*%
%TO.N,Net-(A2-B2)*%
X166624000Y-88646000D03*
%TO.P,A2,7,GND*%
%TO.N,GND*%
X166624000Y-86106000D03*
%TO.P,A2,8,VMOT*%
%TO.N,VMOT*%
X166624000Y-83566000D03*
%TO.P,A2,9,~{EN}*%
%TO.N,COM_EN*%
X153924000Y-83566000D03*
%TO.P,A2,10,M0*%
%TO.N,PICO_3V3*%
X153924000Y-86106000D03*
%TO.P,A2,11,M1*%
%TO.N,GND*%
X153924000Y-88646000D03*
%TO.P,A2,12,M2*%
%TO.N,U1_RX2TX*%
X153924000Y-91186000D03*
%TO.P,A2,13,~{RST}*%
%TO.N,unconnected-(A2-~{RST}-Pad13)*%
X153924000Y-93726000D03*
%TO.P,A2,14,~{SLP}*%
%TO.N,unconnected-(A2-~{SLP}-Pad14)*%
X153924000Y-96266000D03*
%TO.P,A2,15,STEP*%
%TO.N,ALT_STEP*%
X153924000Y-98806000D03*
%TO.P,A2,16,DIR*%
%TO.N,COM_DIR*%
X153924000Y-101346000D03*
%TD*%
D17*
%TO.P,J6,1,Pin_1*%
%TO.N,Net-(A2-A2)*%
X189230000Y-98034000D03*
D18*
%TO.P,J6,2,Pin_2*%
%TO.N,Net-(A2-A1)*%
X189230000Y-95494000D03*
%TO.P,J6,3,Pin_3*%
%TO.N,Net-(A2-B1)*%
X189230000Y-92954000D03*
%TO.P,J6,4,Pin_4*%
%TO.N,Net-(A2-B2)*%
X189230000Y-90414000D03*
%TD*%
D17*
%TO.P,J15,1,Pin_1*%
%TO.N,unconnected-(J15-Pin_1-Pad1)*%
X156459000Y-83566000D03*
D18*
%TO.P,J15,2,Pin_2*%
%TO.N,ALT_FAULT*%
X158999000Y-83566000D03*
%TD*%
D17*
%TO.P,J3,1,Pin_1*%
%TO.N,Net-(D1-K)*%
X142011000Y-52354000D03*
D18*
%TO.P,J3,2,Pin_2*%
%TO.N,unconnected-(J3-Pin_2-Pad2)*%
X142011000Y-54894000D03*
%TO.P,J3,3,Pin_3*%
%TO.N,GND*%
X142011000Y-57434000D03*
%TO.P,J3,4,Pin_4*%
%TO.N,unconnected-(J3-Pin_4-Pad4)*%
X142011000Y-59974000D03*
%TO.P,J3,5,Pin_5*%
%TO.N,PICO_3V3*%
X142011000Y-62514000D03*
%TO.P,J3,6,Pin_6*%
%TO.N,ADC_VREF*%
X142011000Y-65054000D03*
%TO.P,J3,7,Pin_7*%
%TO.N,A2*%
X142011000Y-67594000D03*
%TO.P,J3,8,Pin_8*%
%TO.N,GND*%
X142011000Y-70134000D03*
%TO.P,J3,9,Pin_9*%
%TO.N,A1*%
X142011000Y-72674000D03*
%TO.P,J3,10,Pin_10*%
%TO.N,A0*%
X142011000Y-75214000D03*
%TO.P,J3,11,Pin_11*%
%TO.N,PICO_RUN*%
X142011000Y-77754000D03*
%TO.P,J3,12,Pin_12*%
%TO.N,ALT_FAULT*%
X142011000Y-80294000D03*
%TO.P,J3,13,Pin_13*%
%TO.N,GND*%
X142011000Y-82834000D03*
%TO.P,J3,14,Pin_14*%
%TO.N,COM_EN*%
X142011000Y-85374000D03*
%TO.P,J3,15,Pin_15*%
%TO.N,unconnected-(J3-Pin_15-Pad15)*%
X142011000Y-87914000D03*
%TO.P,J3,16,Pin_16*%
%TO.N,GP19*%
X142011000Y-90454000D03*
%TO.P,J3,17,Pin_17*%
%TO.N,GP18*%
X142011000Y-92994000D03*
%TO.P,J3,18,Pin_18*%
%TO.N,GND*%
X142011000Y-95534000D03*
%TO.P,J3,19,Pin_19*%
%TO.N,ALT_STEP*%
X142011000Y-98074000D03*
%TO.P,J3,20,Pin_20*%
%TO.N,COM_DIR*%
X142011000Y-100614000D03*
%TD*%
D15*
%TO.P,R5,1*%
%TO.N,PICO_3V3*%
X138176000Y-63500000D03*
D14*
%TO.P,R5,2*%
%TO.N,PICO_SDA*%
X128016000Y-63500000D03*
%TD*%
D19*
%TO.P,J1,1,Pin_1*%
%TO.N,RPI_3V3*%
X101802000Y-52098000D03*
D20*
%TO.P,J1,2,Pin_2*%
%TO.N,RPI_5V*%
X104342000Y-52098000D03*
%TO.P,J1,3,Pin_3*%
%TO.N,RPI_SDA*%
X101802000Y-54638000D03*
%TO.P,J1,4,Pin_4*%
%TO.N,RPI_5V*%
X104342000Y-54638000D03*
%TO.P,J1,5,Pin_5*%
%TO.N,RPI_SCL*%
X101802000Y-57178000D03*
%TO.P,J1,6,Pin_6*%
%TO.N,GND*%
X104342000Y-57178000D03*
%TO.P,J1,7,Pin_7*%
%TO.N,GPIO_4*%
X101802000Y-59718000D03*
%TO.P,J1,8,Pin_8*%
%TO.N,U0_TX2RX*%
X104342000Y-59718000D03*
%TO.P,J1,9,Pin_9*%
%TO.N,GND*%
X101802000Y-62258000D03*
%TO.P,J1,10,Pin_10*%
%TO.N,U0_RX2TX*%
X104342000Y-62258000D03*
%TO.P,J1,11,Pin_11*%
%TO.N,/TMC2209_FLAG*%
X101802000Y-64798000D03*
%TO.P,J1,12,Pin_12*%
%TO.N,GPIO_18*%
X104342000Y-64798000D03*
%TO.P,J1,13,Pin_13*%
%TO.N,/PICO2_FLAG*%
X101802000Y-67338000D03*
%TO.P,J1,14,Pin_14*%
%TO.N,GND*%
X104342000Y-67338000D03*
%TO.P,J1,15,Pin_15*%
%TO.N,/USBPROTECT_FLAG*%
X101802000Y-69878000D03*
%TO.P,J1,16,Pin_16*%
%TO.N,PICO_RUN*%
X104342000Y-69878000D03*
%TO.P,J1,17,Pin_17*%
%TO.N,unconnected-(J1-Pin_17-Pad17)*%
X101802000Y-72418000D03*
%TO.P,J1,18,Pin_18*%
%TO.N,GPIO_24*%
X104342000Y-72418000D03*
%TO.P,J1,19,Pin_19*%
%TO.N,SPI0_MOSI*%
X101802000Y-74958000D03*
%TO.P,J1,20,Pin_20*%
%TO.N,GND*%
X104342000Y-74958000D03*
%TO.P,J1,21,Pin_21*%
%TO.N,SPI0_MISO*%
X101802000Y-77498000D03*
%TO.P,J1,22,Pin_22*%
%TO.N,OBS_STOP*%
X104342000Y-77498000D03*
%TO.P,J1,23,Pin_23*%
%TO.N,SPI0_CLK*%
X101802000Y-80038000D03*
%TO.P,J1,24,Pin_24*%
%TO.N,CE0*%
X104342000Y-80038000D03*
%TO.P,J1,25,Pin_25*%
%TO.N,GND*%
X101802000Y-82578000D03*
%TO.P,J1,26,Pin_26*%
%TO.N,CE1*%
X104342000Y-82578000D03*
%TO.P,J1,27,Pin_27*%
%TO.N,unconnected-(J1-Pin_27-Pad27)*%
X101802000Y-85118000D03*
%TO.P,J1,28,Pin_28*%
%TO.N,unconnected-(J1-Pin_28-Pad28)*%
X104342000Y-85118000D03*
%TO.P,J1,29,Pin_29*%
%TO.N,GPIO_5*%
X101802000Y-87658000D03*
%TO.P,J1,30,Pin_30*%
%TO.N,GND*%
X104342000Y-87658000D03*
%TO.P,J1,31,Pin_31*%
%TO.N,GPIO_6*%
X101802000Y-90198000D03*
%TO.P,J1,32,Pin_32*%
%TO.N,GPIO_12*%
X104342000Y-90198000D03*
%TO.P,J1,33,Pin_33*%
%TO.N,GPIO_13*%
X101802000Y-92738000D03*
%TO.P,J1,34,Pin_34*%
%TO.N,GND*%
X104342000Y-92738000D03*
%TO.P,J1,35,Pin_35*%
%TO.N,GPIO_19*%
X101802000Y-95278000D03*
%TO.P,J1,36,Pin_36*%
%TO.N,unconnected-(J1-Pin_36-Pad36)*%
X104342000Y-95278000D03*
%TO.P,J1,37,Pin_37*%
%TO.N,GPIO_26*%
X101802000Y-97818000D03*
%TO.P,J1,38,Pin_38*%
%TO.N,GPIO_20*%
X104342000Y-97818000D03*
%TO.P,J1,39,Pin_39*%
%TO.N,GND*%
X101802000Y-100358000D03*
%TO.P,J1,40,Pin_40*%
%TO.N,GPIO_21*%
X104342000Y-100358000D03*
%TD*%
D17*
%TO.P,J13,1,Pin_1*%
%TO.N,GND*%
X119116000Y-46990000D03*
D18*
%TO.P,J13,2,Pin_2*%
%TO.N,RPI_5V*%
X116576000Y-46990000D03*
%TO.P,J13,3,Pin_3*%
%TO.N,GND*%
X114036000Y-46990000D03*
%TO.P,J13,4,Pin_4*%
%TO.N,RPI_5V*%
X111496000Y-46990000D03*
%TD*%
D21*
%TO.P,J8,1,Pin_1*%
%TO.N,GND*%
X183642000Y-80010000D03*
D22*
%TO.P,J8,2,Pin_2*%
%TO.N,VMOT*%
X183642000Y-74930000D03*
%TD*%
D10*
%TO.P,R6,1*%
%TO.N,RPI_3V3*%
X91795000Y-67945000D03*
%TO.P,R6,2*%
%TO.N,RPI_SDA*%
X94895000Y-67945000D03*
%TD*%
D16*
%TO.P,REF\u002A\u002A,1*%
%TO.N,N/C*%
X191802000Y-47098000D03*
%TD*%
D17*
%TO.P,J22,1,Pin_1*%
%TO.N,GND*%
X111506000Y-92456000D03*
D18*
%TO.P,J22,2,Pin_2*%
%TO.N,PICO_3V3*%
X114046000Y-92456000D03*
%TO.P,J22,3,Pin_3*%
%TO.N,PICO_SDA*%
X116586000Y-92456000D03*
%TO.P,J22,4,Pin_4*%
%TO.N,PICO_SCL*%
X119126000Y-92456000D03*
%TD*%
D15*
%TO.P,R4,1*%
%TO.N,PICO_3V3*%
X138176000Y-66548000D03*
D14*
%TO.P,R4,2*%
%TO.N,PICO_SCL*%
X128016000Y-66548000D03*
%TD*%
D17*
%TO.P,J21,1,Pin_1*%
%TO.N,GND*%
X111506000Y-82550000D03*
D18*
%TO.P,J21,2,Pin_2*%
%TO.N,PICO_3V3*%
X114046000Y-82550000D03*
%TO.P,J21,3,Pin_3*%
%TO.N,PICO_SDA*%
X116586000Y-82550000D03*
%TO.P,J21,4,Pin_4*%
%TO.N,PICO_SCL*%
X119126000Y-82550000D03*
%TD*%
D17*
%TO.P,J20,1,Pin_1*%
%TO.N,GND*%
X111506000Y-71882000D03*
D18*
%TO.P,J20,2,Pin_2*%
%TO.N,PICO_3V3*%
X114046000Y-71882000D03*
%TO.P,J20,3,Pin_3*%
%TO.N,PICO_SDA*%
X116586000Y-71882000D03*
%TO.P,J20,4,Pin_4*%
%TO.N,PICO_SCL*%
X119126000Y-71882000D03*
%TD*%
D16*
%TO.P,REF\u002A\u002A,1*%
%TO.N,N/C*%
X191802000Y-107098000D03*
%TD*%
D21*
%TO.P,J4,1,Pin_1*%
%TO.N,Net-(A1-A2)*%
X178308000Y-68326000D03*
D22*
%TO.P,J4,2,Pin_2*%
%TO.N,Net-(A1-A1)*%
X178308000Y-63246000D03*
%TO.P,J4,3,Pin_3*%
%TO.N,Net-(A1-B1)*%
X178308000Y-58166000D03*
%TO.P,J4,4,Pin_4*%
%TO.N,Net-(A1-B2)*%
X178308000Y-53086000D03*
%TD*%
D17*
%TO.P,J14,1,Pin_1*%
%TO.N,unconnected-(J14-Pin_1-Pad1)*%
X156464000Y-53340000D03*
D18*
%TO.P,J14,2,Pin_2*%
%TO.N,AZ_FAULT*%
X159004000Y-53340000D03*
%TD*%
D15*
%TO.P,C2,1*%
%TO.N,VMOT*%
X163235000Y-46990000D03*
%TO.P,C2,2*%
%TO.N,GND*%
X165735000Y-46990000D03*
%TD*%
%TO.P,C1,1*%
%TO.N,Net-(D1-K)*%
X148884000Y-47244000D03*
%TO.P,C1,2*%
%TO.N,GND*%
X151384000Y-47244000D03*
%TD*%
D17*
%TO.P,J10,1,Pin_1*%
%TO.N,GND*%
X93218000Y-55626000D03*
D18*
%TO.P,J10,2,Pin_2*%
%TO.N,RPI_3V3*%
X93218000Y-58166000D03*
%TO.P,J10,3,Pin_3*%
%TO.N,RPI_SDA*%
X93218000Y-60706000D03*
%TO.P,J10,4,Pin_4*%
%TO.N,RPI_SCL*%
X93218000Y-63246000D03*
%TD*%
D17*
%TO.P,J9,1,Pin_1*%
%TO.N,GND*%
X113665000Y-106426000D03*
D18*
%TO.P,J9,2,Pin_2*%
%TO.N,GPIO_21*%
X116205000Y-106426000D03*
%TO.P,J9,3,Pin_3*%
%TO.N,GPIO_20*%
X118745000Y-106426000D03*
%TO.P,J9,4,Pin_4*%
%TO.N,GPIO_13*%
X121285000Y-106426000D03*
%TO.P,J9,5,Pin_5*%
%TO.N,GPIO_12*%
X123825000Y-106426000D03*
%TO.P,J9,6,Pin_6*%
%TO.N,OBS_STOP*%
X126365000Y-106426000D03*
%TO.P,J9,7,Pin_7*%
%TO.N,GND*%
X128905000Y-106426000D03*
%TO.P,J9,8,Pin_8*%
%TO.N,GP15*%
X131445000Y-106426000D03*
%TO.P,J9,9,Pin_9*%
%TO.N,GP14*%
X133985000Y-106426000D03*
%TO.P,J9,10,Pin_10*%
%TO.N,GP13*%
X136525000Y-106426000D03*
%TO.P,J9,11,Pin_11*%
%TO.N,GP12*%
X139065000Y-106426000D03*
%TO.P,J9,12,Pin_12*%
%TO.N,GND*%
X141605000Y-106426000D03*
%TO.P,J9,13,Pin_13*%
%TO.N,MTR_STOP*%
X144145000Y-106426000D03*
%TO.P,J9,14,Pin_14*%
%TO.N,GP18*%
X146685000Y-106426000D03*
%TO.P,J9,15,Pin_15*%
%TO.N,GP19*%
X149225000Y-106426000D03*
%TO.P,J9,16,Pin_16*%
%TO.N,A1*%
X151765000Y-106426000D03*
%TO.P,J9,17,Pin_17*%
%TO.N,A2*%
X154305000Y-106426000D03*
%TO.P,J9,18,Pin_18*%
%TO.N,GND*%
X156845000Y-106426000D03*
%TO.P,J9,19,Pin_19*%
%TO.N,PICO_3V3*%
X159385000Y-106426000D03*
%TO.P,J9,20,Pin_20*%
%TO.N,GND*%
X161925000Y-106426000D03*
%TD*%
D17*
%TO.P,J2,1,Pin_1*%
%TO.N,U0_RX2TX*%
X124231000Y-52354000D03*
D18*
%TO.P,J2,2,Pin_2*%
%TO.N,U0_TX2RX*%
X124231000Y-54894000D03*
%TO.P,J2,3,Pin_3*%
%TO.N,GND*%
X124231000Y-57434000D03*
%TO.P,J2,4,Pin_4*%
%TO.N,unconnected-(J2-Pin_4-Pad4)*%
X124231000Y-59974000D03*
%TO.P,J2,5,Pin_5*%
%TO.N,unconnected-(J2-Pin_5-Pad5)*%
X124231000Y-62514000D03*
%TO.P,J2,6,Pin_6*%
%TO.N,PICO_SDA*%
X124231000Y-65054000D03*
%TO.P,J2,7,Pin_7*%
%TO.N,PICO_SCL*%
X124231000Y-67594000D03*
%TO.P,J2,8,Pin_8*%
%TO.N,GND*%
X124231000Y-70134000D03*
%TO.P,J2,9,Pin_9*%
%TO.N,unconnected-(J2-Pin_9-Pad9)*%
X124231000Y-72674000D03*
%TO.P,J2,10,Pin_10*%
%TO.N,AZ_STEP*%
X124231000Y-75214000D03*
%TO.P,J2,11,Pin_11*%
%TO.N,Net-(J2-Pin_11)*%
X124231000Y-77754000D03*
%TO.P,J2,12,Pin_12*%
%TO.N,U1_RX2TX*%
X124231000Y-80294000D03*
%TO.P,J2,13,Pin_13*%
%TO.N,GND*%
X124231000Y-82834000D03*
%TO.P,J2,14,Pin_14*%
%TO.N,AZ_FAULT*%
X124231000Y-85374000D03*
%TO.P,J2,15,Pin_15*%
%TO.N,MTR_STOP*%
X124231000Y-87914000D03*
%TO.P,J2,16,Pin_16*%
%TO.N,GP12*%
X124231000Y-90454000D03*
%TO.P,J2,17,Pin_17*%
%TO.N,GP13*%
X124231000Y-92994000D03*
%TO.P,J2,18,Pin_18*%
%TO.N,GND*%
X124231000Y-95534000D03*
%TO.P,J2,19,Pin_19*%
%TO.N,GP14*%
X124231000Y-98074000D03*
%TO.P,J2,20,Pin_20*%
%TO.N,GP15*%
X124231000Y-100614000D03*
%TD*%
D15*
%TO.P,R1,1*%
%TO.N,A0*%
X153670000Y-80010000D03*
D14*
%TO.P,R1,2*%
%TO.N,GND*%
X163830000Y-80010000D03*
%TD*%
D21*
%TO.P,J5,1,Pin_1*%
%TO.N,Net-(A2-A2)*%
X178562000Y-101854000D03*
D22*
%TO.P,J5,2,Pin_2*%
%TO.N,Net-(A2-A1)*%
X178562000Y-96774000D03*
%TO.P,J5,3,Pin_3*%
%TO.N,Net-(A2-B1)*%
X178562000Y-91694000D03*
%TO.P,J5,4,Pin_4*%
%TO.N,Net-(A2-B2)*%
X178562000Y-86614000D03*
%TD*%
D15*
%TO.P,C3,1*%
%TO.N,VMOT*%
X168910000Y-77470000D03*
%TO.P,C3,2*%
%TO.N,GND*%
X171410000Y-77470000D03*
%TD*%
D16*
%TO.P,REF\u002A\u002A,1*%
%TO.N,N/C*%
X91802000Y-47098000D03*
%TD*%
D17*
%TO.P,J12,1,Pin_1*%
%TO.N,GND*%
X181356000Y-47498000D03*
D18*
%TO.P,J12,2,Pin_2*%
%TO.N,VMOT*%
X178816000Y-47498000D03*
%TO.P,J12,3,Pin_3*%
%TO.N,GND*%
X176276000Y-47498000D03*
%TO.P,J12,4,Pin_4*%
%TO.N,VMOT*%
X173736000Y-47498000D03*
%TD*%
D17*
%TO.P,J7,1,Pin_1*%
%TO.N,Net-(A1-A2)*%
X189230000Y-64516000D03*
D18*
%TO.P,J7,2,Pin_2*%
%TO.N,Net-(A1-A1)*%
X189230000Y-61976000D03*
%TO.P,J7,3,Pin_3*%
%TO.N,Net-(A1-B1)*%
X189230000Y-59436000D03*
%TO.P,J7,4,Pin_4*%
%TO.N,Net-(A1-B2)*%
X189230000Y-56896000D03*
%TD*%
D15*
%TO.P,R3,1*%
%TO.N,U1_RX2TX*%
X138176000Y-71628000D03*
D14*
%TO.P,R3,2*%
%TO.N,Net-(J2-Pin_11)*%
X128016000Y-71628000D03*
%TD*%
D17*
%TO.P,J11,1,Pin_1*%
%TO.N,GPIO_4*%
X93218000Y-76200000D03*
D18*
%TO.P,J11,2,Pin_2*%
%TO.N,GND*%
X93218000Y-78740000D03*
%TO.P,J11,3,Pin_3*%
%TO.N,SPI0_MOSI*%
X93218000Y-81280000D03*
%TO.P,J11,4,Pin_4*%
%TO.N,SPI0_MISO*%
X93218000Y-83820000D03*
%TO.P,J11,5,Pin_5*%
%TO.N,SPI0_CLK*%
X93218000Y-86360000D03*
%TO.P,J11,6,Pin_6*%
%TO.N,GPIO_5*%
X93218000Y-88900000D03*
%TO.P,J11,7,Pin_7*%
%TO.N,GPIO_6*%
X93218000Y-91440000D03*
%TO.P,J11,8,Pin_8*%
%TO.N,GPIO_19*%
X93218000Y-93980000D03*
%TO.P,J11,9,Pin_9*%
%TO.N,GPIO_26*%
X93218000Y-96520000D03*
%TO.P,J11,10,Pin_10*%
%TO.N,GND*%
X93218000Y-99060000D03*
%TD*%
D23*
%TO.N,COM_DIR*%
X151765000Y-100965000D03*
%TO.N,COM_EN*%
X150480000Y-83566000D03*
%TO.N,U1_RX2TX*%
X139446000Y-94234000D03*
%TD*%
D24*
%TO.N,GPIO_6*%
X101802000Y-90198000D02*
X98016000Y-90198000D01*
X98016000Y-90198000D02*
X96774000Y-91440000D01*
X96774000Y-91440000D02*
X93218000Y-91440000D01*
%TO.N,GPIO_5*%
X101802000Y-87658000D02*
X97889000Y-87658000D01*
X97889000Y-87658000D02*
X96647000Y-88900000D01*
X96647000Y-88900000D02*
X93218000Y-88900000D01*
%TO.N,GPIO_26*%
X96520000Y-96520000D02*
X93218000Y-96520000D01*
X97818000Y-97818000D02*
X96520000Y-96520000D01*
X101802000Y-97818000D02*
X97818000Y-97818000D01*
%TO.N,SPI0_CLK*%
X101802000Y-80038000D02*
X99540000Y-80038000D01*
X99540000Y-80038000D02*
X93218000Y-86360000D01*
%TO.N,SPI0_MOSI*%
X99667000Y-74958000D02*
X93345000Y-81280000D01*
X101802000Y-74958000D02*
X99667000Y-74958000D01*
X93345000Y-81280000D02*
X93218000Y-81280000D01*
%TO.N,GPIO_20*%
X118384236Y-106426000D02*
X118745000Y-106426000D01*
X104342000Y-97818000D02*
X109776236Y-97818000D01*
X109776236Y-97818000D02*
X118384236Y-106426000D01*
%TO.N,GPIO_21*%
X116205000Y-106045000D02*
X116205000Y-106426000D01*
X110518000Y-100358000D02*
X116205000Y-106045000D01*
X104342000Y-100358000D02*
X110518000Y-100358000D01*
D25*
%TO.N,GPIO_12*%
X121920000Y-103505000D02*
X123825000Y-105410000D01*
D26*
X104342000Y-90412000D02*
X104342000Y-90198000D01*
D25*
X104342000Y-90198000D02*
X104803000Y-90198000D01*
D26*
X104342000Y-90198000D02*
X104302000Y-90198000D01*
D25*
X123825000Y-105410000D02*
X123825000Y-106426000D01*
X118110000Y-103505000D02*
X121920000Y-103505000D01*
X104803000Y-90198000D02*
X118110000Y-103505000D01*
D24*
%TO.N,GPIO_19*%
X97818000Y-95278000D02*
X96520000Y-93980000D01*
X96520000Y-93980000D02*
X93218000Y-93980000D01*
X101802000Y-95278000D02*
X97818000Y-95278000D01*
D25*
%TO.N,GPIO_13*%
X121285000Y-104775000D02*
X121285000Y-106426000D01*
X101802000Y-92738000D02*
X103044000Y-93980000D01*
X103044000Y-93980000D02*
X107315000Y-93980000D01*
X107315000Y-93980000D02*
X117475000Y-104140000D01*
X120650000Y-104140000D02*
X121285000Y-104775000D01*
X117475000Y-104140000D02*
X120650000Y-104140000D01*
D24*
%TO.N,SPI0_MISO*%
X101802000Y-77498000D02*
X99794000Y-77498000D01*
X99794000Y-77498000D02*
X93472000Y-83820000D01*
X93472000Y-83820000D02*
X93218000Y-83820000D01*
D27*
%TO.N,PICO_3V3*%
X156883000Y-103924000D02*
X159385000Y-106426000D01*
D26*
X114046000Y-71882000D02*
X114046000Y-82550000D01*
D25*
X161925000Y-103886000D02*
X159385000Y-106426000D01*
D27*
X148590000Y-99695000D02*
X152819000Y-103924000D01*
D25*
X161925000Y-101600000D02*
X161925000Y-103886000D01*
X164465000Y-68580000D02*
X161925000Y-71120000D01*
D28*
X138176000Y-63500000D02*
X139162000Y-62514000D01*
D25*
X164719000Y-98806000D02*
X163576000Y-99949000D01*
D27*
X148590000Y-66608000D02*
X144496000Y-62514000D01*
D26*
X114046000Y-82550000D02*
X114046000Y-92456000D01*
D25*
X166624000Y-98806000D02*
X164719000Y-98806000D01*
D27*
X144496000Y-62514000D02*
X142011000Y-62514000D01*
D25*
X163576000Y-99949000D02*
X161925000Y-101600000D01*
D27*
X152819000Y-103924000D02*
X156883000Y-103924000D01*
D25*
X166624000Y-68580000D02*
X164465000Y-68580000D01*
X159131000Y-86106000D02*
X161925000Y-88900000D01*
X153924000Y-86106000D02*
X159131000Y-86106000D01*
X161925000Y-71120000D02*
X161925000Y-101600000D01*
D28*
X139162000Y-62514000D02*
X142011000Y-62514000D01*
D27*
X148590000Y-99695000D02*
X148590000Y-66608000D01*
%TO.N,RPI_5V*%
X104342000Y-52098000D02*
X104620000Y-52098000D01*
D24*
%TO.N,RPI_3V3*%
X92329000Y-58166000D02*
X90170000Y-60325000D01*
X90170000Y-60325000D02*
X90170000Y-66320000D01*
X91795000Y-67945000D02*
X91795000Y-71755000D01*
X101802000Y-52098000D02*
X100556000Y-52098000D01*
X93218000Y-58166000D02*
X92329000Y-58166000D01*
X90170000Y-66320000D02*
X91795000Y-67945000D01*
X100556000Y-52098000D02*
X94488000Y-58166000D01*
X94488000Y-58166000D02*
X93218000Y-58166000D01*
D25*
%TO.N,GP13*%
X136525000Y-104775000D02*
X136525000Y-106426000D01*
X124231000Y-92994000D02*
X124744000Y-92994000D01*
X124744000Y-92994000D02*
X136525000Y-104775000D01*
%TO.N,GP15*%
X131445000Y-105537000D02*
X131445000Y-106426000D01*
X126522000Y-100614000D02*
X131445000Y-105537000D01*
X124231000Y-100614000D02*
X126522000Y-100614000D01*
%TO.N,GP14*%
X126649000Y-98074000D02*
X133985000Y-105410000D01*
X133985000Y-105410000D02*
X133985000Y-106426000D01*
X124231000Y-98074000D02*
X126649000Y-98074000D01*
%TO.N,A2*%
X151765000Y-104775000D02*
X146685000Y-99695000D01*
X146685000Y-99695000D02*
X146685000Y-71247000D01*
X146685000Y-71247000D02*
X143032000Y-67594000D01*
X154305000Y-106426000D02*
X154305000Y-105410000D01*
X154305000Y-105410000D02*
X153670000Y-104775000D01*
X153670000Y-104775000D02*
X151765000Y-104775000D01*
X143032000Y-67594000D02*
X142011000Y-67594000D01*
%TO.N,A1*%
X151765000Y-106117106D02*
X151765000Y-106426000D01*
X142011000Y-72674000D02*
X143032000Y-72674000D01*
X146050000Y-100402106D02*
X151765000Y-106117106D01*
X143032000Y-72674000D02*
X146050000Y-75692000D01*
X146050000Y-75692000D02*
X146050000Y-100402106D01*
D24*
%TO.N,A0*%
X153670000Y-74930000D02*
X153670000Y-80010000D01*
D25*
%TO.N,PICO_RUN*%
X139954000Y-69596000D02*
X139954000Y-76962000D01*
X105386000Y-68834000D02*
X139192000Y-68834000D01*
X139954000Y-76962000D02*
X140746000Y-77754000D01*
X104342000Y-69878000D02*
X105386000Y-68834000D01*
X139192000Y-68834000D02*
X139954000Y-69596000D01*
X140746000Y-77754000D02*
X142011000Y-77754000D01*
D29*
%TO.N,Net-(A1-B1)*%
X166624000Y-60960000D02*
X172974000Y-60960000D01*
X184150000Y-59436000D02*
X189230000Y-59436000D01*
X178308000Y-58166000D02*
X182880000Y-58166000D01*
X175768000Y-58166000D02*
X178308000Y-58166000D01*
X172974000Y-60960000D02*
X175768000Y-58166000D01*
X182880000Y-58166000D02*
X184150000Y-59436000D01*
%TO.N,Net-(A1-B2)*%
X184150000Y-53086000D02*
X187960000Y-56896000D01*
X169672000Y-58420000D02*
X166624000Y-58420000D01*
X175006000Y-53086000D02*
X169672000Y-58420000D01*
X178308000Y-53086000D02*
X175006000Y-53086000D01*
X178308000Y-53086000D02*
X184150000Y-53086000D01*
X187960000Y-56896000D02*
X189230000Y-56896000D01*
%TO.N,Net-(A1-A2)*%
X178308000Y-68326000D02*
X176276000Y-68326000D01*
X178308000Y-68326000D02*
X185420000Y-68326000D01*
X173990000Y-66040000D02*
X166624000Y-66040000D01*
X185420000Y-68326000D02*
X189230000Y-64516000D01*
X176276000Y-68326000D02*
X173990000Y-66040000D01*
%TO.N,Net-(A1-A1)*%
X183896000Y-63246000D02*
X185166000Y-61976000D01*
X178308000Y-63246000D02*
X183896000Y-63246000D01*
X174498000Y-63246000D02*
X174244000Y-63500000D01*
X178308000Y-63246000D02*
X174498000Y-63246000D01*
X185166000Y-61976000D02*
X189230000Y-61976000D01*
X174244000Y-63500000D02*
X166624000Y-63500000D01*
%TO.N,Net-(A2-B2)*%
X175133000Y-86614000D02*
X178562000Y-86614000D01*
X178562000Y-86614000D02*
X185674000Y-86614000D01*
X185674000Y-86614000D02*
X189230000Y-90170000D01*
X189230000Y-90170000D02*
X189230000Y-90414000D01*
X166624000Y-88646000D02*
X173101000Y-88646000D01*
X173101000Y-88646000D02*
X175133000Y-86614000D01*
%TO.N,Net-(A2-A1)*%
X173355000Y-93726000D02*
X176403000Y-96774000D01*
X176403000Y-96774000D02*
X178562000Y-96774000D01*
X186446000Y-95494000D02*
X189230000Y-95494000D01*
X166624000Y-93726000D02*
X173355000Y-93726000D01*
X185166000Y-96774000D02*
X186446000Y-95494000D01*
X178562000Y-96774000D02*
X185166000Y-96774000D01*
%TO.N,Net-(A2-B1)*%
X175260000Y-91694000D02*
X178562000Y-91694000D01*
X174752000Y-91186000D02*
X175260000Y-91694000D01*
X185420000Y-91694000D02*
X186680000Y-92954000D01*
X178562000Y-91694000D02*
X185420000Y-91694000D01*
X186680000Y-92954000D02*
X189230000Y-92954000D01*
X166624000Y-91186000D02*
X174752000Y-91186000D01*
%TO.N,Net-(A2-A2)*%
X166624000Y-96266000D02*
X171958000Y-96266000D01*
X189230000Y-98044000D02*
X189230000Y-98034000D01*
X177546000Y-101854000D02*
X178562000Y-101854000D01*
X178562000Y-101854000D02*
X185420000Y-101854000D01*
X171958000Y-96266000D02*
X177546000Y-101854000D01*
X185420000Y-101854000D02*
X189230000Y-98044000D01*
D27*
%TO.N,Net-(D1-K)*%
X134717000Y-52354000D02*
X142011000Y-52354000D01*
X142011000Y-52354000D02*
X142011000Y-51029000D01*
X142011000Y-51029000D02*
X145796000Y-47244000D01*
X145796000Y-47244000D02*
X148884000Y-47244000D01*
X131953000Y-55118000D02*
X134717000Y-52354000D01*
D25*
%TO.N,OBS_STOP*%
X123825000Y-102870000D02*
X126365000Y-105410000D01*
X126365000Y-105410000D02*
X126365000Y-106426000D01*
X106172000Y-77978000D02*
X106172000Y-90297000D01*
X118745000Y-102870000D02*
X123825000Y-102870000D01*
X104342000Y-77498000D02*
X105692000Y-77498000D01*
X105692000Y-77498000D02*
X106172000Y-77978000D01*
X106172000Y-90297000D02*
X118745000Y-102870000D01*
%TO.N,MTR_STOP*%
X142240000Y-102870000D02*
X144145000Y-104775000D01*
X124231000Y-88163000D02*
X138938000Y-102870000D01*
X144145000Y-104775000D02*
X144145000Y-106426000D01*
X138938000Y-102870000D02*
X142240000Y-102870000D01*
X124231000Y-87914000D02*
X124231000Y-88163000D01*
D24*
%TO.N,RPI_SCL*%
X101802000Y-57178000D02*
X100556000Y-57178000D01*
X93218000Y-63246000D02*
X96520000Y-66548000D01*
D26*
X101802000Y-57178000D02*
X101774000Y-57150000D01*
D24*
X96520000Y-66548000D02*
X96520000Y-70130000D01*
X96520000Y-70130000D02*
X94895000Y-71755000D01*
X94488000Y-63246000D02*
X93218000Y-63246000D01*
X100556000Y-57178000D02*
X94488000Y-63246000D01*
%TO.N,RPI_SDA*%
X94488000Y-60706000D02*
X93218000Y-60706000D01*
X91506000Y-64701000D02*
X94615000Y-67810000D01*
X101802000Y-54638000D02*
X100556000Y-54638000D01*
X93218000Y-60706000D02*
X91506000Y-62418000D01*
X91506000Y-62418000D02*
X91506000Y-64701000D01*
X100556000Y-54638000D02*
X94488000Y-60706000D01*
D25*
%TO.N,GPIO_4*%
X97282000Y-62484000D02*
X97282000Y-72136000D01*
X97282000Y-72136000D02*
X93218000Y-76200000D01*
X101802000Y-59718000D02*
X100048000Y-59718000D01*
X100048000Y-59718000D02*
X97282000Y-62484000D01*
D26*
%TO.N,PICO_SCL*%
X119126000Y-92202000D02*
X119380000Y-92456000D01*
D25*
X124231000Y-67594000D02*
X125192000Y-67594000D01*
X125192000Y-67594000D02*
X126238000Y-66548000D01*
D26*
X119126000Y-82550000D02*
X119126000Y-92456000D01*
X119126000Y-71882000D02*
X119126000Y-82550000D01*
D25*
X126238000Y-66548000D02*
X128016000Y-66548000D01*
D26*
%TO.N,PICO_SDA*%
X116586000Y-92202000D02*
X116840000Y-92456000D01*
D25*
X124938000Y-65054000D02*
X126492000Y-63500000D01*
X124231000Y-65054000D02*
X124938000Y-65054000D01*
X126492000Y-63500000D02*
X128016000Y-63500000D01*
D26*
X116586000Y-82550000D02*
X116586000Y-92456000D01*
X116586000Y-71882000D02*
X116586000Y-82550000D01*
D25*
%TO.N,GP12*%
X139065000Y-105283000D02*
X139065000Y-106426000D01*
X124236000Y-90454000D02*
X139065000Y-105283000D01*
X124231000Y-90454000D02*
X124236000Y-90454000D01*
%TO.N,COM_DIR*%
X151765000Y-72136000D02*
X152781000Y-71120000D01*
X151638000Y-100965000D02*
X151765000Y-100838000D01*
X151765000Y-100838000D02*
X151765000Y-72136000D01*
X152781000Y-71120000D02*
X153924000Y-71120000D01*
X151765000Y-100965000D02*
X151638000Y-100965000D01*
%TO.N,COM_EN*%
X150480000Y-56784000D02*
X153924000Y-53340000D01*
X150480000Y-83566000D02*
X150480000Y-56784000D01*
D24*
%TO.N,U0_TX2RX*%
X124231000Y-54894000D02*
X124938000Y-54894000D01*
X126746000Y-53086000D02*
X126746000Y-50292000D01*
X114530000Y-49530000D02*
X104342000Y-59718000D01*
X125984000Y-49530000D02*
X114530000Y-49530000D01*
X126746000Y-50292000D02*
X125984000Y-49530000D01*
X124938000Y-54894000D02*
X126746000Y-53086000D01*
%TO.N,U0_RX2TX*%
X115032000Y-52354000D02*
X105128000Y-62258000D01*
X105128000Y-62258000D02*
X104342000Y-62258000D01*
X124231000Y-52354000D02*
X115032000Y-52354000D01*
D26*
%TO.N,U1_RX2TX*%
X139446000Y-94234000D02*
X138171000Y-94234000D01*
X138171000Y-94234000D02*
X124231000Y-80294000D01*
X125446000Y-80294000D02*
X124231000Y-80294000D01*
X134112000Y-71628000D02*
X125446000Y-80294000D01*
X138176000Y-71628000D02*
X134112000Y-71628000D01*
D27*
%TO.N,unconnected-(A1-~{RST}-Pad13)*%
X153924000Y-63500000D02*
X153670000Y-63246000D01*
D26*
%TO.N,Net-(J2-Pin_11)*%
X124231000Y-77754000D02*
X128016000Y-73969000D01*
X128016000Y-73969000D02*
X128016000Y-71628000D01*
D25*
%TO.N,GP18*%
X146685000Y-103505000D02*
X144780000Y-101600000D01*
X144780000Y-101600000D02*
X144780000Y-95763000D01*
X146685000Y-106426000D02*
X146685000Y-103505000D01*
X144780000Y-95763000D02*
X142011000Y-92994000D01*
%TO.N,GP19*%
X145415000Y-93858000D02*
X145415000Y-100965000D01*
X149225000Y-104775000D02*
X149225000Y-106426000D01*
X145415000Y-100965000D02*
X149225000Y-104775000D01*
X142011000Y-90454000D02*
X145415000Y-93858000D01*
%TD*%
%TA.AperFunction,Conductor*%
%TO.N,RPI_5V*%
G36*
X134563039Y-43707685D02*
G01*
X134608794Y-43760489D01*
X134620000Y-43812000D01*
X134620000Y-49406000D01*
X134600315Y-49473039D01*
X134547511Y-49518794D01*
X134496000Y-49530000D01*
X127096730Y-49530000D01*
X127029691Y-49510315D01*
X127009049Y-49493681D01*
X126462421Y-48947052D01*
X126462414Y-48947046D01*
X126388729Y-48897812D01*
X126388729Y-48897813D01*
X126339491Y-48864913D01*
X126202917Y-48808343D01*
X126202907Y-48808340D01*
X126057920Y-48779500D01*
X126057918Y-48779500D01*
X114456082Y-48779500D01*
X114456080Y-48779500D01*
X114311092Y-48808340D01*
X114311086Y-48808342D01*
X114174508Y-48864914D01*
X114174496Y-48864921D01*
X114125269Y-48897813D01*
X114051588Y-48947044D01*
X114051580Y-48947050D01*
X107154950Y-55843681D01*
X107093627Y-55877166D01*
X107067269Y-55880000D01*
X104737116Y-55880000D01*
X104698797Y-55873931D01*
X104658243Y-55860753D01*
X104476993Y-55832046D01*
X104448287Y-55827500D01*
X104235713Y-55827500D01*
X104210459Y-55831499D01*
X104025756Y-55860753D01*
X103985203Y-55873931D01*
X103946884Y-55880000D01*
X103502000Y-55880000D01*
X103434961Y-55860315D01*
X103389206Y-55807511D01*
X103378000Y-55756000D01*
X103378000Y-49069769D01*
X103397685Y-49002730D01*
X103410050Y-48986576D01*
X103445812Y-48947050D01*
X105312640Y-46883713D01*
X112685500Y-46883713D01*
X112685500Y-47096286D01*
X112718753Y-47306239D01*
X112784444Y-47508414D01*
X112880951Y-47697820D01*
X113005890Y-47869786D01*
X113156213Y-48020109D01*
X113328179Y-48145048D01*
X113328181Y-48145049D01*
X113328184Y-48145051D01*
X113517588Y-48241557D01*
X113719757Y-48307246D01*
X113929713Y-48340500D01*
X113929714Y-48340500D01*
X114142286Y-48340500D01*
X114142287Y-48340500D01*
X114352243Y-48307246D01*
X114554412Y-48241557D01*
X114743816Y-48145051D01*
X114830138Y-48082335D01*
X114915786Y-48020109D01*
X114915788Y-48020106D01*
X114915792Y-48020104D01*
X115066104Y-47869792D01*
X115066106Y-47869788D01*
X115066109Y-47869786D01*
X115191048Y-47697820D01*
X115191047Y-47697820D01*
X115191051Y-47697816D01*
X115287557Y-47508412D01*
X115353246Y-47306243D01*
X115386500Y-47096287D01*
X115386500Y-46883713D01*
X115353246Y-46673757D01*
X115287557Y-46471588D01*
X115191051Y-46282184D01*
X115066104Y-46110208D01*
X115048031Y-46092135D01*
X117765500Y-46092135D01*
X117765500Y-47887870D01*
X117765501Y-47887876D01*
X117771908Y-47947483D01*
X117822202Y-48082328D01*
X117822206Y-48082335D01*
X117908452Y-48197544D01*
X117908455Y-48197547D01*
X118023664Y-48283793D01*
X118023671Y-48283797D01*
X118158517Y-48334091D01*
X118158516Y-48334091D01*
X118165444Y-48334835D01*
X118218127Y-48340500D01*
X120013872Y-48340499D01*
X120073483Y-48334091D01*
X120208331Y-48283796D01*
X120323546Y-48197546D01*
X120409796Y-48082331D01*
X120460091Y-47947483D01*
X120466500Y-47887873D01*
X120466499Y-46092128D01*
X120460091Y-46032517D01*
X120409796Y-45897669D01*
X120409795Y-45897668D01*
X120409793Y-45897664D01*
X120323547Y-45782455D01*
X120323544Y-45782452D01*
X120208335Y-45696206D01*
X120208328Y-45696202D01*
X120073482Y-45645908D01*
X120073483Y-45645908D01*
X120013883Y-45639501D01*
X120013881Y-45639500D01*
X120013873Y-45639500D01*
X120013864Y-45639500D01*
X118218129Y-45639500D01*
X118218123Y-45639501D01*
X118158516Y-45645908D01*
X118023671Y-45696202D01*
X118023664Y-45696206D01*
X117908455Y-45782452D01*
X117908452Y-45782455D01*
X117822206Y-45897664D01*
X117822202Y-45897671D01*
X117771908Y-46032517D01*
X117765501Y-46092116D01*
X117765501Y-46092123D01*
X117765500Y-46092135D01*
X115048031Y-46092135D01*
X114915792Y-45959896D01*
X114915786Y-45959890D01*
X114743820Y-45834951D01*
X114554414Y-45738444D01*
X114554413Y-45738443D01*
X114554412Y-45738443D01*
X114352243Y-45672754D01*
X114352241Y-45672753D01*
X114352240Y-45672753D01*
X114190957Y-45647208D01*
X114142287Y-45639500D01*
X113929713Y-45639500D01*
X113881042Y-45647208D01*
X113719760Y-45672753D01*
X113517585Y-45738444D01*
X113328179Y-45834951D01*
X113156213Y-45959890D01*
X113005890Y-46110213D01*
X112880951Y-46282179D01*
X112784444Y-46471585D01*
X112718753Y-46673760D01*
X112685500Y-46883713D01*
X105312640Y-46883713D01*
X108167079Y-43728806D01*
X108226653Y-43692301D01*
X108259029Y-43688000D01*
X134496000Y-43688000D01*
X134563039Y-43707685D01*
G37*
%TD.AperFunction*%
%TD*%
%TA.AperFunction,Conductor*%
%TO.N,VMOT*%
G36*
X181879677Y-43707685D02*
G01*
X181900319Y-43724319D01*
X188467997Y-50291997D01*
X188468014Y-50292013D01*
X190291114Y-51941484D01*
X193707816Y-55032786D01*
X193761193Y-55081079D01*
X193797699Y-55140653D01*
X193802000Y-55173029D01*
X193802000Y-78184416D01*
X193782315Y-78251455D01*
X193770168Y-78267368D01*
X189266943Y-83270952D01*
X189207465Y-83307613D01*
X189174775Y-83312000D01*
X173735999Y-83312000D01*
X172248319Y-84799681D01*
X172186996Y-84833166D01*
X172160638Y-84836000D01*
X166928675Y-84836000D01*
X166909277Y-84834473D01*
X166901025Y-84833166D01*
X166726352Y-84805500D01*
X166521648Y-84805500D01*
X166346975Y-84833166D01*
X166338723Y-84834473D01*
X166319325Y-84836000D01*
X162699500Y-84836000D01*
X162632461Y-84816315D01*
X162586706Y-84763511D01*
X162575500Y-84712000D01*
X162575500Y-80877505D01*
X162595185Y-80810466D01*
X162647989Y-80764711D01*
X162717147Y-80754767D01*
X162780703Y-80783792D01*
X162799818Y-80804620D01*
X162838028Y-80857213D01*
X162982786Y-81001971D01*
X163137749Y-81114556D01*
X163148390Y-81122287D01*
X163264607Y-81181503D01*
X163330776Y-81215218D01*
X163330778Y-81215218D01*
X163330781Y-81215220D01*
X163435137Y-81249127D01*
X163525465Y-81278477D01*
X163626557Y-81294488D01*
X163727648Y-81310500D01*
X163727649Y-81310500D01*
X163932351Y-81310500D01*
X163932352Y-81310500D01*
X164134534Y-81278477D01*
X164329219Y-81215220D01*
X164511610Y-81122287D01*
X164604590Y-81054732D01*
X164677213Y-81001971D01*
X164677215Y-81001968D01*
X164677219Y-81001966D01*
X164821966Y-80857219D01*
X164821968Y-80857215D01*
X164821971Y-80857213D01*
X164896401Y-80754767D01*
X164942287Y-80691610D01*
X165035220Y-80509219D01*
X165098477Y-80314534D01*
X165130500Y-80112352D01*
X165130500Y-79907648D01*
X165098477Y-79705466D01*
X165035220Y-79510781D01*
X165035218Y-79510778D01*
X165035218Y-79510776D01*
X165001503Y-79444607D01*
X164942287Y-79328390D01*
X164891179Y-79258045D01*
X164821971Y-79162786D01*
X164677213Y-79018028D01*
X164511613Y-78897715D01*
X164511612Y-78897714D01*
X164511610Y-78897713D01*
X164454653Y-78868691D01*
X164329223Y-78804781D01*
X164134534Y-78741522D01*
X163959995Y-78713878D01*
X163932352Y-78709500D01*
X163727648Y-78709500D01*
X163703329Y-78713351D01*
X163525465Y-78741522D01*
X163330776Y-78804781D01*
X163148386Y-78897715D01*
X162982786Y-79018028D01*
X162838032Y-79162782D01*
X162799818Y-79215380D01*
X162744488Y-79258045D01*
X162674874Y-79264024D01*
X162613079Y-79231418D01*
X162578722Y-79170579D01*
X162575500Y-79142494D01*
X162575500Y-77367648D01*
X170109500Y-77367648D01*
X170109500Y-77572351D01*
X170141522Y-77774534D01*
X170204781Y-77969223D01*
X170297715Y-78151613D01*
X170418028Y-78317213D01*
X170562786Y-78461971D01*
X170695630Y-78558486D01*
X170728390Y-78582287D01*
X170844607Y-78641503D01*
X170910776Y-78675218D01*
X170910778Y-78675218D01*
X170910781Y-78675220D01*
X171015137Y-78709127D01*
X171105465Y-78738477D01*
X171124697Y-78741523D01*
X171307648Y-78770500D01*
X171307649Y-78770500D01*
X171512351Y-78770500D01*
X171512352Y-78770500D01*
X171714534Y-78738477D01*
X171909219Y-78675220D01*
X171934900Y-78662135D01*
X181841500Y-78662135D01*
X181841500Y-81357870D01*
X181841501Y-81357876D01*
X181847908Y-81417483D01*
X181898202Y-81552328D01*
X181898206Y-81552335D01*
X181984452Y-81667544D01*
X181984455Y-81667547D01*
X182099664Y-81753793D01*
X182099671Y-81753797D01*
X182234517Y-81804091D01*
X182234516Y-81804091D01*
X182241444Y-81804835D01*
X182294127Y-81810500D01*
X184989872Y-81810499D01*
X185049483Y-81804091D01*
X185184331Y-81753796D01*
X185299546Y-81667546D01*
X185385796Y-81552331D01*
X185436091Y-81417483D01*
X185442500Y-81357873D01*
X185442499Y-78662128D01*
X185436091Y-78602517D01*
X185385796Y-78467669D01*
X185385795Y-78467668D01*
X185385793Y-78467664D01*
X185299547Y-78352455D01*
X185299544Y-78352452D01*
X185184335Y-78266206D01*
X185184328Y-78266202D01*
X185049482Y-78215908D01*
X185049483Y-78215908D01*
X184989883Y-78209501D01*
X184989881Y-78209500D01*
X184989873Y-78209500D01*
X184989864Y-78209500D01*
X182294129Y-78209500D01*
X182294123Y-78209501D01*
X182234516Y-78215908D01*
X182099671Y-78266202D01*
X182099664Y-78266206D01*
X181984455Y-78352452D01*
X181984452Y-78352455D01*
X181898206Y-78467664D01*
X181898202Y-78467671D01*
X181847908Y-78602517D01*
X181841501Y-78662116D01*
X181841501Y-78662123D01*
X181841500Y-78662135D01*
X171934900Y-78662135D01*
X172091610Y-78582287D01*
X172124370Y-78558486D01*
X172257213Y-78461971D01*
X172257215Y-78461968D01*
X172257219Y-78461966D01*
X172401966Y-78317219D01*
X172401968Y-78317215D01*
X172401971Y-78317213D01*
X172480227Y-78209501D01*
X172522287Y-78151610D01*
X172615220Y-77969219D01*
X172678477Y-77774534D01*
X172710500Y-77572352D01*
X172710500Y-77367648D01*
X172678477Y-77165466D01*
X172615220Y-76970781D01*
X172615218Y-76970778D01*
X172615218Y-76970776D01*
X172581503Y-76904607D01*
X172522287Y-76788390D01*
X172514556Y-76777749D01*
X172401971Y-76622786D01*
X172257213Y-76478028D01*
X172091613Y-76357715D01*
X172091612Y-76357714D01*
X172091610Y-76357713D01*
X172034653Y-76328691D01*
X171909223Y-76264781D01*
X171714534Y-76201522D01*
X171539995Y-76173878D01*
X171512352Y-76169500D01*
X171307648Y-76169500D01*
X171283329Y-76173351D01*
X171105465Y-76201522D01*
X170910776Y-76264781D01*
X170728386Y-76357715D01*
X170562786Y-76478028D01*
X170418028Y-76622786D01*
X170297715Y-76788386D01*
X170204781Y-76970776D01*
X170141522Y-77165465D01*
X170109500Y-77367648D01*
X162575500Y-77367648D01*
X162575500Y-71440808D01*
X162595185Y-71373769D01*
X162611819Y-71353127D01*
X164698127Y-69266819D01*
X164759450Y-69233334D01*
X164785808Y-69230500D01*
X165425929Y-69230500D01*
X165492968Y-69250185D01*
X165526245Y-69281613D01*
X165632030Y-69427213D01*
X165632034Y-69427219D01*
X165776784Y-69571969D01*
X165813068Y-69598330D01*
X165855735Y-69653659D01*
X165861715Y-69723273D01*
X165829109Y-69785068D01*
X165768271Y-69819426D01*
X165753440Y-69821938D01*
X165716519Y-69825907D01*
X165581671Y-69876202D01*
X165581664Y-69876206D01*
X165466455Y-69962452D01*
X165466452Y-69962455D01*
X165380206Y-70077664D01*
X165380202Y-70077671D01*
X165329908Y-70212517D01*
X165323501Y-70272116D01*
X165323501Y-70272123D01*
X165323500Y-70272135D01*
X165323500Y-71967870D01*
X165323501Y-71967876D01*
X165329908Y-72027483D01*
X165380202Y-72162328D01*
X165380206Y-72162335D01*
X165466452Y-72277544D01*
X165466455Y-72277547D01*
X165581664Y-72363793D01*
X165581671Y-72363797D01*
X165716517Y-72414091D01*
X165716516Y-72414091D01*
X165723444Y-72414835D01*
X165776127Y-72420500D01*
X167471872Y-72420499D01*
X167531483Y-72414091D01*
X167666331Y-72363796D01*
X167781546Y-72277546D01*
X167867796Y-72162331D01*
X167918091Y-72027483D01*
X167924500Y-71967873D01*
X167924499Y-70272128D01*
X167918091Y-70212517D01*
X167886008Y-70126499D01*
X167867797Y-70077671D01*
X167867793Y-70077664D01*
X167781547Y-69962455D01*
X167781544Y-69962452D01*
X167666335Y-69876206D01*
X167666328Y-69876202D01*
X167531482Y-69825908D01*
X167531483Y-69825908D01*
X167494560Y-69821939D01*
X167430009Y-69795201D01*
X167390160Y-69737809D01*
X167387667Y-69667984D01*
X167423319Y-69607895D01*
X167434930Y-69598331D01*
X167471219Y-69571966D01*
X167615966Y-69427219D01*
X167615968Y-69427215D01*
X167615971Y-69427213D01*
X167668732Y-69354590D01*
X167736287Y-69261610D01*
X167829220Y-69079219D01*
X167892477Y-68884534D01*
X167924500Y-68682352D01*
X167924500Y-68477648D01*
X167892477Y-68275466D01*
X167829220Y-68080781D01*
X167829218Y-68080778D01*
X167829218Y-68080776D01*
X167764876Y-67954499D01*
X167736287Y-67898390D01*
X167721753Y-67878385D01*
X167619312Y-67737385D01*
X167595832Y-67671578D01*
X167611658Y-67603525D01*
X167661764Y-67554830D01*
X167719630Y-67540500D01*
X173317111Y-67540500D01*
X173384150Y-67560185D01*
X173404792Y-67576819D01*
X175298490Y-69470517D01*
X175489566Y-69609343D01*
X175700008Y-69716568D01*
X175924631Y-69789553D01*
X176012109Y-69803408D01*
X176157903Y-69826500D01*
X176157908Y-69826500D01*
X176394092Y-69826500D01*
X176470820Y-69826500D01*
X176537859Y-69846185D01*
X176570085Y-69876187D01*
X176650454Y-69983546D01*
X176696643Y-70018123D01*
X176765664Y-70069793D01*
X176765671Y-70069797D01*
X176900517Y-70120091D01*
X176900516Y-70120091D01*
X176907444Y-70120835D01*
X176960127Y-70126500D01*
X179655872Y-70126499D01*
X179715483Y-70120091D01*
X179850331Y-70069796D01*
X179965546Y-69983546D01*
X180045914Y-69876188D01*
X180101847Y-69834318D01*
X180145180Y-69826500D01*
X185538097Y-69826500D01*
X185771368Y-69789553D01*
X185995992Y-69716568D01*
X186206434Y-69609343D01*
X186397510Y-69470517D01*
X189965209Y-65902818D01*
X190026532Y-65869333D01*
X190052890Y-65866499D01*
X190127871Y-65866499D01*
X190127872Y-65866499D01*
X190187483Y-65860091D01*
X190322331Y-65809796D01*
X190437546Y-65723546D01*
X190523796Y-65608331D01*
X190574091Y-65473483D01*
X190580500Y-65413873D01*
X190580499Y-65200399D01*
X190594014Y-65144105D01*
X190620568Y-65091992D01*
X190693553Y-64867368D01*
X190706861Y-64783343D01*
X190730500Y-64634097D01*
X190730500Y-64397902D01*
X190693553Y-64164634D01*
X190693553Y-64164631D01*
X190620568Y-63940008D01*
X190620565Y-63940002D01*
X190594014Y-63887891D01*
X190580499Y-63831597D01*
X190580499Y-63618129D01*
X190580498Y-63618123D01*
X190580495Y-63618097D01*
X190574091Y-63558517D01*
X190570537Y-63548989D01*
X190523797Y-63423671D01*
X190523793Y-63423664D01*
X190437547Y-63308455D01*
X190437544Y-63308452D01*
X190315231Y-63216888D01*
X190317031Y-63214483D01*
X190278257Y-63175695D01*
X190263418Y-63107420D01*
X190287846Y-63041960D01*
X190299406Y-63028620D01*
X190374517Y-62953510D01*
X190513343Y-62762433D01*
X190620568Y-62551992D01*
X190693553Y-62327368D01*
X190705074Y-62254626D01*
X190730500Y-62094097D01*
X190730500Y-61857902D01*
X190693553Y-61624631D01*
X190645359Y-61476306D01*
X190620568Y-61400008D01*
X190620566Y-61400005D01*
X190620566Y-61400003D01*
X190513342Y-61189566D01*
X190459627Y-61115634D01*
X190374517Y-60998490D01*
X190207510Y-60831483D01*
X190172872Y-60806317D01*
X190130207Y-60750989D01*
X190124228Y-60681375D01*
X190156833Y-60619580D01*
X190172873Y-60605682D01*
X190207510Y-60580517D01*
X190374517Y-60413510D01*
X190513343Y-60222433D01*
X190620568Y-60011992D01*
X190693553Y-59787368D01*
X190706944Y-59702819D01*
X190730500Y-59554097D01*
X190730500Y-59317902D01*
X190693553Y-59084631D01*
X190620566Y-58860003D01*
X190513342Y-58649566D01*
X190374517Y-58458490D01*
X190207510Y-58291483D01*
X190172872Y-58266317D01*
X190130207Y-58210989D01*
X190124228Y-58141375D01*
X190156833Y-58079580D01*
X190172873Y-58065682D01*
X190207510Y-58040517D01*
X190374517Y-57873510D01*
X190513343Y-57682433D01*
X190620568Y-57471992D01*
X190693553Y-57247368D01*
X190711594Y-57133462D01*
X190730500Y-57014097D01*
X190730500Y-56777902D01*
X190693553Y-56544631D01*
X190639807Y-56379219D01*
X190620568Y-56320008D01*
X190620566Y-56320005D01*
X190620566Y-56320003D01*
X190564002Y-56208991D01*
X190513343Y-56109567D01*
X190374517Y-55918490D01*
X190207510Y-55751483D01*
X190016433Y-55612657D01*
X189943440Y-55575465D01*
X189805996Y-55505433D01*
X189581368Y-55432446D01*
X189348097Y-55395500D01*
X189348092Y-55395500D01*
X188632890Y-55395500D01*
X188565851Y-55375815D01*
X188545209Y-55359181D01*
X185127512Y-51941485D01*
X185127511Y-51941484D01*
X184936434Y-51802657D01*
X184725996Y-51695433D01*
X184501368Y-51622446D01*
X184268097Y-51585500D01*
X184268092Y-51585500D01*
X179343283Y-51585500D01*
X179281283Y-51568887D01*
X179106056Y-51467719D01*
X179106045Y-51467714D01*
X178887993Y-51377394D01*
X178660010Y-51316306D01*
X178426020Y-51285501D01*
X178426017Y-51285500D01*
X178426011Y-51285500D01*
X178189989Y-51285500D01*
X178189983Y-51285500D01*
X178189979Y-51285501D01*
X177955989Y-51316306D01*
X177728006Y-51377394D01*
X177509954Y-51467714D01*
X177509943Y-51467719D01*
X177334717Y-51568887D01*
X177272717Y-51585500D01*
X174887903Y-51585500D01*
X174654634Y-51622446D01*
X174430005Y-51695433D01*
X174219565Y-51802657D01*
X174028488Y-51941484D01*
X174028487Y-51941485D01*
X169086792Y-56883181D01*
X169025469Y-56916666D01*
X168999111Y-56919500D01*
X167719630Y-56919500D01*
X167652591Y-56899815D01*
X167606836Y-56847011D01*
X167596892Y-56777853D01*
X167619312Y-56722615D01*
X167684296Y-56633169D01*
X167736287Y-56561610D01*
X167829220Y-56379219D01*
X167892477Y-56184534D01*
X167924500Y-55982352D01*
X167924500Y-55777648D01*
X167892477Y-55575466D01*
X167829220Y-55380781D01*
X167829218Y-55380778D01*
X167829218Y-55380776D01*
X167795503Y-55314607D01*
X167736287Y-55198390D01*
X167694339Y-55140653D01*
X167615971Y-55032786D01*
X167471213Y-54888028D01*
X167305613Y-54767715D01*
X167305612Y-54767714D01*
X167305610Y-54767713D01*
X167248653Y-54738691D01*
X167123223Y-54674781D01*
X166928534Y-54611522D01*
X166753995Y-54583878D01*
X166726352Y-54579500D01*
X166521648Y-54579500D01*
X166497329Y-54583351D01*
X166319465Y-54611522D01*
X166124776Y-54674781D01*
X165942386Y-54767715D01*
X165776786Y-54888028D01*
X165632028Y-55032786D01*
X165511715Y-55198386D01*
X165418781Y-55380776D01*
X165355522Y-55575465D01*
X165323500Y-55777648D01*
X165323500Y-55982351D01*
X165355522Y-56184534D01*
X165418781Y-56379223D01*
X165458612Y-56457394D01*
X165504635Y-56547719D01*
X165511715Y-56561613D01*
X165632028Y-56727213D01*
X165776782Y-56871967D01*
X165776787Y-56871971D01*
X165852272Y-56926814D01*
X165894938Y-56982143D01*
X165900917Y-57051757D01*
X165868312Y-57113552D01*
X165841320Y-57133462D01*
X165841719Y-57134112D01*
X165837573Y-57136652D01*
X165734482Y-57211552D01*
X165646490Y-57275483D01*
X165646488Y-57275485D01*
X165646487Y-57275485D01*
X165479485Y-57442487D01*
X165479485Y-57442488D01*
X165479483Y-57442490D01*
X165458046Y-57471996D01*
X165340657Y-57633566D01*
X165233433Y-57844003D01*
X165160446Y-58068631D01*
X165123500Y-58301902D01*
X165123500Y-58538097D01*
X165160446Y-58771368D01*
X165233433Y-58995996D01*
X165278596Y-59084632D01*
X165340657Y-59206433D01*
X165479483Y-59397510D01*
X165646490Y-59564517D01*
X165681127Y-59589683D01*
X165723792Y-59645013D01*
X165729771Y-59714626D01*
X165697165Y-59776421D01*
X165681130Y-59790315D01*
X165663365Y-59803222D01*
X165646488Y-59815484D01*
X165479485Y-59982487D01*
X165479485Y-59982488D01*
X165479483Y-59982490D01*
X165458046Y-60011996D01*
X165340657Y-60173566D01*
X165233433Y-60384003D01*
X165160446Y-60608631D01*
X165123500Y-60841902D01*
X165123500Y-61078097D01*
X165160446Y-61311368D01*
X165233433Y-61535996D01*
X165321676Y-61709181D01*
X165340657Y-61746433D01*
X165479483Y-61937510D01*
X165646490Y-62104517D01*
X165681127Y-62129683D01*
X165723792Y-62185013D01*
X165729771Y-62254626D01*
X165697165Y-62316421D01*
X165681130Y-62330315D01*
X165663365Y-62343222D01*
X165646488Y-62355484D01*
X165479485Y-62522487D01*
X165479485Y-62522488D01*
X165479483Y-62522490D01*
X165458046Y-62551996D01*
X165340657Y-62713566D01*
X165233433Y-62924003D01*
X165160446Y-63148631D01*
X165123500Y-63381902D01*
X165123500Y-63618097D01*
X165160446Y-63851368D01*
X165233433Y-64075996D01*
X165278597Y-64164634D01*
X165340657Y-64286433D01*
X165479483Y-64477510D01*
X165646490Y-64644517D01*
X165681127Y-64669683D01*
X165723792Y-64725013D01*
X165729771Y-64794626D01*
X165697165Y-64856421D01*
X165681130Y-64870315D01*
X165668244Y-64879678D01*
X165646488Y-64895484D01*
X165479485Y-65062487D01*
X165479485Y-65062488D01*
X165479483Y-65062490D01*
X165420188Y-65144102D01*
X165340657Y-65253566D01*
X165233433Y-65464003D01*
X165160446Y-65688631D01*
X165123500Y-65921902D01*
X165123500Y-66158097D01*
X165160446Y-66391368D01*
X165233433Y-66615996D01*
X165321676Y-66789181D01*
X165340657Y-66826433D01*
X165479483Y-67017510D01*
X165646490Y-67184517D01*
X165837567Y-67323343D01*
X165837573Y-67323347D01*
X165841719Y-67325888D01*
X165840864Y-67327281D01*
X165886470Y-67370343D01*
X165903274Y-67438162D01*
X165880745Y-67504300D01*
X165852273Y-67533185D01*
X165776782Y-67588032D01*
X165632034Y-67732780D01*
X165575597Y-67810460D01*
X165526246Y-67878386D01*
X165470918Y-67921051D01*
X165425929Y-67929500D01*
X164400929Y-67929500D01*
X164275261Y-67954497D01*
X164275255Y-67954499D01*
X164156870Y-68003535D01*
X164050331Y-68074722D01*
X164050324Y-68074728D01*
X162517681Y-69607372D01*
X162456358Y-69640857D01*
X162386666Y-69635873D01*
X162330733Y-69594001D01*
X162306316Y-69528537D01*
X162306000Y-69519691D01*
X162306000Y-46887648D01*
X164434500Y-46887648D01*
X164434500Y-47092351D01*
X164466522Y-47294534D01*
X164529781Y-47489223D01*
X164622715Y-47671613D01*
X164743028Y-47837213D01*
X164887786Y-47981971D01*
X165042749Y-48094556D01*
X165053390Y-48102287D01*
X165169607Y-48161503D01*
X165235776Y-48195218D01*
X165235778Y-48195218D01*
X165235781Y-48195220D01*
X165340137Y-48229127D01*
X165430465Y-48258477D01*
X165531557Y-48274488D01*
X165632648Y-48290500D01*
X165632649Y-48290500D01*
X165837351Y-48290500D01*
X165837352Y-48290500D01*
X166039534Y-48258477D01*
X166234219Y-48195220D01*
X166416610Y-48102287D01*
X166534808Y-48016412D01*
X166582213Y-47981971D01*
X166582215Y-47981968D01*
X166582219Y-47981966D01*
X166726966Y-47837219D01*
X166726968Y-47837215D01*
X166726971Y-47837213D01*
X166779732Y-47764590D01*
X166847287Y-47671610D01*
X166940220Y-47489219D01*
X166971902Y-47391713D01*
X174925500Y-47391713D01*
X174925500Y-47604287D01*
X174958754Y-47814243D01*
X175013252Y-47981971D01*
X175024444Y-48016414D01*
X175120951Y-48205820D01*
X175245890Y-48377786D01*
X175396213Y-48528109D01*
X175568179Y-48653048D01*
X175568181Y-48653049D01*
X175568184Y-48653051D01*
X175757588Y-48749557D01*
X175959757Y-48815246D01*
X176169713Y-48848500D01*
X176169714Y-48848500D01*
X176382286Y-48848500D01*
X176382287Y-48848500D01*
X176592243Y-48815246D01*
X176794412Y-48749557D01*
X176983816Y-48653051D01*
X177070138Y-48590335D01*
X177155786Y-48528109D01*
X177155788Y-48528106D01*
X177155792Y-48528104D01*
X177306104Y-48377792D01*
X177306106Y-48377788D01*
X177306109Y-48377786D01*
X177431048Y-48205820D01*
X177431047Y-48205820D01*
X177431051Y-48205816D01*
X177527557Y-48016412D01*
X177593246Y-47814243D01*
X177626500Y-47604287D01*
X177626500Y-47391713D01*
X177593246Y-47181757D01*
X177527557Y-46979588D01*
X177431051Y-46790184D01*
X177417077Y-46770950D01*
X177343511Y-46669694D01*
X177343508Y-46669691D01*
X177306107Y-46618213D01*
X177306104Y-46618208D01*
X177288031Y-46600135D01*
X180005500Y-46600135D01*
X180005500Y-48395870D01*
X180005501Y-48395876D01*
X180011908Y-48455483D01*
X180062202Y-48590328D01*
X180062206Y-48590335D01*
X180148452Y-48705544D01*
X180148455Y-48705547D01*
X180263664Y-48791793D01*
X180263671Y-48791797D01*
X180398517Y-48842091D01*
X180398516Y-48842091D01*
X180405444Y-48842835D01*
X180458127Y-48848500D01*
X182253872Y-48848499D01*
X182313483Y-48842091D01*
X182448331Y-48791796D01*
X182563546Y-48705546D01*
X182649796Y-48590331D01*
X182700091Y-48455483D01*
X182706500Y-48395873D01*
X182706499Y-46600128D01*
X182700091Y-46540517D01*
X182649796Y-46405669D01*
X182649795Y-46405668D01*
X182649793Y-46405664D01*
X182563547Y-46290455D01*
X182563544Y-46290452D01*
X182448335Y-46204206D01*
X182448328Y-46204202D01*
X182313482Y-46153908D01*
X182313483Y-46153908D01*
X182253883Y-46147501D01*
X182253881Y-46147500D01*
X182253873Y-46147500D01*
X182253864Y-46147500D01*
X180458129Y-46147500D01*
X180458123Y-46147501D01*
X180398516Y-46153908D01*
X180263671Y-46204202D01*
X180263664Y-46204206D01*
X180148455Y-46290452D01*
X180148452Y-46290455D01*
X180062206Y-46405664D01*
X180062202Y-46405671D01*
X180011908Y-46540517D01*
X180005501Y-46600116D01*
X180005501Y-46600123D01*
X180005500Y-46600135D01*
X177288031Y-46600135D01*
X177155792Y-46467896D01*
X177155786Y-46467890D01*
X176983820Y-46342951D01*
X176794414Y-46246444D01*
X176794413Y-46246443D01*
X176794412Y-46246443D01*
X176592243Y-46180754D01*
X176592241Y-46180753D01*
X176592240Y-46180753D01*
X176430957Y-46155208D01*
X176382287Y-46147500D01*
X176169713Y-46147500D01*
X176121042Y-46155208D01*
X175959760Y-46180753D01*
X175757585Y-46246444D01*
X175568179Y-46342951D01*
X175396213Y-46467890D01*
X175245890Y-46618213D01*
X175120951Y-46790179D01*
X175024444Y-46979585D01*
X174958753Y-47181760D01*
X174940892Y-47294534D01*
X174925500Y-47391713D01*
X166971902Y-47391713D01*
X167003477Y-47294534D01*
X167035500Y-47092352D01*
X167035500Y-46887648D01*
X167003477Y-46685466D01*
X166998352Y-46669694D01*
X166940218Y-46490776D01*
X166896853Y-46405669D01*
X166847287Y-46308390D01*
X166802281Y-46246444D01*
X166726971Y-46142786D01*
X166582213Y-45998028D01*
X166416613Y-45877715D01*
X166416612Y-45877714D01*
X166416610Y-45877713D01*
X166359653Y-45848691D01*
X166234223Y-45784781D01*
X166039534Y-45721522D01*
X165864995Y-45693878D01*
X165837352Y-45689500D01*
X165632648Y-45689500D01*
X165608329Y-45693351D01*
X165430465Y-45721522D01*
X165235776Y-45784781D01*
X165053386Y-45877715D01*
X164887786Y-45998028D01*
X164743028Y-46142786D01*
X164622715Y-46308386D01*
X164529781Y-46490776D01*
X164466522Y-46685465D01*
X164434500Y-46887648D01*
X162306000Y-46887648D01*
X162306000Y-43812000D01*
X162325685Y-43744961D01*
X162378489Y-43699206D01*
X162430000Y-43688000D01*
X181812638Y-43688000D01*
X181879677Y-43707685D01*
G37*
%TD.AperFunction*%
%TD*%
M02*
