%TF.GenerationSoftware,KiCad,Pcbnew,9.0.5*%
%TF.CreationDate,2026-02-28T09:01:39+00:00*%
%TF.ProjectId,Pilomar3_2025_12,50696c6f-6d61-4723-935f-323032355f31,rev?*%
%TF.SameCoordinates,Original*%
%TF.FileFunction,Soldermask,Bot*%
%TF.FilePolarity,Negative*%
%FSLAX46Y46*%
G04 Gerber Fmt 4.6, Leading zero omitted, Abs format (unit mm)*
G04 Created by KiCad (PCBNEW 9.0.5) date 2026-02-28 09:01:39*
%MOMM*%
%LPD*%
G01*
G04 APERTURE LIST*
G04 Aperture macros list*
%AMRoundRect*
0 Rectangle with rounded corners*
0 $1 Rounding radius*
0 $2 $3 $4 $5 $6 $7 $8 $9 X,Y pos of 4 corners*
0 Add a 4 corners polygon primitive as box body*
4,1,4,$2,$3,$4,$5,$6,$7,$8,$9,$2,$3,0*
0 Add four circle primitives for the rounded corners*
1,1,$1+$1,$2,$3*
1,1,$1+$1,$4,$5*
1,1,$1+$1,$6,$7*
1,1,$1+$1,$8,$9*
0 Add four rect primitives between the rounded corners*
20,1,$1+$1,$2,$3,$4,$5,0*
20,1,$1+$1,$4,$5,$6,$7,0*
20,1,$1+$1,$6,$7,$8,$9,0*
20,1,$1+$1,$8,$9,$2,$3,0*%
%AMFreePoly0*
4,1,23,0.500000,-0.750000,0.000000,-0.750000,0.000000,-0.745722,-0.065263,-0.745722,-0.191342,-0.711940,-0.304381,-0.646677,-0.396677,-0.554381,-0.461940,-0.441342,-0.495722,-0.315263,-0.495722,-0.250000,-0.500000,-0.250000,-0.500000,0.250000,-0.495722,0.250000,-0.495722,0.315263,-0.461940,0.441342,-0.396677,0.554381,-0.304381,0.646677,-0.191342,0.711940,-0.065263,0.745722,0.000000,0.745722,
0.000000,0.750000,0.500000,0.750000,0.500000,-0.750000,0.500000,-0.750000,$1*%
%AMFreePoly1*
4,1,23,0.000000,0.745722,0.065263,0.745722,0.191342,0.711940,0.304381,0.646677,0.396677,0.554381,0.461940,0.441342,0.495722,0.315263,0.495722,0.250000,0.500000,0.250000,0.500000,-0.250000,0.495722,-0.250000,0.495722,-0.315263,0.461940,-0.441342,0.396677,-0.554381,0.304381,-0.646677,0.191342,-0.711940,0.065263,-0.745722,0.000000,-0.745722,0.000000,-0.750000,-0.500000,-0.750000,
-0.500000,0.750000,0.000000,0.750000,0.000000,0.745722,0.000000,0.745722,$1*%
G04 Aperture macros list end*
%ADD10R,2.200000X2.200000*%
%ADD11O,2.200000X2.200000*%
%ADD12R,1.600000X1.600000*%
%ADD13O,1.600000X1.600000*%
%ADD14C,1.600000*%
%ADD15C,5.600000*%
%ADD16R,1.700000X1.700000*%
%ADD17O,1.700000X1.700000*%
%ADD18RoundRect,0.250000X-0.600000X-0.600000X0.600000X-0.600000X0.600000X0.600000X-0.600000X0.600000X0*%
%ADD19C,1.700000*%
%ADD20R,2.600000X2.600000*%
%ADD21C,2.600000*%
%ADD22FreePoly0,0.000000*%
%ADD23FreePoly1,0.000000*%
G04 APERTURE END LIST*
%TO.C,JP3*%
G36*
X97625000Y-70600000D02*
G01*
X97925000Y-70600000D01*
X97925000Y-69100000D01*
X97625000Y-69100000D01*
X97625000Y-70600000D01*
G37*
%TO.C,JP2*%
G36*
X97625000Y-68060000D02*
G01*
X97925000Y-68060000D01*
X97925000Y-66560000D01*
X97625000Y-66560000D01*
X97625000Y-68060000D01*
G37*
%TO.C,JP1*%
G36*
X97625000Y-65520000D02*
G01*
X97925000Y-65520000D01*
X97925000Y-64020000D01*
X97625000Y-64020000D01*
X97625000Y-65520000D01*
G37*
%TD*%
D10*
%TO.C,D1*%
X131953000Y-55118000D03*
D11*
X131953000Y-47498000D03*
%TD*%
D12*
%TO.C,A1*%
X166624000Y-71120000D03*
D13*
X166624000Y-68580000D03*
X166624000Y-66040000D03*
X166624000Y-63500000D03*
X166624000Y-60960000D03*
X166624000Y-58420000D03*
X166624000Y-55880000D03*
X166624000Y-53340000D03*
X153924000Y-53340000D03*
X153924000Y-55880000D03*
X153924000Y-58420000D03*
X153924000Y-60960000D03*
X153924000Y-63500000D03*
X153924000Y-66040000D03*
X153924000Y-68580000D03*
X153924000Y-71120000D03*
%TD*%
D14*
%TO.C,R2*%
X153670000Y-74930000D03*
D13*
X163830000Y-74930000D03*
%TD*%
D15*
%TO.C,REF\u002A\u002A*%
X91802000Y-107098000D03*
%TD*%
D12*
%TO.C,A2*%
X166624000Y-101346000D03*
D13*
X166624000Y-98806000D03*
X166624000Y-96266000D03*
X166624000Y-93726000D03*
X166624000Y-91186000D03*
X166624000Y-88646000D03*
X166624000Y-86106000D03*
X166624000Y-83566000D03*
X153924000Y-83566000D03*
X153924000Y-86106000D03*
X153924000Y-88646000D03*
X153924000Y-91186000D03*
X153924000Y-93726000D03*
X153924000Y-96266000D03*
X153924000Y-98806000D03*
X153924000Y-101346000D03*
%TD*%
D16*
%TO.C,J6*%
X189230000Y-98034000D03*
D17*
X189230000Y-95494000D03*
X189230000Y-92954000D03*
X189230000Y-90414000D03*
%TD*%
D16*
%TO.C,J15*%
X156459000Y-83566000D03*
D17*
X158999000Y-83566000D03*
%TD*%
D16*
%TO.C,J3*%
X142011000Y-52354000D03*
D17*
X142011000Y-54894000D03*
X142011000Y-57434000D03*
X142011000Y-59974000D03*
X142011000Y-62514000D03*
X142011000Y-65054000D03*
X142011000Y-67594000D03*
X142011000Y-70134000D03*
X142011000Y-72674000D03*
X142011000Y-75214000D03*
X142011000Y-77754000D03*
X142011000Y-80294000D03*
X142011000Y-82834000D03*
X142011000Y-85374000D03*
X142011000Y-87914000D03*
X142011000Y-90454000D03*
X142011000Y-92994000D03*
X142011000Y-95534000D03*
X142011000Y-98074000D03*
X142011000Y-100614000D03*
%TD*%
D14*
%TO.C,R5*%
X138176000Y-63500000D03*
D13*
X128016000Y-63500000D03*
%TD*%
D18*
%TO.C,J1*%
X101802000Y-52098000D03*
D19*
X104342000Y-52098000D03*
X101802000Y-54638000D03*
X104342000Y-54638000D03*
X101802000Y-57178000D03*
X104342000Y-57178000D03*
X101802000Y-59718000D03*
X104342000Y-59718000D03*
X101802000Y-62258000D03*
X104342000Y-62258000D03*
X101802000Y-64798000D03*
X104342000Y-64798000D03*
X101802000Y-67338000D03*
X104342000Y-67338000D03*
X101802000Y-69878000D03*
X104342000Y-69878000D03*
X101802000Y-72418000D03*
X104342000Y-72418000D03*
X101802000Y-74958000D03*
X104342000Y-74958000D03*
X101802000Y-77498000D03*
X104342000Y-77498000D03*
X101802000Y-80038000D03*
X104342000Y-80038000D03*
X101802000Y-82578000D03*
X104342000Y-82578000D03*
X101802000Y-85118000D03*
X104342000Y-85118000D03*
X101802000Y-87658000D03*
X104342000Y-87658000D03*
X101802000Y-90198000D03*
X104342000Y-90198000D03*
X101802000Y-92738000D03*
X104342000Y-92738000D03*
X101802000Y-95278000D03*
X104342000Y-95278000D03*
X101802000Y-97818000D03*
X104342000Y-97818000D03*
X101802000Y-100358000D03*
X104342000Y-100358000D03*
%TD*%
D16*
%TO.C,J13*%
X119116000Y-46990000D03*
D17*
X116576000Y-46990000D03*
X114036000Y-46990000D03*
X111496000Y-46990000D03*
%TD*%
D20*
%TO.C,J8*%
X183642000Y-80010000D03*
D21*
X183642000Y-74930000D03*
%TD*%
D15*
%TO.C,REF\u002A\u002A*%
X191802000Y-47098000D03*
%TD*%
D16*
%TO.C,J22*%
X111506000Y-92456000D03*
D17*
X114046000Y-92456000D03*
X116586000Y-92456000D03*
X119126000Y-92456000D03*
%TD*%
D14*
%TO.C,R4*%
X138176000Y-66548000D03*
D13*
X128016000Y-66548000D03*
%TD*%
D16*
%TO.C,J21*%
X111506000Y-82550000D03*
D17*
X114046000Y-82550000D03*
X116586000Y-82550000D03*
X119126000Y-82550000D03*
%TD*%
D16*
%TO.C,J20*%
X111506000Y-71882000D03*
D17*
X114046000Y-71882000D03*
X116586000Y-71882000D03*
X119126000Y-71882000D03*
%TD*%
D15*
%TO.C,REF\u002A\u002A*%
X191802000Y-107098000D03*
%TD*%
D20*
%TO.C,J4*%
X178308000Y-68326000D03*
D21*
X178308000Y-63246000D03*
X178308000Y-58166000D03*
X178308000Y-53086000D03*
%TD*%
D16*
%TO.C,J14*%
X156464000Y-53340000D03*
D17*
X159004000Y-53340000D03*
%TD*%
D14*
%TO.C,C2*%
X163235000Y-46990000D03*
X165735000Y-46990000D03*
%TD*%
%TO.C,C1*%
X148884000Y-47244000D03*
X151384000Y-47244000D03*
%TD*%
D16*
%TO.C,J10*%
X93218000Y-55626000D03*
D17*
X93218000Y-58166000D03*
X93218000Y-60706000D03*
X93218000Y-63246000D03*
%TD*%
D16*
%TO.C,J9*%
X113665000Y-106426000D03*
D17*
X116205000Y-106426000D03*
X118745000Y-106426000D03*
X121285000Y-106426000D03*
X123825000Y-106426000D03*
X126365000Y-106426000D03*
X128905000Y-106426000D03*
X131445000Y-106426000D03*
X133985000Y-106426000D03*
X136525000Y-106426000D03*
X139065000Y-106426000D03*
X141605000Y-106426000D03*
X144145000Y-106426000D03*
X146685000Y-106426000D03*
X149225000Y-106426000D03*
X151765000Y-106426000D03*
X154305000Y-106426000D03*
X156845000Y-106426000D03*
X159385000Y-106426000D03*
X161925000Y-106426000D03*
%TD*%
D16*
%TO.C,J2*%
X124231000Y-52354000D03*
D17*
X124231000Y-54894000D03*
X124231000Y-57434000D03*
X124231000Y-59974000D03*
X124231000Y-62514000D03*
X124231000Y-65054000D03*
X124231000Y-67594000D03*
X124231000Y-70134000D03*
X124231000Y-72674000D03*
X124231000Y-75214000D03*
X124231000Y-77754000D03*
X124231000Y-80294000D03*
X124231000Y-82834000D03*
X124231000Y-85374000D03*
X124231000Y-87914000D03*
X124231000Y-90454000D03*
X124231000Y-92994000D03*
X124231000Y-95534000D03*
X124231000Y-98074000D03*
X124231000Y-100614000D03*
%TD*%
D14*
%TO.C,R1*%
X153670000Y-80010000D03*
D13*
X163830000Y-80010000D03*
%TD*%
D20*
%TO.C,J5*%
X178562000Y-101854000D03*
D21*
X178562000Y-96774000D03*
X178562000Y-91694000D03*
X178562000Y-86614000D03*
%TD*%
D14*
%TO.C,C3*%
X168910000Y-77470000D03*
X171410000Y-77470000D03*
%TD*%
D15*
%TO.C,REF\u002A\u002A*%
X91802000Y-47098000D03*
%TD*%
D16*
%TO.C,J12*%
X181356000Y-47498000D03*
D17*
X178816000Y-47498000D03*
X176276000Y-47498000D03*
X173736000Y-47498000D03*
%TD*%
D16*
%TO.C,J7*%
X189230000Y-64516000D03*
D17*
X189230000Y-61976000D03*
X189230000Y-59436000D03*
X189230000Y-56896000D03*
%TD*%
D14*
%TO.C,R3*%
X138176000Y-71628000D03*
D13*
X128016000Y-71628000D03*
%TD*%
D16*
%TO.C,J11*%
X93218000Y-76200000D03*
D17*
X93218000Y-78740000D03*
X93218000Y-81280000D03*
X93218000Y-83820000D03*
X93218000Y-86360000D03*
X93218000Y-88900000D03*
X93218000Y-91440000D03*
X93218000Y-93980000D03*
X93218000Y-96520000D03*
X93218000Y-99060000D03*
%TD*%
D22*
%TO.C,JP3*%
X97125000Y-69850000D03*
D23*
X98425000Y-69850000D03*
%TD*%
D22*
%TO.C,JP2*%
X97125000Y-67310000D03*
D23*
X98425000Y-67310000D03*
%TD*%
D22*
%TO.C,JP1*%
X97125000Y-64770000D03*
D23*
X98425000Y-64770000D03*
%TD*%
M02*
