%TF.GenerationSoftware,KiCad,Pcbnew,9.0.5*%
%TF.CreationDate,2026-02-28T09:01:39+00:00*%
%TF.ProjectId,Pilomar3_2025_12,50696c6f-6d61-4723-935f-323032355f31,rev?*%
%TF.SameCoordinates,Original*%
%TF.FileFunction,Legend,Bot*%
%TF.FilePolarity,Positive*%
%FSLAX46Y46*%
G04 Gerber Fmt 4.6, Leading zero omitted, Abs format (unit mm)*
G04 Created by KiCad (PCBNEW 9.0.5) date 2026-02-28 09:01:39*
%MOMM*%
%LPD*%
G01*
G04 APERTURE LIST*
%ADD10C,0.100000*%
%ADD11C,0.187500*%
%ADD12C,0.150000*%
%ADD13C,0.120000*%
G04 APERTURE END LIST*
D10*
X129667000Y-57107000D02*
X136525000Y-57107000D01*
X136525000Y-100965000D01*
X129667000Y-100965000D01*
X129667000Y-57107000D01*
G36*
X129667000Y-57107000D02*
G01*
X136525000Y-57107000D01*
X136525000Y-100965000D01*
X129667000Y-100965000D01*
X129667000Y-57107000D01*
G37*
D11*
X137847875Y-98677996D02*
X139847875Y-98677996D01*
X137847875Y-97725615D02*
X139847875Y-97725615D01*
X139847875Y-97725615D02*
X139847875Y-97249425D01*
X139847875Y-97249425D02*
X139752637Y-96963710D01*
X139752637Y-96963710D02*
X139562161Y-96773234D01*
X139562161Y-96773234D02*
X139371685Y-96677996D01*
X139371685Y-96677996D02*
X138990733Y-96582758D01*
X138990733Y-96582758D02*
X138705018Y-96582758D01*
X138705018Y-96582758D02*
X138324066Y-96677996D01*
X138324066Y-96677996D02*
X138133590Y-96773234D01*
X138133590Y-96773234D02*
X137943114Y-96963710D01*
X137943114Y-96963710D02*
X137847875Y-97249425D01*
X137847875Y-97249425D02*
X137847875Y-97725615D01*
X139943114Y-94297044D02*
X137371685Y-96011329D01*
X137943114Y-93725615D02*
X137847875Y-93439901D01*
X137847875Y-93439901D02*
X137847875Y-92963710D01*
X137847875Y-92963710D02*
X137943114Y-92773234D01*
X137943114Y-92773234D02*
X138038352Y-92677996D01*
X138038352Y-92677996D02*
X138228828Y-92582758D01*
X138228828Y-92582758D02*
X138419304Y-92582758D01*
X138419304Y-92582758D02*
X138609780Y-92677996D01*
X138609780Y-92677996D02*
X138705018Y-92773234D01*
X138705018Y-92773234D02*
X138800256Y-92963710D01*
X138800256Y-92963710D02*
X138895494Y-93344663D01*
X138895494Y-93344663D02*
X138990733Y-93535139D01*
X138990733Y-93535139D02*
X139085971Y-93630377D01*
X139085971Y-93630377D02*
X139276447Y-93725615D01*
X139276447Y-93725615D02*
X139466923Y-93725615D01*
X139466923Y-93725615D02*
X139657399Y-93630377D01*
X139657399Y-93630377D02*
X139752637Y-93535139D01*
X139752637Y-93535139D02*
X139847875Y-93344663D01*
X139847875Y-93344663D02*
X139847875Y-92868472D01*
X139847875Y-92868472D02*
X139752637Y-92582758D01*
X137943114Y-90963710D02*
X137847875Y-91154186D01*
X137847875Y-91154186D02*
X137847875Y-91535139D01*
X137847875Y-91535139D02*
X137943114Y-91725615D01*
X137943114Y-91725615D02*
X138133590Y-91820853D01*
X138133590Y-91820853D02*
X138895494Y-91820853D01*
X138895494Y-91820853D02*
X139085971Y-91725615D01*
X139085971Y-91725615D02*
X139181209Y-91535139D01*
X139181209Y-91535139D02*
X139181209Y-91154186D01*
X139181209Y-91154186D02*
X139085971Y-90963710D01*
X139085971Y-90963710D02*
X138895494Y-90868472D01*
X138895494Y-90868472D02*
X138705018Y-90868472D01*
X138705018Y-90868472D02*
X138514542Y-91820853D01*
X137847875Y-90011329D02*
X139181209Y-90011329D01*
X138800256Y-90011329D02*
X138990733Y-89916091D01*
X138990733Y-89916091D02*
X139085971Y-89820853D01*
X139085971Y-89820853D02*
X139181209Y-89630377D01*
X139181209Y-89630377D02*
X139181209Y-89439900D01*
X137847875Y-88773234D02*
X139181209Y-88773234D01*
X139847875Y-88773234D02*
X139752637Y-88868472D01*
X139752637Y-88868472D02*
X139657399Y-88773234D01*
X139657399Y-88773234D02*
X139752637Y-88677996D01*
X139752637Y-88677996D02*
X139847875Y-88773234D01*
X139847875Y-88773234D02*
X139657399Y-88773234D01*
X137847875Y-86963710D02*
X138895494Y-86963710D01*
X138895494Y-86963710D02*
X139085971Y-87058948D01*
X139085971Y-87058948D02*
X139181209Y-87249424D01*
X139181209Y-87249424D02*
X139181209Y-87630377D01*
X139181209Y-87630377D02*
X139085971Y-87820853D01*
X137943114Y-86963710D02*
X137847875Y-87154186D01*
X137847875Y-87154186D02*
X137847875Y-87630377D01*
X137847875Y-87630377D02*
X137943114Y-87820853D01*
X137943114Y-87820853D02*
X138133590Y-87916091D01*
X138133590Y-87916091D02*
X138324066Y-87916091D01*
X138324066Y-87916091D02*
X138514542Y-87820853D01*
X138514542Y-87820853D02*
X138609780Y-87630377D01*
X138609780Y-87630377D02*
X138609780Y-87154186D01*
X138609780Y-87154186D02*
X138705018Y-86963710D01*
X137847875Y-85725615D02*
X137943114Y-85916091D01*
X137943114Y-85916091D02*
X138133590Y-86011329D01*
X138133590Y-86011329D02*
X139847875Y-86011329D01*
X138038352Y-84963710D02*
X137943114Y-84868472D01*
X137943114Y-84868472D02*
X137847875Y-84963710D01*
X137847875Y-84963710D02*
X137943114Y-85058948D01*
X137943114Y-85058948D02*
X138038352Y-84963710D01*
X138038352Y-84963710D02*
X137847875Y-84963710D01*
X139085971Y-84963710D02*
X138990733Y-84868472D01*
X138990733Y-84868472D02*
X138895494Y-84963710D01*
X138895494Y-84963710D02*
X138990733Y-85058948D01*
X138990733Y-85058948D02*
X139085971Y-84963710D01*
X139085971Y-84963710D02*
X138895494Y-84963710D01*
D12*
X95448333Y-69304819D02*
X95448333Y-70019104D01*
X95448333Y-70019104D02*
X95495952Y-70161961D01*
X95495952Y-70161961D02*
X95591190Y-70257200D01*
X95591190Y-70257200D02*
X95734047Y-70304819D01*
X95734047Y-70304819D02*
X95829285Y-70304819D01*
X94972142Y-70304819D02*
X94972142Y-69304819D01*
X94972142Y-69304819D02*
X94591190Y-69304819D01*
X94591190Y-69304819D02*
X94495952Y-69352438D01*
X94495952Y-69352438D02*
X94448333Y-69400057D01*
X94448333Y-69400057D02*
X94400714Y-69495295D01*
X94400714Y-69495295D02*
X94400714Y-69638152D01*
X94400714Y-69638152D02*
X94448333Y-69733390D01*
X94448333Y-69733390D02*
X94495952Y-69781009D01*
X94495952Y-69781009D02*
X94591190Y-69828628D01*
X94591190Y-69828628D02*
X94972142Y-69828628D01*
X94067380Y-69304819D02*
X93448333Y-69304819D01*
X93448333Y-69304819D02*
X93781666Y-69685771D01*
X93781666Y-69685771D02*
X93638809Y-69685771D01*
X93638809Y-69685771D02*
X93543571Y-69733390D01*
X93543571Y-69733390D02*
X93495952Y-69781009D01*
X93495952Y-69781009D02*
X93448333Y-69876247D01*
X93448333Y-69876247D02*
X93448333Y-70114342D01*
X93448333Y-70114342D02*
X93495952Y-70209580D01*
X93495952Y-70209580D02*
X93543571Y-70257200D01*
X93543571Y-70257200D02*
X93638809Y-70304819D01*
X93638809Y-70304819D02*
X93924523Y-70304819D01*
X93924523Y-70304819D02*
X94019761Y-70257200D01*
X94019761Y-70257200D02*
X94067380Y-70209580D01*
X95448333Y-66764819D02*
X95448333Y-67479104D01*
X95448333Y-67479104D02*
X95495952Y-67621961D01*
X95495952Y-67621961D02*
X95591190Y-67717200D01*
X95591190Y-67717200D02*
X95734047Y-67764819D01*
X95734047Y-67764819D02*
X95829285Y-67764819D01*
X94972142Y-67764819D02*
X94972142Y-66764819D01*
X94972142Y-66764819D02*
X94591190Y-66764819D01*
X94591190Y-66764819D02*
X94495952Y-66812438D01*
X94495952Y-66812438D02*
X94448333Y-66860057D01*
X94448333Y-66860057D02*
X94400714Y-66955295D01*
X94400714Y-66955295D02*
X94400714Y-67098152D01*
X94400714Y-67098152D02*
X94448333Y-67193390D01*
X94448333Y-67193390D02*
X94495952Y-67241009D01*
X94495952Y-67241009D02*
X94591190Y-67288628D01*
X94591190Y-67288628D02*
X94972142Y-67288628D01*
X94019761Y-66860057D02*
X93972142Y-66812438D01*
X93972142Y-66812438D02*
X93876904Y-66764819D01*
X93876904Y-66764819D02*
X93638809Y-66764819D01*
X93638809Y-66764819D02*
X93543571Y-66812438D01*
X93543571Y-66812438D02*
X93495952Y-66860057D01*
X93495952Y-66860057D02*
X93448333Y-66955295D01*
X93448333Y-66955295D02*
X93448333Y-67050533D01*
X93448333Y-67050533D02*
X93495952Y-67193390D01*
X93495952Y-67193390D02*
X94067380Y-67764819D01*
X94067380Y-67764819D02*
X93448333Y-67764819D01*
X98623333Y-61684819D02*
X98623333Y-62399104D01*
X98623333Y-62399104D02*
X98670952Y-62541961D01*
X98670952Y-62541961D02*
X98766190Y-62637200D01*
X98766190Y-62637200D02*
X98909047Y-62684819D01*
X98909047Y-62684819D02*
X99004285Y-62684819D01*
X98147142Y-62684819D02*
X98147142Y-61684819D01*
X98147142Y-61684819D02*
X97766190Y-61684819D01*
X97766190Y-61684819D02*
X97670952Y-61732438D01*
X97670952Y-61732438D02*
X97623333Y-61780057D01*
X97623333Y-61780057D02*
X97575714Y-61875295D01*
X97575714Y-61875295D02*
X97575714Y-62018152D01*
X97575714Y-62018152D02*
X97623333Y-62113390D01*
X97623333Y-62113390D02*
X97670952Y-62161009D01*
X97670952Y-62161009D02*
X97766190Y-62208628D01*
X97766190Y-62208628D02*
X98147142Y-62208628D01*
X96623333Y-62684819D02*
X97194761Y-62684819D01*
X96909047Y-62684819D02*
X96909047Y-61684819D01*
X96909047Y-61684819D02*
X97004285Y-61827676D01*
X97004285Y-61827676D02*
X97099523Y-61922914D01*
X97099523Y-61922914D02*
X97194761Y-61970533D01*
D13*
%TO.C,JP3*%
X96375000Y-69550000D02*
X96375000Y-70150000D01*
X97075000Y-70850000D02*
X98475000Y-70850000D01*
X98475000Y-68850000D02*
X97075000Y-68850000D01*
X99175000Y-70150000D02*
X99175000Y-69550000D01*
X96375000Y-69550000D02*
G75*
G02*
X97075000Y-68850000I699999J1D01*
G01*
X97075000Y-70850000D02*
G75*
G02*
X96375000Y-70150000I-1J699999D01*
G01*
X98475000Y-68850000D02*
G75*
G02*
X99175000Y-69550000I0J-700000D01*
G01*
X99175000Y-70150000D02*
G75*
G02*
X98475000Y-70850000I-700000J0D01*
G01*
%TO.C,JP2*%
X96375000Y-67010000D02*
X96375000Y-67610000D01*
X97075000Y-68310000D02*
X98475000Y-68310000D01*
X98475000Y-66310000D02*
X97075000Y-66310000D01*
X99175000Y-67610000D02*
X99175000Y-67010000D01*
X96375000Y-67010000D02*
G75*
G02*
X97075000Y-66310000I699999J1D01*
G01*
X97075000Y-68310000D02*
G75*
G02*
X96375000Y-67610000I-1J699999D01*
G01*
X98475000Y-66310000D02*
G75*
G02*
X99175000Y-67010000I0J-700000D01*
G01*
X99175000Y-67610000D02*
G75*
G02*
X98475000Y-68310000I-700000J0D01*
G01*
%TO.C,JP1*%
X96375000Y-64470000D02*
X96375000Y-65070000D01*
X97075000Y-65770000D02*
X98475000Y-65770000D01*
X98475000Y-63770000D02*
X97075000Y-63770000D01*
X99175000Y-65070000D02*
X99175000Y-64470000D01*
X96375000Y-64470000D02*
G75*
G02*
X97075000Y-63770000I699999J1D01*
G01*
X97075000Y-65770000D02*
G75*
G02*
X96375000Y-65070000I-1J699999D01*
G01*
X98475000Y-63770000D02*
G75*
G02*
X99175000Y-64470000I0J-700000D01*
G01*
X99175000Y-65070000D02*
G75*
G02*
X98475000Y-65770000I-700000J0D01*
G01*
%TD*%
M02*
